<svg xmlns="http://www.w3.org/2000/svg" width="1750.296" height="258.300" viewBox="0 0 1750.296 258.300" fill="none">
  <path d="M 864.061 56.1 C 903.661 56.1 929.461 86.4 929.461 132.9 C 929.461 178.5 903.661 208.8 864.961 208.8 C 840.661 208.8 822.961 198 813.661 177.6 L 813.661 258.3 L 795.961 258.3 L 795.961 60.3 L 812.461 60.3 L 812.461 87.9 C 823.861 66.3 840.061 56.1 864.061 56.1 Z M 1024.607 56.1 C 1064.207 56.1 1090.008 86.4 1090.008 132.9 C 1090.008 178.5 1064.208 208.8 1025.508 208.8 C 1001.208 208.8 983.508 198 974.208 177.6 L 974.208 258.3 L 956.508 258.3 L 956.508 60.3 L 973.008 60.3 L 973.008 87.9 C 984.408 66.3 1000.608 56.1 1024.607 56.1 Z M 264.213 0 C 309.213 0 335.013 22.2 336.813 62.1 L 318.514 62.1 C 316.714 41.1 309.513 29.7 293.913 22.2 C 280.713 15.6 259.113 13.8 243.213 18 C 224.013 22.8 212.913 36 212.913 54 C 212.913 64.8 217.413 73.8 225.213 78.6 C 233.313 83.4 241.713 86.1 266.913 92.1 C 299.313 99.3 309.213 102.6 319.413 108.6 C 335.313 117.9 343.113 131.7 343.113 150 C 343.113 168.6 335.313 184.2 320.313 195.3 C 307.414 204.9 291.213 209.1 267.813 209.1 C 218.314 209.1 188.014 183.3 188.014 140.4 L 188.014 138.3 L 206.313 138.3 C 206.913 155.4 210.214 165.3 218.014 174.3 C 228.814 186.6 246.514 193.2 269.313 193.2 C 303.813 193.2 324.813 177.6 324.813 151.8 C 324.813 137.1 317.313 126.6 301.413 120.3 C 292.713 116.4 284.613 114.3 257.313 108 C 230.613 101.7 221.613 98.4 211.713 91.8 C 200.613 84 194.314 70.8 194.313 55.2 C 194.313 21 221.013 0 264.213 0 Z M 530.213 0 C 557.513 0 578.512 8.7 594.412 26.4 C 604.312 37.5 610.612 50.7 612.112 64.5 L 593.213 64.5 C 586.613 34.5 562.912 16.5 529.612 16.5 C 504.112 16.5 485.513 26.1 472.013 46.5 C 461.513 62.1 455.813 82.5 455.813 104.7 C 455.813 158.1 484.613 192.6 529.013 192.6 C 566.813 192.6 590.812 169.5 595.612 128.1 L 614.513 128.1 C 610.313 177.6 576.712 209.1 528.412 209.1 C 472.912 209.099 436.912 168 436.912 105 C 436.912 73.5 445.912 47.7 463.912 27.6 C 481.012 9 502.613 0 530.213 0 Z M 701.322 56.1 C 742.122 56.1 768.522 86.4 768.522 132.9 C 768.522 179.4 742.123 208.8 700.423 208.8 C 658.723 208.8 631.723 179.1 631.723 132.6 C 631.723 85.8 658.723 56.1 701.322 56.1 Z M 1175.555 56.1 C 1200.755 56.1 1221.755 70.2 1231.955 93.9 C 1237.055 105.6 1239.154 118.2 1239.154 136.8 L 1127.255 136.8 C 1128.155 173.7 1145.555 194.099 1176.154 194.1 C 1199.554 194.1 1214.555 181.5 1220.555 156.9 L 1237.354 156.9 C 1230.754 190.2 1208.854 208.8 1175.854 208.8 C 1135.655 208.8 1109.555 179.4 1109.555 134.1 C 1109.555 88.2 1136.855 56.1 1175.555 56.1 Z M 1463.543 56.1 C 1488.743 56.1 1509.743 70.2 1519.943 93.9 C 1525.043 105.6 1527.143 118.2 1527.143 136.8 L 1415.243 136.8 C 1416.143 173.7 1433.543 194.099 1464.143 194.1 C 1487.542 194.1 1502.543 181.5 1508.543 156.9 L 1525.343 156.9 C 1518.743 190.2 1496.843 208.8 1463.843 208.8 C 1423.643 208.8 1397.543 179.4 1397.543 134.1 C 1397.543 88.2 1424.843 56.1 1463.543 56.1 Z M 1607.285 56.1 C 1625.885 56.1 1642.085 61.5 1651.385 70.8 C 1658.285 78.3 1660.385 85.5 1660.085 106.2 L 1660.085 170.7 C 1660.085 188.4 1661.285 191.1 1669.985 191.1 C 1671.485 191.1 1673.285 190.8 1676.585 189.9 L 1676.585 203.7 C 1671.785 205.2 1667.885 205.8 1662.485 205.8 C 1648.685 205.8 1643.885 198.9 1643.885 179.4 C 1630.685 199.8 1614.185 208.8 1589.285 208.8 C 1559.885 208.8 1542.186 193.5 1542.186 167.7 C 1542.186 148.8 1551.786 135.3 1570.686 128.4 C 1580.885 124.5 1582.086 124.5 1620.186 120.6 C 1637.585 118.8 1642.985 114.6 1642.985 102.3 C 1642.985 80.1 1631.585 70.8 1605.186 70.8 C 1579.986 70.8 1568.285 81 1565.885 104.7 L 1548.785 104.7 C 1550.285 73.5 1571.285 56.1 1607.285 56.1 Z M 18.9 204.6 L 0 204.6 L 0 4.5 L 18.9 4.5 L 18.9 204.6 Z M 184.636 21 L 75.736 21 L 75.736 92.7 L 172.636 92.7 L 172.636 109.2 L 75.736 109.2 L 75.736 204.6 L 56.836 204.6 L 56.836 4.5 L 184.636 4.5 L 184.636 21 Z M 1281.797 94.8 C 1292.597 69.3 1309.997 57.6 1336.997 58.2 L 1336.997 75.9 L 1332.497 75.9 C 1317.497 75.9 1304.597 81.6 1295.597 91.8 C 1285.697 103.5 1282.997 115.2 1282.997 145.5 L 1282.997 204.6 L 1265.297 204.6 L 1265.297 60.3 L 1281.797 60.3 L 1281.797 94.8 Z M 1370.588 204.6 L 1352.888 204.6 L 1352.888 4.5 L 1370.588 4.5 L 1370.588 204.6 Z M 1736.496 3 C 1740.396 3 1744.596 3.3 1750.296 4.2 L 1750.296 19.2 C 1744.596 18.3 1741.296 18 1738.596 18 C 1729.296 18 1722.696 20.7 1719.996 26.1 C 1718.196 29.7 1717.596 34.5 1717.596 45.9 L 1717.596 60.3 L 1746.696 60.3 L 1746.696 75 L 1717.596 75 L 1717.596 204.6 L 1699.896 204.6 L 1699.896 75 L 1675.296 75 L 1675.296 60.3 L 1699.896 60.3 L 1699.896 48 C 1699.896 29.7 1701.096 23.4 1705.296 16.8 C 1711.596 7.5 1721.496 3 1736.496 3 Z M 1642.985 125.7 C 1637.285 130.8 1633.085 132 1603.085 135.9 C 1587.185 138 1576.685 141.3 1570.085 145.8 C 1564.085 150 1559.885 158.1 1559.885 166.2 C 1559.885 183 1573.385 194.4 1593.785 194.4 C 1622.285 194.4 1642.985 175.5 1642.985 149.4 L 1642.985 125.7 Z M 701.022 70.8 C 669.523 70.8 649.723 94.5 649.723 132.6 C 649.723 170.4 669.223 194.1 700.723 194.1 C 731.323 194.1 750.822 170.1 750.822 132.6 C 750.822 95.4 731.022 70.8 701.022 70.8 Z M 862.861 70.8 C 831.361 70.8 813.061 93.6 813.061 132.9 C 813.061 170.7 831.961 194.1 862.861 194.1 C 892.261 194.099 911.761 169.8 911.761 132.9 C 911.761 95.401 892.261 70.8 862.861 70.8 Z M 1023.408 70.8 C 991.908 70.8 973.607 93.6 973.607 132.9 C 973.608 170.7 992.508 194.1 1023.408 194.1 C 1052.808 194.099 1072.307 169.8 1072.308 132.9 C 1072.308 95.401 1052.808 70.8 1023.408 70.8 Z M 1174.955 70.8 C 1147.955 70.8 1131.455 88.8 1127.555 122.1 L 1221.154 122.1 C 1219.654 90.3 1201.955 70.8 1174.955 70.8 Z M 1462.943 70.8 C 1435.943 70.8 1419.443 88.8 1415.543 122.1 L 1509.143 122.1 C 1507.642 90.3 1489.943 70.8 1462.943 70.8 Z" fill="currentColor" fill-rule="nonzero"></path>
</svg>