<svg xmlns="http://www.w3.org/2000/svg" width="16" height="16" viewBox="475.98 4892.56 22.00 22.00" fill="none"><g xmlns="http://www.w3.org/2000/svg" id="ai-search">

<g id="Property 1=Default_2">
<g id="Vector_50">
<path d="M477.228 4902.75C477.228 4901.74 477.428 4900.73 477.818 4899.79C478.207 4898.85 478.778 4897.99 479.498 4897.27C480.217 4896.55 481.072 4895.98 482.012 4895.59C482.395 4895.43 482.833 4895.62 482.992 4896C483.15 4896.38 482.969 4896.82 482.586 4896.98C481.828 4897.29 481.139 4897.75 480.559 4898.33C479.979 4898.91 479.518 4899.6 479.204 4900.36C478.89 4901.12 478.728 4901.93 478.728 4902.75C478.728 4903.57 478.89 4904.39 479.204 4905.15C479.518 4905.9 479.979 4906.59 480.559 4907.17C481.139 4907.75 481.828 4908.21 482.586 4908.53C483.345 4908.84 484.157 4909 484.978 4909C485.799 4909 486.611 4908.84 487.37 4908.53C488.128 4908.21 488.817 4907.75 489.397 4907.17C489.977 4906.59 490.438 4905.9 490.752 4905.15C490.911 4904.76 491.349 4904.58 491.732 4904.74C492.115 4904.9 492.296 4905.34 492.138 4905.72C491.845 4906.43 491.448 4907.09 490.962 4907.68L496.508 4913.22C496.801 4913.52 496.801 4913.99 496.508 4914.28C496.215 4914.58 495.741 4914.58 495.448 4914.28L489.902 4908.74C489.312 4909.22 488.652 4909.62 487.944 4909.91C487.004 4910.3 485.996 4910.5 484.978 4910.5C483.96 4910.5 482.953 4910.3 482.012 4909.91C481.072 4909.52 480.217 4908.95 479.498 4908.23C478.778 4907.51 478.207 4906.66 477.818 4905.72C477.429 4904.78 477.228 4903.77 477.228 4902.75Z" fill="white" />
<path d="M490.428 4895.25C490.428 4896.71 489.245 4897.89 487.786 4897.89C486.326 4897.89 485.143 4896.71 485.143 4895.25C485.143 4893.79 486.326 4892.61 487.786 4892.61C489.245 4892.61 490.428 4893.79 490.428 4895.25Z" fill="white" />
<path d="M496.241 4895.25C496.241 4896.42 495.295 4897.36 494.127 4897.36C492.96 4897.36 492.013 4896.42 492.013 4895.25C492.013 4894.08 492.96 4893.14 494.127 4893.14C495.295 4893.14 496.241 4894.08 496.241 4895.25Z" fill="white" fill-opacity="0.5" />
<path d="M489.899 4901.59C489.899 4902.76 488.953 4903.71 487.786 4903.71C486.618 4903.71 485.672 4902.76 485.672 4901.59C485.672 4900.42 486.618 4899.48 487.786 4899.48C488.953 4899.48 489.899 4900.42 489.899 4901.59Z" fill="white" fill-opacity="0.2" />
<path d="M495.713 4901.59C495.713 4902.47 495.003 4903.18 494.127 4903.18C493.252 4903.18 492.542 4902.47 492.542 4901.59C492.542 4900.72 493.252 4900.01 494.127 4900.01C495.003 4900.01 495.713 4900.72 495.713 4901.59Z" fill="white" />
</g>
</g>
</g>
</svg>