<svg xmlns="http://www.w3.org/2000/svg" width="16" height="16" viewBox="1299.67 4454.22 16.00 16.00" fill="none"><g xmlns="http://www.w3.org/2000/svg" id="arrow-caret-right-filled">
<path id="union_116" d="M1303.67 4456.22C1303.67 4455.37 1304.65 4454.93 1305.29 4455.44L1305.37 4455.52L1311.37 4461.52C1311.55 4461.69 1311.65 4461.92 1311.66 4462.16C1311.68 4462.4 1311.61 4462.64 1311.46 4462.84L1311.37 4462.93L1305.37 4468.93L1305.28 4469.01L1305.2 4469.07L1305.11 4469.12L1305.07 4469.14L1305 4469.16L1304.9 4469.2L1304.84 4469.21L1304.78 4469.22L1304.73 4469.22L1304.67 4469.22L1304.61 4469.22L1304.55 4469.22L1304.49 4469.21L1304.44 4469.2L1304.33 4469.16L1304.26 4469.14L1304.13 4469.07L1304.04 4469L1303.96 4468.93L1303.88 4468.84L1303.82 4468.76L1303.77 4468.66L1303.75 4468.63L1303.72 4468.56L1303.69 4468.45L1303.68 4468.4L1303.67 4468.34L1303.67 4468.28L1303.67 4456.22Z" fill="currentColor" />
</g>
</svg>