<svg xmlns="http://www.w3.org/2000/svg" width="16" height="16" viewBox="453.22 893.22 18.00 18.00" fill="none"><g xmlns="http://www.w3.org/2000/svg" id="arrow-refresh">
<path id="Union" d="M469.472 909.222V907.212C468.739 908.25 467.787 909.127 466.672 909.77C464.992 910.741 463.038 911.133 461.113 910.885C459.188 910.636 457.397 909.761 456.018 908.395C454.639 907.029 453.746 905.248 453.479 903.325C453.422 902.915 453.709 902.536 454.119 902.479C454.529 902.422 454.908 902.709 454.965 903.119C455.187 904.716 455.928 906.196 457.074 907.33C458.219 908.464 459.706 909.191 461.304 909.397C462.903 909.604 464.526 909.278 465.921 908.472C466.978 907.861 467.86 907 468.496 905.972H466.222C465.808 905.972 465.472 905.637 465.472 905.222C465.472 904.808 465.808 904.472 466.222 904.472H470.222C470.636 904.472 470.972 904.808 470.972 905.222V909.222C470.972 909.637 470.636 909.972 470.222 909.972C469.808 909.972 469.472 909.637 469.472 909.222ZM457.772 894.674C459.453 893.703 461.406 893.312 463.332 893.56C465.257 893.809 467.047 894.683 468.426 896.049C469.806 897.415 470.698 899.196 470.965 901.119C471.022 901.529 470.736 901.908 470.326 901.965C469.915 902.022 469.536 901.735 469.479 901.325C469.257 899.728 468.516 898.249 467.371 897.115C466.225 895.981 464.739 895.254 463.14 895.048C461.541 894.841 459.919 895.166 458.523 895.972C457.466 896.583 456.583 897.444 455.948 898.472H458.222C458.636 898.472 458.972 898.808 458.972 899.222C458.972 899.637 458.636 899.972 458.222 899.972H454.222C453.808 899.972 453.472 899.637 453.472 899.222V895.222C453.472 894.808 453.808 894.472 454.222 894.472C454.636 894.472 454.972 894.808 454.972 895.222V897.232C455.706 896.194 456.658 895.317 457.772 894.674Z" fill="currentColor" />
</g>
</svg>