<svg xmlns="http://www.w3.org/2000/svg" width="16" height="16" viewBox="623.11 894.22 16.00 16.00" fill="none"><g xmlns="http://www.w3.org/2000/svg" id="arrow-selector">
<path id="Union_2" d="M634.581 904.692C634.874 904.399 635.348 904.399 635.641 904.692C635.934 904.985 635.934 905.46 635.641 905.752L631.641 909.752C631.348 910.045 630.874 910.045 630.581 909.752L626.581 905.752C626.288 905.46 626.288 904.985 626.581 904.692C626.874 904.399 627.348 904.399 627.641 904.692L631.111 908.162L634.581 904.692ZM630.637 894.64C630.932 894.4 631.367 894.417 631.641 894.692L635.641 898.692C635.934 898.985 635.934 899.46 635.641 899.752C635.348 900.045 634.874 900.045 634.581 899.752L631.111 896.283L627.641 899.752C627.348 900.045 626.874 900.045 626.581 899.752C626.288 899.46 626.288 898.985 626.581 898.692L630.581 894.692L630.637 894.64Z" fill="currentColor" />
</g>
</svg>