<svg xmlns="http://www.w3.org/2000/svg" width="16" height="16" viewBox="1128.78 4454.22 16.00 16.00" fill="none"><g xmlns="http://www.w3.org/2000/svg" id="arrow-caret-left-filled">
<path id="union_115" d="M1139.66 4455.23L1139.72 4455.22H1139.84L1139.89 4455.23L1139.95 4455.24L1140.01 4455.25L1140.11 4455.28L1140.18 4455.31L1140.31 4455.38L1140.4 4455.44L1140.48 4455.52L1140.57 4455.61L1140.62 4455.69L1140.68 4455.78L1140.69 4455.82L1140.72 4455.89L1140.75 4455.99L1140.76 4456.05L1140.77 4456.11L1140.78 4456.16L1140.78 4456.22V4468.22C1140.78 4469.07 1139.79 4469.52 1139.15 4469.01L1139.07 4468.93L1133.07 4462.93C1132.9 4462.76 1132.8 4462.53 1132.78 4462.28C1132.76 4462.04 1132.84 4461.8 1132.99 4461.61L1133.07 4461.52L1139.07 4455.52L1139.16 4455.43L1139.24 4455.38L1139.34 4455.32L1139.37 4455.31L1139.44 4455.28L1139.55 4455.25L1139.6 4455.24L1139.66 4455.23L1139.66 4455.23Z" fill="currentColor" />
</g>
</svg>