<svg xmlns="http://www.w3.org/2000/svg" width="16" height="16" viewBox="792.00 4455.22 16.00 16.00" fill="none"><g xmlns="http://www.w3.org/2000/svg" id="arrow-caret-down-filled">
<path id="union_113" d="M806 4459.22C806.852 4459.22 807.297 4460.21 806.783 4460.85L806.707 4460.93L800.707 4466.93C800.535 4467.1 800.306 4467.2 800.063 4467.22C799.82 4467.24 799.579 4467.16 799.387 4467.01L799.293 4466.93L793.293 4460.93L793.21 4460.84L793.156 4460.76L793.102 4460.66L793.085 4460.63L793.058 4460.56L793.026 4460.45L793.016 4460.4L793.006 4460.34L793.002 4460.28V4460.16L793.007 4460.11L793.016 4460.05L793.026 4459.99L793.058 4459.89L793.085 4459.82L793.155 4459.69L793.22 4459.6L793.293 4459.52L793.387 4459.43L793.464 4459.38L793.56 4459.32L793.596 4459.31L793.663 4459.28L793.771 4459.25L793.824 4459.24L793.884 4459.23L793.941 4459.22L806 4459.22Z" fill="currentColor" />
</g>
</svg>