<svg xmlns="http://www.w3.org/2000/svg" width="16" height="16" viewBox="958.00 891.22 22.00 22.00" fill="none"><g xmlns="http://www.w3.org/2000/svg" id="arrow-horizontal-collapse">
<path id="union_20" d="M958 902.222C958 901.808 958.336 901.472 958.75 901.472H965.425L963.876 899.924C963.584 899.631 963.584 899.156 963.876 898.863C964.169 898.571 964.644 898.571 964.937 898.863L967.766 901.692C968.058 901.985 968.058 902.46 967.766 902.753L964.937 905.581C964.644 905.874 964.169 905.874 963.876 905.581C963.584 905.288 963.584 904.813 963.876 904.52L965.425 902.972H958.75C958.336 902.972 958 902.636 958 902.222ZM973.063 905.581L970.235 902.753C969.942 902.46 969.942 901.985 970.235 901.692L973.063 898.863C973.356 898.571 973.831 898.571 974.124 898.863C974.416 899.156 974.416 899.631 974.124 899.924L972.575 901.472H979.25C979.664 901.472 980 901.808 980 902.222C980 902.636 979.664 902.972 979.25 902.972H972.575L974.124 904.52C974.416 904.813 974.416 905.288 974.124 905.581C973.831 905.874 973.356 905.874 973.063 905.581Z" fill="currentColor" />
</g>
</svg>