<svg xmlns="http://www.w3.org/2000/svg" width="16" height="16" viewBox="1297.67 555.44 18.00 18.00" fill="none"><g xmlns="http://www.w3.org/2000/svg" id="arrow-bar-right">
<path id="union_8" d="M1297.92 572.444V556.444C1297.92 556.03 1298.25 555.694 1298.67 555.694C1299.08 555.694 1299.42 556.03 1299.42 556.444V572.444C1299.42 572.859 1299.08 573.194 1298.67 573.194C1298.25 573.194 1297.92 572.859 1297.92 572.444ZM1310.14 559.914C1310.43 559.621 1310.9 559.621 1311.2 559.914L1315.2 563.914C1315.49 564.207 1315.49 564.682 1315.2 564.975L1311.2 568.975C1310.9 569.268 1310.43 569.268 1310.14 568.975C1309.84 568.682 1309.84 568.207 1310.14 567.914L1312.86 565.194H1304.67C1304.25 565.194 1303.92 564.859 1303.92 564.444C1303.92 564.03 1304.25 563.694 1304.67 563.694H1312.86L1310.14 560.975C1309.84 560.682 1309.84 560.207 1310.14 559.914Z" fill="currentColor" />
</g>
</svg>