<svg xmlns="http://www.w3.org/2000/svg" width="16" height="16" viewBox="1296.67 723.33 20.00 20.00" fill="none"><g xmlns="http://www.w3.org/2000/svg" id="arrow-sort">
<path id="union_17" d="M1300.92 740.333V728.144L1298.2 730.864C1297.9 731.157 1297.43 731.157 1297.14 730.864C1296.84 730.571 1296.84 730.096 1297.14 729.803L1301.14 725.803L1301.19 725.751C1301.49 725.511 1301.92 725.528 1302.2 725.803L1306.2 729.803C1306.49 730.096 1306.49 730.571 1306.2 730.864C1305.9 731.157 1305.43 731.157 1305.14 730.864L1302.42 728.144V740.333C1302.42 740.748 1302.08 741.083 1301.67 741.083C1301.25 741.083 1300.92 740.748 1300.92 740.333ZM1310.92 726.333C1310.92 725.919 1311.25 725.583 1311.67 725.583C1312.08 725.583 1312.42 725.919 1312.42 726.333V738.523L1315.14 735.803C1315.43 735.51 1315.9 735.51 1316.2 735.803C1316.49 736.096 1316.49 736.571 1316.2 736.864L1312.2 740.864C1311.9 741.157 1311.43 741.157 1311.14 740.864L1307.14 736.864C1306.84 736.571 1306.84 736.096 1307.14 735.803C1307.43 735.51 1307.9 735.51 1308.2 735.803L1310.92 738.523V726.333Z" fill="currentColor" />
</g>
</svg>