<svg xmlns="http://www.w3.org/2000/svg" width="16" height="16" viewBox="958.89 555.44 19.00 19.00" fill="none"><g xmlns="http://www.w3.org/2000/svg" id="arrow-window-maximize">
<path id="union_6" d="M964.139 569.444C964.139 569.378 964.113 569.315 964.066 569.268C964.019 569.221 963.955 569.194 963.889 569.194H960.889C960.823 569.194 960.759 569.221 960.712 569.268C960.665 569.315 960.639 569.378 960.639 569.444V572.444C960.639 572.511 960.665 572.574 960.712 572.621C960.759 572.668 960.823 572.694 960.889 572.694H963.889C963.955 572.694 964.019 572.668 964.066 572.621C964.113 572.574 964.139 572.511 964.139 572.444V569.444ZM976.139 570.444V558.444C976.139 558.113 976.007 557.795 975.773 557.561C975.538 557.326 975.22 557.194 974.889 557.194H962.889C962.557 557.194 962.24 557.326 962.005 557.561C961.771 557.795 961.639 558.113 961.639 558.444V564.444C961.639 564.859 961.303 565.194 960.889 565.194C960.475 565.194 960.139 564.859 960.139 564.444V558.444C960.139 557.715 960.429 557.016 960.945 556.5C961.46 555.984 962.16 555.694 962.889 555.694H974.889C975.618 555.694 976.318 555.984 976.833 556.5C977.349 557.016 977.639 557.715 977.639 558.444V570.444C977.639 571.174 977.349 571.873 976.833 572.389C976.318 572.905 975.618 573.194 974.889 573.194H968.889C968.475 573.194 968.139 572.859 968.139 572.444C968.139 572.03 968.475 571.694 968.889 571.694H974.889C975.22 571.694 975.538 571.563 975.773 571.328C976.007 571.094 976.139 570.776 976.139 570.444ZM965.639 572.444C965.639 572.909 965.454 573.354 965.126 573.682C964.798 574.01 964.353 574.194 963.889 574.194H960.889C960.425 574.194 959.98 574.01 959.652 573.682C959.323 573.354 959.139 572.909 959.139 572.444V569.444C959.139 568.98 959.323 568.535 959.652 568.207C959.98 567.879 960.425 567.694 960.889 567.694H963.889C964.353 567.694 964.798 567.879 965.126 568.207C965.454 568.535 965.639 568.98 965.639 569.444V572.444ZM973.639 564.444C973.639 564.859 973.303 565.194 972.889 565.194C972.475 565.194 972.139 564.859 972.139 564.444V562.255L968.419 565.975C968.126 566.268 967.652 566.268 967.359 565.975C967.066 565.682 967.066 565.207 967.359 564.914L971.078 561.194H968.889C968.475 561.194 968.139 560.859 968.139 560.444C968.139 560.03 968.475 559.694 968.889 559.694H972.889C973.303 559.694 973.639 560.03 973.639 560.444V564.444Z" fill="currentColor" />
</g>
</svg>