<svg xmlns="http://www.w3.org/2000/svg" width="16" height="16" viewBox="960.89 4453.22 16.00 16.00" fill="none"><g xmlns="http://www.w3.org/2000/svg" id="arrow-caret-up-filled">
<path id="union_114" d="M968.182 4457.52C968.354 4457.34 968.583 4457.24 968.826 4457.22C969.069 4457.21 969.31 4457.28 969.502 4457.43L969.596 4457.52L975.596 4463.52L975.679 4463.61L975.733 4463.69L975.787 4463.78L975.804 4463.82L975.831 4463.89L975.863 4463.99L975.873 4464.05L975.883 4464.11L975.887 4464.16L975.889 4464.22L975.887 4464.28L975.882 4464.34L975.873 4464.4L975.863 4464.45L975.831 4464.56L975.804 4464.63L975.734 4464.76L975.669 4464.85L975.596 4464.93L975.502 4465.01L975.425 4465.07L975.329 4465.12L975.293 4465.14L975.226 4465.16L975.118 4465.2L975.065 4465.21L975.005 4465.22L974.948 4465.22L974.889 4465.22H962.889C962.037 4465.22 961.592 4464.24 962.106 4463.6L962.182 4463.52L968.182 4457.52Z" fill="currentColor" />
</g>
</svg>