<svg xmlns="http://www.w3.org/2000/svg" width="16" height="16" viewBox="1467.56 724.83 17.00 17.00" fill="none"><g xmlns="http://www.w3.org/2000/svg" id="arrow-back-up">
<path id="union_18" d="M1482.81 735.333C1482.81 734.471 1482.46 733.645 1481.85 733.036C1481.24 732.426 1480.42 732.083 1479.56 732.083H1470.37L1473.09 734.803C1473.38 735.096 1473.38 735.571 1473.09 735.864C1472.79 736.157 1472.32 736.157 1472.03 735.864L1468.03 731.864C1467.73 731.571 1467.73 731.096 1468.03 730.803L1472.03 726.803C1472.32 726.51 1472.79 726.51 1473.09 726.803C1473.38 727.096 1473.38 727.571 1473.09 727.864L1470.37 730.583H1479.56C1480.82 730.583 1482.02 731.084 1482.91 731.975C1483.8 732.866 1484.31 734.074 1484.31 735.333C1484.31 736.593 1483.8 737.801 1482.91 738.692C1482.02 739.583 1480.82 740.083 1479.56 740.083H1478.56C1478.14 740.083 1477.81 739.748 1477.81 739.333C1477.81 738.919 1478.14 738.583 1478.56 738.583H1479.56C1480.42 738.583 1481.24 738.241 1481.85 737.631C1482.46 737.022 1482.81 736.195 1482.81 735.333Z" fill="currentColor" />
</g>
</svg>