<svg xmlns="http://www.w3.org/2000/svg" width="16" height="16" viewBox="1127.78 723.33 20.00 20.00" fill="none"><g xmlns="http://www.w3.org/2000/svg" id="arrow-trend-down">
<path id="union_16" d="M1128.25 727.803C1128.54 727.51 1129.02 727.51 1129.31 727.803L1134.78 733.273L1138.25 729.803L1138.3 729.751C1138.6 729.511 1139.03 729.529 1139.31 729.803L1146.03 736.523V731.333C1146.03 730.919 1146.36 730.583 1146.78 730.583C1147.19 730.583 1147.53 730.919 1147.53 731.333V738.333C1147.53 738.748 1147.19 739.083 1146.78 739.083H1139.78C1139.36 739.083 1139.03 738.748 1139.03 738.333C1139.03 737.919 1139.36 737.583 1139.78 737.583H1144.97L1138.78 731.394L1135.31 734.864C1135.02 735.157 1134.54 735.157 1134.25 734.864L1128.25 728.864C1127.95 728.571 1127.95 728.096 1128.25 727.803Z" fill="currentColor" />
</g>
</svg>