<svg xmlns="http://www.w3.org/2000/svg" width="16" height="16" viewBox="1128.78 555.44 18.00 18.00" fill="none"><g xmlns="http://www.w3.org/2000/svg" id="arrow-bar-left">
<path id="union_7" d="M1145.03 572.444V556.444C1145.03 556.03 1145.36 555.694 1145.78 555.694C1146.19 555.694 1146.53 556.03 1146.53 556.444V572.444C1146.53 572.859 1146.19 573.194 1145.78 573.194C1145.36 573.194 1145.03 572.859 1145.03 572.444ZM1133.25 559.914C1133.54 559.621 1134.02 559.621 1134.31 559.914C1134.6 560.207 1134.6 560.682 1134.31 560.975L1131.59 563.694H1139.78C1140.19 563.694 1140.53 564.03 1140.53 564.444C1140.53 564.859 1140.19 565.194 1139.78 565.194H1131.59L1134.31 567.914C1134.6 568.207 1134.6 568.682 1134.31 568.975C1134.02 569.268 1133.54 569.268 1133.25 568.975L1129.25 564.975C1128.95 564.682 1128.95 564.207 1129.25 563.914L1133.25 559.914Z" fill="currentColor" />
</g>
</svg>