<svg xmlns="http://www.w3.org/2000/svg" width="16" height="16" viewBox="958.89 723.33 20.00 20.00" fill="none"><g xmlns="http://www.w3.org/2000/svg" id="arrow-trend-up">
<path id="union_15" d="M978.639 735.333C978.639 735.748 978.303 736.083 977.889 736.083C977.475 736.083 977.139 735.748 977.139 735.333V730.144L970.419 736.864C970.126 737.157 969.652 737.157 969.359 736.864L965.889 733.394L960.419 738.864C960.126 739.157 959.652 739.157 959.359 738.864C959.066 738.571 959.066 738.096 959.359 737.803L965.359 731.803L965.415 731.751C965.71 731.511 966.145 731.528 966.419 731.803L969.889 735.273L976.078 729.083H970.889C970.475 729.083 970.139 728.748 970.139 728.333C970.139 727.919 970.475 727.583 970.889 727.583H977.889C978.303 727.583 978.639 727.919 978.639 728.333V735.333Z" fill="currentColor" />
</g>
</svg>