<svg xmlns="http://www.w3.org/2000/svg" width="16" height="16" viewBox="1466.56 555.44 18.00 18.00" fill="none"><g xmlns="http://www.w3.org/2000/svg" id="arrow-diagonal-expand">
<path id="union_9" d="M1477.03 565.914C1477.32 565.621 1477.79 565.621 1478.09 565.914L1482.81 570.634V568.444C1482.81 568.03 1483.14 567.694 1483.56 567.694C1483.97 567.694 1484.31 568.03 1484.31 568.444V572.444C1484.31 572.859 1483.97 573.194 1483.56 573.194H1479.56C1479.14 573.194 1478.81 572.859 1478.81 572.444C1478.81 572.03 1479.14 571.694 1479.56 571.694H1481.75L1477.03 566.975C1476.73 566.682 1476.73 566.207 1477.03 565.914ZM1466.81 560.444V556.444C1466.81 556.03 1467.14 555.694 1467.56 555.694H1471.56C1471.97 555.694 1472.31 556.03 1472.31 556.444C1472.31 556.859 1471.97 557.194 1471.56 557.194H1469.37L1474.09 561.914C1474.38 562.207 1474.38 562.682 1474.09 562.975C1473.79 563.268 1473.32 563.268 1473.03 562.975L1468.31 558.255V560.444C1468.31 560.859 1467.97 561.194 1467.56 561.194C1467.14 561.194 1466.81 560.859 1466.81 560.444Z" fill="currentColor" />
</g>
</svg>