<svg xmlns="http://www.w3.org/2000/svg" width="16" height="16" viewBox="789.00 891.22 22.00 22.00" fill="none"><g xmlns="http://www.w3.org/2000/svg" id="arrow-horizontal-expand">
<path id="union_19" d="M801 902.222C801 901.808 801.336 901.472 801.75 901.472H808.425L806.876 899.924C806.584 899.631 806.584 899.156 806.876 898.863C807.169 898.571 807.644 898.571 807.937 898.863L810.766 901.692C811.058 901.985 811.058 902.46 810.766 902.753L807.937 905.581C807.644 905.874 807.169 905.874 806.876 905.581C806.584 905.288 806.584 904.813 806.876 904.52L808.425 902.972H801.75C801.336 902.972 801 902.636 801 902.222ZM792.063 905.581L789.234 902.753C788.942 902.46 788.942 901.985 789.234 901.692L792.063 898.863C792.356 898.571 792.831 898.571 793.124 898.863C793.416 899.156 793.416 899.631 793.124 899.924L791.575 901.472H798.25C798.664 901.472 799 901.808 799 902.222C799 902.636 798.664 902.972 798.25 902.972H791.575L793.124 904.52C793.416 904.813 793.416 905.288 793.124 905.581C792.831 905.874 792.356 905.874 792.063 905.581Z" fill="currentColor" />
</g>
</svg>