<svg xmlns="http://www.w3.org/2000/svg" width="16" height="16" viewBox="115.44 724.33 18.00 18.00" fill="none"><g xmlns="http://www.w3.org/2000/svg" id="arrow-diagonal-minimize-collapse">
<path id="union_10" d="M125.694 739.333V735.333C125.694 734.919 126.03 734.583 126.444 734.583H130.444C130.859 734.583 131.194 734.919 131.194 735.333C131.194 735.748 130.859 736.083 130.444 736.083H128.255L132.975 740.803C133.268 741.096 133.268 741.571 132.975 741.864C132.682 742.157 132.207 742.157 131.914 741.864L127.194 737.144V739.333C127.194 739.748 126.859 740.083 126.444 740.083C126.03 740.083 125.694 739.748 125.694 739.333ZM115.914 724.803C116.207 724.51 116.682 724.51 116.975 724.803L121.694 729.523V727.333C121.694 726.919 122.03 726.583 122.444 726.583C122.859 726.583 123.194 726.919 123.194 727.333V731.333C123.194 731.748 122.859 732.083 122.444 732.083H118.444C118.03 732.083 117.694 731.748 117.694 731.333C117.694 730.919 118.03 730.583 118.444 730.583H120.634L115.914 725.864C115.621 725.571 115.621 725.096 115.914 724.803Z" fill="currentColor" />
</g>
</svg>