<svg xmlns="http://www.w3.org/2000/svg" width="16" height="16" viewBox="790.00 555.44 19.00 19.00" fill="none"><g xmlns="http://www.w3.org/2000/svg" id="arrow-window-minimize">
<path id="union_5" d="M795.25 569.444C795.25 569.378 795.224 569.315 795.177 569.268C795.13 569.221 795.066 569.194 795 569.194H792C791.934 569.194 791.87 569.221 791.823 569.268C791.776 569.315 791.75 569.378 791.75 569.444V572.444C791.75 572.511 791.776 572.574 791.823 572.621C791.87 572.668 791.934 572.694 792 572.694H795C795.066 572.694 795.13 572.668 795.177 572.621C795.224 572.574 795.25 572.511 795.25 572.444V569.444ZM807.25 570.444V558.444C807.25 558.113 807.118 557.795 806.884 557.561C806.649 557.326 806.332 557.194 806 557.194H794C793.668 557.194 793.351 557.326 793.116 557.561C792.882 557.795 792.75 558.113 792.75 558.444V564.444C792.75 564.859 792.414 565.194 792 565.194C791.586 565.194 791.25 564.859 791.25 564.444V558.444C791.25 557.715 791.54 557.016 792.056 556.5C792.571 555.984 793.271 555.694 794 555.694H806C806.729 555.694 807.429 555.984 807.944 556.5C808.46 557.016 808.75 557.715 808.75 558.444V570.444C808.75 571.174 808.46 571.873 807.944 572.389C807.429 572.905 806.729 573.194 806 573.194H800C799.586 573.194 799.25 572.859 799.25 572.444C799.25 572.03 799.586 571.694 800 571.694H806C806.332 571.694 806.649 571.563 806.884 571.328C807.118 571.094 807.25 570.776 807.25 570.444ZM803.47 559.914C803.763 559.621 804.237 559.621 804.53 559.914C804.823 560.207 804.823 560.682 804.53 560.975L800.811 564.694H803C803.414 564.694 803.75 565.03 803.75 565.444C803.75 565.859 803.414 566.194 803 566.194H799C798.586 566.194 798.25 565.859 798.25 565.444V561.444C798.25 561.03 798.586 560.694 799 560.694C799.414 560.694 799.75 561.03 799.75 561.444V563.634L803.47 559.914ZM796.75 572.444C796.75 572.909 796.565 573.354 796.237 573.682C795.909 574.01 795.464 574.194 795 574.194H792C791.536 574.194 791.091 574.01 790.763 573.682C790.435 573.354 790.25 572.909 790.25 572.444V569.444C790.25 568.98 790.435 568.535 790.763 568.207C791.091 567.879 791.536 567.694 792 567.694H795C795.464 567.694 795.909 567.879 796.237 568.207C796.565 568.535 796.75 568.98 796.75 569.444V572.444Z" fill="currentColor" />
</g>
</svg>