<svg xmlns="http://www.w3.org/2000/svg" width="16" height="16" viewBox="790.00 3399.78 21.00 21.00" fill="none"><g xmlns="http://www.w3.org/2000/svg" id="calendar-time">
<g id="union_103">
<path d="M806 3413.52C806.414 3413.52 806.75 3413.86 806.75 3414.27V3415.47L807.53 3416.25C807.823 3416.54 807.823 3417.02 807.53 3417.31C807.237 3417.6 806.763 3417.6 806.47 3417.31L805.47 3416.31C805.329 3416.17 805.25 3415.98 805.25 3415.78V3414.27C805.25 3413.86 805.586 3413.52 806 3413.52Z" fill="currentColor" />
<path fill-rule="evenodd" clip-rule="evenodd" d="M806 3411.03C807.26 3411.03 808.468 3411.53 809.358 3412.42C810.249 3413.31 810.75 3414.52 810.75 3415.78C810.75 3417.04 810.249 3418.25 809.358 3419.14C808.468 3420.03 807.26 3420.53 806 3420.53C804.74 3420.53 803.532 3420.03 802.642 3419.14C801.751 3418.25 801.25 3417.04 801.25 3415.78C801.25 3414.52 801.751 3413.31 802.642 3412.42C803.532 3411.53 804.74 3411.03 806 3411.03ZM806 3412.53C805.138 3412.53 804.312 3412.87 803.702 3413.48C803.093 3414.09 802.75 3414.92 802.75 3415.78C802.75 3416.64 803.093 3417.47 803.702 3418.08C804.312 3418.69 805.138 3419.03 806 3419.03C806.862 3419.03 807.688 3418.69 808.298 3418.08C808.907 3417.47 809.25 3416.64 809.25 3415.78C809.25 3414.92 808.907 3414.09 808.298 3413.48C807.688 3412.87 806.862 3412.53 806 3412.53Z" fill="currentColor" />
<path fill-rule="evenodd" clip-rule="evenodd" d="M803 3400.03C803.414 3400.03 803.75 3400.36 803.75 3400.78V3402.03H805C805.729 3402.03 806.429 3402.32 806.944 3402.83C807.46 3403.35 807.75 3404.05 807.75 3404.78V3408.78C807.75 3409.19 807.414 3409.53 807 3409.53H791.75V3416.78C791.75 3417.11 791.882 3417.43 792.116 3417.66C792.351 3417.9 792.668 3418.03 793 3418.03H799.795C800.209 3418.03 800.545 3418.36 800.545 3418.78C800.545 3419.19 800.209 3419.53 799.795 3419.53H793C792.271 3419.53 791.571 3419.24 791.056 3418.72C790.54 3418.21 790.25 3417.51 790.25 3416.78V3404.78C790.25 3404.05 790.54 3403.35 791.056 3402.83C791.571 3402.32 792.271 3402.03 793 3402.03H794.25V3400.78C794.25 3400.36 794.586 3400.03 795 3400.03C795.414 3400.03 795.75 3400.36 795.75 3400.78V3402.03H802.25V3400.78C802.25 3400.36 802.586 3400.03 803 3400.03ZM793 3403.53C792.668 3403.53 792.351 3403.66 792.116 3403.89C791.882 3404.13 791.75 3404.45 791.75 3404.78V3408.03H806.25V3404.78C806.25 3404.45 806.118 3404.13 805.884 3403.89C805.649 3403.66 805.332 3403.53 805 3403.53H803.75V3404.78C803.75 3405.19 803.414 3405.53 803 3405.53C802.586 3405.53 802.25 3405.19 802.25 3404.78V3403.53H795.75V3404.78C795.75 3405.19 795.414 3405.53 795 3405.53C794.586 3405.53 794.25 3405.19 794.25 3404.78V3403.53H793Z" fill="currentColor" />
</g>
</g>
</svg>