<svg xmlns="http://www.w3.org/2000/svg" width="16" height="16" viewBox="959.41 3400.03 21.00 21.00" fill="none"><clipPath xmlns="http://www.w3.org/2000/svg" id="clip6_1399_9135">
<rect width="24" height="24" fill="white" transform="translate(956.889 3397.78)" />
</clipPath>
<g xmlns="http://www.w3.org/2000/svg" id="calendar-settings" clip-path="url(#clip6_1399_9135)">
<g id="union_104">
<path fill-rule="evenodd" clip-rule="evenodd" d="M975.89 3412.53C976.304 3412.53 976.64 3412.86 976.64 3413.28V3414.13C977.074 3414.26 977.475 3414.49 977.804 3414.81L978.546 3414.38C978.905 3414.17 979.363 3414.29 979.571 3414.65C979.778 3415.01 979.655 3415.47 979.296 3415.68L978.552 3416.11C978.607 3416.32 978.64 3416.55 978.64 3416.78C978.64 3417.01 978.607 3417.23 978.552 3417.45L979.297 3417.88C979.656 3418.09 979.778 3418.54 979.572 3418.9C979.364 3419.26 978.906 3419.38 978.547 3419.18L977.804 3418.75C977.475 3419.07 977.074 3419.3 976.64 3419.42V3420.28C976.64 3420.69 976.304 3421.03 975.89 3421.03C975.476 3421.03 975.14 3420.69 975.14 3420.28V3419.42C974.705 3419.3 974.304 3419.07 973.975 3418.75L973.234 3419.18C972.875 3419.38 972.416 3419.26 972.209 3418.9C972.002 3418.54 972.125 3418.09 972.484 3417.88L973.227 3417.45C973.172 3417.23 973.14 3417.01 973.14 3416.78C973.14 3416.55 973.172 3416.32 973.227 3416.1L972.484 3415.68C972.125 3415.47 972.002 3415.01 972.209 3414.65C972.416 3414.29 972.875 3414.17 973.234 3414.38L973.975 3414.81C974.304 3414.49 974.705 3414.26 975.14 3414.13V3413.28C975.14 3412.86 975.476 3412.53 975.89 3412.53ZM975.89 3415.53C975.558 3415.53 975.241 3415.66 975.006 3415.89C974.772 3416.13 974.64 3416.45 974.64 3416.78C974.64 3417.11 974.772 3417.43 975.006 3417.66C975.241 3417.9 975.558 3418.03 975.89 3418.03C976.221 3418.03 976.539 3417.9 976.774 3417.66C977.008 3417.43 977.14 3417.11 977.14 3416.78C977.14 3416.45 977.008 3416.13 976.774 3415.89C976.539 3415.66 976.221 3415.53 975.89 3415.53Z" fill="currentColor" />
<path fill-rule="evenodd" clip-rule="evenodd" d="M972.889 3400.03C973.303 3400.03 973.639 3400.36 973.639 3400.78V3402.03H974.889C975.618 3402.03 976.318 3402.32 976.833 3402.83C977.349 3403.35 977.639 3404.05 977.639 3404.78V3409.78C977.639 3410.19 977.303 3410.53 976.889 3410.53C976.475 3410.53 976.139 3410.19 976.139 3409.78V3409.53H961.639V3416.78C961.639 3417.11 961.771 3417.43 962.005 3417.66C962.24 3417.9 962.557 3418.03 962.889 3418.03H968.889C969.303 3418.03 969.639 3418.36 969.639 3418.78C969.639 3419.19 969.303 3419.53 968.889 3419.53H962.889C962.16 3419.53 961.46 3419.24 960.945 3418.72C960.429 3418.21 960.139 3417.51 960.139 3416.78V3404.78C960.139 3404.05 960.429 3403.35 960.945 3402.83C961.46 3402.32 962.16 3402.03 962.889 3402.03H964.139V3400.78C964.139 3400.36 964.475 3400.03 964.889 3400.03C965.303 3400.03 965.639 3400.36 965.639 3400.78V3402.03H972.139V3400.78C972.139 3400.36 972.475 3400.03 972.889 3400.03ZM962.889 3403.53C962.557 3403.53 962.24 3403.66 962.005 3403.89C961.771 3404.13 961.639 3404.45 961.639 3404.78V3408.03H976.139V3404.78C976.139 3404.45 976.007 3404.13 975.773 3403.89C975.538 3403.66 975.22 3403.53 974.889 3403.53H973.639V3404.78C973.639 3405.19 973.303 3405.53 972.889 3405.53C972.475 3405.53 972.139 3405.19 972.139 3404.78V3403.53H965.639V3404.78C965.639 3405.19 965.303 3405.53 964.889 3405.53C964.475 3405.53 964.139 3405.19 964.139 3404.78V3403.53H962.889Z" fill="currentColor" />
</g>
</g>
</svg>