<svg xmlns="http://www.w3.org/2000/svg" width="16" height="16" viewBox="452.72 4621.61 19.00 19.00" fill="none"><g xmlns="http://www.w3.org/2000/svg" id="caret-updown">
<g id="Vector_48">
<path d="M461.515 4622.4C461.703 4622.22 461.957 4622.11 462.222 4622.11C462.487 4622.11 462.742 4622.22 462.929 4622.4L468.929 4628.4C468.955 4628.43 468.979 4628.46 469.002 4628.49L469.008 4628.49L469.024 4628.52L469.066 4628.57L469.075 4628.59L469.082 4628.6L469.096 4628.63L469.12 4628.67L469.127 4628.69L469.137 4628.71L469.149 4628.74L469.164 4628.77L469.171 4628.8L469.179 4628.82L469.184 4628.84L469.196 4628.88L469.2 4628.91L469.206 4628.93L469.209 4628.96L469.215 4628.99L469.217 4629.02L469.22 4629.05V4629.08L469.222 4629.11L469.22 4629.14V4629.17L469.217 4629.2L469.215 4629.23L469.21 4629.26L469.206 4629.29L469.2 4629.31L469.196 4629.34L469.184 4629.38L469.179 4629.4L469.171 4629.42L469.164 4629.45L469.149 4629.48L469.137 4629.51L469.127 4629.53L469.12 4629.55L469.096 4629.59L469.082 4629.62L469.075 4629.63L469.066 4629.65L469.024 4629.7L469.012 4629.72L469.008 4629.73L469.002 4629.74C468.956 4629.79 468.904 4629.85 468.847 4629.89L468.838 4629.9L468.816 4629.91L468.758 4629.95L468.742 4629.96L468.733 4629.97L468.705 4629.98L468.662 4630.01L468.644 4630.02L468.626 4630.03L468.592 4630.04L468.559 4630.05L468.535 4630.06L468.514 4630.07L468.487 4630.07L468.451 4630.08L468.422 4630.09L468.398 4630.09L468.37 4630.1L468.339 4630.1L468.307 4630.11L468.281 4630.11H468.255L468.222 4630.11H456.222C455.332 4630.11 454.885 4629.03 455.515 4628.4L461.515 4622.4Z" fill="currentColor" />
<path d="M468.222 4632.11L468.255 4632.11H468.281L468.307 4632.12L468.339 4632.12L468.37 4632.12L468.398 4632.13L468.422 4632.13L468.452 4632.14L468.487 4632.15L468.514 4632.15L468.533 4632.16L468.559 4632.17L468.592 4632.18L468.626 4632.2L468.644 4632.21L468.662 4632.21L468.705 4632.24L468.733 4632.25L468.742 4632.26L468.758 4632.27L468.809 4632.3L468.835 4632.32L468.838 4632.32L468.848 4632.33C468.905 4632.38 468.957 4632.43 469.002 4632.49L469.008 4632.49L469.023 4632.51L469.066 4632.57L469.075 4632.59L469.082 4632.6L469.096 4632.63L469.12 4632.67L469.125 4632.68L469.137 4632.71L469.149 4632.74L469.164 4632.77L469.171 4632.8L469.179 4632.82L469.184 4632.85L469.196 4632.88L469.2 4632.91L469.206 4632.93L469.209 4632.96L469.215 4632.99L469.217 4633.03L469.22 4633.05V4633.08L469.222 4633.11L469.22 4633.14V4633.17L469.217 4633.2L469.215 4633.23L469.209 4633.26L469.206 4633.29L469.2 4633.31L469.196 4633.34L469.184 4633.38L469.179 4633.4L469.171 4633.42L469.164 4633.45L469.149 4633.48L469.137 4633.51L469.127 4633.53L469.12 4633.55L469.096 4633.59L469.082 4633.62L469.075 4633.63L469.066 4633.65L469.024 4633.7L469.012 4633.72L469.008 4633.73L469.002 4633.74L468.929 4633.82L462.929 4639.82C462.742 4640.01 462.487 4640.11 462.222 4640.11C461.957 4640.11 461.703 4640.01 461.515 4639.82L455.515 4633.82C454.885 4633.19 455.331 4632.11 456.222 4632.11H468.222Z" fill="currentColor" />
</g>
</g>
</svg>