<svg xmlns="http://www.w3.org/2000/svg" width="16" height="16" viewBox="621.11 3737.56 20.00 20.00" fill="none"><g xmlns="http://www.w3.org/2000/svg" id="chart">
<g id="Vector_4">
<path d="M627.361 3748.56C627.361 3748.49 627.335 3748.43 627.288 3748.38C627.241 3748.33 627.177 3748.31 627.111 3748.31H623.111C623.045 3748.31 622.981 3748.33 622.934 3748.38C622.887 3748.43 622.861 3748.49 622.861 3748.56V3754.56C622.861 3754.62 622.887 3754.69 622.934 3754.73C622.981 3754.78 623.045 3754.81 623.111 3754.81H627.111C627.177 3754.81 627.241 3754.78 627.288 3754.73C627.335 3754.69 627.361 3754.62 627.361 3754.56V3748.56ZM628.861 3754.56C628.861 3755.02 628.677 3755.46 628.348 3755.79C628.02 3756.12 627.575 3756.31 627.111 3756.31H623.111C622.647 3756.31 622.202 3756.12 621.874 3755.79C621.546 3755.46 621.361 3755.02 621.361 3754.56V3748.56C621.361 3748.09 621.546 3747.65 621.874 3747.32C622.202 3746.99 622.647 3746.81 623.111 3746.81H627.111C627.575 3746.81 628.02 3746.99 628.348 3747.32C628.677 3747.65 628.861 3748.09 628.861 3748.56V3754.56Z" fill="currentColor" />
<path d="M633.361 3744.56C633.361 3744.49 633.335 3744.43 633.288 3744.38C633.241 3744.33 633.177 3744.31 633.111 3744.31H629.111C629.045 3744.31 628.981 3744.33 628.934 3744.38C628.887 3744.43 628.861 3744.49 628.861 3744.56V3754.56C628.861 3754.62 628.887 3754.69 628.934 3754.73C628.981 3754.78 629.045 3754.81 629.111 3754.81H633.111C633.177 3754.81 633.241 3754.78 633.288 3754.73C633.335 3754.69 633.361 3754.62 633.361 3754.56V3744.56ZM634.861 3754.56C634.861 3755.02 634.677 3755.46 634.348 3755.79C634.02 3756.12 633.575 3756.31 633.111 3756.31H629.111C628.647 3756.31 628.202 3756.12 627.874 3755.79C627.546 3755.46 627.361 3755.02 627.361 3754.56V3744.56C627.361 3744.09 627.546 3743.65 627.874 3743.32C628.202 3742.99 628.647 3742.81 629.111 3742.81H633.111C633.575 3742.81 634.02 3742.99 634.348 3743.32C634.677 3743.65 634.861 3744.09 634.861 3744.56V3754.56Z" fill="currentColor" />
<path d="M639.361 3740.56C639.361 3740.49 639.335 3740.43 639.288 3740.38C639.241 3740.33 639.177 3740.31 639.111 3740.31H635.111C635.045 3740.31 634.981 3740.33 634.934 3740.38C634.887 3740.43 634.861 3740.49 634.861 3740.56V3754.56C634.861 3754.62 634.887 3754.69 634.934 3754.73C634.981 3754.78 635.045 3754.81 635.111 3754.81H639.111C639.177 3754.81 639.241 3754.78 639.288 3754.73C639.335 3754.69 639.361 3754.62 639.361 3754.56V3740.56ZM640.861 3754.56C640.861 3755.02 640.677 3755.46 640.348 3755.79C640.02 3756.12 639.575 3756.31 639.111 3756.31H635.111C634.647 3756.31 634.202 3756.12 633.874 3755.79C633.546 3755.46 633.361 3755.02 633.361 3754.56V3740.56C633.361 3740.09 633.546 3739.65 633.874 3739.32C634.202 3738.99 634.647 3738.81 635.111 3738.81H639.111C639.575 3738.81 640.02 3738.99 640.348 3739.32C640.677 3739.65 640.861 3740.09 640.861 3740.56V3754.56Z" fill="currentColor" />
<path d="M637.111 3754.81C637.525 3754.81 637.861 3755.14 637.861 3755.56C637.861 3755.97 637.525 3756.31 637.111 3756.31H623.111C622.697 3756.31 622.361 3755.97 622.361 3755.56C622.361 3755.14 622.697 3754.81 623.111 3754.81H637.111Z" fill="currentColor" />
</g>
</g>
</svg>