<svg xmlns="http://www.w3.org/2000/svg" width="16" height="16" viewBox="1465.56 1165.61 20.00 20.00" fill="none"><g xmlns="http://www.w3.org/2000/svg" id="chat">
<path id="union_29" d="M1483.81 1170.11C1483.81 1169.51 1483.57 1168.94 1483.15 1168.52C1482.72 1168.1 1482.15 1167.86 1481.56 1167.86H1469.56C1468.96 1167.86 1468.39 1168.1 1467.96 1168.52C1467.54 1168.94 1467.31 1169.51 1467.31 1170.11V1178.11C1467.31 1178.71 1467.54 1179.28 1467.96 1179.7C1468.39 1180.12 1468.96 1180.36 1469.56 1180.36H1471.56C1471.97 1180.36 1472.31 1180.7 1472.31 1181.11V1182.79L1476.17 1180.47L1476.26 1180.42C1476.35 1180.38 1476.45 1180.36 1476.56 1180.36H1481.56C1482.15 1180.36 1482.72 1180.12 1483.15 1179.7C1483.57 1179.28 1483.81 1178.71 1483.81 1178.11V1170.11ZM1477.56 1175.36C1477.97 1175.36 1478.31 1175.7 1478.31 1176.11C1478.31 1176.53 1477.97 1176.86 1477.56 1176.86H1471.56C1471.14 1176.86 1470.81 1176.53 1470.81 1176.11C1470.81 1175.7 1471.14 1175.36 1471.56 1175.36H1477.56ZM1479.56 1171.36C1479.97 1171.36 1480.31 1171.7 1480.31 1172.11C1480.31 1172.53 1479.97 1172.86 1479.56 1172.86H1471.56C1471.14 1172.86 1470.81 1172.53 1470.81 1172.11C1470.81 1171.7 1471.14 1171.36 1471.56 1171.36H1479.56ZM1485.31 1178.11C1485.31 1179.11 1484.91 1180.06 1484.21 1180.76C1483.5 1181.47 1482.55 1181.86 1481.56 1181.86H1476.76L1471.94 1184.75C1471.71 1184.89 1471.42 1184.9 1471.19 1184.76C1470.95 1184.63 1470.81 1184.38 1470.81 1184.11V1181.86H1469.56C1468.56 1181.86 1467.61 1181.47 1466.9 1180.76C1466.2 1180.06 1465.81 1179.11 1465.81 1178.11V1170.11C1465.81 1169.12 1466.2 1168.16 1466.9 1167.46C1467.61 1166.76 1468.56 1166.36 1469.56 1166.36H1481.56C1482.55 1166.36 1483.5 1166.76 1484.21 1167.46C1484.91 1168.16 1485.31 1169.12 1485.31 1170.11V1178.11Z" fill="currentColor" />
</g>
</svg>