<svg xmlns="http://www.w3.org/2000/svg" width="16" height="16" viewBox="114.44 1165.11 20.00 20.00" fill="none"><g xmlns="http://www.w3.org/2000/svg" id="chat-archive">
<path id="union_21" d="M130.694 1171.86H118.194V1181.11C118.194 1181.44 118.326 1181.76 118.561 1181.99C118.795 1182.23 119.113 1182.36 119.444 1182.36H129.444C129.776 1182.36 130.094 1182.23 130.328 1181.99C130.563 1181.76 130.694 1181.44 130.694 1181.11V1171.86ZM126.444 1174.36C126.859 1174.36 127.194 1174.7 127.194 1175.11C127.194 1175.53 126.859 1175.86 126.444 1175.86H122.444C122.03 1175.86 121.694 1175.53 121.694 1175.11C121.694 1174.7 122.03 1174.36 122.444 1174.36H126.444ZM132.694 1169.11C132.694 1168.78 132.563 1168.46 132.328 1168.23C132.094 1167.99 131.776 1167.86 131.444 1167.86H117.444C117.113 1167.86 116.795 1167.99 116.561 1168.23C116.326 1168.46 116.194 1168.78 116.194 1169.11C116.194 1169.44 116.326 1169.76 116.561 1169.99C116.795 1170.23 117.113 1170.36 117.444 1170.36H131.444C131.776 1170.36 132.094 1170.23 132.328 1169.99C132.563 1169.76 132.694 1169.44 132.694 1169.11ZM134.194 1169.11C134.194 1169.84 133.905 1170.54 133.389 1171.06C133.054 1171.39 132.642 1171.63 132.194 1171.75V1181.11C132.194 1181.84 131.905 1182.54 131.389 1183.06C130.873 1183.57 130.174 1183.86 129.444 1183.86H119.444C118.715 1183.86 118.016 1183.57 117.5 1183.06C116.984 1182.54 116.694 1181.84 116.694 1181.11V1171.75C116.247 1171.63 115.835 1171.39 115.5 1171.06C114.984 1170.54 114.694 1169.84 114.694 1169.11C114.694 1168.38 114.984 1167.68 115.5 1167.17C116.016 1166.65 116.715 1166.36 117.444 1166.36H131.444C132.174 1166.36 132.873 1166.65 133.389 1167.17C133.905 1167.68 134.194 1168.38 134.194 1169.11Z" fill="currentColor" />
</g>
</svg>