<svg xmlns="http://www.w3.org/2000/svg" width="16" height="16" viewBox="1126.78 1164.11 22.00 22.00" fill="none"><g xmlns="http://www.w3.org/2000/svg" id="chat-keyboard-ai-text">
<path id="union_27" d="M1147.03 1171.11C1147.03 1170.78 1146.9 1170.46 1146.66 1170.23C1146.43 1169.99 1146.11 1169.86 1145.78 1169.86H1129.78C1129.45 1169.86 1129.13 1169.99 1128.89 1170.23C1128.66 1170.46 1128.53 1170.78 1128.53 1171.11V1179.11C1128.53 1179.44 1128.66 1179.76 1128.89 1179.99C1129.13 1180.23 1129.45 1180.36 1129.78 1180.36H1145.78C1146.11 1180.36 1146.43 1180.23 1146.66 1179.99C1146.9 1179.76 1147.03 1179.44 1147.03 1179.11V1171.11ZM1131.03 1177.12V1177.11C1131.03 1176.7 1131.36 1176.36 1131.78 1176.36C1132.19 1176.36 1132.53 1176.7 1132.53 1177.11V1177.12C1132.53 1177.54 1132.19 1177.87 1131.78 1177.87C1131.36 1177.87 1131.03 1177.54 1131.03 1177.12ZM1139.78 1176.37C1140.19 1176.37 1140.53 1176.71 1140.53 1177.12C1140.53 1177.54 1140.19 1177.87 1139.78 1177.87L1135.78 1177.86C1135.36 1177.86 1135.03 1177.52 1135.03 1177.11C1135.03 1176.69 1135.37 1176.36 1135.78 1176.36L1139.78 1176.37ZM1143.03 1177.12V1177.11C1143.03 1176.7 1143.36 1176.36 1143.78 1176.36C1144.19 1176.36 1144.53 1176.7 1144.53 1177.11V1177.12C1144.53 1177.54 1144.19 1177.87 1143.78 1177.87C1143.36 1177.87 1143.03 1177.54 1143.03 1177.12ZM1131.03 1173.12V1173.11C1131.03 1172.7 1131.36 1172.36 1131.78 1172.36C1132.19 1172.36 1132.53 1172.7 1132.53 1173.11V1173.12C1132.53 1173.54 1132.19 1173.87 1131.78 1173.87C1131.36 1173.87 1131.03 1173.54 1131.03 1173.12ZM1135.03 1173.12V1173.11C1135.03 1172.7 1135.36 1172.36 1135.78 1172.36C1136.19 1172.36 1136.53 1172.7 1136.53 1173.11V1173.12C1136.53 1173.54 1136.19 1173.87 1135.78 1173.87C1135.36 1173.87 1135.03 1173.54 1135.03 1173.12ZM1139.03 1173.12V1173.11C1139.03 1172.7 1139.36 1172.36 1139.78 1172.36C1140.19 1172.36 1140.53 1172.7 1140.53 1173.11V1173.12C1140.53 1173.54 1140.19 1173.87 1139.78 1173.87C1139.36 1173.87 1139.03 1173.54 1139.03 1173.12ZM1143.03 1173.12V1173.11C1143.03 1172.7 1143.36 1172.36 1143.78 1172.36C1144.19 1172.36 1144.53 1172.7 1144.53 1173.11V1173.12C1144.53 1173.54 1144.19 1173.87 1143.78 1173.87C1143.36 1173.87 1143.03 1173.54 1143.03 1173.12ZM1148.53 1179.11C1148.53 1179.84 1148.24 1180.54 1147.72 1181.06C1147.21 1181.57 1146.51 1181.86 1145.78 1181.86H1129.78C1129.05 1181.86 1128.35 1181.57 1127.83 1181.06C1127.32 1180.54 1127.03 1179.84 1127.03 1179.11V1171.11C1127.03 1170.38 1127.32 1169.68 1127.83 1169.17C1128.35 1168.65 1129.05 1168.36 1129.78 1168.36H1145.78C1146.51 1168.36 1147.21 1168.65 1147.72 1169.17C1148.24 1169.68 1148.53 1170.38 1148.53 1171.11V1179.11Z" fill="currentColor" />
</g>
</svg>