<svg xmlns="http://www.w3.org/2000/svg" width="16" height="16" viewBox="114.44 1334.50 21.00 21.00" fill="none"><g xmlns="http://www.w3.org/2000/svg" id="chat-add">
<path id="union_30" d="M130.694 1354V1351.75H128.444C128.03 1351.75 127.694 1351.41 127.694 1351C127.694 1350.59 128.03 1350.25 128.444 1350.25H130.694V1348C130.694 1347.59 131.03 1347.25 131.444 1347.25C131.859 1347.25 132.194 1347.59 132.194 1348V1350.25H134.444C134.859 1350.25 135.194 1350.59 135.194 1351C135.194 1351.41 134.859 1351.75 134.444 1351.75H132.194V1354C132.194 1354.41 131.859 1354.75 131.444 1354.75C131.03 1354.75 130.694 1354.41 130.694 1354ZM126.444 1344.25C126.859 1344.25 127.194 1344.59 127.194 1345C127.194 1345.41 126.859 1345.75 126.444 1345.75H120.444C120.03 1345.75 119.694 1345.41 119.694 1345C119.694 1344.59 120.03 1344.25 120.444 1344.25H126.444ZM132.694 1344.5V1339C132.694 1338.4 132.457 1337.83 132.035 1337.41C131.613 1336.99 131.041 1336.75 130.444 1336.75H118.444C117.848 1336.75 117.276 1336.99 116.854 1337.41C116.432 1337.83 116.194 1338.4 116.194 1339V1347C116.194 1347.6 116.432 1348.17 116.854 1348.59C117.276 1349.01 117.848 1349.25 118.444 1349.25H120.444C120.859 1349.25 121.194 1349.59 121.194 1350V1351.67L124.068 1349.95C124.424 1349.74 124.885 1349.85 125.098 1350.21C125.311 1350.56 125.195 1351.02 124.84 1351.24L120.83 1353.64C120.599 1353.78 120.31 1353.79 120.075 1353.65C119.84 1353.52 119.694 1353.27 119.694 1353V1350.75H118.444C117.45 1350.75 116.496 1350.35 115.793 1349.65C115.09 1348.95 114.694 1347.99 114.694 1347V1339C114.694 1338.01 115.09 1337.05 115.793 1336.35C116.496 1335.65 117.45 1335.25 118.444 1335.25H130.444C131.439 1335.25 132.393 1335.65 133.096 1336.35C133.799 1337.05 134.194 1338.01 134.194 1339V1344.5C134.194 1344.91 133.859 1345.25 133.444 1345.25C133.03 1345.25 132.694 1344.91 132.694 1344.5ZM128.444 1340.25C128.859 1340.25 129.194 1340.59 129.194 1341C129.194 1341.41 128.859 1341.75 128.444 1341.75H120.444C120.03 1341.75 119.694 1341.41 119.694 1341C119.694 1340.59 120.03 1340.25 120.444 1340.25H128.444Z" fill="currentColor" />
</g>
</svg>