<svg xmlns="http://www.w3.org/2000/svg" width="16" height="16" viewBox="452.22 1334.00 20.00 20.00" fill="none"><g xmlns="http://www.w3.org/2000/svg" id="chat-share">
<path id="union_32" d="M454.472 1351V1343C454.472 1342.27 454.762 1341.57 455.278 1341.06C455.794 1340.54 456.493 1340.25 457.222 1340.25H458.222C458.636 1340.25 458.972 1340.59 458.972 1341C458.972 1341.41 458.636 1341.75 458.222 1341.75H457.222C456.891 1341.75 456.573 1341.88 456.338 1342.12C456.104 1342.35 455.972 1342.67 455.972 1343V1351C455.972 1351.33 456.104 1351.65 456.338 1351.88C456.573 1352.12 456.891 1352.25 457.222 1352.25H467.222C467.554 1352.25 467.872 1352.12 468.106 1351.88C468.34 1351.65 468.472 1351.33 468.472 1351V1343C468.472 1342.67 468.34 1342.35 468.106 1342.12C467.872 1341.88 467.554 1341.75 467.222 1341.75H466.222C465.808 1341.75 465.472 1341.41 465.472 1341C465.472 1340.59 465.808 1340.25 466.222 1340.25H467.222C467.952 1340.25 468.651 1340.54 469.167 1341.06C469.682 1341.57 469.972 1342.27 469.972 1343V1351C469.972 1351.73 469.682 1352.43 469.167 1352.94C468.651 1353.46 467.952 1353.75 467.222 1353.75H457.222C456.493 1353.75 455.794 1353.46 455.278 1352.94C454.762 1352.43 454.472 1351.73 454.472 1351ZM461.472 1346V1336.81L459.753 1338.53C459.46 1338.82 458.985 1338.82 458.692 1338.53C458.399 1338.24 458.399 1337.76 458.692 1337.47L461.692 1334.47L461.749 1334.42C462.043 1334.18 462.478 1334.2 462.753 1334.47L465.753 1337.47C466.045 1337.76 466.045 1338.24 465.753 1338.53C465.46 1338.82 464.985 1338.82 464.692 1338.53L462.972 1336.81V1346C462.972 1346.41 462.636 1346.75 462.222 1346.75C461.808 1346.75 461.472 1346.41 461.472 1346Z" fill="currentColor" />
</g>
</svg>