<svg xmlns="http://www.w3.org/2000/svg" width="16" height="16" viewBox="621.11 1164.61 20.00 20.00" fill="none"><g xmlns="http://www.w3.org/2000/svg" id="chat-folder">
<path id="union_24" d="M621.361 1180.11V1169.11C621.361 1168.38 621.651 1167.68 622.167 1167.17C622.682 1166.65 623.382 1166.36 624.111 1166.36H628.111C628.31 1166.36 628.501 1166.44 628.641 1166.58L631.422 1169.36H638.111C638.84 1169.36 639.54 1169.65 640.055 1170.17C640.571 1170.68 640.861 1171.38 640.861 1172.11V1180.11C640.861 1180.84 640.571 1181.54 640.055 1182.06C639.54 1182.57 638.84 1182.86 638.111 1182.86H624.111C623.382 1182.86 622.682 1182.57 622.167 1182.06C621.651 1181.54 621.361 1180.84 621.361 1180.11ZM622.861 1180.11C622.861 1180.44 622.993 1180.76 623.227 1180.99C623.462 1181.23 623.78 1181.36 624.111 1181.36H638.111C638.443 1181.36 638.76 1181.23 638.995 1180.99C639.229 1180.76 639.361 1180.44 639.361 1180.11V1172.11C639.361 1171.78 639.229 1171.46 638.995 1171.23C638.76 1170.99 638.443 1170.86 638.111 1170.86H631.111C630.912 1170.86 630.721 1170.78 630.581 1170.64L627.801 1167.86H624.111C623.78 1167.86 623.462 1167.99 623.227 1168.23C622.993 1168.46 622.861 1168.78 622.861 1169.11V1180.11Z" fill="currentColor" />
</g>
</svg>