<svg xmlns="http://www.w3.org/2000/svg" width="16" height="16" viewBox="1296.17 1164.11 21.00 21.00" fill="none"><g xmlns="http://www.w3.org/2000/svg" id="chat-microphone-ai-voice">
<path id="union_28" d="M1298.92 1173.11C1298.92 1172.7 1299.25 1172.36 1299.67 1172.36C1300.08 1172.36 1300.42 1172.7 1300.42 1173.11C1300.42 1174.77 1301.08 1176.36 1302.25 1177.53C1303.42 1178.7 1305.01 1179.36 1306.67 1179.36C1308.32 1179.36 1309.91 1178.7 1311.09 1177.53C1312.26 1176.36 1312.92 1174.77 1312.92 1173.11C1312.92 1172.7 1313.25 1172.36 1313.67 1172.36C1314.08 1172.36 1314.42 1172.7 1314.42 1173.11C1314.42 1175.17 1313.6 1177.14 1312.15 1178.59C1310.87 1179.87 1309.2 1180.65 1307.42 1180.82V1183.36H1310.67C1311.08 1183.36 1311.42 1183.7 1311.42 1184.11C1311.42 1184.53 1311.08 1184.86 1310.67 1184.86H1302.67C1302.25 1184.86 1301.92 1184.53 1301.92 1184.11C1301.92 1183.7 1302.25 1183.36 1302.67 1183.36H1305.92V1180.82C1304.14 1180.65 1302.46 1179.87 1301.19 1178.59C1299.73 1177.14 1298.92 1175.17 1298.92 1173.11ZM1308.92 1168.11C1308.92 1167.51 1308.68 1166.94 1308.26 1166.52C1307.84 1166.1 1307.26 1165.86 1306.67 1165.86C1306.07 1165.86 1305.5 1166.1 1305.08 1166.52C1304.65 1166.94 1304.42 1167.51 1304.42 1168.11V1173.11C1304.42 1173.71 1304.65 1174.28 1305.08 1174.7C1305.5 1175.12 1306.07 1175.36 1306.67 1175.36C1307.26 1175.36 1307.84 1175.12 1308.26 1174.7C1308.68 1174.28 1308.92 1173.71 1308.92 1173.11V1168.11ZM1310.42 1173.11C1310.42 1174.11 1310.02 1175.06 1309.32 1175.76C1308.61 1176.47 1307.66 1176.86 1306.67 1176.86C1305.67 1176.86 1304.72 1176.47 1304.02 1175.76C1303.31 1175.06 1302.92 1174.11 1302.92 1173.11V1168.11C1302.92 1167.12 1303.31 1166.16 1304.02 1165.46C1304.72 1164.76 1305.67 1164.36 1306.67 1164.36C1307.66 1164.36 1308.61 1164.76 1309.32 1165.46C1310.02 1166.16 1310.42 1167.12 1310.42 1168.11V1173.11Z" fill="currentColor" />
</g>
</svg>