<svg xmlns="http://www.w3.org/2000/svg" width="16" height="16" viewBox="1129.78 1336.00 16.00 16.00" fill="none"><g xmlns="http://www.w3.org/2000/svg" id="chat-player-stop-ai">
<path id="union_35" d="M1144.03 1339C1144.03 1338.67 1143.9 1338.35 1143.66 1338.12C1143.43 1337.88 1143.11 1337.75 1142.78 1337.75H1132.78C1132.45 1337.75 1132.13 1337.88 1131.89 1338.12C1131.66 1338.35 1131.53 1338.67 1131.53 1339V1349C1131.53 1349.33 1131.66 1349.65 1131.89 1349.88C1132.13 1350.12 1132.45 1350.25 1132.78 1350.25H1142.78C1143.11 1350.25 1143.43 1350.12 1143.66 1349.88C1143.9 1349.65 1144.03 1349.33 1144.03 1349V1339ZM1145.53 1349C1145.53 1349.73 1145.24 1350.43 1144.72 1350.94C1144.21 1351.46 1143.51 1351.75 1142.78 1351.75H1132.78C1132.05 1351.75 1131.35 1351.46 1130.83 1350.94C1130.32 1350.43 1130.03 1349.73 1130.03 1349V1339C1130.03 1338.27 1130.32 1337.57 1130.83 1337.06C1131.35 1336.54 1132.05 1336.25 1132.78 1336.25H1142.78C1143.51 1336.25 1144.21 1336.54 1144.72 1337.06C1145.24 1337.57 1145.53 1338.27 1145.53 1339V1349Z" fill="currentColor" />
</g>
</svg>