<svg xmlns="http://www.w3.org/2000/svg" width="16" height="16" viewBox="283.33 1165.61 21.00 21.00" fill="none"><g xmlns="http://www.w3.org/2000/svg" id="chat-folder-add">
<path id="union_22" d="M299.583 1185.11V1182.86H297.333C296.919 1182.86 296.583 1182.53 296.583 1182.11C296.583 1181.7 296.919 1181.36 297.333 1181.36H299.583V1179.11C299.583 1178.7 299.919 1178.36 300.333 1178.36C300.748 1178.36 301.083 1178.7 301.083 1179.11V1181.36H303.333C303.748 1181.36 304.083 1181.7 304.083 1182.11C304.083 1182.53 303.748 1182.86 303.333 1182.86H301.083V1185.11C301.083 1185.53 300.748 1185.86 300.333 1185.86C299.919 1185.86 299.583 1185.53 299.583 1185.11ZM283.583 1180.11V1169.11C283.583 1168.38 283.873 1167.68 284.389 1167.17C284.905 1166.65 285.604 1166.36 286.333 1166.36H290.333C290.532 1166.36 290.723 1166.44 290.864 1166.58L293.644 1169.36H300.333C301.063 1169.36 301.762 1169.65 302.278 1170.17C302.793 1170.68 303.083 1171.38 303.083 1172.11V1175.61C303.083 1176.03 302.748 1176.36 302.333 1176.36C301.919 1176.36 301.583 1176.03 301.583 1175.61V1172.11C301.583 1171.78 301.452 1171.46 301.217 1171.23C300.983 1170.99 300.665 1170.86 300.333 1170.86H293.333C293.134 1170.86 292.944 1170.78 292.803 1170.64L290.023 1167.86H286.333C286.002 1167.86 285.684 1167.99 285.45 1168.23C285.215 1168.46 285.083 1168.78 285.083 1169.11V1180.11C285.083 1180.44 285.215 1180.76 285.45 1180.99C285.684 1181.23 286.002 1181.36 286.333 1181.36H293.333C293.748 1181.36 294.083 1181.7 294.083 1182.11C294.083 1182.53 293.748 1182.86 293.333 1182.86H286.333C285.604 1182.86 284.905 1182.57 284.389 1182.06C283.873 1181.54 283.583 1180.84 283.583 1180.11Z" fill="currentColor" />
</g>
</svg>