<svg xmlns="http://www.w3.org/2000/svg" width="16" height="16" viewBox="791.75 1166.36 17.00 17.00" fill="none"><g xmlns="http://www.w3.org/2000/svg" id="chat-pin">
<path id="union_25" d="M801.97 1166.58C802.263 1166.29 802.737 1166.29 803.03 1166.58L808.53 1172.08C808.823 1172.37 808.823 1172.85 808.53 1173.14C808.247 1173.42 807.795 1173.43 807.501 1173.17L804.145 1176.53L802.702 1180.37C802.665 1180.47 802.606 1180.57 802.53 1180.64L801.03 1182.14C800.737 1182.43 800.263 1182.43 799.97 1182.14L797 1179.17L793.03 1183.14C792.737 1183.43 792.263 1183.43 791.97 1183.14C791.677 1182.85 791.677 1182.37 791.97 1182.08L795.939 1178.11L792.97 1175.14C792.677 1174.85 792.677 1174.37 792.97 1174.08L794.47 1172.58L794.529 1172.53C794.591 1172.48 794.661 1172.44 794.736 1172.41L798.584 1170.97L801.94 1167.61C801.678 1167.31 801.687 1166.86 801.97 1166.58ZM799.53 1172.14C799.455 1172.22 799.364 1172.28 799.264 1172.31L795.415 1173.76L794.561 1174.61L800.5 1180.55L801.354 1179.7L802.798 1175.85L802.83 1175.77C802.866 1175.7 802.913 1175.64 802.97 1175.58L806.439 1172.11L803 1168.67L799.53 1172.14Z" fill="currentColor" />
</g>
</svg>