<svg xmlns="http://www.w3.org/2000/svg" width="16" height="16" viewBox="622.11 1335.00 18.00 18.00" fill="none"><g xmlns="http://www.w3.org/2000/svg" id="chat-external-link">
<path id="union_33" d="M622.361 1350V1340C622.361 1339.27 622.651 1338.57 623.167 1338.06C623.682 1337.54 624.382 1337.25 625.111 1337.25H631.111C631.525 1337.25 631.861 1337.59 631.861 1338C631.861 1338.41 631.525 1338.75 631.111 1338.75H625.111C624.78 1338.75 624.462 1338.88 624.227 1339.12C623.993 1339.35 623.861 1339.67 623.861 1340V1350C623.861 1350.33 623.993 1350.65 624.227 1350.88C624.462 1351.12 624.78 1351.25 625.111 1351.25H635.111C635.443 1351.25 635.76 1351.12 635.995 1350.88C636.229 1350.65 636.361 1350.33 636.361 1350V1344C636.361 1343.59 636.697 1343.25 637.111 1343.25C637.525 1343.25 637.861 1343.59 637.861 1344V1350C637.861 1350.73 637.571 1351.43 637.055 1351.94C636.54 1352.46 635.84 1352.75 635.111 1352.75H625.111C624.382 1352.75 623.682 1352.46 623.167 1351.94C622.651 1351.43 622.361 1350.73 622.361 1350ZM639.861 1341C639.861 1341.41 639.525 1341.75 639.111 1341.75C638.697 1341.75 638.361 1341.41 638.361 1341V1337.81L630.641 1345.53C630.348 1345.82 629.874 1345.82 629.581 1345.53C629.288 1345.24 629.288 1344.76 629.581 1344.47L637.301 1336.75H634.111C633.697 1336.75 633.361 1336.41 633.361 1336C633.361 1335.59 633.697 1335.25 634.111 1335.25H639.111C639.525 1335.25 639.861 1335.59 639.861 1336V1341Z" fill="currentColor" />
</g>
</svg>