<svg xmlns="http://www.w3.org/2000/svg" width="16" height="16" viewBox="958.89 1165.11 20.00 20.00" fill="none"><g xmlns="http://www.w3.org/2000/svg" id="chat-pinned-off">
<path id="union_26" d="M959.359 1165.58C959.652 1165.29 960.126 1165.29 960.419 1165.58L972.198 1177.36C972.221 1177.38 972.242 1177.4 972.262 1177.42L978.419 1183.58C978.712 1183.87 978.712 1184.35 978.419 1184.64C978.126 1184.93 977.652 1184.93 977.359 1184.64L972 1179.28L971.591 1180.37C971.553 1180.47 971.495 1180.57 971.419 1180.64L969.919 1182.14C969.626 1182.43 969.152 1182.43 968.859 1182.14L965.889 1179.17L961.919 1183.14C961.626 1183.43 961.152 1183.43 960.859 1183.14C960.566 1182.85 960.566 1182.37 960.859 1182.08L964.828 1178.11L961.859 1175.14C961.566 1174.85 961.566 1174.37 961.859 1174.08L963.359 1172.58L963.418 1172.53C963.48 1172.48 963.55 1172.44 963.625 1172.41L964.716 1172L959.359 1166.64C959.066 1166.35 959.066 1165.87 959.359 1165.58ZM964.304 1173.76L963.449 1174.61L969.389 1180.55L970.243 1179.7L970.835 1178.12L965.881 1173.16L964.304 1173.76ZM970.859 1166.58C971.152 1166.29 971.626 1166.29 971.919 1166.58L977.419 1172.08C977.712 1172.37 977.712 1172.85 977.419 1173.14C977.136 1173.42 976.684 1173.43 976.39 1173.17L973.669 1175.89C973.376 1176.19 972.902 1176.19 972.609 1175.89C972.316 1175.6 972.316 1175.12 972.609 1174.83L975.328 1172.11L971.889 1168.67L969.17 1171.39C968.877 1171.68 968.403 1171.68 968.11 1171.39C967.817 1171.1 967.817 1170.62 968.11 1170.33L970.829 1167.61C970.567 1167.31 970.576 1166.86 970.859 1166.58Z" fill="currentColor" />
</g>
</svg>