<svg xmlns="http://www.w3.org/2000/svg" width="16" height="16" viewBox="789.82 1333.56 21.00 21.00" fill="none"><g xmlns="http://www.w3.org/2000/svg" id="chat-attachment">
<path id="Vector (Stroke)_3" d="M806.492 1339C806.492 1338.07 806.125 1337.19 805.47 1336.53C804.815 1335.88 803.927 1335.51 803 1335.51C802.074 1335.51 801.186 1335.88 800.531 1336.53L794.031 1343.03C792.978 1344.08 792.386 1345.51 792.386 1347C792.386 1348.49 792.978 1349.92 794.031 1350.97C795.083 1352.02 796.511 1352.61 798 1352.61C799.489 1352.61 800.917 1352.02 801.97 1350.97L808.47 1344.47C808.763 1344.18 809.238 1344.18 809.531 1344.47C809.823 1344.76 809.823 1345.24 809.531 1345.53L803.031 1352.03C801.697 1353.36 799.887 1354.11 798 1354.11C796.114 1354.11 794.304 1353.36 792.97 1352.03C791.636 1350.7 790.886 1348.89 790.886 1347C790.886 1345.11 791.636 1343.3 792.97 1341.97L799.47 1335.47C800.406 1334.53 801.676 1334.01 803 1334.01C804.324 1334.01 805.594 1334.53 806.531 1335.47C807.467 1336.41 807.992 1337.68 807.992 1339C807.992 1340.32 807.467 1341.59 806.531 1342.53L800.031 1349.03C799.492 1349.57 798.762 1349.87 798 1349.87C797.239 1349.87 796.508 1349.57 795.97 1349.03C795.432 1348.49 795.128 1347.76 795.128 1347C795.128 1346.24 795.432 1345.51 795.97 1344.97L802.47 1338.47C802.763 1338.18 803.238 1338.18 803.531 1338.47C803.823 1338.76 803.823 1339.24 803.531 1339.53L797.031 1346.03C796.774 1346.29 796.628 1346.64 796.628 1347C796.628 1347.36 796.773 1347.71 797.031 1347.97C797.288 1348.23 797.637 1348.37 798 1348.37C798.364 1348.37 798.713 1348.23 798.97 1347.97L805.47 1341.47C806.125 1340.81 806.492 1339.93 806.492 1339Z" fill="currentColor" />
</g>
</svg>