<svg xmlns="http://www.w3.org/2000/svg" width="16" height="16" viewBox="452.22 1165.61 21.00 21.00" fill="none"><g xmlns="http://www.w3.org/2000/svg" id="chat-folder-move">
<path id="union_23" d="M468.472 1185.11V1180.92L466.753 1182.64C466.46 1182.93 465.985 1182.93 465.692 1182.64C465.399 1182.35 465.399 1181.87 465.692 1181.58L468.692 1178.58L468.749 1178.53C469.043 1178.29 469.478 1178.31 469.753 1178.58L472.753 1181.58C473.045 1181.87 473.045 1182.35 472.753 1182.64C472.46 1182.93 471.985 1182.93 471.692 1182.64L469.972 1180.92V1185.11C469.972 1185.53 469.636 1185.86 469.222 1185.86C468.808 1185.86 468.472 1185.53 468.472 1185.11ZM452.472 1180.11V1169.11C452.472 1168.38 452.762 1167.68 453.278 1167.17C453.794 1166.65 454.493 1166.36 455.222 1166.36H459.222C459.421 1166.36 459.612 1166.44 459.753 1166.58L462.533 1169.36H469.222C469.952 1169.36 470.651 1169.65 471.167 1170.17C471.682 1170.68 471.972 1171.38 471.972 1172.11V1175.61C471.972 1176.03 471.636 1176.36 471.222 1176.36C470.808 1176.36 470.472 1176.03 470.472 1175.61V1172.11C470.472 1171.78 470.34 1171.46 470.106 1171.23C469.872 1170.99 469.554 1170.86 469.222 1170.86H462.222C462.023 1170.86 461.833 1170.78 461.692 1170.64L458.912 1167.86H455.222C454.891 1167.86 454.573 1167.99 454.338 1168.23C454.104 1168.46 453.972 1168.78 453.972 1169.11V1180.11C453.972 1180.44 454.104 1180.76 454.338 1180.99C454.573 1181.23 454.891 1181.36 455.222 1181.36H462.222C462.636 1181.36 462.972 1181.7 462.972 1182.11C462.972 1182.53 462.636 1182.86 462.222 1182.86H455.222C454.493 1182.86 453.794 1182.57 453.278 1182.06C452.762 1181.54 452.472 1180.84 452.472 1180.11Z" fill="currentColor" />
</g>
</svg>