<svg xmlns="http://www.w3.org/2000/svg" width="16" height="16" viewBox="620.61 4620.61 21.00 21.00" fill="none"><g xmlns="http://www.w3.org/2000/svg" id="close-circle-fiiled">
<path id="Union_34" d="M636.111 4622.45C637.619 4623.32 638.874 4624.57 639.751 4626.08C640.628 4627.58 641.096 4629.29 641.111 4631.03C641.125 4632.77 640.684 4634.49 639.831 4636.01C638.979 4637.52 637.744 4638.79 636.25 4639.69C634.756 4640.58 633.054 4641.07 631.313 4641.11C629.572 4641.14 627.852 4640.72 626.323 4639.89C624.794 4639.06 623.509 4637.84 622.596 4636.35C621.683 4634.87 621.172 4633.18 621.116 4631.43L621.111 4631.11L621.116 4630.79C621.172 4629.06 621.675 4627.38 622.575 4625.9C623.475 4624.43 624.742 4623.21 626.252 4622.37C627.762 4621.53 629.464 4621.1 631.192 4621.11C632.92 4621.13 634.615 4621.59 636.111 4622.45ZM629.622 4628.25C629.413 4628.13 629.165 4628.08 628.925 4628.13C628.685 4628.17 628.471 4628.3 628.321 4628.5C628.171 4628.69 628.097 4628.93 628.113 4629.17C628.128 4629.42 628.232 4629.65 628.404 4629.82L629.696 4631.11L628.404 4632.4L628.321 4632.5C628.166 4632.7 628.093 4632.95 628.117 4633.2C628.141 4633.46 628.26 4633.69 628.451 4633.86C628.641 4634.03 628.889 4634.12 629.143 4634.11C629.397 4634.1 629.638 4634 629.818 4633.82L631.111 4632.53L632.404 4633.82L632.498 4633.9C632.699 4634.06 632.952 4634.13 633.205 4634.11C633.458 4634.08 633.692 4633.96 633.86 4633.77C634.028 4633.58 634.117 4633.33 634.109 4633.08C634.102 4632.83 633.997 4632.58 633.818 4632.4L632.526 4631.11L633.818 4629.82L633.901 4629.72C634.056 4629.52 634.13 4629.27 634.105 4629.02C634.081 4628.76 633.962 4628.53 633.771 4628.36C633.581 4628.19 633.333 4628.1 633.079 4628.11C632.826 4628.12 632.584 4628.22 632.404 4628.4L631.111 4629.7L629.818 4628.4L629.724 4628.32L629.622 4628.25Z" fill="currentColor" />
</g>
</svg>