<svg xmlns="http://www.w3.org/2000/svg" width="16" height="16" viewBox="1128.78 3231.89 18.00 18.00" fill="none"><g xmlns="http://www.w3.org/2000/svg" id="compare">
<path id="Union_15" d="M1129.67 3241.15C1130.08 3241.09 1130.46 3241.38 1130.52 3241.79C1130.73 3243.3 1131.41 3244.71 1132.45 3245.82C1133.5 3246.93 1134.86 3247.68 1136.36 3247.98C1137.85 3248.28 1139.41 3248.11 1140.8 3247.48C1141.73 3247.07 1142.56 3246.46 1143.24 3245.72C1143.1 3245.47 1143.03 3245.18 1143.03 3244.89C1143.03 3244.42 1143.21 3243.98 1143.54 3243.65C1143.87 3243.32 1144.31 3243.14 1144.78 3243.14C1145.24 3243.14 1145.69 3243.32 1146.02 3243.65C1146.34 3243.98 1146.53 3244.42 1146.53 3244.89C1146.53 3245.35 1146.34 3245.8 1146.02 3246.13C1145.69 3246.45 1145.24 3246.64 1144.78 3246.64C1144.67 3246.64 1144.56 3246.63 1144.45 3246.61C1143.62 3247.56 1142.58 3248.33 1141.41 3248.85C1139.73 3249.6 1137.87 3249.81 1136.06 3249.45C1134.26 3249.09 1132.62 3248.18 1131.36 3246.84C1130.1 3245.51 1129.29 3243.81 1129.03 3241.99C1128.98 3241.58 1129.26 3241.2 1129.67 3241.15ZM1140.03 3240.89C1140.03 3240.29 1139.79 3239.72 1139.37 3239.3C1138.95 3238.88 1138.37 3238.64 1137.78 3238.64C1137.18 3238.64 1136.61 3238.88 1136.19 3239.3C1135.77 3239.72 1135.53 3240.29 1135.53 3240.89C1135.53 3241.49 1135.77 3242.06 1136.19 3242.48C1136.61 3242.9 1137.18 3243.14 1137.78 3243.14C1138.37 3243.14 1138.95 3242.9 1139.37 3242.48C1139.79 3242.06 1140.03 3241.49 1140.03 3240.89ZM1133.86 3233.05C1135.42 3232.29 1137.17 3232 1138.89 3232.23L1139.25 3232.28C1141.04 3232.59 1142.69 3233.44 1143.98 3234.72C1145.36 3236.08 1146.25 3237.86 1146.52 3239.79C1146.58 3240.2 1146.29 3240.57 1145.88 3240.63C1145.47 3240.69 1145.09 3240.4 1145.03 3239.99C1144.81 3238.4 1144.07 3236.92 1142.93 3235.78C1141.78 3234.65 1140.29 3233.92 1138.7 3233.71C1137.27 3233.53 1135.82 3233.77 1134.52 3234.4C1133.68 3234.81 1132.94 3235.37 1132.32 3236.06C1132.45 3236.31 1132.53 3236.59 1132.53 3236.89C1132.53 3237.35 1132.34 3237.8 1132.02 3238.13C1131.69 3238.45 1131.24 3238.64 1130.78 3238.64C1130.31 3238.64 1129.87 3238.45 1129.54 3238.13C1129.21 3237.8 1129.03 3237.35 1129.03 3236.89C1129.03 3236.42 1129.21 3235.98 1129.54 3235.65C1129.87 3235.32 1130.31 3235.14 1130.78 3235.14C1130.89 3235.14 1130.99 3235.15 1131.1 3235.17C1131.87 3234.29 1132.81 3233.57 1133.86 3233.05ZM1141.53 3240.89C1141.53 3241.88 1141.13 3242.84 1140.43 3243.54C1139.73 3244.24 1138.77 3244.64 1137.78 3244.64C1136.78 3244.64 1135.83 3244.24 1135.13 3243.54C1134.42 3242.84 1134.03 3241.88 1134.03 3240.89C1134.03 3239.89 1134.42 3238.94 1135.13 3238.24C1135.83 3237.53 1136.78 3237.14 1137.78 3237.14C1138.77 3237.14 1139.73 3237.53 1140.43 3238.24C1141.13 3238.94 1141.53 3239.89 1141.53 3240.89Z" fill="currentColor" />
</g>
</svg>