<svg xmlns="http://www.w3.org/2000/svg" width="16" height="16" viewBox="322.50 4840.06 127.00 127.00" fill="none"><g xmlns="http://www.w3.org/2000/svg" id="cooper-dots">
<rect x="322.5" y="4876.06" width="127" height="55" rx="4.5" fill="currentColor" fill-opacity="0.8" />

<g id="Property 1=Default">
<g id="union_117">
<path d="M344.667 4896.89C344.667 4897.63 344.07 4898.22 343.333 4898.22C342.597 4898.22 342 4897.63 342 4896.89C342 4896.15 342.597 4895.56 343.333 4895.56C344.07 4895.56 344.667 4896.15 344.667 4896.89Z" fill="white" />
<path d="M348.667 4900.89C348.667 4901.63 348.07 4902.22 347.333 4902.22C346.597 4902.22 346 4901.63 346 4900.89C346 4900.15 346.597 4899.56 347.333 4899.56C348.07 4899.56 348.667 4900.15 348.667 4900.89Z" fill="white" />
<path d="M348.667 4906.22C348.667 4906.96 348.07 4907.56 347.334 4907.56C346.597 4907.56 346 4906.96 346 4906.22C346 4905.49 346.597 4904.89 347.334 4904.89C348.07 4904.89 348.667 4905.49 348.667 4906.22Z" fill="white" />
<path d="M344 4901.56C344 4901.92 343.702 4902.22 343.334 4902.22C342.965 4902.22 342.667 4901.92 342.667 4901.56C342.667 4901.19 342.965 4900.89 343.334 4900.89C343.702 4900.89 344 4901.19 344 4901.56Z" fill="white" fill-opacity="0.1" />
<path d="M352 4897.56C351.632 4897.56 351.334 4897.26 351.334 4896.89C351.334 4896.52 351.632 4896.22 352 4896.22C352.369 4896.22 352.667 4896.52 352.667 4896.89C352.667 4897.26 352.369 4897.56 352 4897.56Z" fill="white" fill-opacity="0.1" />
<path d="M357.333 4901.56C357.333 4901.92 357.035 4902.22 356.667 4902.22C356.299 4902.22 356 4901.92 356 4901.56C356 4901.19 356.299 4900.89 356.667 4900.89C357.035 4900.89 357.333 4901.19 357.333 4901.56Z" fill="white" fill-opacity="0.5" />
<path d="M352 4910.89C351.632 4910.89 351.334 4910.59 351.334 4910.22C351.334 4909.85 351.632 4909.56 352 4909.56C352.369 4909.56 352.667 4909.85 352.667 4910.22C352.667 4910.59 352.369 4910.89 352 4910.89Z" fill="white" fill-opacity="0.1" />
<path d="M344.667 4910.22C344.667 4910.96 344.07 4911.56 343.333 4911.56C342.597 4911.56 342 4910.96 342 4910.22C342 4909.49 342.597 4908.89 343.333 4908.89C344.07 4908.89 344.667 4909.49 344.667 4910.22Z" fill="white" />
<path d="M344 4905.56C344 4905.92 343.702 4906.22 343.334 4906.22C342.966 4906.22 342.667 4905.92 342.667 4905.56C342.667 4905.19 342.966 4904.89 343.334 4904.89C343.702 4904.89 344 4905.19 344 4905.56Z" fill="white" fill-opacity="0.5" />
<path d="M357.333 4905.56C357.333 4905.92 357.035 4906.22 356.667 4906.22C356.299 4906.22 356 4905.92 356 4905.56C356 4905.19 356.299 4904.89 356.667 4904.89C357.035 4904.89 357.333 4905.19 357.333 4905.56Z" fill="white" fill-opacity="0.1" />
<path d="M348 4910.89C347.632 4910.89 347.334 4910.59 347.334 4910.22C347.334 4909.85 347.632 4909.56 348 4909.56C348.368 4909.56 348.667 4909.85 348.667 4910.22C348.667 4910.59 348.368 4910.89 348 4910.89Z" fill="white" fill-opacity="0.1" />
<path d="M348 4897.56C347.632 4897.56 347.334 4897.26 347.334 4896.89C347.334 4896.52 347.632 4896.22 348 4896.22C348.368 4896.22 348.667 4896.52 348.667 4896.89C348.667 4897.26 348.368 4897.56 348 4897.56Z" fill="white" fill-opacity="0.1" />
<path d="M358 4896.89C358 4897.63 357.403 4898.22 356.666 4898.22C355.93 4898.22 355.333 4897.63 355.333 4896.89C355.333 4896.15 355.93 4895.56 356.666 4895.56C357.403 4895.56 358 4896.15 358 4896.89Z" fill="white" />
<path d="M354 4900.89C354 4901.63 353.403 4902.22 352.666 4902.22C351.93 4902.22 351.333 4901.63 351.333 4900.89C351.333 4900.15 351.93 4899.56 352.666 4899.56C353.403 4899.56 354 4900.15 354 4900.89Z" fill="white" />
<path d="M354 4906.22C354 4906.96 353.403 4907.56 352.666 4907.56C351.93 4907.56 351.333 4906.96 351.333 4906.22C351.333 4905.49 351.93 4904.89 352.666 4904.89C353.403 4904.89 354 4905.49 354 4906.22Z" fill="white" />
<path d="M358 4910.22C358 4910.96 357.403 4911.56 356.666 4911.56C355.93 4911.56 355.333 4910.96 355.333 4910.22C355.333 4909.49 355.93 4908.89 356.666 4908.89C357.403 4908.89 358 4909.49 358 4910.22Z" fill="white" />
</g>
</g>
<g id="Property 1=voice-animation">
<circle id="Ellipse 9000" cx="379.5" cy="4910.06" r="1.50002" fill="white" fill-opacity="0.1" />
<circle id="Ellipse 9003" cx="386" cy="4910.06" r="1.00001" fill="white" />
<circle id="Ellipse 9006" cx="392.5" cy="4910.06" r="1.50002" fill="white" />
<circle id="Ellipse 9001" cx="379.5" cy="4903.56" r="1.50002" fill="white" fill-opacity="0.5" />
<circle id="Ellipse 9004" cx="386" cy="4903.56" r="1.50002" fill="white" />
<circle id="Ellipse 9007" cx="392.5" cy="4903.56" r="1.50002" fill="white" />
<circle id="Ellipse 9002" cx="379.5" cy="4897.06" r="1.50002" fill="white" fill-opacity="0.1" />
<circle id="Ellipse 9005" cx="386" cy="4897.06" r="1.50002" fill="white" fill-opacity="0.1" />
<circle id="Ellipse 9008" cx="392.5" cy="4897.06" r="1.50002" fill="white" />
</g>
<g id="Property 1=insight">
<g id="Vector_49">
<path d="M418.001 4909.56C418.001 4910.66 417.105 4911.56 416.001 4911.56C414.896 4911.56 414.001 4910.66 414.001 4909.56C414.001 4908.46 414.896 4907.57 416.001 4907.57C417.105 4907.57 418.001 4908.46 418.001 4909.56Z" fill="white" fill-opacity="0.5" />
<path d="M423.001 4909.56C423.001 4910.11 422.553 4910.56 422.001 4910.56C421.448 4910.56 421.001 4910.11 421.001 4909.56C421.001 4909.01 421.448 4908.57 422.001 4908.57C422.553 4908.57 423.001 4909.01 423.001 4909.56Z" fill="white" />
<path d="M430.001 4909.56C430.001 4910.66 429.105 4911.56 428.001 4911.56C426.896 4911.56 426.001 4910.66 426.001 4909.56C426.001 4908.46 426.896 4907.57 428.001 4907.57C429.105 4907.57 430.001 4908.46 430.001 4909.56Z" fill="white" fill-opacity="0.1" />
<path d="M418.001 4904.02C418.001 4905.12 417.105 4906.01 416.001 4906.01C414.896 4906.01 414.001 4905.12 414.001 4904.02C414.001 4902.92 414.896 4902.03 416.001 4902.03C417.105 4902.03 418.001 4902.92 418.001 4904.02Z" fill="white" fill-opacity="0.1" />
<path d="M424.001 4904.02C424.001 4905.12 423.105 4906.01 422.001 4906.01C420.896 4906.01 420.001 4905.12 420.001 4904.02C420.001 4902.92 420.896 4902.03 422.001 4902.03C423.105 4902.03 424.001 4902.92 424.001 4904.02Z" fill="white" />
<path d="M430.001 4904.02C430.001 4905.12 429.105 4906.01 428.001 4906.01C426.896 4906.01 426.001 4905.12 426.001 4904.02C426.001 4902.92 426.896 4902.03 428.001 4902.03C429.105 4902.03 430.001 4902.92 430.001 4904.02Z" fill="white" fill-opacity="0.5" />
<path d="M418.001 4897.55C418.001 4898.65 417.105 4899.54 416.001 4899.54C414.896 4899.54 414.001 4898.65 414.001 4897.55C414.001 4896.45 414.896 4895.56 416.001 4895.56C417.105 4895.56 418.001 4896.45 418.001 4897.55Z" fill="white" />
<path d="M424.001 4897.55C424.001 4898.65 423.105 4899.54 422.001 4899.54C420.896 4899.54 420.001 4898.65 420.001 4897.55C420.001 4896.45 420.896 4895.56 422.001 4895.56C423.105 4895.56 424.001 4896.45 424.001 4897.55Z" fill="white" fill-opacity="0.5" />
<path d="M429.001 4897.55C429.001 4898.1 428.553 4898.54 428.001 4898.54C427.448 4898.54 427.001 4898.1 427.001 4897.55C427.001 4897 427.448 4896.55 428.001 4896.55C428.553 4896.55 429.001 4897 429.001 4897.55Z" fill="white" fill-opacity="0.1" />
</g>
</g>
</g>
</svg>