<svg xmlns="http://www.w3.org/2000/svg" width="16" height="16" viewBox="1010.70 4827.76 152.00 152.00" fill="none"><g xmlns="http://www.w3.org/2000/svg" id="Property 1=default">
<circle id="Ellipse 8994" cx="1013.1" cy="4912.86" r="2.1" fill="white" fill-opacity="0.1" />
<circle id="Ellipse 8997" cx="1022.3" cy="4912.86" r="2.1" fill="white" fill-opacity="0.1" />
<circle id="Ellipse 9000_2" cx="1031.5" cy="4912.86" r="2.1" fill="white" fill-opacity="0.1" />
<circle id="Ellipse 9003_2" cx="1040.7" cy="4912.86" r="2.1" fill="white" fill-opacity="0.1" />
<circle id="Ellipse 9006_2" cx="1049.9" cy="4912.86" r="2.1" fill="white" fill-opacity="0.1" />
<circle id="Ellipse 9009" cx="1059.1" cy="4912.86" r="2.1" fill="white" fill-opacity="0.1" />
<circle id="Ellipse 9012" cx="1068.3" cy="4912.86" r="2.1" fill="white" fill-opacity="0.1" />
<circle id="Ellipse 9015" cx="1077.5" cy="4912.86" r="2.1" fill="white" fill-opacity="0.1" />
<circle id="Ellipse 9018" cx="1086.7" cy="4912.86" r="2.1" fill="white" fill-opacity="0.1" />
<circle id="Ellipse 9021" cx="1095.9" cy="4912.86" r="2.1" fill="white" fill-opacity="0.1" />
<circle id="Ellipse 9024" cx="1105.1" cy="4912.86" r="2.1" fill="white" fill-opacity="0.1" />
<circle id="Ellipse 9027" cx="1114.3" cy="4912.86" r="2.1" fill="white" fill-opacity="0.1" />
<circle id="Ellipse 9030" cx="1123.5" cy="4912.86" r="2.1" fill="white" fill-opacity="0.1" />
<circle id="Ellipse 9033" cx="1132.7" cy="4912.86" r="2.1" fill="white" fill-opacity="0.1" />
<circle id="Ellipse 9036" cx="1141.9" cy="4912.86" r="2.1" fill="white" fill-opacity="0.1" />
<circle id="Ellipse 9039" cx="1151.1" cy="4912.86" r="2.1" fill="white" fill-opacity="0.1" />
<circle id="Ellipse 9042" cx="1160.3" cy="4912.86" r="2.1" fill="white" fill-opacity="0.1" />
<circle id="Ellipse 8995" cx="1013.1" cy="4903.76" r="2.1" fill="white" fill-opacity="0.1" />
<circle id="Ellipse 8998" cx="1022.3" cy="4903.76" r="2.1" fill="white" fill-opacity="0.1" />
<circle id="Ellipse 9001_2" cx="1031.5" cy="4903.76" r="2.1" fill="white" fill-opacity="0.1" />
<circle id="Ellipse 9004_2" cx="1040.7" cy="4903.76" r="2.1" fill="white" fill-opacity="0.1" />
<circle id="Ellipse 9007_2" cx="1049.9" cy="4903.76" r="2.1" fill="white" fill-opacity="0.1" />
<circle id="Ellipse 9010" cx="1059.1" cy="4903.76" r="2.1" fill="white" fill-opacity="0.1" />
<circle id="Ellipse 9013" cx="1068.3" cy="4903.76" r="2.1" fill="white" fill-opacity="0.1" />
<circle id="Ellipse 9016" cx="1077.5" cy="4903.76" r="2.1" fill="white" fill-opacity="0.1" />
<circle id="Ellipse 9019" cx="1086.7" cy="4903.76" r="2.1" fill="white" fill-opacity="0.1" />
<circle id="Ellipse 9022" cx="1095.9" cy="4903.76" r="2.1" fill="white" fill-opacity="0.1" />
<circle id="Ellipse 9025" cx="1105.1" cy="4903.76" r="2.1" fill="white" fill-opacity="0.1" />
<circle id="Ellipse 9028" cx="1114.3" cy="4903.76" r="2.1" fill="white" fill-opacity="0.1" />
<circle id="Ellipse 9031" cx="1123.5" cy="4903.76" r="2.1" fill="white" fill-opacity="0.1" />
<circle id="Ellipse 9034" cx="1132.7" cy="4903.76" r="2.1" fill="white" fill-opacity="0.1" />
<circle id="Ellipse 9037" cx="1141.9" cy="4903.76" r="2.1" fill="white" fill-opacity="0.1" />
<circle id="Ellipse 9040" cx="1151.1" cy="4903.76" r="2.1" fill="white" fill-opacity="0.1" />
<circle id="Ellipse 9043" cx="1160.3" cy="4903.76" r="2.1" fill="white" fill-opacity="0.1" />
<circle id="Ellipse 8996" cx="1013.1" cy="4894.66" r="2.1" fill="white" fill-opacity="0.1" />
<circle id="Ellipse 8999" cx="1022.3" cy="4894.66" r="2.1" fill="white" fill-opacity="0.1" />
<circle id="Ellipse 9002_2" cx="1031.5" cy="4894.66" r="2.1" fill="white" fill-opacity="0.1" />
<circle id="Ellipse 9005_2" cx="1040.7" cy="4894.66" r="2.1" fill="white" fill-opacity="0.1" />
<circle id="Ellipse 9008_2" cx="1049.9" cy="4894.66" r="2.1" fill="white" fill-opacity="0.1" />
<circle id="Ellipse 9011" cx="1059.1" cy="4894.66" r="2.1" fill="white" fill-opacity="0.1" />
<circle id="Ellipse 9014" cx="1068.3" cy="4894.66" r="2.1" fill="white" fill-opacity="0.1" />
<circle id="Ellipse 9017" cx="1077.5" cy="4894.66" r="2.1" fill="white" fill-opacity="0.1" />
<circle id="Ellipse 9020" cx="1086.7" cy="4894.66" r="2.1" fill="white" fill-opacity="0.1" />
<circle id="Ellipse 9023" cx="1095.9" cy="4894.66" r="2.1" fill="white" fill-opacity="0.1" />
<circle id="Ellipse 9026" cx="1105.1" cy="4894.66" r="2.1" fill="white" fill-opacity="0.1" />
<circle id="Ellipse 9029" cx="1114.3" cy="4894.66" r="2.1" fill="white" fill-opacity="0.1" />
<circle id="Ellipse 9032" cx="1123.5" cy="4894.66" r="2.1" fill="white" fill-opacity="0.1" />
<circle id="Ellipse 9035" cx="1132.7" cy="4894.66" r="2.1" fill="white" fill-opacity="0.1" />
<circle id="Ellipse 9038" cx="1141.9" cy="4894.66" r="2.1" fill="white" fill-opacity="0.1" />
<circle id="Ellipse 9041" cx="1151.1" cy="4894.66" r="2.1" fill="white" fill-opacity="0.1" />
<circle id="Ellipse 9044" cx="1160.3" cy="4894.66" r="2.1" fill="white" fill-opacity="0.1" />
</g>
</svg>