<svg xmlns="http://www.w3.org/2000/svg" width="16" height="16" viewBox="991.50 4715.06 377.00 377.00" fill="none"><g xmlns="http://www.w3.org/2000/svg" id="cooper-voice-animation">
<rect x="991.5" y="4873.06" width="377" height="61" rx="4.5" fill="currentColor" fill-opacity="0.85" />

<g id="Property 1=default">
<circle id="Ellipse 8994" cx="1013.1" cy="4912.86" r="2.1" fill="white" fill-opacity="0.1" />
<circle id="Ellipse 8997" cx="1022.3" cy="4912.86" r="2.1" fill="white" fill-opacity="0.1" />
<circle id="Ellipse 9000_2" cx="1031.5" cy="4912.86" r="2.1" fill="white" fill-opacity="0.1" />
<circle id="Ellipse 9003_2" cx="1040.7" cy="4912.86" r="2.1" fill="white" fill-opacity="0.1" />
<circle id="Ellipse 9006_2" cx="1049.9" cy="4912.86" r="2.1" fill="white" fill-opacity="0.1" />
<circle id="Ellipse 9009" cx="1059.1" cy="4912.86" r="2.1" fill="white" fill-opacity="0.1" />
<circle id="Ellipse 9012" cx="1068.3" cy="4912.86" r="2.1" fill="white" fill-opacity="0.1" />
<circle id="Ellipse 9015" cx="1077.5" cy="4912.86" r="2.1" fill="white" fill-opacity="0.1" />
<circle id="Ellipse 9018" cx="1086.7" cy="4912.86" r="2.1" fill="white" fill-opacity="0.1" />
<circle id="Ellipse 9021" cx="1095.9" cy="4912.86" r="2.1" fill="white" fill-opacity="0.1" />
<circle id="Ellipse 9024" cx="1105.1" cy="4912.86" r="2.1" fill="white" fill-opacity="0.1" />
<circle id="Ellipse 9027" cx="1114.3" cy="4912.86" r="2.1" fill="white" fill-opacity="0.1" />
<circle id="Ellipse 9030" cx="1123.5" cy="4912.86" r="2.1" fill="white" fill-opacity="0.1" />
<circle id="Ellipse 9033" cx="1132.7" cy="4912.86" r="2.1" fill="white" fill-opacity="0.1" />
<circle id="Ellipse 9036" cx="1141.9" cy="4912.86" r="2.1" fill="white" fill-opacity="0.1" />
<circle id="Ellipse 9039" cx="1151.1" cy="4912.86" r="2.1" fill="white" fill-opacity="0.1" />
<circle id="Ellipse 9042" cx="1160.3" cy="4912.86" r="2.1" fill="white" fill-opacity="0.1" />
<circle id="Ellipse 8995" cx="1013.1" cy="4903.76" r="2.1" fill="white" fill-opacity="0.1" />
<circle id="Ellipse 8998" cx="1022.3" cy="4903.76" r="2.1" fill="white" fill-opacity="0.1" />
<circle id="Ellipse 9001_2" cx="1031.5" cy="4903.76" r="2.1" fill="white" fill-opacity="0.1" />
<circle id="Ellipse 9004_2" cx="1040.7" cy="4903.76" r="2.1" fill="white" fill-opacity="0.1" />
<circle id="Ellipse 9007_2" cx="1049.9" cy="4903.76" r="2.1" fill="white" fill-opacity="0.1" />
<circle id="Ellipse 9010" cx="1059.1" cy="4903.76" r="2.1" fill="white" fill-opacity="0.1" />
<circle id="Ellipse 9013" cx="1068.3" cy="4903.76" r="2.1" fill="white" fill-opacity="0.1" />
<circle id="Ellipse 9016" cx="1077.5" cy="4903.76" r="2.1" fill="white" fill-opacity="0.1" />
<circle id="Ellipse 9019" cx="1086.7" cy="4903.76" r="2.1" fill="white" fill-opacity="0.1" />
<circle id="Ellipse 9022" cx="1095.9" cy="4903.76" r="2.1" fill="white" fill-opacity="0.1" />
<circle id="Ellipse 9025" cx="1105.1" cy="4903.76" r="2.1" fill="white" fill-opacity="0.1" />
<circle id="Ellipse 9028" cx="1114.3" cy="4903.76" r="2.1" fill="white" fill-opacity="0.1" />
<circle id="Ellipse 9031" cx="1123.5" cy="4903.76" r="2.1" fill="white" fill-opacity="0.1" />
<circle id="Ellipse 9034" cx="1132.7" cy="4903.76" r="2.1" fill="white" fill-opacity="0.1" />
<circle id="Ellipse 9037" cx="1141.9" cy="4903.76" r="2.1" fill="white" fill-opacity="0.1" />
<circle id="Ellipse 9040" cx="1151.1" cy="4903.76" r="2.1" fill="white" fill-opacity="0.1" />
<circle id="Ellipse 9043" cx="1160.3" cy="4903.76" r="2.1" fill="white" fill-opacity="0.1" />
<circle id="Ellipse 8996" cx="1013.1" cy="4894.66" r="2.1" fill="white" fill-opacity="0.1" />
<circle id="Ellipse 8999" cx="1022.3" cy="4894.66" r="2.1" fill="white" fill-opacity="0.1" />
<circle id="Ellipse 9002_2" cx="1031.5" cy="4894.66" r="2.1" fill="white" fill-opacity="0.1" />
<circle id="Ellipse 9005_2" cx="1040.7" cy="4894.66" r="2.1" fill="white" fill-opacity="0.1" />
<circle id="Ellipse 9008_2" cx="1049.9" cy="4894.66" r="2.1" fill="white" fill-opacity="0.1" />
<circle id="Ellipse 9011" cx="1059.1" cy="4894.66" r="2.1" fill="white" fill-opacity="0.1" />
<circle id="Ellipse 9014" cx="1068.3" cy="4894.66" r="2.1" fill="white" fill-opacity="0.1" />
<circle id="Ellipse 9017" cx="1077.5" cy="4894.66" r="2.1" fill="white" fill-opacity="0.1" />
<circle id="Ellipse 9020" cx="1086.7" cy="4894.66" r="2.1" fill="white" fill-opacity="0.1" />
<circle id="Ellipse 9023" cx="1095.9" cy="4894.66" r="2.1" fill="white" fill-opacity="0.1" />
<circle id="Ellipse 9026" cx="1105.1" cy="4894.66" r="2.1" fill="white" fill-opacity="0.1" />
<circle id="Ellipse 9029" cx="1114.3" cy="4894.66" r="2.1" fill="white" fill-opacity="0.1" />
<circle id="Ellipse 9032" cx="1123.5" cy="4894.66" r="2.1" fill="white" fill-opacity="0.1" />
<circle id="Ellipse 9035" cx="1132.7" cy="4894.66" r="2.1" fill="white" fill-opacity="0.1" />
<circle id="Ellipse 9038" cx="1141.9" cy="4894.66" r="2.1" fill="white" fill-opacity="0.1" />
<circle id="Ellipse 9041" cx="1151.1" cy="4894.66" r="2.1" fill="white" fill-opacity="0.1" />
<circle id="Ellipse 9044" cx="1160.3" cy="4894.66" r="2.1" fill="white" fill-opacity="0.1" />
</g>
<g id="Property 1=in-progress">
<circle id="Ellipse 8994_2" cx="1199.1" cy="4912.86" r="2.1" fill="white" fill-opacity="0.5" />
<circle id="Ellipse 8997_2" cx="1208.2" cy="4912.85" r="1.4" fill="white" />
<circle id="Ellipse 9000_3" cx="1217.3" cy="4912.86" r="2.1" fill="white" fill-opacity="0.1" />
<circle id="Ellipse 9003_3" cx="1226.4" cy="4912.85" r="1.4" fill="white" />
<circle id="Ellipse 9006_3" cx="1235.5" cy="4912.86" r="2.1" fill="white" />
<circle id="Ellipse 9009_2" cx="1244.6" cy="4912.86" r="2.1" fill="white" />
<circle id="Ellipse 9012_2" cx="1253.7" cy="4912.86" r="2.1" fill="white" />
<circle id="Ellipse 9015_2" cx="1262.8" cy="4912.85" r="1.4" fill="white" />
<circle id="Ellipse 9018_2" cx="1271.9" cy="4912.86" r="2.1" fill="white" fill-opacity="0.1" />
<circle id="Ellipse 9021_2" cx="1281" cy="4912.86" r="2.1" fill="white" fill-opacity="0.1" />
<circle id="Ellipse 9024_2" cx="1290.1" cy="4912.85" r="1.4" fill="white" fill-opacity="0.5" />
<circle id="Ellipse 9027_2" cx="1299.2" cy="4912.86" r="2.1" fill="white" />
<circle id="Ellipse 9030_2" cx="1308.3" cy="4912.85" r="1.4" fill="white" />
<circle id="Ellipse 9033_2" cx="1317.4" cy="4912.86" r="2.1" fill="white" />
<circle id="Ellipse 9036_2" cx="1326.5" cy="4912.86" r="2.1" fill="white" />
<circle id="Ellipse 9039_2" cx="1335.6" cy="4912.86" r="2.1" fill="white" fill-opacity="0.5" />
<circle id="Ellipse 9042_2" cx="1344.7" cy="4912.86" r="2.1" fill="white" />
<circle id="Ellipse 8995_2" cx="1199.1" cy="4903.76" r="2.1" fill="white" fill-opacity="0.1" />
<circle id="Ellipse 8998_2" cx="1208.2" cy="4903.76" r="2.1" fill="white" />
<circle id="Ellipse 9001_3" cx="1217.3" cy="4903.76" r="2.1" fill="white" fill-opacity="0.5" />
<circle id="Ellipse 9004_3" cx="1226.4" cy="4903.76" r="2.1" fill="white" />
<circle id="Ellipse 9007_3" cx="1235.5" cy="4903.76" r="2.1" fill="white" />
<circle id="Ellipse 9010_2" cx="1244.6" cy="4903.76" r="1.4" fill="white" fill-opacity="0.5" />
<circle id="Ellipse 9013_2" cx="1253.7" cy="4903.76" r="2.1" fill="white" />
<circle id="Ellipse 9016_2" cx="1262.8" cy="4903.76" r="1.4" fill="white" fill-opacity="0.5" />
<circle id="Ellipse 9019_2" cx="1271.9" cy="4903.76" r="1.4" fill="white" />
<circle id="Ellipse 9022_2" cx="1281" cy="4903.76" r="1.4" fill="white" fill-opacity="0.5" />
<circle id="Ellipse 9025_2" cx="1290.1" cy="4903.76" r="2.1" fill="white" fill-opacity="0.1" />
<circle id="Ellipse 9028_2" cx="1299.2" cy="4903.76" r="2.1" fill="white" />
<circle id="Ellipse 9031_2" cx="1308.3" cy="4903.76" r="2.1" fill="white" fill-opacity="0.1" />
<circle id="Ellipse 9034_2" cx="1317.4" cy="4903.76" r="2.1" fill="white" fill-opacity="0.1" />
<circle id="Ellipse 9037_2" opacity="0.5" cx="1326.5" cy="4903.76" r="1.4" fill="white" />
<circle id="Ellipse 9040_2" cx="1335.6" cy="4903.76" r="1.4" fill="white" fill-opacity="0.5" />
<circle id="Ellipse 9043_2" cx="1344.7" cy="4903.76" r="1.4" fill="white" fill-opacity="0.5" />
<circle id="Ellipse 8996_2" cx="1199.1" cy="4894.66" r="2.1" fill="white" />
<circle id="Ellipse 8999_2" cx="1208.2" cy="4894.66" r="2.1" fill="white" fill-opacity="0.5" />
<circle id="Ellipse 9002_3" cx="1217.3" cy="4894.66" r="2.1" fill="white" fill-opacity="0.1" />
<circle id="Ellipse 9005_3" cx="1226.4" cy="4894.66" r="2.1" fill="white" fill-opacity="0.1" />
<circle id="Ellipse 9008_3" cx="1235.5" cy="4894.66" r="2.1" fill="white" />
<circle id="Ellipse 9011_2" cx="1244.6" cy="4894.66" r="2.1" fill="white" fill-opacity="0.1" />
<circle id="Ellipse 9014_2" cx="1253.7" cy="4894.66" r="1.4" fill="white" fill-opacity="0.5" />
<circle id="Ellipse 9017_2" cx="1262.8" cy="4894.66" r="2.1" fill="white" />
<circle id="Ellipse 9020_2" cx="1271.9" cy="4894.66" r="2.1" fill="white" />
<circle id="Ellipse 9023_2" cx="1281" cy="4894.66" r="1.4" fill="white" fill-opacity="0.5" />
<circle id="Ellipse 9026_2" cx="1290.1" cy="4894.66" r="2.1" fill="white" />
<circle id="Ellipse 9029_2" cx="1299.2" cy="4894.66" r="2.1" fill="white" fill-opacity="0.1" />
<circle id="Ellipse 9032_2" cx="1308.3" cy="4894.66" r="1.4" fill="white" />
<circle id="Ellipse 9035_2" cx="1317.4" cy="4894.66" r="2.1" fill="white" />
<circle id="Ellipse 9038_2" cx="1326.5" cy="4894.66" r="2.1" fill="white" />
<circle id="Ellipse 9041_2" cx="1335.6" cy="4894.66" r="1.4" fill="white" fill-opacity="0.5" />
<circle id="Ellipse 9044_2" cx="1344.7" cy="4894.66" r="2.1" fill="white" />
</g>
</g>
</svg>