<svg xmlns="http://www.w3.org/2000/svg" width="16" height="16" viewBox="413.50 4895.06 17.00 17.00" fill="none"><g xmlns="http://www.w3.org/2000/svg" id="Property 1=insight">
<g id="Vector_49">
<path d="M418.001 4909.56C418.001 4910.66 417.105 4911.56 416.001 4911.56C414.896 4911.56 414.001 4910.66 414.001 4909.56C414.001 4908.46 414.896 4907.57 416.001 4907.57C417.105 4907.57 418.001 4908.46 418.001 4909.56Z" fill="white" fill-opacity="0.5" />
<path d="M423.001 4909.56C423.001 4910.11 422.553 4910.56 422.001 4910.56C421.448 4910.56 421.001 4910.11 421.001 4909.56C421.001 4909.01 421.448 4908.57 422.001 4908.57C422.553 4908.57 423.001 4909.01 423.001 4909.56Z" fill="white" />
<path d="M430.001 4909.56C430.001 4910.66 429.105 4911.56 428.001 4911.56C426.896 4911.56 426.001 4910.66 426.001 4909.56C426.001 4908.46 426.896 4907.57 428.001 4907.57C429.105 4907.57 430.001 4908.46 430.001 4909.56Z" fill="white" fill-opacity="0.1" />
<path d="M418.001 4904.02C418.001 4905.12 417.105 4906.01 416.001 4906.01C414.896 4906.01 414.001 4905.12 414.001 4904.02C414.001 4902.92 414.896 4902.03 416.001 4902.03C417.105 4902.03 418.001 4902.92 418.001 4904.02Z" fill="white" fill-opacity="0.1" />
<path d="M424.001 4904.02C424.001 4905.12 423.105 4906.01 422.001 4906.01C420.896 4906.01 420.001 4905.12 420.001 4904.02C420.001 4902.92 420.896 4902.03 422.001 4902.03C423.105 4902.03 424.001 4902.92 424.001 4904.02Z" fill="white" />
<path d="M430.001 4904.02C430.001 4905.12 429.105 4906.01 428.001 4906.01C426.896 4906.01 426.001 4905.12 426.001 4904.02C426.001 4902.92 426.896 4902.03 428.001 4902.03C429.105 4902.03 430.001 4902.92 430.001 4904.02Z" fill="white" fill-opacity="0.5" />
<path d="M418.001 4897.55C418.001 4898.65 417.105 4899.54 416.001 4899.54C414.896 4899.54 414.001 4898.65 414.001 4897.55C414.001 4896.45 414.896 4895.56 416.001 4895.56C417.105 4895.56 418.001 4896.45 418.001 4897.55Z" fill="white" />
<path d="M424.001 4897.55C424.001 4898.65 423.105 4899.54 422.001 4899.54C420.896 4899.54 420.001 4898.65 420.001 4897.55C420.001 4896.45 420.896 4895.56 422.001 4895.56C423.105 4895.56 424.001 4896.45 424.001 4897.55Z" fill="white" fill-opacity="0.5" />
<path d="M429.001 4897.55C429.001 4898.1 428.553 4898.54 428.001 4898.54C427.448 4898.54 427.001 4898.1 427.001 4897.55C427.001 4897 427.448 4896.55 428.001 4896.55C428.553 4896.55 429.001 4897 429.001 4897.55Z" fill="white" fill-opacity="0.1" />
</g>
</g>
</svg>