<svg xmlns="http://www.w3.org/2000/svg" width="16" height="16" viewBox="116.94 894.72 16.00 16.00" fill="none"><g xmlns="http://www.w3.org/2000/svg" id="corner-down-right-arrow">
<path id="Vector (Stroke)" d="M126.914 900.692C127.207 900.399 127.682 900.399 127.975 900.692L131.975 904.692C132.268 904.985 132.268 905.46 131.975 905.753L127.975 909.753C127.682 910.045 127.207 910.045 126.914 909.753C126.621 909.46 126.621 908.985 126.914 908.692L129.634 905.972H121.444C120.45 905.972 119.496 905.577 118.793 904.874C118.09 904.17 117.694 903.217 117.694 902.222V896.222C117.694 895.808 118.03 895.472 118.444 895.472C118.859 895.472 119.194 895.808 119.194 896.222V902.222C119.194 902.819 119.432 903.391 119.854 903.813C120.276 904.235 120.848 904.472 121.444 904.472H129.634L126.914 901.753C126.621 901.46 126.621 900.985 126.914 900.692Z" fill="currentColor" />
</g>
</svg>