<svg xmlns="http://www.w3.org/2000/svg" width="16" height="16" viewBox="284.83 894.72 16.00 16.00" fill="none"><g xmlns="http://www.w3.org/2000/svg" id="corner-down-left-arrow">
<path id="Vector (Stroke)_2" d="M290.864 900.692C290.571 900.399 290.096 900.399 289.803 900.692L285.803 904.692C285.51 904.985 285.51 905.46 285.803 905.753L289.803 909.753C290.096 910.045 290.571 910.045 290.864 909.753C291.156 909.46 291.156 908.985 290.864 908.692L288.144 905.972H296.333C297.328 905.972 298.281 905.577 298.985 904.874C299.688 904.17 300.083 903.217 300.083 902.222V896.222C300.083 895.808 299.747 895.472 299.333 895.472C298.919 895.472 298.583 895.808 298.583 896.222V902.222C298.583 902.819 298.346 903.391 297.924 903.813C297.502 904.235 296.93 904.472 296.333 904.472H288.144L290.864 901.753C291.156 901.46 291.156 900.985 290.864 900.692Z" fill="currentColor" />
</g>
</svg>