<svg xmlns="http://www.w3.org/2000/svg" width="16" height="16" viewBox="284.34 3738.60 18.00 18.00" fill="none"><g xmlns="http://www.w3.org/2000/svg" id="customize">
<g id="Vector_3">
<path d="M296.592 3741.6C296.592 3741.27 296.46 3740.95 296.226 3740.71C295.991 3740.48 295.673 3740.35 295.342 3740.35C295.01 3740.35 294.693 3740.48 294.458 3740.71C294.224 3740.95 294.092 3741.27 294.092 3741.6C294.092 3741.93 294.224 3742.25 294.458 3742.48C294.693 3742.72 295.01 3742.85 295.342 3742.85C295.673 3742.85 295.991 3742.72 296.226 3742.48C296.46 3742.25 296.592 3741.93 296.592 3741.6ZM298.092 3741.6C298.092 3742.33 297.802 3743.03 297.286 3743.54C296.77 3744.06 296.071 3744.35 295.342 3744.35C294.613 3744.35 293.913 3744.06 293.398 3743.54C292.882 3743.03 292.592 3742.33 292.592 3741.6C292.592 3740.87 292.882 3740.17 293.398 3739.65C293.913 3739.14 294.613 3738.85 295.342 3738.85C296.071 3738.85 296.77 3739.14 297.286 3739.65C297.802 3740.17 298.092 3740.87 298.092 3741.6Z" fill="currentColor" />
<path d="M293.342 3740.85C293.756 3740.85 294.092 3741.18 294.092 3741.6C294.092 3742.01 293.756 3742.35 293.342 3742.35H285.342C284.928 3742.35 284.592 3742.01 284.592 3741.6C284.592 3741.18 284.928 3740.85 285.342 3740.85H293.342Z" fill="currentColor" />
<path d="M301.342 3740.85C301.756 3740.85 302.092 3741.18 302.092 3741.6C302.092 3742.01 301.756 3742.35 301.342 3742.35H297.342C296.928 3742.35 296.592 3742.01 296.592 3741.6C296.592 3741.18 296.928 3740.85 297.342 3740.85H301.342Z" fill="currentColor" />
<path d="M290.592 3747.6C290.592 3747.27 290.46 3746.95 290.226 3746.71C289.991 3746.48 289.673 3746.35 289.342 3746.35C289.01 3746.35 288.693 3746.48 288.458 3746.71C288.224 3746.95 288.092 3747.27 288.092 3747.6C288.092 3747.93 288.224 3748.25 288.458 3748.48C288.693 3748.72 289.01 3748.85 289.342 3748.85C289.673 3748.85 289.991 3748.72 290.226 3748.48C290.46 3748.25 290.592 3747.93 290.592 3747.6ZM292.092 3747.6C292.092 3748.33 291.802 3749.03 291.286 3749.54C290.77 3750.06 290.071 3750.35 289.342 3750.35C288.613 3750.35 287.913 3750.06 287.398 3749.54C286.882 3749.03 286.592 3748.33 286.592 3747.6C286.592 3746.87 286.882 3746.17 287.398 3745.65C287.913 3745.14 288.613 3744.85 289.342 3744.85C290.071 3744.85 290.77 3745.14 291.286 3745.65C291.802 3746.17 292.092 3746.87 292.092 3747.6Z" fill="currentColor" />
<path d="M287.342 3746.85C287.756 3746.85 288.092 3747.18 288.092 3747.6C288.092 3748.01 287.756 3748.35 287.342 3748.35H285.342C284.928 3748.35 284.592 3748.01 284.592 3747.6C284.592 3747.18 284.928 3746.85 285.342 3746.85H287.342Z" fill="currentColor" />
<path d="M301.342 3746.85C301.756 3746.85 302.092 3747.18 302.092 3747.6C302.092 3748.01 301.756 3748.35 301.342 3748.35H291.342C290.928 3748.35 290.592 3748.01 290.592 3747.6C290.592 3747.18 290.928 3746.85 291.342 3746.85H301.342Z" fill="currentColor" />
<path d="M299.592 3753.6C299.592 3753.27 299.46 3752.95 299.226 3752.71C298.991 3752.48 298.673 3752.35 298.342 3752.35C298.01 3752.35 297.693 3752.48 297.458 3752.71C297.224 3752.95 297.092 3753.27 297.092 3753.6C297.092 3753.93 297.224 3754.25 297.458 3754.48C297.693 3754.72 298.01 3754.85 298.342 3754.85C298.673 3754.85 298.991 3754.72 299.226 3754.48C299.46 3754.25 299.592 3753.93 299.592 3753.6ZM301.092 3753.6C301.092 3754.33 300.802 3755.03 300.286 3755.54C299.771 3756.06 299.071 3756.35 298.342 3756.35C297.613 3756.35 296.913 3756.06 296.398 3755.54C295.882 3755.03 295.592 3754.33 295.592 3753.6C295.592 3752.87 295.882 3752.17 296.398 3751.65C296.913 3751.14 297.613 3750.85 298.342 3750.85C299.071 3750.85 299.771 3751.14 300.286 3751.65C300.802 3752.17 301.092 3752.87 301.092 3753.6Z" fill="currentColor" />
<path d="M296.342 3752.85C296.756 3752.85 297.092 3753.18 297.092 3753.6C297.092 3754.01 296.756 3754.35 296.342 3754.35H285.342C284.928 3754.35 284.592 3754.01 284.592 3753.6C284.592 3753.18 284.928 3752.85 285.342 3752.85H296.342Z" fill="currentColor" />
<path d="M301.342 3752.85C301.756 3752.85 302.092 3753.18 302.092 3753.6C302.092 3754.01 301.756 3754.35 301.342 3754.35H300.342C299.928 3754.35 299.592 3754.01 299.592 3753.6C299.592 3753.18 299.928 3752.85 300.342 3752.85H301.342Z" fill="currentColor" />
</g>
</g>
</svg>