<svg xmlns="http://www.w3.org/2000/svg" width="16" height="16" viewBox="1296.67 3568.67 20.00 20.00" fill="none"><g xmlns="http://www.w3.org/2000/svg" id="decline">
<path id="union_108" d="M1314.92 3578.67C1314.92 3577.58 1314.7 3576.51 1314.29 3575.51C1313.97 3574.74 1313.54 3574.02 1313.01 3573.39L1301.39 3585.01C1302.03 3585.54 1302.74 3585.97 1303.51 3586.29C1304.51 3586.7 1305.58 3586.92 1306.67 3586.92C1307.75 3586.92 1308.82 3586.7 1309.82 3586.29C1310.82 3585.87 1311.73 3585.27 1312.5 3584.5C1313.27 3583.73 1313.87 3582.82 1314.29 3581.82C1314.7 3580.82 1314.92 3579.75 1314.92 3578.67ZM1298.42 3578.67C1298.42 3579.75 1298.63 3580.82 1299.04 3581.82C1299.36 3582.59 1299.8 3583.31 1300.33 3583.94L1311.95 3572.33C1311.31 3571.8 1310.59 3571.36 1309.82 3571.04C1308.82 3570.63 1307.75 3570.42 1306.67 3570.42C1305.58 3570.42 1304.51 3570.63 1303.51 3571.04C1302.51 3571.46 1301.6 3572.07 1300.83 3572.83C1300.07 3573.6 1299.46 3574.51 1299.04 3575.51C1298.63 3576.51 1298.42 3577.58 1298.42 3578.67ZM1316.42 3578.67C1316.42 3579.95 1316.16 3581.22 1315.67 3582.4C1315.18 3583.58 1314.47 3584.66 1313.56 3585.56C1312.66 3586.47 1311.58 3587.18 1310.4 3587.67C1309.22 3588.16 1307.95 3588.42 1306.67 3588.42C1305.39 3588.42 1304.12 3588.16 1302.94 3587.67C1301.75 3587.18 1300.68 3586.47 1299.77 3585.56C1298.87 3584.66 1298.15 3583.58 1297.66 3582.4C1297.17 3581.22 1296.92 3579.95 1296.92 3578.67C1296.92 3577.39 1297.17 3576.12 1297.66 3574.94C1298.15 3573.75 1298.87 3572.68 1299.77 3571.77C1300.68 3570.87 1301.75 3570.15 1302.94 3569.66C1304.12 3569.17 1305.39 3568.92 1306.67 3568.92C1307.95 3568.92 1309.22 3569.17 1310.4 3569.66C1311.58 3570.15 1312.66 3570.87 1313.56 3571.77C1314.47 3572.68 1315.18 3573.75 1315.67 3574.94C1316.16 3576.12 1316.42 3577.39 1316.42 3578.67Z" fill="currentColor" />
</g>
</svg>