<svg xmlns="http://www.w3.org/2000/svg" width="16" height="16" viewBox="283.33 3399.78 20.00 20.00" fill="none"><g xmlns="http://www.w3.org/2000/svg" id="duplicate">
<g id="union_102">
<path d="M295.333 3408.03C295.747 3408.03 296.083 3408.36 296.083 3408.78V3411.03H298.333C298.747 3411.03 299.083 3411.36 299.083 3411.78C299.083 3412.19 298.747 3412.53 298.333 3412.53H296.083V3414.78C296.083 3415.19 295.747 3415.53 295.333 3415.53C294.919 3415.53 294.583 3415.19 294.583 3414.78V3412.53H292.333C291.919 3412.53 291.583 3412.19 291.583 3411.78C291.583 3411.36 291.919 3411.03 292.333 3411.03H294.583V3408.78C294.583 3408.36 294.919 3408.03 295.333 3408.03Z" fill="currentColor" />
<path fill-rule="evenodd" clip-rule="evenodd" d="M299.666 3404.03C300.115 3404.03 300.559 3404.12 300.974 3404.29C301.388 3404.46 301.765 3404.71 302.082 3405.03C302.4 3405.35 302.652 3405.72 302.823 3406.14C302.995 3406.55 303.083 3407 303.083 3407.44V3416.11C303.083 3416.56 302.995 3417 302.823 3417.42C302.652 3417.83 302.4 3418.21 302.082 3418.53C301.765 3418.84 301.388 3419.1 300.974 3419.27C300.559 3419.44 300.115 3419.53 299.666 3419.53H291C290.552 3419.53 290.107 3419.44 289.693 3419.27C289.278 3419.1 288.902 3418.84 288.584 3418.53C288.267 3418.21 288.015 3417.83 287.843 3417.42C287.671 3417 287.583 3416.56 287.583 3416.11V3407.44C287.583 3406.54 287.943 3405.67 288.584 3405.03C289.225 3404.39 290.094 3404.03 291 3404.03H299.666ZM291 3405.53C290.492 3405.53 290.004 3405.73 289.645 3406.09C289.285 3406.45 289.083 3406.94 289.083 3407.44V3416.11C289.083 3416.36 289.133 3416.61 289.229 3416.84C289.325 3417.08 289.467 3417.29 289.645 3417.47C289.823 3417.64 290.034 3417.79 290.267 3417.88C290.499 3417.98 290.749 3418.03 291 3418.03H299.666C299.918 3418.03 300.167 3417.98 300.4 3417.88C300.632 3417.79 300.844 3417.64 301.022 3417.47C301.2 3417.29 301.341 3417.08 301.438 3416.84C301.534 3416.61 301.583 3416.36 301.583 3416.11V3407.44C301.583 3407.19 301.534 3406.94 301.438 3406.71C301.341 3406.48 301.2 3406.27 301.022 3406.09C300.844 3405.91 300.632 3405.77 300.4 3405.67C300.167 3405.58 299.918 3405.53 299.666 3405.53H291Z" fill="currentColor" />
<path d="M296.333 3400.03C296.849 3400.03 297.297 3400.16 297.677 3400.44C298.041 3400.7 298.292 3401.06 298.489 3401.41C298.69 3401.78 298.559 3402.23 298.198 3402.43C297.836 3402.63 297.379 3402.5 297.178 3402.14C297.032 3401.88 296.909 3401.74 296.796 3401.65C296.699 3401.58 296.568 3401.53 296.333 3401.53H286.333C285.647 3401.53 285.083 3402.09 285.083 3402.78V3412.78L285.094 3412.94C285.116 3413.1 285.17 3413.26 285.253 3413.4C285.364 3413.6 285.524 3413.75 285.716 3413.86C286.076 3414.07 286.202 3414.53 285.997 3414.89C285.793 3415.25 285.335 3415.37 284.975 3415.17C284.553 3414.93 284.202 3414.58 283.957 3414.16C283.713 3413.74 283.584 3413.26 283.583 3412.78V3402.78C283.583 3401.26 284.819 3400.03 286.333 3400.03H296.333Z" fill="currentColor" />
</g>
</g>
</svg>