<svg xmlns="http://www.w3.org/2000/svg" width="16" height="16" viewBox="1465.40 3229.21 22.00 22.00" fill="none"><g xmlns="http://www.w3.org/2000/svg" id="ecosystem-remove">
<path id="Union_17" fill-rule="evenodd" clip-rule="evenodd" d="M1476.56 3231.14C1477.29 3231.14 1477.98 3231.43 1478.5 3231.94C1479.02 3232.46 1479.31 3233.16 1479.31 3233.89V3235.89C1479.31 3236.62 1479.02 3237.32 1478.5 3237.83C1477.98 3238.35 1477.29 3238.64 1476.56 3238.64H1476.31V3240.14H1479.56C1480.29 3240.14 1480.98 3240.43 1481.5 3240.94C1482.02 3241.46 1482.31 3242.16 1482.31 3242.89V3243.14H1482.56C1483.29 3243.14 1483.98 3243.43 1484.5 3243.94C1485.02 3244.46 1485.31 3245.16 1485.31 3245.89V3247.89C1485.31 3248.62 1485.02 3249.32 1484.5 3249.83C1483.98 3250.35 1483.29 3250.64 1482.56 3250.64H1480.56C1479.83 3250.64 1479.13 3250.35 1478.61 3249.83C1478.1 3249.32 1477.81 3248.62 1477.81 3247.89V3245.89C1477.81 3245.16 1478.1 3244.46 1478.61 3243.94C1479.13 3243.43 1479.83 3243.14 1480.56 3243.14H1480.81V3242.89C1480.81 3242.56 1480.67 3242.24 1480.44 3242C1480.21 3241.77 1479.89 3241.64 1479.56 3241.64H1471.56C1471.22 3241.64 1470.91 3241.77 1470.67 3242C1470.44 3242.24 1470.31 3242.56 1470.31 3242.89V3243.14H1470.56C1471.29 3243.14 1471.98 3243.43 1472.5 3243.94C1473.02 3244.46 1473.31 3245.16 1473.31 3245.89V3247.89C1473.31 3248.62 1473.02 3249.32 1472.5 3249.83C1471.98 3250.35 1471.29 3250.64 1470.56 3250.64H1468.56C1467.83 3250.64 1467.13 3250.35 1466.61 3249.83C1466.1 3249.32 1465.81 3248.62 1465.81 3247.89V3245.89C1465.81 3245.16 1466.1 3244.46 1466.61 3243.94C1467.13 3243.43 1467.83 3243.14 1468.56 3243.14H1468.81V3242.89C1468.81 3242.16 1469.1 3241.46 1469.61 3240.94C1470.13 3240.43 1470.83 3240.14 1471.56 3240.14H1474.81V3238.64H1474.56C1473.83 3238.64 1473.13 3238.35 1472.61 3237.83C1472.1 3237.32 1471.81 3236.62 1471.81 3235.89V3233.89C1471.81 3233.16 1472.1 3232.46 1472.61 3231.94C1473.13 3231.43 1473.83 3231.14 1474.56 3231.14H1476.56ZM1468.56 3244.64C1468.22 3244.64 1467.91 3244.77 1467.67 3245C1467.44 3245.24 1467.31 3245.56 1467.31 3245.89V3247.89C1467.31 3248.22 1467.44 3248.54 1467.67 3248.77C1467.91 3249.01 1468.22 3249.14 1468.56 3249.14H1470.56C1470.89 3249.14 1471.21 3249.01 1471.44 3248.77C1471.67 3248.54 1471.81 3248.22 1471.81 3247.89V3245.89C1471.81 3245.56 1471.67 3245.24 1471.44 3245C1471.21 3244.77 1470.89 3244.64 1470.56 3244.64H1468.56ZM1480.56 3244.64C1480.22 3244.64 1479.91 3244.77 1479.67 3245C1479.44 3245.24 1479.31 3245.56 1479.31 3245.89V3247.89C1479.31 3248.22 1479.44 3248.54 1479.67 3248.77C1479.91 3249.01 1480.22 3249.14 1480.56 3249.14H1482.56C1482.89 3249.14 1483.21 3249.01 1483.44 3248.77C1483.67 3248.54 1483.81 3248.22 1483.81 3247.89V3245.89C1483.81 3245.56 1483.67 3245.24 1483.44 3245C1483.21 3244.77 1482.89 3244.64 1482.56 3244.64H1480.56ZM1474.56 3232.64C1474.22 3232.64 1473.91 3232.77 1473.67 3233C1473.44 3233.24 1473.31 3233.56 1473.31 3233.89V3235.89C1473.31 3236.22 1473.44 3236.54 1473.67 3236.77C1473.91 3237.01 1474.22 3237.14 1474.56 3237.14H1476.56C1476.89 3237.14 1477.21 3237.01 1477.44 3236.77C1477.67 3236.54 1477.81 3236.22 1477.81 3235.89V3233.89C1477.81 3233.56 1477.67 3233.24 1477.44 3233C1477.21 3232.77 1476.89 3232.64 1476.56 3232.64H1474.56ZM1486.4 3229.78C1486.73 3229.78 1487 3230.11 1487 3230.53C1487 3230.94 1486.73 3231.28 1486.4 3231.28H1481.6C1481.27 3231.28 1481 3230.94 1481 3230.53C1481 3230.11 1481.27 3229.78 1481.6 3229.78H1486.4Z" fill="currentColor" />
</g>
</svg>