<svg xmlns="http://www.w3.org/2000/svg" width="16" height="16" viewBox="1296.67 3230.89 20.00 20.00" fill="none"><g xmlns="http://www.w3.org/2000/svg" id="ecosystem">
<path id="Union_16" d="M1307.67 3231.14C1308.4 3231.14 1309.1 3231.43 1309.61 3231.94C1310.13 3232.46 1310.42 3233.16 1310.42 3233.89V3235.89C1310.42 3236.62 1310.13 3237.32 1309.61 3237.83C1309.1 3238.35 1308.4 3238.64 1307.67 3238.64H1307.42V3240.14H1310.67C1311.4 3240.14 1312.1 3240.43 1312.61 3240.94C1313.13 3241.46 1313.42 3242.16 1313.42 3242.89V3243.14H1313.67C1314.4 3243.14 1315.1 3243.43 1315.61 3243.94C1316.13 3244.46 1316.42 3245.16 1316.42 3245.89V3247.89C1316.42 3248.62 1316.13 3249.32 1315.61 3249.83C1315.1 3250.35 1314.4 3250.64 1313.67 3250.64H1311.67C1310.94 3250.64 1310.24 3250.35 1309.72 3249.83C1309.21 3249.32 1308.92 3248.62 1308.92 3247.89V3245.89C1308.92 3245.16 1309.21 3244.46 1309.72 3243.94C1310.24 3243.43 1310.94 3243.14 1311.67 3243.14H1311.92V3242.89C1311.92 3242.56 1311.78 3242.24 1311.55 3242C1311.32 3241.77 1311 3241.64 1310.67 3241.64H1302.67C1302.34 3241.64 1302.02 3241.77 1301.78 3242C1301.55 3242.24 1301.42 3242.56 1301.42 3242.89V3243.14H1301.67C1302.4 3243.14 1303.1 3243.43 1303.61 3243.94C1304.13 3244.46 1304.42 3245.16 1304.42 3245.89V3247.89C1304.42 3248.62 1304.13 3249.32 1303.61 3249.83C1303.1 3250.35 1302.4 3250.64 1301.67 3250.64H1299.67C1298.94 3250.64 1298.24 3250.35 1297.72 3249.83C1297.21 3249.32 1296.92 3248.62 1296.92 3247.89V3245.89C1296.92 3245.16 1297.21 3244.46 1297.72 3243.94C1298.24 3243.43 1298.94 3243.14 1299.67 3243.14H1299.92V3242.89C1299.92 3242.16 1300.21 3241.46 1300.72 3240.94C1301.24 3240.43 1301.94 3240.14 1302.67 3240.14H1305.92V3238.64H1305.67C1304.94 3238.64 1304.24 3238.35 1303.72 3237.83C1303.21 3237.32 1302.92 3236.62 1302.92 3235.89V3233.89C1302.92 3233.16 1303.21 3232.46 1303.72 3231.94C1304.24 3231.43 1304.94 3231.14 1305.67 3231.14H1307.67ZM1299.67 3244.64C1299.34 3244.64 1299.02 3244.77 1298.78 3245C1298.55 3245.24 1298.42 3245.56 1298.42 3245.89V3247.89C1298.42 3248.22 1298.55 3248.54 1298.78 3248.77C1299.02 3249.01 1299.34 3249.14 1299.67 3249.14H1301.67C1302 3249.14 1302.32 3249.01 1302.55 3248.77C1302.78 3248.54 1302.92 3248.22 1302.92 3247.89V3245.89C1302.92 3245.56 1302.78 3245.24 1302.55 3245C1302.32 3244.77 1302 3244.64 1301.67 3244.64H1299.67ZM1311.67 3244.64C1311.34 3244.64 1311.02 3244.77 1310.78 3245C1310.55 3245.24 1310.42 3245.56 1310.42 3245.89V3247.89C1310.42 3248.22 1310.55 3248.54 1310.78 3248.77C1311.02 3249.01 1311.34 3249.14 1311.67 3249.14H1313.67C1314 3249.14 1314.32 3249.01 1314.55 3248.77C1314.78 3248.54 1314.92 3248.22 1314.92 3247.89V3245.89C1314.92 3245.56 1314.78 3245.24 1314.55 3245C1314.32 3244.77 1314 3244.64 1313.67 3244.64H1311.67ZM1305.67 3232.64C1305.34 3232.64 1305.02 3232.77 1304.78 3233C1304.55 3233.24 1304.42 3233.56 1304.42 3233.89V3235.89C1304.42 3236.22 1304.55 3236.54 1304.78 3236.77C1305.02 3237.01 1305.34 3237.14 1305.67 3237.14H1307.67C1308 3237.14 1308.32 3237.01 1308.55 3236.77C1308.78 3236.54 1308.92 3236.22 1308.92 3235.89V3233.89C1308.92 3233.56 1308.78 3233.24 1308.55 3233C1308.32 3232.77 1308 3232.64 1307.67 3232.64H1305.67Z" fill="currentColor" />
</g>
</svg>