<svg xmlns="http://www.w3.org/2000/svg" width="16" height="16" viewBox="621.11 3399.78 20.00 20.00" fill="none"><g xmlns="http://www.w3.org/2000/svg" id="evidence">
<path id="Union_19" d="M635.361 3413.78C635.361 3413.45 635.229 3413.13 634.995 3412.89C634.76 3412.66 634.443 3412.53 634.111 3412.53H629.861V3418.03H634.111C634.443 3418.03 634.76 3417.9 634.995 3417.66C635.229 3417.43 635.361 3417.11 635.361 3416.78V3413.78ZM639.361 3401.78C639.361 3401.71 639.335 3401.65 639.288 3401.6C639.241 3401.55 639.177 3401.53 639.111 3401.53H634.111C634.045 3401.53 633.981 3401.55 633.934 3401.6C633.887 3401.65 633.861 3401.71 633.861 3401.78V3406.78C633.861 3406.84 633.887 3406.91 633.934 3406.95C633.981 3407 634.045 3407.03 634.111 3407.03H639.111C639.177 3407.03 639.241 3407 639.288 3406.95C639.335 3406.91 639.361 3406.84 639.361 3406.78V3401.78ZM622.861 3416.78C622.861 3417.11 622.993 3417.43 623.227 3417.66C623.462 3417.9 623.78 3418.03 624.111 3418.03H628.361V3412.53H622.861V3416.78ZM628.361 3406.78C628.361 3406.45 628.229 3406.13 627.995 3405.89C627.76 3405.66 627.443 3405.53 627.111 3405.53H624.111C623.78 3405.53 623.462 3405.66 623.227 3405.89C622.993 3406.13 622.861 3406.45 622.861 3406.78V3411.03H628.361V3406.78ZM629.861 3411.03H634.111C634.84 3411.03 635.54 3411.32 636.055 3411.83C636.571 3412.35 636.861 3413.05 636.861 3413.78V3416.78C636.861 3417.51 636.571 3418.21 636.055 3418.72C635.54 3419.24 634.84 3419.53 634.111 3419.53H624.111C623.382 3419.53 622.682 3419.24 622.167 3418.72C621.651 3418.21 621.361 3417.51 621.361 3416.78V3406.78C621.361 3406.05 621.651 3405.35 622.167 3404.83C622.682 3404.32 623.382 3404.03 624.111 3404.03H627.111C627.84 3404.03 628.54 3404.32 629.055 3404.83C629.571 3405.35 629.861 3406.05 629.861 3406.78V3411.03ZM640.861 3406.78C640.861 3407.24 640.677 3407.69 640.348 3408.02C640.02 3408.34 639.575 3408.53 639.111 3408.53H634.111C633.647 3408.53 633.202 3408.34 632.874 3408.02C632.546 3407.69 632.361 3407.24 632.361 3406.78V3401.78C632.361 3401.31 632.546 3400.87 632.874 3400.54C633.202 3400.21 633.647 3400.03 634.111 3400.03H639.111C639.575 3400.03 640.02 3400.21 640.348 3400.54C640.677 3400.87 640.861 3401.31 640.861 3401.78V3406.78Z" fill="currentColor" />
</g>
</svg>