<svg xmlns="http://www.w3.org/2000/svg" width="16" height="16" viewBox="790.00 3737.56 20.00 20.00" fill="none"><g xmlns="http://www.w3.org/2000/svg" id="exit-arrow-back">
<path id="Union_30" d="M797.25 3753.56V3751.56C797.25 3751.14 797.586 3750.81 798 3750.81C798.414 3750.81 798.75 3751.14 798.75 3751.56V3753.56C798.75 3753.89 798.882 3754.21 799.116 3754.44C799.351 3754.67 799.668 3754.81 800 3754.81H807C807.332 3754.81 807.649 3754.67 807.884 3754.44C808.118 3754.21 808.25 3753.89 808.25 3753.56V3741.56C808.25 3741.22 808.118 3740.91 807.884 3740.67C807.649 3740.44 807.332 3740.31 807 3740.31H800C799.668 3740.31 799.351 3740.44 799.116 3740.67C798.882 3740.91 798.75 3741.22 798.75 3741.56V3743.56C798.75 3743.97 798.414 3744.31 798 3744.31C797.586 3744.31 797.25 3743.97 797.25 3743.56V3741.56C797.25 3740.83 797.54 3740.13 798.056 3739.61C798.571 3739.1 799.271 3738.81 800 3738.81H807C807.729 3738.81 808.429 3739.1 808.944 3739.61C809.46 3740.13 809.75 3740.83 809.75 3741.56V3753.56C809.75 3754.29 809.46 3754.98 808.944 3755.5C808.429 3756.02 807.729 3756.31 807 3756.31H800C799.271 3756.31 798.571 3756.02 798.056 3755.5C797.54 3754.98 797.25 3754.29 797.25 3753.56ZM793.47 3744.03C793.763 3743.73 794.237 3743.73 794.53 3744.03C794.823 3744.32 794.823 3744.79 794.53 3745.09L792.811 3746.81H803C803.414 3746.81 803.75 3747.14 803.75 3747.56C803.75 3747.97 803.414 3748.31 803 3748.31H792.811L794.53 3750.03C794.823 3750.32 794.823 3750.79 794.53 3751.09C794.237 3751.38 793.763 3751.38 793.47 3751.09L790.47 3748.09C790.177 3747.79 790.177 3747.32 790.47 3747.03L793.47 3744.03Z" fill="currentColor" />
</g>
</svg>