<svg xmlns="http://www.w3.org/2000/svg" width="16" height="16" viewBox="621.61 3569.45 19.00 19.00" fill="none"><g xmlns="http://www.w3.org/2000/svg" id="flag">
<path id="Union_26" d="M623.361 3587.67V3571.67C623.361 3571.47 623.442 3571.27 623.586 3571.13C624.661 3570.08 626.106 3569.49 627.611 3569.49C629.116 3569.49 630.562 3570.08 631.636 3571.13C632.431 3571.91 633.499 3572.35 634.611 3572.35C635.723 3572.35 636.791 3571.91 637.586 3571.13C637.801 3570.92 638.123 3570.86 638.401 3570.98C638.68 3571.09 638.861 3571.37 638.861 3571.67V3580.67C638.861 3580.87 638.78 3581.06 638.636 3581.2C637.562 3582.26 636.116 3582.85 634.611 3582.85C633.106 3582.85 631.661 3582.26 630.586 3581.2C629.791 3580.42 628.723 3579.99 627.611 3579.99C626.6 3579.99 625.627 3580.35 624.861 3581V3587.67C624.861 3588.08 624.525 3588.42 624.111 3588.42C623.697 3588.42 623.361 3588.08 623.361 3587.67ZM627.611 3570.99C626.6 3570.99 625.627 3571.35 624.861 3572V3579.19C625.698 3578.73 626.642 3578.49 627.611 3578.49C629.116 3578.49 630.562 3579.08 631.636 3580.13C632.431 3580.91 633.499 3581.35 634.611 3581.35C635.622 3581.35 636.596 3580.99 637.361 3580.34V3573.14C636.524 3573.6 635.581 3573.85 634.611 3573.85C633.106 3573.85 631.661 3573.26 630.586 3572.2C629.791 3571.42 628.723 3570.99 627.611 3570.99Z" fill="currentColor" />
</g>
</svg>