<svg xmlns="http://www.w3.org/2000/svg" width="16" height="16" viewBox="452.22 3399.78 20.00 20.00" fill="none"><g xmlns="http://www.w3.org/2000/svg" id="formula">
<g id="Union_18">
<path d="M461.222 3400.03C461.952 3400.03 462.651 3400.32 463.167 3400.83C463.682 3401.35 463.972 3402.05 463.972 3402.78C463.972 3403.19 463.636 3403.53 463.222 3403.53C462.808 3403.53 462.472 3403.19 462.472 3402.78C462.472 3402.45 462.34 3402.13 462.106 3401.89C461.872 3401.66 461.554 3401.53 461.222 3401.53C461.036 3401.53 460.873 3401.59 460.677 3401.89C460.457 3402.23 460.261 3402.78 460.078 3403.57C459.897 3404.35 459.745 3405.3 459.572 3406.38C459.441 3407.2 459.3 3408.09 459.128 3409.03H461.222C461.636 3409.03 461.972 3409.36 461.972 3409.78C461.972 3410.19 461.636 3410.53 461.222 3410.53H458.843C458.653 3411.54 458.497 3412.51 458.353 3413.41C458.182 3414.48 458.022 3415.48 457.828 3416.32C457.636 3417.15 457.394 3417.92 457.021 3418.49C456.623 3419.09 456.036 3419.53 455.222 3419.53C454.493 3419.53 453.794 3419.24 453.278 3418.72C452.762 3418.21 452.472 3417.51 452.472 3416.78C452.472 3416.36 452.808 3416.03 453.222 3416.03C453.636 3416.03 453.972 3416.36 453.972 3416.78C453.972 3417.11 454.104 3417.43 454.338 3417.66C454.573 3417.9 454.891 3418.03 455.222 3418.03C455.408 3418.03 455.572 3417.96 455.767 3417.66C455.988 3417.33 456.183 3416.78 456.367 3415.98C456.547 3415.2 456.7 3414.26 456.873 3413.18C457.003 3412.36 457.145 3411.47 457.316 3410.53H455.222C454.808 3410.53 454.472 3410.19 454.472 3409.78C454.472 3409.36 454.808 3409.03 455.222 3409.03H457.601C457.792 3408.01 457.947 3407.05 458.091 3406.14C458.262 3405.07 458.422 3404.08 458.617 3403.23C458.808 3402.4 459.05 3401.64 459.423 3401.07C459.822 3400.46 460.408 3400.03 461.222 3400.03Z" fill="currentColor" />
<path d="M470.692 3409.25C470.985 3408.95 471.46 3408.95 471.753 3409.25C472.045 3409.54 472.045 3410.02 471.753 3410.31L469.283 3412.78L471.753 3415.25C472.045 3415.54 472.045 3416.02 471.753 3416.31C471.46 3416.6 470.985 3416.6 470.692 3416.31L468.222 3413.84L465.753 3416.31C465.46 3416.6 464.985 3416.6 464.692 3416.31C464.399 3416.02 464.399 3415.54 464.692 3415.25L467.162 3412.78L464.692 3410.31C464.399 3410.02 464.399 3409.54 464.692 3409.25C464.985 3408.95 465.46 3408.95 465.753 3409.25L468.222 3411.72L470.692 3409.25Z" fill="currentColor" />
</g>
</g>
</svg>