<svg xmlns="http://www.w3.org/2000/svg" width="16" height="16" viewBox="791.50 2114.56 18.00 18.00" fill="none"><g xmlns="http://www.w3.org/2000/svg" id="git-branch">
<path id="Union_6" d="M795 2114.81C795.729 2114.81 796.429 2115.1 796.944 2115.61C797.46 2116.13 797.75 2116.83 797.75 2117.56C797.75 2118.28 797.46 2118.98 796.944 2119.5C796.61 2119.83 796.197 2120.07 795.75 2120.2V2126.91C796.197 2127.04 796.61 2127.28 796.944 2127.61C797.279 2127.95 797.517 2128.36 797.644 2128.81H803C803.332 2128.81 803.649 2128.67 803.884 2128.44C804.118 2128.2 804.25 2127.89 804.25 2127.56V2124.37L802.53 2126.09C802.237 2126.38 801.763 2126.38 801.47 2126.09C801.177 2125.79 801.177 2125.32 801.47 2125.03L804.47 2122.03L804.526 2121.97C804.537 2121.97 804.548 2121.96 804.559 2121.95C804.574 2121.94 804.59 2121.93 804.606 2121.92C804.63 2121.9 804.655 2121.89 804.68 2121.88C804.698 2121.87 804.716 2121.86 804.735 2121.86C804.763 2121.84 804.791 2121.84 804.819 2121.83C804.839 2121.82 804.859 2121.82 804.88 2121.82C804.891 2121.81 804.902 2121.81 804.913 2121.81C804.942 2121.81 804.971 2121.81 805 2121.81C805.009 2121.81 805.017 2121.81 805.025 2121.81C805.032 2121.81 805.038 2121.81 805.045 2121.81C805.084 2121.81 805.122 2121.81 805.159 2121.82C805.192 2121.83 805.225 2121.84 805.257 2121.85C805.269 2121.86 805.283 2121.86 805.295 2121.86C805.314 2121.87 805.331 2121.89 805.35 2121.9C805.373 2121.91 805.398 2121.92 805.42 2121.93C805.459 2121.96 805.496 2121.99 805.53 2122.03L808.53 2125.03C808.823 2125.32 808.823 2125.79 808.53 2126.09C808.237 2126.38 807.763 2126.38 807.47 2126.09L805.75 2124.37V2127.56C805.75 2128.28 805.46 2128.98 804.944 2129.5C804.429 2130.02 803.729 2130.31 803 2130.31H797.644C797.517 2130.75 797.279 2131.17 796.944 2131.5C796.429 2132.02 795.729 2132.31 795 2132.31C794.271 2132.31 793.571 2132.02 793.056 2131.5C792.54 2130.98 792.25 2130.28 792.25 2129.56C792.25 2128.83 792.54 2128.13 793.056 2127.61C793.39 2127.28 793.803 2127.04 794.25 2126.91V2120.2C793.803 2120.07 793.39 2119.83 793.056 2119.5C792.54 2118.98 792.25 2118.28 792.25 2117.56C792.25 2116.83 792.54 2116.13 793.056 2115.61C793.571 2115.1 794.271 2114.81 795 2114.81ZM795 2128.31C794.668 2128.31 794.351 2128.44 794.116 2128.67C793.882 2128.91 793.75 2129.22 793.75 2129.56C793.75 2129.89 793.882 2130.2 794.116 2130.44C794.351 2130.67 794.668 2130.81 795 2130.81C795.332 2130.81 795.649 2130.67 795.884 2130.44C796.118 2130.2 796.25 2129.89 796.25 2129.56C796.25 2129.22 796.118 2128.91 795.884 2128.67C795.649 2128.44 795.332 2128.31 795 2128.31ZM805 2114.81C805.729 2114.81 806.429 2115.1 806.944 2115.61C807.46 2116.13 807.75 2116.83 807.75 2117.56C807.75 2118.28 807.46 2118.98 806.944 2119.5C806.429 2120.02 805.729 2120.31 805 2120.31C804.271 2120.31 803.571 2120.02 803.056 2119.5C802.54 2118.98 802.25 2118.28 802.25 2117.56C802.25 2116.83 802.54 2116.13 803.056 2115.61C803.571 2115.1 804.271 2114.81 805 2114.81ZM795 2116.31C794.668 2116.31 794.351 2116.44 794.116 2116.67C793.882 2116.91 793.75 2117.22 793.75 2117.56C793.75 2117.89 793.882 2118.2 794.116 2118.44C794.351 2118.67 794.668 2118.81 795 2118.81C795.332 2118.81 795.649 2118.67 795.884 2118.44C796.118 2118.2 796.25 2117.89 796.25 2117.56C796.25 2117.22 796.118 2116.91 795.884 2116.67C795.649 2116.44 795.332 2116.31 795 2116.31ZM805 2116.31C804.668 2116.31 804.351 2116.44 804.116 2116.67C803.882 2116.91 803.75 2117.22 803.75 2117.56C803.75 2117.89 803.882 2118.2 804.116 2118.44C804.351 2118.67 804.668 2118.81 805 2118.81C805.332 2118.81 805.649 2118.67 805.884 2118.44C806.118 2118.2 806.25 2117.89 806.25 2117.56C806.25 2117.22 806.118 2116.91 805.884 2116.67C805.649 2116.44 805.332 2116.31 805 2116.31Z" fill="currentColor" />
</g>
</svg>