<svg xmlns="http://www.w3.org/2000/svg" width="16" height="16" viewBox="622.11 1776.77 18.00 18.00" fill="none"><g xmlns="http://www.w3.org/2000/svg" id="map-layers">
<path id="union_40" d="M638.776 1787.11C639.147 1786.92 639.597 1787.07 639.782 1787.44C639.967 1787.81 639.816 1788.26 639.446 1788.45L631.446 1792.45C631.235 1792.55 630.987 1792.55 630.776 1792.45L622.776 1788.45C622.406 1788.26 622.255 1787.81 622.44 1787.44C622.625 1787.07 623.076 1786.92 623.446 1787.11L631.111 1790.94L638.776 1787.11ZM630.856 1779.07C631.048 1779 631.261 1779.01 631.446 1779.11L639.446 1783.11C639.7 1783.23 639.861 1783.49 639.861 1783.78C639.861 1784.06 639.7 1784.32 639.446 1784.45L631.446 1788.45C631.235 1788.55 630.987 1788.55 630.776 1788.45L622.776 1784.45C622.522 1784.32 622.361 1784.06 622.361 1783.78C622.361 1783.49 622.522 1783.23 622.776 1783.11L630.776 1779.11L630.856 1779.07ZM624.788 1783.78L631.111 1786.94L637.434 1783.78L631.111 1780.62L624.788 1783.78Z" fill="currentColor" />
</g>
</svg>