<svg xmlns="http://www.w3.org/2000/svg" width="16" height="16" viewBox="620.11 1943.67 22.00 22.00" fill="none"><g xmlns="http://www.w3.org/2000/svg" id="map-location">
<path id="union_49" d="M630.361 1964.67V1963.38C628.315 1963.21 626.387 1962.32 624.924 1960.85C623.46 1959.39 622.571 1957.46 622.395 1955.42H621.111C620.697 1955.42 620.361 1955.08 620.361 1954.67C620.361 1954.25 620.697 1953.92 621.111 1953.92H622.395C622.571 1951.87 623.46 1949.94 624.924 1948.48C626.387 1947.02 628.315 1946.13 630.361 1945.95V1944.67C630.361 1944.25 630.697 1943.92 631.111 1943.92C631.525 1943.92 631.861 1944.25 631.861 1944.67V1945.95C633.907 1946.13 635.835 1947.02 637.299 1948.48C638.762 1949.94 639.651 1951.87 639.827 1953.92H641.111C641.525 1953.92 641.861 1954.25 641.861 1954.67C641.861 1955.08 641.525 1955.42 641.111 1955.42H639.827C639.651 1957.46 638.762 1959.39 637.299 1960.85C635.835 1962.32 633.907 1963.21 631.861 1963.38V1964.67C631.861 1965.08 631.525 1965.42 631.111 1965.42C630.697 1965.42 630.361 1965.08 630.361 1964.67ZM631.111 1947.42C629.188 1947.42 627.344 1948.18 625.984 1949.54C624.624 1950.9 623.861 1952.74 623.861 1954.67C623.861 1956.59 624.624 1958.43 625.984 1959.79C627.344 1961.15 629.188 1961.92 631.111 1961.92C633.034 1961.92 634.878 1961.15 636.238 1959.79C637.598 1958.43 638.361 1956.59 638.361 1954.67C638.361 1952.74 637.598 1950.9 636.238 1949.54C634.878 1948.18 633.034 1947.42 631.111 1947.42ZM633.361 1954.67C633.361 1954.07 633.124 1953.5 632.702 1953.08C632.28 1952.65 631.708 1952.42 631.111 1952.42C630.514 1952.42 629.942 1952.65 629.52 1953.08C629.098 1953.5 628.861 1954.07 628.861 1954.67C628.861 1955.26 629.098 1955.84 629.52 1956.26C629.942 1956.68 630.514 1956.92 631.111 1956.92C631.708 1956.92 632.28 1956.68 632.702 1956.26C633.124 1955.84 633.361 1955.26 633.361 1954.67ZM634.861 1954.67C634.861 1955.66 634.466 1956.61 633.762 1957.32C633.059 1958.02 632.106 1958.42 631.111 1958.42C630.117 1958.42 629.163 1958.02 628.46 1957.32C627.756 1956.61 627.361 1955.66 627.361 1954.67C627.361 1953.67 627.756 1952.72 628.46 1952.02C629.163 1951.31 630.117 1950.92 631.111 1950.92C632.106 1950.92 633.059 1951.31 633.762 1952.02C634.466 1952.72 634.861 1953.67 634.861 1954.67Z" fill="currentColor" />
</g>
</svg>