<svg xmlns="http://www.w3.org/2000/svg" width="16" height="16" viewBox="452.22 1944.91 20.00 20.00" fill="none"><g xmlns="http://www.w3.org/2000/svg" id="map-pin">
<path id="union_48" d="M462.222 1944.92C463.953 1944.92 465.645 1945.43 467.084 1946.39C468.522 1947.35 469.644 1948.72 470.306 1950.32C470.968 1951.92 471.142 1953.68 470.804 1955.37C470.467 1957.07 469.633 1958.63 468.41 1959.85L464.167 1964.1V1964.1C463.651 1964.61 462.952 1964.9 462.223 1964.9C461.494 1964.9 460.795 1964.61 460.279 1964.1V1964.1L456.035 1959.85C454.811 1958.63 453.978 1957.07 453.64 1955.37C453.303 1953.68 453.476 1951.92 454.138 1950.32C454.801 1948.72 455.922 1947.35 457.361 1946.39C458.8 1945.43 460.492 1944.92 462.222 1944.92ZM462.222 1946.42C460.788 1946.42 459.386 1946.84 458.194 1947.64C457.002 1948.44 456.073 1949.57 455.524 1950.89C454.975 1952.22 454.832 1953.67 455.112 1955.08C455.392 1956.49 456.082 1957.78 457.095 1958.79L461.339 1963.04L461.431 1963.12C461.654 1963.3 461.933 1963.4 462.223 1963.4C462.554 1963.4 462.872 1963.27 463.106 1963.04L467.349 1958.79C468.363 1957.78 469.053 1956.49 469.333 1955.08C469.612 1953.67 469.469 1952.22 468.92 1950.89C468.372 1949.57 467.443 1948.44 466.251 1947.64C465.058 1946.84 463.656 1946.42 462.222 1946.42ZM464.472 1953.67C464.472 1953.07 464.235 1952.5 463.813 1952.08C463.391 1951.65 462.819 1951.42 462.222 1951.42C461.625 1951.42 461.053 1951.65 460.631 1952.08C460.21 1952.5 459.972 1953.07 459.972 1953.67C459.972 1954.26 460.21 1954.84 460.631 1955.26C461.053 1955.68 461.626 1955.92 462.222 1955.92C462.819 1955.92 463.391 1955.68 463.813 1955.26C464.235 1954.84 464.472 1954.26 464.472 1953.67ZM465.972 1953.67C465.972 1954.66 465.577 1955.62 464.874 1956.32C464.17 1957.02 463.217 1957.42 462.222 1957.42C461.228 1957.42 460.274 1957.02 459.571 1956.32C458.868 1955.62 458.472 1954.66 458.472 1953.67C458.472 1952.67 458.868 1951.72 459.571 1951.01C460.274 1950.31 461.228 1949.92 462.222 1949.92C463.217 1949.92 464.17 1950.31 464.874 1951.01C465.577 1951.72 465.972 1952.67 465.972 1953.67Z" fill="currentColor" />
</g>
</svg>