<svg xmlns="http://www.w3.org/2000/svg" width="16" height="16" viewBox="114.44 1944.67 20.00 20.00" fill="none"><g xmlns="http://www.w3.org/2000/svg" id="map-views">
<path id="union_46" d="M124.444 1947.92C128.386 1947.92 131.598 1950.13 134.088 1954.28C134.23 1954.52 134.23 1954.82 134.088 1955.05C131.598 1959.2 128.386 1961.42 124.444 1961.42C120.503 1961.42 117.291 1959.2 114.801 1955.05C114.659 1954.82 114.659 1954.52 114.801 1954.28C117.291 1950.13 120.503 1947.92 124.444 1947.92ZM124.444 1949.42C121.297 1949.42 118.588 1951.08 116.325 1954.67C118.588 1958.25 121.297 1959.92 124.444 1959.92C127.592 1959.92 130.3 1958.25 132.563 1954.67C130.3 1951.08 127.592 1949.42 124.444 1949.42ZM125.694 1954.67C125.694 1954.34 125.563 1954.02 125.328 1953.78C125.094 1953.55 124.776 1953.42 124.444 1953.42C124.113 1953.42 123.795 1953.55 123.561 1953.78C123.326 1954.02 123.194 1954.34 123.194 1954.67C123.194 1955 123.326 1955.32 123.561 1955.55C123.795 1955.78 124.113 1955.92 124.444 1955.92C124.776 1955.92 125.094 1955.78 125.328 1955.55C125.563 1955.32 125.694 1955 125.694 1954.67ZM127.194 1954.67C127.194 1955.4 126.905 1956.1 126.389 1956.61C125.873 1957.13 125.174 1957.42 124.444 1957.42C123.715 1957.42 123.016 1957.13 122.5 1956.61C121.984 1956.1 121.694 1955.4 121.694 1954.67C121.694 1953.94 121.984 1953.24 122.5 1952.72C123.016 1952.21 123.715 1951.92 124.444 1951.92C125.174 1951.92 125.873 1952.21 126.389 1952.72C126.905 1953.24 127.194 1953.94 127.194 1954.67Z" fill="currentColor" />
</g>
</svg>