<svg xmlns="http://www.w3.org/2000/svg" width="16" height="16" viewBox="1295.67 1774.78 22.00 22.00" fill="none"><g xmlns="http://www.w3.org/2000/svg" id="map-view-3d">
<path id="union_44" d="M1314.92 1781.88L1307.42 1786.21V1794.79L1314.29 1790.85C1314.68 1790.63 1314.92 1790.22 1314.92 1789.79V1781.88ZM1306.67 1776.53C1306.45 1776.53 1306.23 1776.58 1306.04 1776.69L1306.04 1776.69L1299.21 1780.61L1306.67 1784.91L1314.12 1780.61L1307.29 1776.69C1307.1 1776.58 1306.89 1776.53 1306.67 1776.53ZM1314.46 1780.41L1314.46 1780.41L1314.67 1780.05L1314.46 1780.41ZM1298.42 1789.79C1298.42 1790.22 1298.65 1790.63 1299.04 1790.85H1299.04L1305.92 1794.79V1786.21L1298.42 1781.88V1789.79ZM1316.42 1789.79C1316.42 1790.7 1315.95 1791.55 1315.2 1792.06L1315.04 1792.15L1308.04 1796.16H1308.04C1307.62 1796.4 1307.15 1796.53 1306.67 1796.53C1306.19 1796.53 1305.71 1796.4 1305.29 1796.16H1305.29L1298.29 1792.15V1792.16C1297.44 1791.67 1296.92 1790.77 1296.92 1789.79V1781.77C1296.92 1781.33 1297.02 1780.9 1297.22 1780.52C1297.24 1780.47 1297.26 1780.41 1297.29 1780.36C1297.32 1780.3 1297.37 1780.25 1297.41 1780.2C1297.64 1779.88 1297.94 1779.6 1298.29 1779.4L1305.29 1775.39H1305.29C1305.71 1775.15 1306.19 1775.03 1306.67 1775.03C1307.15 1775.03 1307.62 1775.15 1308.04 1775.39H1308.04L1315.04 1779.4L1315.19 1779.49C1315.48 1779.68 1315.72 1779.92 1315.92 1780.21C1315.97 1780.25 1316.01 1780.3 1316.05 1780.36C1316.08 1780.41 1316.1 1780.47 1316.11 1780.52C1316.31 1780.91 1316.42 1781.33 1316.42 1781.77V1789.79Z" fill="currentColor" />
</g>
</svg>