<svg xmlns="http://www.w3.org/2000/svg" width="16" height="16" viewBox="1295.86 1944.16 21.00 21.00" fill="none"><g xmlns="http://www.w3.org/2000/svg" id="map-tool-bar-pointer-dot">
<g id="union_53">
<path d="M1300.83 1961.83C1300.83 1961.4 1300.65 1960.98 1300.35 1960.67C1300.04 1960.37 1299.62 1960.19 1299.19 1960.19C1298.75 1960.19 1298.34 1960.37 1298.03 1960.67C1297.72 1960.98 1297.55 1961.4 1297.55 1961.83C1297.55 1962.27 1297.72 1962.68 1298.03 1962.99C1298.34 1963.3 1298.75 1963.47 1299.19 1963.47C1299.62 1963.47 1300.04 1963.3 1300.35 1962.99C1300.65 1962.68 1300.83 1962.27 1300.83 1961.83ZM1315.16 1947.5C1315.16 1947.07 1314.99 1946.65 1314.68 1946.34C1314.37 1946.03 1313.96 1945.86 1313.52 1945.86C1313.09 1945.86 1312.67 1946.03 1312.36 1946.34C1312.06 1946.65 1311.88 1947.07 1311.88 1947.5C1311.88 1947.93 1312.06 1948.35 1312.36 1948.66C1312.67 1948.97 1313.09 1949.14 1313.52 1949.14C1313.96 1949.14 1314.37 1948.97 1314.68 1948.66C1314.99 1948.35 1315.16 1947.93 1315.16 1947.5ZM1302.33 1961.83C1302.33 1962.67 1302 1963.46 1301.41 1964.05C1300.82 1964.64 1300.02 1964.97 1299.19 1964.97C1298.36 1964.97 1297.56 1964.64 1296.97 1964.05C1296.38 1963.46 1296.05 1962.67 1296.05 1961.83C1296.05 1961 1296.38 1960.2 1296.97 1959.61C1297.56 1959.03 1298.36 1958.69 1299.19 1958.69C1299.77 1958.69 1300.33 1958.85 1300.81 1959.15L1303.83 1956.14C1304.12 1955.84 1304.59 1955.84 1304.89 1956.14C1305.18 1956.43 1305.18 1956.9 1304.89 1957.2L1301.87 1960.21C1302.17 1960.69 1302.33 1961.26 1302.33 1961.83ZM1316.66 1947.5C1316.66 1948.33 1316.33 1949.13 1315.74 1949.72C1315.15 1950.31 1314.35 1950.64 1313.52 1950.64C1312.94 1950.64 1312.38 1950.48 1311.9 1950.18L1309.2 1952.88C1308.9 1953.18 1308.43 1953.18 1308.14 1952.88C1307.84 1952.59 1307.84 1952.12 1308.14 1951.82L1310.84 1949.12C1310.54 1948.64 1310.38 1948.08 1310.38 1947.5C1310.38 1946.67 1310.71 1945.87 1311.3 1945.28C1311.89 1944.69 1312.69 1944.36 1313.52 1944.36C1314.35 1944.36 1315.15 1944.69 1315.74 1945.28C1316.33 1945.87 1316.66 1946.67 1316.66 1947.5Z" fill="currentColor" />
<path fill-rule="evenodd" clip-rule="evenodd" d="M1303.18 1951.18C1303.63 1950.73 1304.29 1950.56 1304.91 1950.74L1310.92 1952.51C1311.63 1952.72 1312.13 1953.35 1312.17 1954.09C1312.21 1954.83 1311.78 1955.51 1311.1 1955.8L1311.09 1955.8L1308.87 1956.73C1308.81 1956.76 1308.76 1956.81 1308.73 1956.87L1307.8 1959.1L1307.8 1959.1C1307.51 1959.78 1306.83 1960.21 1306.09 1960.17C1305.35 1960.13 1304.72 1959.63 1304.51 1958.92V1958.92L1302.74 1952.91C1302.56 1952.3 1302.73 1951.63 1303.18 1951.18ZM1304.24 1952.24C1304.3 1952.18 1304.4 1952.15 1304.49 1952.17L1310.49 1953.95C1310.59 1953.98 1310.66 1954.07 1310.67 1954.17C1310.67 1954.28 1310.61 1954.37 1310.52 1954.41H1310.51L1308.29 1955.35C1307.87 1955.53 1307.53 1955.87 1307.35 1956.29L1306.41 1958.52L1306.41 1958.52C1306.37 1958.62 1306.28 1958.68 1306.17 1958.67C1306.07 1958.67 1305.98 1958.6 1305.95 1958.5L1304.18 1952.49C1304.15 1952.4 1304.18 1952.3 1304.24 1952.24Z" fill="currentColor" />
</g>
</g>
</svg>