<svg xmlns="http://www.w3.org/2000/svg" width="16" height="16" viewBox="1464.40 1776.28 22.00 22.00" fill="none"><g xmlns="http://www.w3.org/2000/svg" id="map-risk-storm">
<path id="union_45" d="M1481.93 1789.36C1482.16 1789.02 1482.63 1788.92 1482.97 1789.15C1483.32 1789.38 1483.41 1789.85 1483.18 1790.19L1481.96 1792.03H1484.56C1484.83 1792.03 1485.09 1792.18 1485.22 1792.42C1485.35 1792.67 1485.33 1792.96 1485.18 1793.19L1483.18 1796.19C1482.95 1796.54 1482.48 1796.63 1482.14 1796.4C1481.8 1796.17 1481.7 1795.71 1481.93 1795.36L1483.15 1793.53H1480.56C1480.28 1793.53 1480.03 1793.38 1479.89 1793.13C1479.76 1792.89 1479.78 1792.59 1479.93 1792.36L1481.93 1789.36ZM1464.81 1787.29C1464.81 1784.57 1466.94 1782.37 1469.64 1782.09C1470.24 1780.3 1471.75 1778.91 1473.67 1778.32V1778.32C1475.78 1777.68 1478.11 1778.1 1479.8 1779.45C1481.25 1780.61 1482.03 1782.31 1481.95 1784.06H1482.09C1483.79 1784.06 1485.26 1785.07 1485.92 1786.53C1486.09 1786.9 1485.93 1787.35 1485.55 1787.52C1485.18 1787.69 1484.73 1787.53 1484.56 1787.15C1484.13 1786.21 1483.18 1785.56 1482.09 1785.56H1481.1C1480.87 1785.56 1480.66 1785.46 1480.52 1785.28C1480.37 1785.1 1480.32 1784.87 1480.37 1784.65C1480.69 1783.18 1480.14 1781.65 1478.86 1780.63L1478.86 1780.62C1477.58 1779.59 1475.76 1779.25 1474.11 1779.76C1472.46 1780.26 1471.27 1781.51 1470.94 1782.98C1470.87 1783.32 1470.56 1783.56 1470.21 1783.56C1468.03 1783.56 1466.31 1785.26 1466.31 1787.29C1466.31 1789.33 1468.03 1791.03 1470.21 1791.03H1476.56C1476.97 1791.03 1477.31 1791.37 1477.31 1791.78C1477.31 1792.2 1476.97 1792.53 1476.56 1792.53H1470.21C1467.25 1792.53 1464.81 1790.21 1464.81 1787.29Z" fill="currentColor" />
</g>
</svg>