<svg xmlns="http://www.w3.org/2000/svg" width="16" height="16" viewBox="1465.58 1944.66 20.00 20.00" fill="none"><g xmlns="http://www.w3.org/2000/svg" id="map-risk-cyclone">
<path id="union_54" d="M1473.06 1957.92C1473.65 1957.91 1474.24 1958.06 1474.76 1958.37C1475.28 1958.68 1475.7 1959.12 1475.98 1959.66C1476.26 1960.19 1476.39 1960.8 1476.34 1961.4C1476.3 1962 1476.09 1962.58 1475.74 1963.07C1475.38 1963.56 1474.9 1963.94 1474.34 1964.17C1473.79 1964.4 1473.17 1964.47 1472.58 1964.37C1471.98 1964.28 1471.43 1964.01 1470.97 1963.62C1470.51 1963.22 1470.18 1962.71 1470 1962.13C1469.88 1961.73 1470.1 1961.31 1470.49 1961.19C1470.89 1961.07 1471.31 1961.29 1471.43 1961.68C1471.53 1962 1471.71 1962.27 1471.95 1962.49C1472.2 1962.7 1472.5 1962.84 1472.82 1962.89C1473.14 1962.95 1473.47 1962.91 1473.77 1962.78C1474.07 1962.66 1474.33 1962.45 1474.52 1962.19C1474.71 1961.93 1474.83 1961.62 1474.85 1961.29C1474.87 1960.97 1474.8 1960.64 1474.65 1960.35C1474.5 1960.07 1474.27 1959.83 1474 1959.66C1473.72 1959.49 1473.4 1959.41 1473.07 1959.42C1473.07 1959.42 1473.06 1959.42 1473.06 1959.42H1467.56C1467.14 1959.42 1466.81 1959.08 1466.81 1958.67C1466.81 1958.25 1467.14 1957.92 1467.56 1957.92H1473.06ZM1482.06 1953.92C1482.65 1953.91 1483.24 1954.06 1483.76 1954.37C1484.28 1954.68 1484.7 1955.12 1484.98 1955.66C1485.26 1956.19 1485.39 1956.8 1485.34 1957.4C1485.3 1958 1485.09 1958.58 1484.74 1959.07C1484.38 1959.56 1483.9 1959.94 1483.34 1960.17C1482.79 1960.4 1482.17 1960.47 1481.58 1960.37C1480.98 1960.28 1480.43 1960.01 1479.97 1959.62C1479.51 1959.22 1479.18 1958.71 1479 1958.13C1478.88 1957.73 1479.1 1957.31 1479.49 1957.19C1479.89 1957.07 1480.31 1957.29 1480.43 1957.68C1480.53 1958 1480.71 1958.27 1480.95 1958.49C1481.2 1958.7 1481.5 1958.84 1481.82 1958.89C1482.14 1958.95 1482.47 1958.91 1482.77 1958.78C1483.07 1958.66 1483.33 1958.45 1483.52 1958.19C1483.71 1957.93 1483.83 1957.62 1483.85 1957.29C1483.87 1956.97 1483.8 1956.64 1483.65 1956.35C1483.5 1956.07 1483.27 1955.83 1483 1955.66C1482.72 1955.49 1482.4 1955.41 1482.07 1955.42C1482.07 1955.42 1482.06 1955.42 1482.06 1955.42H1466.56C1466.14 1955.42 1465.81 1955.08 1465.81 1954.67C1465.81 1954.25 1466.14 1953.92 1466.56 1953.92H1482.06ZM1476.58 1944.96C1477.17 1944.86 1477.79 1944.93 1478.34 1945.16C1478.9 1945.39 1479.38 1945.77 1479.74 1946.26C1480.09 1946.75 1480.3 1947.33 1480.34 1947.93C1480.39 1948.54 1480.26 1949.14 1479.98 1949.67C1479.7 1950.21 1479.28 1950.66 1478.76 1950.96C1478.24 1951.27 1477.65 1951.42 1477.06 1951.42V1951.42H1468.56C1468.14 1951.42 1467.81 1951.08 1467.81 1950.67C1467.81 1950.25 1468.14 1949.92 1468.56 1949.92H1477.07C1477.4 1949.92 1477.72 1949.84 1478 1949.67C1478.27 1949.51 1478.5 1949.27 1478.65 1948.98C1478.8 1948.69 1478.87 1948.37 1478.85 1948.04C1478.83 1947.72 1478.71 1947.41 1478.52 1947.14C1478.33 1946.88 1478.07 1946.67 1477.77 1946.55C1477.47 1946.43 1477.14 1946.39 1476.82 1946.44C1476.5 1946.49 1476.2 1946.63 1475.95 1946.85C1475.71 1947.06 1475.53 1947.34 1475.43 1947.65C1475.31 1948.04 1474.89 1948.27 1474.49 1948.14C1474.1 1948.02 1473.88 1947.6 1474 1947.2C1474.18 1946.63 1474.51 1946.11 1474.97 1945.72C1475.43 1945.32 1475.98 1945.06 1476.58 1944.96Z" fill="currentColor" />
</g>
</svg>