<svg xmlns="http://www.w3.org/2000/svg" width="16" height="16" viewBox="114.19 2113.49 21.00 21.00" fill="none"><g xmlns="http://www.w3.org/2000/svg" id="map-risk-flood">
<g id="union_55">
<path d="M123.08 2130.97C123.926 2130.49 124.963 2130.49 125.809 2130.97L127.243 2131.79C127.654 2132.03 128.163 2132.01 128.557 2131.75L129.419 2131.17C130.343 2130.56 131.546 2130.56 132.47 2131.17L134.36 2132.43C134.705 2132.66 134.798 2133.13 134.568 2133.47C134.339 2133.82 133.873 2133.91 133.528 2133.68L131.638 2132.42C131.218 2132.14 130.671 2132.14 130.251 2132.42L129.389 2132.99C128.522 2133.57 127.403 2133.61 126.499 2133.09L125.065 2132.27C124.68 2132.05 124.209 2132.05 123.824 2132.27L122.39 2133.09C121.485 2133.61 120.367 2133.57 119.5 2132.99L118.638 2132.42C118.218 2132.14 117.671 2132.14 117.251 2132.42L115.36 2133.68C115.016 2133.91 114.55 2133.82 114.32 2133.47C114.091 2133.13 114.184 2132.66 114.528 2132.43L116.419 2131.17C117.343 2130.56 118.546 2130.56 119.47 2131.17L120.332 2131.75C120.726 2132.01 121.235 2132.03 121.646 2131.79L123.08 2130.97ZM123.58 2126.47C124.426 2125.99 125.463 2125.99 126.309 2126.47L127.743 2127.29C128.154 2127.53 128.663 2127.51 129.057 2127.25L129.919 2126.67C130.843 2126.06 132.046 2126.06 132.97 2126.67L134.86 2127.93C135.205 2128.16 135.298 2128.63 135.068 2128.97C134.839 2129.32 134.373 2129.41 134.028 2129.18L132.138 2127.92C131.718 2127.64 131.171 2127.64 130.751 2127.92L129.889 2128.49C129.022 2129.07 127.903 2129.11 126.999 2128.59L125.565 2127.77C125.18 2127.55 124.709 2127.55 124.324 2127.77L122.89 2128.59C121.985 2129.11 120.867 2129.07 120 2128.49L119.138 2127.92C118.718 2127.64 118.171 2127.64 117.751 2127.92L115.86 2129.18C115.516 2129.41 115.05 2129.32 114.82 2128.97C114.591 2128.63 114.684 2128.16 115.028 2127.93L116.919 2126.67C117.843 2126.06 119.046 2126.06 119.97 2126.67L120.832 2127.25C121.226 2127.51 121.735 2127.53 122.146 2127.29L123.58 2126.47Z" fill="currentColor" />
<path d="M128.672 2127.87C128.772 2128.28 128.528 2128.68 128.126 2128.78C127.724 2128.88 127.317 2128.64 127.217 2128.24L125.904 2122.99L123.848 2123.58L124.672 2126.87C124.772 2127.28 124.528 2127.68 124.126 2127.78C123.724 2127.88 123.317 2127.64 123.217 2127.24L122.041 2122.53L126.238 2121.33L126.984 2121.12L128.672 2127.87ZM132.692 2117.85C133.083 2117.98 133.289 2118.41 133.152 2118.8C133.016 2119.19 132.587 2119.4 132.196 2119.26L130.65 2118.72L132.672 2126.87C132.772 2127.28 132.527 2127.68 132.125 2127.78C131.723 2127.88 131.317 2127.64 131.217 2127.24L128.956 2118.13L122.709 2115.94L118.906 2120.92L120.668 2127.36C120.777 2127.76 120.542 2128.17 120.143 2128.28C119.743 2128.39 119.33 2128.15 119.221 2127.75L117.76 2122.41L116.54 2124.01C116.288 2124.34 115.817 2124.4 115.488 2124.15C115.16 2123.9 115.097 2123.43 115.349 2123.1L122.179 2114.17L132.692 2117.85Z" fill="currentColor" />
</g>
</g>
</svg>