<svg xmlns="http://www.w3.org/2000/svg" width="16" height="16" viewBox="791.00 1776.78 18.00 18.00" fill="none"><g xmlns="http://www.w3.org/2000/svg" id="map-opacity">
<path id="union_41" d="M807.25 1779.78C807.25 1779.45 807.118 1779.13 806.884 1778.89C806.649 1778.66 806.332 1778.53 806 1778.53H794C793.668 1778.53 793.351 1778.66 793.116 1778.89C792.882 1779.13 792.75 1779.45 792.75 1779.78V1791.78C792.75 1792.11 792.882 1792.43 793.116 1792.66C793.351 1792.9 793.668 1793.03 794 1793.03H806C806.332 1793.03 806.649 1792.9 806.884 1792.66C807.118 1792.43 807.25 1792.11 807.25 1791.78V1779.78ZM795.25 1789.79V1789.78C795.25 1789.36 795.586 1789.03 796 1789.03C796.414 1789.03 796.75 1789.36 796.75 1789.78V1789.79C796.75 1790.2 796.414 1790.54 796 1790.54C795.586 1790.54 795.25 1790.2 795.25 1789.79ZM799.25 1789.79V1789.78C799.25 1789.36 799.586 1789.03 800 1789.03C800.414 1789.03 800.75 1789.36 800.75 1789.78V1789.79C800.75 1790.2 800.414 1790.54 800 1790.54C799.586 1790.54 799.25 1790.2 799.25 1789.79ZM803.25 1789.79V1789.78C803.25 1789.36 803.586 1789.03 804 1789.03C804.414 1789.03 804.75 1789.36 804.75 1789.78V1789.79C804.75 1790.2 804.414 1790.54 804 1790.54C803.586 1790.54 803.25 1790.2 803.25 1789.79ZM795.25 1785.79V1785.78C795.25 1785.36 795.586 1785.03 796 1785.03C796.414 1785.03 796.75 1785.36 796.75 1785.78V1785.79C796.75 1786.2 796.414 1786.54 796 1786.54C795.586 1786.54 795.25 1786.2 795.25 1785.79ZM803.25 1785.79V1785.78C803.25 1785.36 803.586 1785.03 804 1785.03C804.414 1785.03 804.75 1785.36 804.75 1785.78V1785.79C804.75 1786.2 804.414 1786.54 804 1786.54C803.586 1786.54 803.25 1786.2 803.25 1785.79ZM795.25 1781.79V1781.78C795.25 1781.36 795.586 1781.03 796 1781.03C796.414 1781.03 796.75 1781.36 796.75 1781.78V1781.79C796.75 1782.2 796.414 1782.54 796 1782.54C795.586 1782.54 795.25 1782.2 795.25 1781.79ZM799.25 1781.79V1781.78C799.25 1781.36 799.586 1781.03 800 1781.03C800.414 1781.03 800.75 1781.36 800.75 1781.78V1781.79C800.75 1782.2 800.414 1782.54 800 1782.54C799.586 1782.54 799.25 1782.2 799.25 1781.79ZM803.25 1781.79V1781.78C803.25 1781.36 803.586 1781.03 804 1781.03C804.414 1781.03 804.75 1781.36 804.75 1781.78V1781.79C804.75 1782.2 804.414 1782.54 804 1782.54C803.586 1782.54 803.25 1782.2 803.25 1781.79ZM808.75 1791.78C808.75 1792.51 808.46 1793.21 807.944 1793.72C807.429 1794.24 806.729 1794.53 806 1794.53H794C793.271 1794.53 792.571 1794.24 792.056 1793.72C791.54 1793.21 791.25 1792.51 791.25 1791.78V1779.78C791.25 1779.05 791.54 1778.35 792.056 1777.83C792.571 1777.32 793.271 1777.03 794 1777.03H806C806.729 1777.03 807.429 1777.32 807.944 1777.83C808.46 1778.35 808.75 1779.05 808.75 1779.78V1791.78Z" fill="currentColor" />
</g>
</svg>