<svg xmlns="http://www.w3.org/2000/svg" width="16" height="16" viewBox="115.44 1776.78 18.00 18.00" fill="none"><g xmlns="http://www.w3.org/2000/svg" id="map-base-background">
<path id="union_37" d="M131.914 1777.25C132.207 1776.95 132.682 1776.95 132.975 1777.25C133.268 1777.54 133.268 1778.02 132.975 1778.31L116.975 1794.31C116.682 1794.6 116.207 1794.6 115.914 1794.31C115.621 1794.02 115.621 1793.54 115.914 1793.25L131.914 1777.25ZM131.914 1783.25C132.207 1782.95 132.682 1782.95 132.975 1783.25C133.268 1783.54 133.268 1784.02 132.975 1784.31L122.975 1794.31C122.682 1794.6 122.207 1794.6 121.914 1794.31C121.621 1794.02 121.621 1793.54 121.914 1793.25L131.914 1783.25ZM131.914 1789.25C132.207 1788.95 132.682 1788.95 132.975 1789.25C133.268 1789.54 133.268 1790.02 132.975 1790.31L128.975 1794.31C128.682 1794.6 128.207 1794.6 127.914 1794.31C127.621 1794.02 127.621 1793.54 127.914 1793.25L131.914 1789.25ZM125.914 1777.25C126.207 1776.95 126.682 1776.95 126.975 1777.25C127.268 1777.54 127.268 1778.02 126.975 1778.31L116.975 1788.31C116.682 1788.6 116.207 1788.6 115.914 1788.31C115.621 1788.02 115.621 1787.54 115.914 1787.25L125.914 1777.25ZM119.914 1777.25C120.207 1776.95 120.682 1776.95 120.975 1777.25C121.268 1777.54 121.268 1778.02 120.975 1778.31L116.975 1782.31C116.682 1782.6 116.207 1782.6 115.914 1782.31C115.621 1782.02 115.621 1781.54 115.914 1781.25L119.914 1777.25Z" fill="currentColor" />
</g>
</svg>