<svg xmlns="http://www.w3.org/2000/svg" width="16" height="16" viewBox="1127.78 1944.67 20.00 20.00" fill="none"><g xmlns="http://www.w3.org/2000/svg" id="map-tool-bar-buzier-curve">
<path id="union_52" d="M1131.95 1944.92C1132.84 1945.01 1133.53 1945.76 1133.53 1946.66V1946.91H1142.03V1946.66L1142.04 1946.48C1142.13 1945.6 1142.87 1944.91 1143.78 1944.91H1145.78L1145.96 1944.92C1146.84 1945.01 1147.53 1945.76 1147.53 1946.66V1948.66C1147.53 1949.63 1146.75 1950.41 1145.78 1950.41H1145.53V1952.67C1145.53 1953.08 1145.19 1953.42 1144.78 1953.42C1144.37 1953.42 1144.03 1953.08 1144.03 1952.67V1950.41H1143.78C1142.81 1950.41 1142.03 1949.63 1142.03 1948.66V1948.41H1133.53V1948.66C1133.53 1949.63 1132.74 1950.41 1131.78 1950.41H1131.52V1958.92H1131.78L1131.95 1958.93C1132.84 1959.02 1133.53 1959.76 1133.53 1960.67V1960.92H1135.78C1136.19 1960.92 1136.53 1961.26 1136.53 1961.67C1136.53 1962.08 1136.19 1962.42 1135.78 1962.42H1133.53V1962.67C1133.53 1963.64 1132.74 1964.42 1131.78 1964.42H1129.77C1128.81 1964.42 1128.02 1963.64 1128.02 1962.67V1960.67L1128.03 1960.49C1128.12 1959.61 1128.87 1958.92 1129.77 1958.92H1130.02V1950.41H1129.77C1128.81 1950.41 1128.02 1949.63 1128.02 1948.66V1946.66L1128.03 1946.48C1128.12 1945.6 1128.87 1944.91 1129.77 1944.91H1131.78L1131.95 1944.92ZM1138.54 1955.43C1138.99 1954.97 1139.66 1954.8 1140.27 1954.98L1146.28 1956.76C1146.99 1956.97 1147.49 1957.6 1147.53 1958.34C1147.57 1959.08 1147.14 1959.76 1146.46 1960.05L1146.46 1960.04L1144.23 1960.98C1144.17 1961.01 1144.12 1961.06 1144.1 1961.12L1143.16 1963.35L1143.16 1963.35C1142.87 1964.03 1142.19 1964.46 1141.45 1964.42C1140.72 1964.38 1140.08 1963.88 1139.87 1963.17V1963.17L1138.1 1957.16C1137.92 1956.54 1138.09 1955.88 1138.54 1955.43ZM1129.72 1960.42C1129.61 1960.45 1129.52 1960.55 1129.52 1960.67V1962.67L1129.53 1962.72C1129.55 1962.83 1129.65 1962.92 1129.77 1962.92H1131.77C1131.91 1962.92 1132.03 1962.81 1132.03 1962.67V1960.67L1132.02 1960.62C1132 1960.52 1131.92 1960.44 1131.83 1960.42L1131.77 1960.42H1129.77L1129.72 1960.42ZM1139.85 1956.42C1139.76 1956.4 1139.67 1956.42 1139.6 1956.49C1139.54 1956.55 1139.51 1956.65 1139.54 1956.73L1141.31 1962.74C1141.34 1962.84 1141.43 1962.91 1141.53 1962.92C1141.64 1962.92 1141.73 1962.86 1141.77 1962.77L1141.78 1962.77L1142.71 1960.53C1142.89 1960.11 1143.23 1959.78 1143.65 1959.6L1145.88 1958.66H1145.88C1145.98 1958.62 1146.04 1958.52 1146.03 1958.42C1146.03 1958.31 1145.95 1958.22 1145.85 1958.19L1139.85 1956.42ZM1129.72 1946.42C1129.61 1946.44 1129.52 1946.54 1129.52 1946.66V1948.66L1129.53 1948.71C1129.55 1948.83 1129.65 1948.91 1129.77 1948.91H1131.77C1131.91 1948.91 1132.03 1948.8 1132.03 1948.66V1946.66L1132.02 1946.61C1132 1946.52 1131.92 1946.44 1131.83 1946.42L1131.77 1946.41H1129.77L1129.72 1946.42ZM1143.73 1946.42C1143.62 1946.44 1143.53 1946.54 1143.53 1946.66V1948.66L1143.53 1948.71C1143.56 1948.83 1143.66 1948.91 1143.78 1948.91H1145.78C1145.92 1948.91 1146.03 1948.8 1146.03 1948.66V1946.66L1146.03 1946.61C1146.01 1946.52 1145.93 1946.44 1145.83 1946.42L1145.78 1946.41H1143.78L1143.73 1946.42Z" fill="currentColor" />
</g>
</svg>