<svg xmlns="http://www.w3.org/2000/svg" width="16" height="16" viewBox="283.33 1944.67 20.00 20.00" fill="none"><g xmlns="http://www.w3.org/2000/svg" id="map-tool-bar-lasso">
<path id="union_47" d="M293.333 1944.92C298.531 1944.92 303.083 1948.22 303.083 1952.67C303.083 1957.11 298.531 1960.42 293.333 1960.42C291.57 1960.42 289.909 1960.05 288.474 1959.39C288.412 1959.47 288.348 1959.54 288.278 1959.61C287.949 1959.94 287.546 1960.17 287.109 1960.3C287.189 1961.38 287.475 1962.4 287.985 1963.29C288.19 1963.65 288.066 1964.11 287.706 1964.32C287.347 1964.52 286.888 1964.4 286.682 1964.04C286.03 1962.9 285.688 1961.62 285.604 1960.32C285.149 1960.19 284.729 1959.95 284.389 1959.61C283.873 1959.1 283.583 1958.4 283.583 1957.67C283.583 1956.94 283.868 1956.25 284.374 1955.74C283.868 1954.8 283.583 1953.76 283.583 1952.67C283.583 1948.22 288.135 1944.92 293.333 1944.92ZM286.333 1956.42C286.002 1956.42 285.684 1956.55 285.45 1956.78C285.215 1957.02 285.083 1957.34 285.083 1957.67C285.083 1958 285.215 1958.32 285.45 1958.55C285.684 1958.78 286.002 1958.92 286.333 1958.92C286.665 1958.92 286.983 1958.78 287.217 1958.55C287.452 1958.32 287.583 1958 287.583 1957.67C287.583 1957.34 287.452 1957.02 287.217 1956.78C286.983 1956.55 286.665 1956.42 286.333 1956.42ZM293.333 1946.42C288.591 1946.42 285.083 1949.38 285.083 1952.67C285.083 1953.49 285.295 1954.27 285.684 1955C285.895 1954.95 286.112 1954.92 286.333 1954.92C287.063 1954.92 287.762 1955.21 288.278 1955.72C288.793 1956.24 289.083 1956.94 289.083 1957.67C289.083 1957.78 289.073 1957.9 289.059 1958.01C290.301 1958.58 291.762 1958.92 293.333 1958.92C298.075 1958.92 301.583 1955.95 301.583 1952.67C301.583 1949.38 298.075 1946.42 293.333 1946.42Z" fill="currentColor" />
</g>
</svg>