<svg xmlns="http://www.w3.org/2000/svg" width="16" height="16" viewBox="789.50 1944.17 21.00 21.00" fill="none"><g xmlns="http://www.w3.org/2000/svg" id="map-tool-bar-pen">
<path id="union_50" d="M791.469 1944.44L803.351 1946.31C803.832 1946.39 804.275 1946.62 804.612 1946.97C804.948 1947.32 805.16 1947.78 805.214 1948.26L805.788 1953.43L809.916 1956.18C810.103 1956.3 810.224 1956.5 810.247 1956.73C810.269 1956.95 810.189 1957.17 810.031 1957.33L802.665 1964.7C802.507 1964.86 802.285 1964.94 802.062 1964.91C801.867 1964.89 801.687 1964.8 801.562 1964.65L801.511 1964.58L798.759 1960.46L793.595 1959.88C793.111 1959.83 792.657 1959.61 792.305 1959.28C791.953 1958.94 791.721 1958.5 791.645 1958.02L789.769 1946.14C789.732 1945.9 789.751 1945.67 789.824 1945.44C789.896 1945.22 790.02 1945.02 790.186 1944.85C790.352 1944.69 790.555 1944.56 790.778 1944.49C791.001 1944.42 791.238 1944.4 791.469 1944.44ZM800.155 1959.84L802.251 1962.99L808.323 1956.92L805.176 1954.82L800.155 1959.84ZM796.98 1950.59L797.923 1949.64C798.216 1949.35 798.691 1949.35 798.984 1949.64C799.276 1949.94 799.276 1950.41 798.984 1950.7L796.037 1953.65C795.745 1953.94 795.27 1953.94 794.977 1953.65C794.684 1953.36 794.684 1952.88 794.977 1952.59L795.919 1951.65L791.452 1947.18L793.126 1957.78C793.151 1957.94 793.227 1958.08 793.341 1958.19C793.456 1958.3 793.604 1958.37 793.761 1958.39L798.914 1958.96L804.296 1953.58L803.723 1948.43C803.706 1948.27 803.637 1948.12 803.528 1948.01C803.418 1947.89 803.274 1947.82 803.118 1947.79L792.513 1946.12L796.98 1950.59Z" fill="currentColor" />
</g>
</svg>