<svg xmlns="http://www.w3.org/2000/svg" width="16" height="16" viewBox="283.35 1776.53 21.00 21.00" fill="none"><clipPath xmlns="http://www.w3.org/2000/svg" id="clip4_1399_9135">
<rect width="24" height="24" fill="white" transform="translate(281.333 1773.78)" />
</clipPath>
<g xmlns="http://www.w3.org/2000/svg" id="map-settings-tool-bar" clip-path="url(#clip4_1399_9135)">
<path id="union_38" d="M301.584 1792.78C301.584 1792.45 301.452 1792.13 301.218 1791.89C300.984 1791.66 300.666 1791.53 300.334 1791.53C300.003 1791.53 299.685 1791.66 299.451 1791.89C299.216 1792.13 299.084 1792.45 299.084 1792.78C299.084 1793.11 299.216 1793.43 299.451 1793.66C299.685 1793.9 300.003 1794.03 300.334 1794.03C300.666 1794.03 300.984 1793.9 301.218 1793.66C301.452 1793.43 301.584 1793.11 301.584 1792.78ZM285.083 1781.24V1792.56L289.583 1790.31V1778.99L285.083 1781.24ZM301.583 1785.78V1778.99L297.083 1781.24V1787.28C297.083 1787.69 296.748 1788.03 296.333 1788.03C295.919 1788.03 295.583 1787.69 295.583 1787.28V1781.24L291.083 1778.99V1790.31L293.668 1791.61C294.039 1791.79 294.189 1792.24 294.004 1792.61C293.819 1792.98 293.369 1793.13 292.998 1792.95L290.333 1791.62L284.668 1794.45C284.436 1794.56 284.16 1794.55 283.939 1794.42C283.718 1794.28 283.583 1794.04 283.583 1793.78V1780.78C283.583 1780.49 283.744 1780.23 283.998 1780.11L289.998 1777.11L290.078 1777.07C290.27 1777 290.483 1777.01 290.668 1777.11L296.333 1779.94L301.998 1777.11C302.231 1776.99 302.507 1777 302.728 1777.14C302.949 1777.28 303.083 1777.52 303.083 1777.78V1785.78C303.083 1786.19 302.748 1786.53 302.333 1786.53C301.919 1786.53 301.583 1786.19 301.583 1785.78ZM303.084 1792.78C303.084 1793.01 303.051 1793.23 302.996 1793.45L303.742 1793.88C304.1 1794.09 304.223 1794.54 304.016 1794.9C303.809 1795.26 303.35 1795.38 302.992 1795.18L302.248 1794.75C301.919 1795.07 301.519 1795.3 301.084 1795.42V1796.28C301.084 1796.69 300.749 1797.03 300.334 1797.03C299.92 1797.03 299.584 1796.69 299.584 1796.28V1795.42C299.149 1795.3 298.749 1795.07 298.419 1794.75L297.678 1795.18C297.319 1795.38 296.861 1795.26 296.654 1794.9C296.447 1794.54 296.57 1794.09 296.928 1793.88L297.671 1793.45C297.616 1793.23 297.584 1793.01 297.584 1792.78C297.584 1792.55 297.616 1792.32 297.671 1792.1L296.928 1791.68C296.57 1791.47 296.447 1791.01 296.654 1790.65C296.861 1790.29 297.319 1790.17 297.678 1790.38L298.419 1790.81C298.749 1790.49 299.15 1790.26 299.584 1790.13V1789.28C299.584 1788.86 299.92 1788.53 300.334 1788.53C300.749 1788.53 301.084 1788.86 301.084 1789.28V1790.13C301.519 1790.26 301.919 1790.49 302.248 1790.81L302.991 1790.38C303.349 1790.17 303.808 1790.29 304.015 1790.65C304.222 1791.01 304.099 1791.47 303.741 1791.68L302.996 1792.11C303.051 1792.32 303.084 1792.55 303.084 1792.78Z" fill="currentColor" />
</g>
</svg>