<svg xmlns="http://www.w3.org/2000/svg" width="16" height="16" viewBox="282.33 2112.56 22.00 22.00" fill="none"><g xmlns="http://www.w3.org/2000/svg" id="map-risk-heat">
<path id="union_56" d="M293.583 2132.56V2131.56C293.583 2131.14 293.919 2130.81 294.333 2130.81C294.748 2130.81 295.083 2131.14 295.083 2131.56V2132.56C295.083 2132.97 294.748 2133.31 294.333 2133.31C293.919 2133.31 293.583 2132.97 293.583 2132.56ZM288.583 2116.56C288.583 2116.22 288.452 2115.91 288.217 2115.67C287.983 2115.44 287.665 2115.31 287.333 2115.31C287.002 2115.31 286.684 2115.44 286.45 2115.67C286.215 2115.91 286.083 2116.22 286.083 2116.56V2119.81H288.583V2116.56ZM286.083 2125.06C286.083 2125.32 285.94 2125.57 285.708 2125.7C285.089 2126.06 284.604 2126.62 284.33 2127.28C284.057 2127.94 284.009 2128.67 284.194 2129.36C284.379 2130.05 284.787 2130.66 285.355 2131.1C285.922 2131.53 286.618 2131.77 287.333 2131.77C288.049 2131.77 288.744 2131.53 289.312 2131.1C289.879 2130.66 290.288 2130.05 290.473 2129.36C290.658 2128.67 290.61 2127.94 290.336 2127.28C290.062 2126.62 289.578 2126.06 288.958 2125.7C288.726 2125.57 288.583 2125.32 288.583 2125.06V2121.31H286.083V2125.06ZM299.503 2128.73C299.796 2128.43 300.271 2128.43 300.564 2128.73L301.264 2129.43C301.556 2129.72 301.557 2130.19 301.264 2130.49C300.971 2130.78 300.496 2130.78 300.203 2130.49L299.503 2129.79C299.21 2129.49 299.21 2129.02 299.503 2128.73ZM297.583 2123.56C297.583 2122.69 297.241 2121.87 296.631 2121.26C296.022 2120.65 295.195 2120.31 294.333 2120.31H294.332C294.057 2120.31 293.783 2120.34 293.517 2120.41C293.115 2120.51 292.707 2120.26 292.606 2119.86C292.504 2119.46 292.748 2119.05 293.15 2118.95C293.537 2118.85 293.934 2118.81 294.333 2118.81C295.593 2118.81 296.801 2119.31 297.692 2120.2C298.583 2121.09 299.083 2122.3 299.083 2123.56C299.083 2124.82 298.583 2126.02 297.692 2126.91C296.801 2127.8 295.593 2128.31 294.333 2128.31C293.919 2128.31 293.583 2127.97 293.583 2127.56C293.583 2127.14 293.919 2126.81 294.333 2126.81C295.195 2126.81 296.022 2126.46 296.631 2125.85C297.241 2125.24 297.583 2124.42 297.583 2123.56ZM303.333 2122.81C303.748 2122.81 304.083 2123.14 304.083 2123.56C304.083 2123.97 303.748 2124.31 303.333 2124.31H302.333C301.919 2124.31 301.583 2123.97 301.583 2123.56C301.583 2123.14 301.919 2122.81 302.333 2122.81H303.333ZM300.203 2116.62C300.496 2116.33 300.971 2116.33 301.264 2116.62C301.557 2116.92 301.556 2117.39 301.264 2117.69L300.564 2118.39C300.271 2118.68 299.796 2118.68 299.503 2118.39C299.21 2118.09 299.21 2117.62 299.503 2117.32L300.203 2116.62ZM293.583 2115.56V2114.56C293.583 2114.14 293.919 2113.81 294.333 2113.81C294.748 2113.81 295.083 2114.14 295.083 2114.56V2115.56C295.083 2115.97 294.748 2116.31 294.333 2116.31C293.919 2116.31 293.583 2115.97 293.583 2115.56ZM290.083 2124.65C290.809 2125.16 291.379 2125.87 291.722 2126.7C292.122 2127.67 292.192 2128.74 291.921 2129.75C291.651 2130.76 291.054 2131.65 290.225 2132.29C289.395 2132.92 288.379 2133.27 287.333 2133.27C286.288 2133.27 285.271 2132.92 284.442 2132.29C283.612 2131.65 283.016 2130.76 282.745 2129.75C282.475 2128.74 282.545 2127.67 282.945 2126.7C283.288 2125.87 283.857 2125.16 284.583 2124.65V2116.56C284.583 2115.83 284.873 2115.13 285.389 2114.61C285.905 2114.1 286.604 2113.81 287.333 2113.81C288.063 2113.81 288.762 2114.1 289.278 2114.61C289.793 2115.13 290.083 2115.83 290.083 2116.56V2124.65Z" fill="currentColor" />
</g>
</svg>