<svg xmlns="http://www.w3.org/2000/svg" width="16" height="16" viewBox="1128.78 1776.78 18.00 18.00" fill="none"><g xmlns="http://www.w3.org/2000/svg" id="map-view-2d">
<path id="union_43" d="M1145.03 1786.53H1138.53V1793.03H1143.78C1144.11 1793.03 1144.43 1792.9 1144.66 1792.66C1144.9 1792.43 1145.03 1792.11 1145.03 1791.78V1786.53ZM1130.53 1791.78C1130.53 1792.11 1130.66 1792.43 1130.89 1792.66C1131.13 1792.9 1131.45 1793.03 1131.78 1793.03H1137.03V1786.53H1130.53V1791.78ZM1145.03 1779.78C1145.03 1779.45 1144.9 1779.13 1144.66 1778.89C1144.43 1778.66 1144.11 1778.53 1143.78 1778.53H1138.53V1785.03H1145.03V1779.78ZM1130.53 1785.03H1137.03V1778.53H1131.78C1131.45 1778.53 1131.13 1778.66 1130.89 1778.89C1130.66 1779.13 1130.53 1779.45 1130.53 1779.78V1785.03ZM1146.53 1791.78C1146.53 1792.51 1146.24 1793.21 1145.72 1793.72C1145.21 1794.24 1144.51 1794.53 1143.78 1794.53H1131.78C1131.05 1794.53 1130.35 1794.24 1129.83 1793.72C1129.32 1793.21 1129.03 1792.51 1129.03 1791.78V1779.78C1129.03 1779.05 1129.32 1778.35 1129.83 1777.83C1130.35 1777.32 1131.05 1777.03 1131.78 1777.03H1143.78C1144.51 1777.03 1145.21 1777.32 1145.72 1777.83C1146.24 1778.35 1146.53 1779.05 1146.53 1779.78V1791.78Z" fill="currentColor" />
</g>
</svg>