<svg xmlns="http://www.w3.org/2000/svg" width="16" height="16" viewBox="958.89 1944.67 20.00 20.00" fill="none"><g xmlns="http://www.w3.org/2000/svg" id="map-tool-bar-select-area">
<path id="union_51" d="M959.889 1959.17C960.303 1959.17 960.639 1959.5 960.639 1959.92V1961.67C960.639 1962.36 961.199 1962.92 961.889 1962.92H963.389C963.803 1962.92 964.139 1963.25 964.139 1963.67C964.139 1964.08 963.803 1964.42 963.389 1964.42H961.889C960.37 1964.42 959.139 1963.19 959.139 1961.67V1959.92C959.139 1959.5 959.475 1959.17 959.889 1959.17ZM967.889 1962.92C968.303 1962.92 968.639 1963.25 968.639 1963.67C968.639 1964.08 968.303 1964.42 967.889 1964.42H966.389C965.975 1964.42 965.639 1964.08 965.639 1963.67C965.639 1963.25 965.975 1962.92 966.389 1962.92H967.889ZM968.69 1954.47C969.175 1953.98 969.886 1953.8 970.544 1953.99L977.294 1955.98H977.293C978.054 1956.2 978.591 1956.88 978.636 1957.67C978.68 1958.46 978.223 1959.2 977.492 1959.51H977.491L974.986 1960.56C974.896 1960.6 974.823 1960.67 974.785 1960.76L973.73 1963.27C973.422 1964 972.688 1964.46 971.897 1964.41C971.106 1964.37 970.428 1963.83 970.204 1963.07L968.217 1956.32C968.023 1955.66 968.205 1954.95 968.69 1954.47ZM970.12 1955.43C969.989 1955.39 969.847 1955.43 969.75 1955.53C969.654 1955.62 969.618 1955.77 969.656 1955.9L971.643 1962.65L971.664 1962.7C971.722 1962.82 971.843 1962.91 971.982 1962.92C972.14 1962.92 972.287 1962.83 972.348 1962.69L973.404 1960.18C973.594 1959.73 973.953 1959.37 974.405 1959.18L976.91 1958.12L976.962 1958.1C977.077 1958.02 977.147 1957.9 977.139 1957.76C977.131 1957.62 977.047 1957.5 976.925 1957.44L976.87 1957.42L970.12 1955.43ZM959.889 1952.17C960.303 1952.17 960.639 1952.5 960.639 1952.92V1956.42C960.639 1956.83 960.303 1957.17 959.889 1957.17C959.475 1957.17 959.139 1956.83 959.139 1956.42V1952.92C959.139 1952.5 959.475 1952.17 959.889 1952.17ZM977.889 1951.42C978.303 1951.42 978.639 1951.75 978.639 1952.17V1953.67C978.639 1954.08 978.303 1954.42 977.889 1954.42C977.475 1954.42 977.139 1954.08 977.139 1953.67V1952.17C977.139 1951.75 977.475 1951.42 977.889 1951.42ZM963.639 1944.92C964.053 1944.92 964.389 1945.25 964.389 1945.67C964.389 1946.08 964.053 1946.42 963.639 1946.42H961.889C961.199 1946.42 960.639 1946.98 960.639 1947.67V1949.42C960.639 1949.83 960.303 1950.17 959.889 1950.17C959.475 1950.17 959.139 1949.83 959.139 1949.42V1947.67C959.139 1946.15 960.37 1944.92 961.889 1944.92H963.639ZM975.889 1944.92C977.408 1944.92 978.639 1946.15 978.639 1947.67V1949.17C978.639 1949.58 978.303 1949.92 977.889 1949.92C977.475 1949.92 977.139 1949.58 977.139 1949.17V1947.67C977.139 1946.98 976.579 1946.42 975.889 1946.42H974.139C973.725 1946.42 973.389 1946.08 973.389 1945.67C973.389 1945.25 973.725 1944.92 974.139 1944.92H975.889ZM970.639 1944.92C971.053 1944.92 971.389 1945.25 971.389 1945.67C971.389 1946.08 971.053 1946.42 970.639 1946.42H967.139C966.725 1946.42 966.389 1946.08 966.389 1945.67C966.389 1945.25 966.725 1944.92 967.139 1944.92H970.639Z" fill="currentColor" />
</g>
</svg>