<svg xmlns="http://www.w3.org/2000/svg" width="16" height="16" viewBox="453.22 1776.78 18.00 18.00" fill="none"><g xmlns="http://www.w3.org/2000/svg" id="map-width-stroke">
<g id="union_39">
<path d="M453.222 1778.28C453.222 1777.86 453.558 1777.53 453.972 1777.53H470.472C470.886 1777.53 471.222 1777.86 471.222 1778.28C471.222 1778.69 470.886 1779.03 470.472 1779.03H453.972C453.558 1779.03 453.222 1778.69 453.222 1778.28Z" fill="currentColor" />
<path d="M453.222 1785.53C453.222 1784.98 453.67 1784.53 454.222 1784.53H470.222C470.775 1784.53 471.222 1784.98 471.222 1785.53C471.222 1786.08 470.775 1786.53 470.222 1786.53H454.222C453.67 1786.53 453.222 1786.08 453.222 1785.53Z" fill="currentColor" />
<path d="M453.222 1792.78C453.222 1792.09 453.782 1791.53 454.472 1791.53H469.972C470.663 1791.53 471.222 1792.09 471.222 1792.78C471.222 1793.47 470.663 1794.03 469.972 1794.03H454.472C453.782 1794.03 453.222 1793.47 453.222 1792.78Z" fill="currentColor" />
</g>
</g>
</svg>