<svg xmlns="http://www.w3.org/2000/svg" width="16" height="16" viewBox="958.89 1775.78 20.00 20.00" fill="none"><g xmlns="http://www.w3.org/2000/svg" id="map">
<path id="union_42" d="M965.634 1777.07C965.826 1777 966.039 1777.01 966.224 1777.11L971.889 1779.94L977.554 1777.11C977.786 1776.99 978.062 1777 978.283 1777.14C978.504 1777.28 978.639 1777.52 978.639 1777.78V1790.78C978.639 1791.06 978.478 1791.32 978.224 1791.45L972.224 1794.45C972.013 1794.55 971.765 1794.55 971.554 1794.45L965.889 1791.62L960.224 1794.45C959.991 1794.56 959.715 1794.55 959.494 1794.42C959.273 1794.28 959.139 1794.04 959.139 1793.78V1780.78C959.139 1780.49 959.3 1780.23 959.554 1780.11L965.554 1777.11L965.634 1777.07ZM960.639 1781.24V1792.56L965.139 1790.31V1778.99L960.639 1781.24ZM966.639 1790.31L971.139 1792.56V1781.24L966.639 1778.99V1790.31ZM972.639 1781.24V1792.56L977.139 1790.31V1778.99L972.639 1781.24Z" fill="currentColor" />
</g>
</svg>