<svg xmlns="http://www.w3.org/2000/svg" width="16" height="16" viewBox="114.44 1502.88 20.00 20.00" fill="none"><g xmlns="http://www.w3.org/2000/svg" id="mention">
<path id="union_36" d="M127.694 1512.89C127.694 1512.03 127.352 1511.2 126.742 1510.59C126.133 1509.98 125.306 1509.64 124.444 1509.64C123.582 1509.64 122.756 1509.98 122.147 1510.59C121.537 1511.2 121.194 1512.03 121.194 1512.89C121.194 1513.75 121.537 1514.58 122.147 1515.19C122.756 1515.8 123.583 1516.14 124.444 1516.14C125.306 1516.14 126.133 1515.8 126.742 1515.19C127.352 1514.58 127.694 1513.75 127.694 1512.89ZM129.194 1514.39C129.194 1514.85 129.379 1515.3 129.707 1515.63C130.035 1515.95 130.48 1516.14 130.944 1516.14C131.409 1516.14 131.854 1515.95 132.182 1515.63C132.51 1515.3 132.694 1514.85 132.694 1514.39V1512.89C132.697 1511.12 132.128 1509.39 131.072 1507.96C130.017 1506.54 128.531 1505.49 126.834 1504.98C125.137 1504.47 123.32 1504.51 121.651 1505.11C119.984 1505.71 118.553 1506.84 117.572 1508.31C116.592 1509.79 116.113 1511.54 116.206 1513.31C116.3 1515.08 116.961 1516.78 118.092 1518.14C119.223 1519.51 120.764 1520.47 122.485 1520.89C124.207 1521.31 126.019 1521.17 127.652 1520.48C128.034 1520.32 128.475 1520.5 128.636 1520.88C128.797 1521.26 128.618 1521.7 128.236 1521.86C126.306 1522.67 124.165 1522.85 122.13 1522.35C120.095 1521.85 118.273 1520.71 116.937 1519.1C115.6 1517.48 114.819 1515.48 114.708 1513.39C114.598 1511.3 115.164 1509.23 116.323 1507.48C117.483 1505.74 119.172 1504.41 121.144 1503.7C123.115 1502.99 125.262 1502.94 127.268 1503.55C129.273 1504.15 131.03 1505.39 132.277 1507.07C133.525 1508.75 134.197 1510.79 134.194 1512.89V1514.39C134.194 1515.25 133.852 1516.08 133.242 1516.69C132.633 1517.3 131.806 1517.64 130.944 1517.64C130.083 1517.64 129.256 1517.3 128.647 1516.69C128.422 1516.46 128.234 1516.21 128.086 1515.93C127.996 1516.04 127.903 1516.15 127.803 1516.25C126.912 1517.14 125.704 1517.64 124.444 1517.64C123.185 1517.64 121.977 1517.14 121.086 1516.25C120.195 1515.36 119.694 1514.15 119.694 1512.89C119.694 1511.63 120.195 1510.42 121.086 1509.53C121.977 1508.64 123.185 1508.14 124.444 1508.14C125.704 1508.14 126.912 1508.64 127.803 1509.53C128.694 1510.42 129.194 1511.63 129.194 1512.89V1514.39Z" fill="currentColor" />
</g>
</svg>