<svg xmlns="http://www.w3.org/2000/svg" width="16" height="16" viewBox="957.89 2112.56 22.00 22.00" fill="none"><g xmlns="http://www.w3.org/2000/svg" id="node-map">
<path id="union_59" d="M977.139 2131.56C977.139 2131.22 977.007 2130.91 976.773 2130.67C976.538 2130.44 976.22 2130.31 975.889 2130.31C975.557 2130.31 975.24 2130.44 975.005 2130.67C974.771 2130.91 974.639 2131.22 974.639 2131.56C974.639 2131.89 974.771 2132.2 975.005 2132.44C975.24 2132.67 975.557 2132.81 975.889 2132.81C976.22 2132.81 976.538 2132.67 976.773 2132.44C977.007 2132.2 977.139 2131.89 977.139 2131.56ZM977.889 2114.81C978.303 2114.81 978.639 2115.14 978.639 2115.56C978.639 2115.97 978.303 2116.31 977.889 2116.31C976.171 2116.31 974.728 2117.15 973.367 2118.57C971.994 2120.01 970.786 2121.94 969.525 2123.95C968.286 2125.94 966.994 2128.01 965.492 2129.57C963.978 2131.15 962.171 2132.31 959.889 2132.31C959.475 2132.31 959.139 2131.97 959.139 2131.56C959.139 2131.14 959.475 2130.81 959.889 2130.81C961.607 2130.81 963.05 2129.96 964.41 2128.54C965.784 2127.1 966.992 2125.18 968.253 2123.16C969.492 2121.18 970.784 2119.1 972.285 2117.54C973.8 2115.96 975.607 2114.81 977.889 2114.81ZM968.889 2130.81C969.303 2130.81 969.639 2131.14 969.639 2131.56C969.639 2131.97 969.303 2132.31 968.889 2132.31H966.889C966.475 2132.31 966.139 2131.97 966.139 2131.56C966.139 2131.14 966.475 2130.81 966.889 2130.81H968.889ZM961.889 2112.81C962.618 2112.81 963.318 2113.1 963.833 2113.61C964.168 2113.95 964.406 2114.36 964.532 2114.81H965.889C966.303 2114.81 966.639 2115.14 966.639 2115.56C966.639 2115.97 966.303 2116.31 965.889 2116.31H964.532C964.406 2116.75 964.168 2117.17 963.833 2117.5C963.318 2118.02 962.618 2118.31 961.889 2118.31C961.16 2118.31 960.46 2118.02 959.945 2117.5C959.429 2116.98 959.139 2116.28 959.139 2115.56C959.139 2114.83 959.429 2114.13 959.945 2113.61C960.46 2113.1 961.16 2112.81 961.889 2112.81ZM970.889 2114.81C971.303 2114.81 971.639 2115.14 971.639 2115.56C971.639 2115.97 971.303 2116.31 970.889 2116.31H968.889C968.475 2116.31 968.139 2115.97 968.139 2115.56C968.139 2115.14 968.475 2114.81 968.889 2114.81H970.889ZM978.639 2131.56C978.639 2132.28 978.349 2132.98 977.833 2133.5C977.318 2134.02 976.618 2134.31 975.889 2134.31C975.16 2134.31 974.46 2134.02 973.945 2133.5C973.61 2133.17 973.372 2132.75 973.245 2132.31H971.889C971.475 2132.31 971.139 2131.97 971.139 2131.56C971.139 2131.14 971.475 2130.81 971.889 2130.81H973.245C973.372 2130.36 973.61 2129.95 973.945 2129.61C974.46 2129.1 975.16 2128.81 975.889 2128.81C976.618 2128.81 977.318 2129.1 977.833 2129.61C978.349 2130.13 978.639 2130.83 978.639 2131.56ZM960.639 2115.56C960.639 2115.89 960.771 2116.2 961.005 2116.44C961.24 2116.67 961.557 2116.81 961.889 2116.81C962.22 2116.81 962.538 2116.67 962.773 2116.44C963.007 2116.2 963.139 2115.89 963.139 2115.56C963.139 2115.22 963.007 2114.91 962.773 2114.67C962.538 2114.44 962.22 2114.31 961.889 2114.31C961.557 2114.31 961.24 2114.44 961.005 2114.67C960.771 2114.91 960.639 2115.22 960.639 2115.56Z" fill="currentColor" />
</g>
</svg>