<svg xmlns="http://www.w3.org/2000/svg" width="16" height="16" viewBox="281.33 3566.67 24.00 24.00" fill="none"><clipPath xmlns="http://www.w3.org/2000/svg" id="clip7_1399_9135">
<rect width="24" height="24" fill="white" transform="translate(281.333 3566.67)" />
</clipPath>
<g xmlns="http://www.w3.org/2000/svg" id="node" clip-path="url(#clip7_1399_9135)">
<path id="Union_24" d="M298.583 3575.67C298.583 3575.55 298.548 3575.46 298.518 3575.42H288.149C288.119 3575.46 288.083 3575.55 288.083 3575.67V3581.67C288.083 3581.79 288.119 3581.87 288.149 3581.92H298.518C298.548 3581.87 298.583 3581.79 298.583 3581.67V3575.67ZM286.583 3577.92V3579.42H281.583V3577.92H286.583ZM305.083 3577.92V3579.42H300.083V3577.92H305.083ZM300.083 3581.67C300.083 3582.07 299.964 3582.49 299.713 3582.82C299.459 3583.16 299.062 3583.42 298.583 3583.42H288.083C287.605 3583.42 287.207 3583.16 286.953 3582.82C286.703 3582.49 286.583 3582.07 286.583 3581.67V3575.67C286.583 3575.26 286.703 3574.84 286.953 3574.51C287.207 3574.17 287.605 3573.92 288.083 3573.92H298.583C299.062 3573.92 299.459 3574.17 299.713 3574.51C299.964 3574.84 300.083 3575.26 300.083 3575.67V3581.67Z" fill="currentColor" />
</g>
</svg>