<svg xmlns="http://www.w3.org/2000/svg" width="16" height="16" viewBox="1296.67 3399.78 20.00 20.00" fill="none"><g xmlns="http://www.w3.org/2000/svg" id="number">
<g id="Union_21">
<path d="M1299.14 3405.25C1299.35 3405.03 1299.67 3404.97 1299.95 3405.08C1300.23 3405.2 1300.42 3405.47 1300.42 3405.78V3413.78C1300.42 3414.19 1300.08 3414.53 1299.67 3414.53C1299.25 3414.53 1298.92 3414.19 1298.92 3413.78V3407.59L1298.2 3408.31C1297.9 3408.6 1297.43 3408.6 1297.14 3408.31C1296.84 3408.01 1296.84 3407.54 1297.14 3407.25L1299.14 3405.25Z" fill="currentColor" />
<path d="M1306.67 3405.03C1307.13 3405.03 1307.58 3405.21 1307.9 3405.54C1308.23 3405.87 1308.42 3406.31 1308.42 3406.78V3408.78C1308.42 3409.24 1308.23 3409.69 1307.9 3410.01C1307.58 3410.34 1307.13 3410.53 1306.67 3410.53H1304.67C1304.6 3410.53 1304.54 3410.55 1304.49 3410.6C1304.44 3410.65 1304.42 3410.71 1304.42 3410.78V3412.78C1304.42 3412.84 1304.44 3412.91 1304.49 3412.95C1304.54 3413 1304.6 3413.03 1304.67 3413.03H1307.67C1308.08 3413.03 1308.42 3413.36 1308.42 3413.78C1308.42 3414.19 1308.08 3414.53 1307.67 3414.53H1304.67C1304.2 3414.53 1303.76 3414.34 1303.43 3414.01C1303.1 3413.69 1302.92 3413.24 1302.92 3412.78V3410.78C1302.92 3410.31 1303.1 3409.87 1303.43 3409.54C1303.76 3409.21 1304.2 3409.03 1304.67 3409.03H1306.67C1306.73 3409.03 1306.8 3409 1306.84 3408.95C1306.89 3408.91 1306.92 3408.84 1306.92 3408.78V3406.78C1306.92 3406.71 1306.89 3406.65 1306.84 3406.6C1306.8 3406.55 1306.73 3406.53 1306.67 3406.53H1303.67C1303.25 3406.53 1302.92 3406.19 1302.92 3405.78C1302.92 3405.36 1303.25 3405.03 1303.67 3405.03H1306.67Z" fill="currentColor" />
<path d="M1314.17 3405.03C1314.76 3405.03 1315.34 3405.26 1315.76 3405.69C1316.18 3406.11 1316.42 3406.68 1316.42 3407.28V3408.28C1316.42 3408.83 1316.21 3409.37 1315.84 3409.78C1316.21 3410.19 1316.42 3410.72 1316.42 3411.28V3412.28C1316.42 3412.87 1316.18 3413.45 1315.76 3413.87C1315.34 3414.29 1314.76 3414.53 1314.17 3414.53H1311.67C1311.25 3414.53 1310.92 3414.19 1310.92 3413.78C1310.92 3413.36 1311.25 3413.03 1311.67 3413.03H1314.17C1314.37 3413.03 1314.56 3412.95 1314.7 3412.81C1314.84 3412.67 1314.92 3412.48 1314.92 3412.28V3411.28C1314.92 3411.08 1314.84 3410.89 1314.7 3410.75C1314.56 3410.61 1314.37 3410.53 1314.17 3410.53H1312.67C1312.25 3410.53 1311.92 3410.19 1311.92 3409.78C1311.92 3409.36 1312.25 3409.03 1312.67 3409.03H1314.17C1314.37 3409.03 1314.56 3408.95 1314.7 3408.81C1314.84 3408.67 1314.92 3408.48 1314.92 3408.28V3407.28C1314.92 3407.08 1314.84 3406.89 1314.7 3406.75C1314.56 3406.61 1314.37 3406.53 1314.17 3406.53H1311.67C1311.25 3406.53 1310.92 3406.19 1310.92 3405.78C1310.92 3405.36 1311.25 3405.03 1311.67 3405.03H1314.17Z" fill="currentColor" />
</g>
</g>
</svg>