<svg xmlns="http://www.w3.org/2000/svg" width="16" height="16" viewBox="959.89 3569.67 18.00 18.00" fill="none"><g xmlns="http://www.w3.org/2000/svg" id="overview">
<path id="union_106" d="M966.139 3583.67C966.139 3583.6 966.113 3583.54 966.066 3583.49C966.019 3583.44 965.955 3583.42 965.889 3583.42H961.889C961.823 3583.42 961.759 3583.44 961.712 3583.49C961.665 3583.54 961.639 3583.6 961.639 3583.67V3585.67C961.639 3585.73 961.665 3585.8 961.712 3585.84C961.759 3585.89 961.823 3585.92 961.889 3585.92H965.889C965.955 3585.92 966.019 3585.89 966.066 3585.84C966.113 3585.8 966.139 3585.73 966.139 3585.67V3583.67ZM976.139 3579.67C976.139 3579.6 976.113 3579.54 976.066 3579.49C976.019 3579.44 975.955 3579.42 975.889 3579.42H971.889C971.823 3579.42 971.759 3579.44 971.712 3579.49C971.665 3579.54 971.639 3579.6 971.639 3579.67V3585.67C971.639 3585.73 971.665 3585.8 971.712 3585.84C971.759 3585.89 971.823 3585.92 971.889 3585.92H975.889C975.955 3585.92 976.019 3585.89 976.066 3585.84C976.113 3585.8 976.139 3585.73 976.139 3585.67V3579.67ZM966.139 3571.67C966.139 3571.6 966.113 3571.54 966.066 3571.49C966.019 3571.44 965.955 3571.42 965.889 3571.42H961.889C961.823 3571.42 961.759 3571.44 961.712 3571.49C961.665 3571.54 961.639 3571.6 961.639 3571.67V3577.67C961.639 3577.73 961.665 3577.8 961.712 3577.84C961.759 3577.89 961.823 3577.92 961.889 3577.92H965.889C965.955 3577.92 966.019 3577.89 966.066 3577.84C966.113 3577.8 966.139 3577.73 966.139 3577.67V3571.67ZM976.139 3571.67C976.139 3571.6 976.113 3571.54 976.066 3571.49C976.019 3571.44 975.955 3571.42 975.889 3571.42H971.889C971.823 3571.42 971.759 3571.44 971.712 3571.49C971.665 3571.54 971.639 3571.6 971.639 3571.67V3573.67C971.639 3573.73 971.665 3573.8 971.712 3573.84C971.759 3573.89 971.823 3573.92 971.889 3573.92H975.889C975.955 3573.92 976.019 3573.89 976.066 3573.84C976.113 3573.8 976.139 3573.73 976.139 3573.67V3571.67ZM967.639 3585.67C967.639 3586.13 967.454 3586.58 967.126 3586.9C966.798 3587.23 966.353 3587.42 965.889 3587.42H961.889C961.425 3587.42 960.98 3587.23 960.652 3586.9C960.323 3586.58 960.139 3586.13 960.139 3585.67V3583.67C960.139 3583.2 960.323 3582.76 960.652 3582.43C960.98 3582.1 961.425 3581.92 961.889 3581.92H965.889C966.353 3581.92 966.798 3582.1 967.126 3582.43C967.454 3582.76 967.639 3583.2 967.639 3583.67V3585.67ZM977.639 3585.67C977.639 3586.13 977.454 3586.58 977.126 3586.9C976.798 3587.23 976.353 3587.42 975.889 3587.42H971.889C971.425 3587.42 970.98 3587.23 970.652 3586.9C970.323 3586.58 970.139 3586.13 970.139 3585.67V3579.67C970.139 3579.2 970.323 3578.76 970.652 3578.43C970.98 3578.1 971.425 3577.92 971.889 3577.92H975.889C976.353 3577.92 976.798 3578.1 977.126 3578.43C977.454 3578.76 977.639 3579.2 977.639 3579.67V3585.67ZM967.639 3577.67C967.639 3578.13 967.454 3578.58 967.126 3578.9C966.798 3579.23 966.353 3579.42 965.889 3579.42H961.889C961.425 3579.42 960.98 3579.23 960.652 3578.9C960.323 3578.58 960.139 3578.13 960.139 3577.67V3571.67C960.139 3571.2 960.323 3570.76 960.652 3570.43C960.98 3570.1 961.425 3569.92 961.889 3569.92H965.889C966.353 3569.92 966.798 3570.1 967.126 3570.43C967.454 3570.76 967.639 3571.2 967.639 3571.67V3577.67ZM977.639 3573.67C977.639 3574.13 977.454 3574.58 977.126 3574.9C976.798 3575.23 976.353 3575.42 975.889 3575.42H971.889C971.425 3575.42 970.98 3575.23 970.652 3574.9C970.323 3574.58 970.139 3574.13 970.139 3573.67V3571.67C970.139 3571.2 970.323 3570.76 970.652 3570.43C970.98 3570.1 971.425 3569.92 971.889 3569.92H975.889C976.353 3569.92 976.798 3570.1 977.126 3570.43C977.454 3570.76 977.639 3571.2 977.639 3571.67V3573.67Z" fill="currentColor" />
</g>
</svg>