<svg xmlns="http://www.w3.org/2000/svg" width="16" height="16" viewBox="1467.56 4454.22 16.00 16.00" fill="none"><g xmlns="http://www.w3.org/2000/svg" id="player-pause-fiiled">
<g id="Union_31">
<path d="M1472.56 4454.22H1470.56C1470.03 4454.22 1469.52 4454.43 1469.14 4454.81C1468.77 4455.18 1468.56 4455.69 1468.56 4456.22V4468.22C1468.56 4468.75 1468.77 4469.26 1469.14 4469.64C1469.52 4470.01 1470.03 4470.22 1470.56 4470.22H1472.56C1473.09 4470.22 1473.59 4470.01 1473.97 4469.64C1474.34 4469.26 1474.56 4468.75 1474.56 4468.22V4456.22C1474.56 4455.69 1474.34 4455.18 1473.97 4454.81C1473.59 4454.43 1473.09 4454.22 1472.56 4454.22Z" fill="currentColor" />
<path d="M1480.56 4454.22H1478.56C1478.03 4454.22 1477.52 4454.43 1477.14 4454.81C1476.77 4455.18 1476.56 4455.69 1476.56 4456.22V4468.22C1476.56 4468.75 1476.77 4469.26 1477.14 4469.64C1477.52 4470.01 1478.03 4470.22 1478.56 4470.22H1480.56C1481.09 4470.22 1481.59 4470.01 1481.97 4469.64C1482.34 4469.26 1482.56 4468.75 1482.56 4468.22V4456.22C1482.56 4455.69 1482.34 4455.18 1481.97 4454.81C1481.59 4454.43 1481.09 4454.22 1480.56 4454.22Z" fill="currentColor" />
</g>
</g>
</svg>