<svg xmlns="http://www.w3.org/2000/svg" width="16" height="16" viewBox="116.94 4622.11 18.00 18.00" fill="none"><g xmlns="http://www.w3.org/2000/svg" id="player-play-filled">
<path id="Union_32" d="M118.444 4623.11V4639.11C118.444 4639.29 118.492 4639.46 118.582 4639.62C118.672 4639.77 118.801 4639.9 118.956 4639.98C119.112 4640.07 119.287 4640.11 119.465 4640.11C119.643 4640.11 119.817 4640.06 119.968 4639.96L132.968 4631.96C133.114 4631.87 133.234 4631.75 133.318 4631.6C133.401 4631.45 133.445 4631.28 133.445 4631.11C133.445 4630.94 133.401 4630.77 133.318 4630.62C133.234 4630.47 133.114 4630.35 132.968 4630.26L119.968 4622.26C119.817 4622.17 119.643 4622.11 119.465 4622.11C119.287 4622.11 119.112 4622.15 118.956 4622.24C118.801 4622.32 118.672 4622.45 118.582 4622.6C118.492 4622.76 118.444 4622.93 118.444 4623.11Z" fill="currentColor" />
</g>
</svg>