<svg xmlns="http://www.w3.org/2000/svg" width="16" height="16" viewBox="451.72 3737.06 21.00 21.00" fill="none"><g xmlns="http://www.w3.org/2000/svg" id="replace-user">
<path id="Union_29" d="M469.472 3752.06C469.472 3751.73 469.341 3751.41 469.106 3751.17C468.872 3750.94 468.553 3750.81 468.222 3750.81C467.891 3750.81 467.573 3750.94 467.338 3751.17C467.104 3751.41 466.972 3751.73 466.972 3752.06C466.972 3752.39 467.104 3752.71 467.338 3752.94C467.573 3753.18 467.891 3753.31 468.222 3753.31C468.553 3753.31 468.872 3753.18 469.106 3752.94C469.341 3752.71 469.472 3752.39 469.472 3752.06ZM457.692 3750.04C457.985 3749.75 458.46 3749.75 458.753 3750.04L461.753 3753.04C461.893 3753.18 461.972 3753.37 461.972 3753.57C461.972 3753.77 461.893 3753.96 461.753 3754.1L458.753 3757.1C458.46 3757.39 457.985 3757.39 457.692 3757.1C457.399 3756.81 457.399 3756.33 457.692 3756.04L459.412 3754.32H455.222C454.493 3754.32 453.793 3754.03 453.278 3753.51C452.762 3753 452.472 3752.3 452.472 3751.57V3748.57C452.472 3748.15 452.808 3747.82 453.222 3747.82C453.636 3747.82 453.972 3748.15 453.972 3748.57V3751.57C453.972 3751.9 454.104 3752.22 454.338 3752.45C454.573 3752.69 454.891 3752.82 455.222 3752.82H459.412L457.692 3751.1C457.399 3750.81 457.399 3750.33 457.692 3750.04ZM470.472 3746.56V3743.56C470.472 3743.23 470.341 3742.91 470.106 3742.67C469.872 3742.44 469.553 3742.31 469.222 3742.31H465.033L466.753 3744.03C467.045 3744.32 467.045 3744.79 466.753 3745.09C466.46 3745.38 465.985 3745.38 465.692 3745.09L462.692 3742.09C462.399 3741.79 462.399 3741.32 462.692 3741.03L465.692 3738.03C465.985 3737.73 466.46 3737.73 466.753 3738.03C467.045 3738.32 467.045 3738.79 466.753 3739.09L465.033 3740.81H469.222C469.951 3740.81 470.651 3741.1 471.167 3741.61C471.682 3742.13 471.972 3742.83 471.972 3743.56V3746.56C471.972 3746.97 471.636 3747.31 471.222 3747.31C470.808 3747.31 470.472 3746.97 470.472 3746.56ZM457.472 3740.06C457.472 3739.73 457.341 3739.41 457.106 3739.17C456.872 3738.94 456.553 3738.81 456.222 3738.81C455.891 3738.81 455.573 3738.94 455.338 3739.17C455.104 3739.41 454.972 3739.73 454.972 3740.06C454.972 3740.39 455.104 3740.71 455.338 3740.94C455.573 3741.18 455.891 3741.31 456.222 3741.31C456.553 3741.31 456.872 3741.18 457.106 3740.94C457.341 3740.71 457.472 3740.39 457.472 3740.06ZM470.972 3752.06C470.972 3752.79 470.682 3753.49 470.167 3754C470.034 3754.14 469.888 3754.25 469.733 3754.35C470.272 3754.46 470.773 3754.72 471.167 3755.11C471.682 3755.63 471.972 3756.33 471.972 3757.05C471.972 3757.47 471.636 3757.8 471.222 3757.8C470.808 3757.8 470.472 3757.47 470.472 3757.05C470.472 3756.72 470.341 3756.41 470.106 3756.17C469.872 3755.94 469.553 3755.8 469.222 3755.8H467.222C466.891 3755.8 466.573 3755.94 466.338 3756.17C466.104 3756.41 465.972 3756.72 465.972 3757.05C465.972 3757.47 465.636 3757.8 465.222 3757.8C464.808 3757.8 464.472 3757.47 464.472 3757.05C464.472 3756.33 464.762 3755.63 465.278 3755.11C465.671 3754.72 466.172 3754.46 466.711 3754.35C466.556 3754.25 466.411 3754.13 466.278 3754C465.762 3753.49 465.472 3752.79 465.472 3752.06C465.472 3751.33 465.762 3750.63 466.278 3750.11C466.793 3749.6 467.493 3749.31 468.222 3749.31C468.951 3749.31 469.651 3749.6 470.167 3750.11C470.682 3750.63 470.972 3751.33 470.972 3752.06ZM458.972 3740.06C458.972 3740.79 458.682 3741.49 458.167 3742C458.034 3742.14 457.888 3742.25 457.733 3742.35C458.272 3742.46 458.773 3742.72 459.167 3743.11C459.682 3743.63 459.972 3744.33 459.972 3745.05C459.972 3745.47 459.636 3745.8 459.222 3745.8C458.808 3745.8 458.472 3745.47 458.472 3745.05C458.472 3744.72 458.341 3744.41 458.106 3744.17C457.872 3743.94 457.553 3743.8 457.222 3743.8H455.222C454.891 3743.8 454.573 3743.94 454.338 3744.17C454.104 3744.41 453.972 3744.72 453.972 3745.05C453.972 3745.47 453.636 3745.8 453.222 3745.8C452.808 3745.8 452.472 3745.47 452.472 3745.05C452.472 3744.33 452.762 3743.63 453.278 3743.11C453.671 3742.72 454.172 3742.46 454.711 3742.35C454.556 3742.25 454.411 3742.13 454.278 3742C453.762 3741.49 453.472 3740.79 453.472 3740.06C453.472 3739.33 453.762 3738.63 454.278 3738.11C454.793 3737.6 455.493 3737.31 456.222 3737.31C456.951 3737.31 457.651 3737.6 458.167 3738.11C458.682 3738.63 458.972 3739.33 458.972 3740.06Z" fill="currentColor" />
</g>
</svg>