<svg xmlns="http://www.w3.org/2000/svg" width="16" height="16" viewBox="1466.56 3400.78 18.00 18.00" fill="none"><g xmlns="http://www.w3.org/2000/svg" id="save">
<g id="Union_22">
<path fill-rule="evenodd" clip-rule="evenodd" d="M1475.56 3409.03C1476.29 3409.03 1476.98 3409.32 1477.5 3409.83C1478.02 3410.35 1478.31 3411.05 1478.31 3411.78C1478.31 3412.51 1478.02 3413.21 1477.5 3413.72C1476.98 3414.24 1476.29 3414.53 1475.56 3414.53C1474.83 3414.53 1474.13 3414.24 1473.61 3413.72C1473.1 3413.21 1472.81 3412.51 1472.81 3411.78C1472.81 3411.05 1473.1 3410.35 1473.61 3409.83C1474.13 3409.32 1474.83 3409.03 1475.56 3409.03ZM1475.56 3410.53C1475.22 3410.53 1474.91 3410.66 1474.67 3410.89C1474.44 3411.13 1474.31 3411.45 1474.31 3411.78C1474.31 3412.11 1474.44 3412.43 1474.67 3412.66C1474.91 3412.9 1475.22 3413.03 1475.56 3413.03C1475.89 3413.03 1476.21 3412.9 1476.44 3412.66C1476.67 3412.43 1476.81 3412.11 1476.81 3411.78C1476.81 3411.45 1476.67 3411.13 1476.44 3410.89C1476.21 3410.66 1475.89 3410.53 1475.56 3410.53Z" fill="currentColor" />
<path fill-rule="evenodd" clip-rule="evenodd" d="M1479.56 3401.03C1479.75 3401.03 1479.95 3401.11 1480.09 3401.25L1484.09 3405.25C1484.23 3405.39 1484.31 3405.58 1484.31 3405.78V3415.78C1484.31 3416.51 1484.02 3417.21 1483.5 3417.72C1482.98 3418.24 1482.29 3418.53 1481.56 3418.53H1469.56C1468.83 3418.53 1468.13 3418.24 1467.61 3417.72C1467.1 3417.21 1466.81 3416.51 1466.81 3415.78V3403.78C1466.81 3403.05 1467.1 3402.35 1467.61 3401.83C1468.13 3401.32 1468.83 3401.03 1469.56 3401.03H1479.56ZM1469.56 3402.53C1469.22 3402.53 1468.91 3402.66 1468.67 3402.89C1468.44 3403.13 1468.31 3403.45 1468.31 3403.78V3415.78C1468.31 3416.11 1468.44 3416.43 1468.67 3416.66C1468.91 3416.9 1469.22 3417.03 1469.56 3417.03H1481.56C1481.89 3417.03 1482.21 3416.9 1482.44 3416.66C1482.67 3416.43 1482.81 3416.11 1482.81 3415.78V3406.09L1479.25 3402.53H1478.31V3405.78C1478.31 3406.19 1477.97 3406.53 1477.56 3406.53H1471.56C1471.14 3406.53 1470.81 3406.19 1470.81 3405.78V3402.53H1469.56ZM1472.31 3405.03H1476.81V3402.53H1472.31V3405.03Z" fill="currentColor" />
</g>
</g>
</svg>