<svg xmlns="http://www.w3.org/2000/svg" width="16" height="16" viewBox="113.94 4451.72 21.00 21.00" fill="none"><g xmlns="http://www.w3.org/2000/svg" id="status-success-filled">
<path id="union_109" d="M129.444 4453.56C130.953 4454.43 132.207 4455.68 133.084 4457.19C133.961 4458.69 134.43 4460.4 134.444 4462.14C134.458 4463.88 134.017 4465.6 133.164 4467.12C132.312 4468.64 131.078 4469.91 129.584 4470.8C128.09 4471.7 126.388 4472.18 124.647 4472.22C122.905 4472.26 121.185 4471.84 119.656 4471C118.127 4470.17 116.842 4468.95 115.929 4467.47C115.016 4465.98 114.506 4464.29 114.449 4462.55L114.444 4462.22L114.449 4461.9C114.505 4460.17 115.008 4458.49 115.908 4457.01C116.808 4455.54 118.075 4454.32 119.585 4453.48C121.096 4452.64 122.798 4452.21 124.525 4452.22C126.253 4452.24 127.948 4452.7 129.444 4453.56ZM128.151 4459.52C127.979 4459.34 127.75 4459.24 127.507 4459.22C127.264 4459.21 127.024 4459.28 126.831 4459.43L126.737 4459.52L123.444 4462.81L122.151 4461.52L122.057 4461.43C121.865 4461.28 121.625 4461.21 121.382 4461.22C121.139 4461.24 120.91 4461.34 120.738 4461.52C120.566 4461.69 120.462 4461.92 120.447 4462.16C120.431 4462.4 120.505 4462.64 120.654 4462.84L120.737 4462.93L122.737 4464.93L122.831 4465.01C123.007 4465.15 123.222 4465.22 123.444 4465.22C123.666 4465.22 123.882 4465.15 124.057 4465.01L124.151 4464.93L128.151 4460.93L128.234 4460.84C128.384 4460.64 128.458 4460.4 128.442 4460.16C128.427 4459.92 128.324 4459.69 128.151 4459.52Z" fill="#2EBC5D" />
</g>
</svg>