<svg xmlns="http://www.w3.org/2000/svg" width="16" height="16" viewBox="620.61 4451.72 21.00 21.00" fill="none"><g xmlns="http://www.w3.org/2000/svg" id="status-evaluated-filled">
<path id="union_112" d="M636.111 4453.56C637.619 4454.43 638.874 4455.68 639.751 4457.19C640.628 4458.69 641.096 4460.4 641.111 4462.14C641.125 4463.88 640.684 4465.6 639.831 4467.12C638.979 4468.64 637.744 4469.91 636.25 4470.8C634.756 4471.7 633.054 4472.18 631.313 4472.22C629.572 4472.26 627.852 4471.84 626.323 4471C624.794 4470.17 623.509 4468.95 622.596 4467.47C621.683 4465.98 621.172 4464.29 621.116 4462.55L621.111 4462.22L621.116 4461.9C621.172 4460.17 621.675 4458.49 622.575 4457.01C623.475 4455.54 624.742 4454.32 626.252 4453.48C627.762 4452.64 629.464 4452.21 631.192 4452.22C632.92 4452.24 634.615 4452.7 636.111 4453.56ZM634.111 4458.22H628.111L627.994 4458.23C627.751 4458.26 627.527 4458.37 627.364 4458.56C627.201 4458.74 627.111 4458.98 627.111 4459.22L627.118 4459.34C627.147 4459.58 627.264 4459.81 627.447 4459.97C627.63 4460.13 627.866 4460.22 628.111 4460.22H631.695L627.404 4464.52L627.321 4464.61C627.166 4464.81 627.093 4465.06 627.117 4465.32C627.141 4465.57 627.26 4465.8 627.451 4465.97C627.641 4466.14 627.889 4466.23 628.143 4466.22C628.397 4466.21 628.638 4466.11 628.818 4465.93L633.111 4461.64V4465.22L633.118 4465.34C633.148 4465.59 633.274 4465.82 633.469 4465.99C633.665 4466.15 633.915 4466.23 634.17 4466.22C634.424 4466.2 634.663 4466.09 634.838 4465.91C635.013 4465.72 635.111 4465.48 635.111 4465.22V4459.22L635.104 4459.11L635.075 4458.96L635.04 4458.85L634.986 4458.74L634.915 4458.63C634.886 4458.59 634.853 4458.55 634.818 4458.52L634.728 4458.44L634.632 4458.37L634.534 4458.32L634.424 4458.27L634.312 4458.24L634.186 4458.23L634.111 4458.22Z" fill="#8366F7" />
</g>
</svg>