<svg xmlns="http://www.w3.org/2000/svg" width="16" height="16" viewBox="451.72 4451.72 21.00 21.00" fill="none"><g xmlns="http://www.w3.org/2000/svg" id="status-error-filled">
<path id="union_111" d="M467.222 4453.56C468.742 4454.44 470.005 4455.7 470.882 4457.22C471.76 4458.74 472.222 4460.47 472.222 4462.22C472.222 4463.98 471.76 4465.7 470.882 4467.22C470.005 4468.74 468.742 4470 467.222 4470.88C465.702 4471.76 463.977 4472.22 462.222 4472.22C460.467 4472.22 458.742 4471.76 457.222 4470.88C455.702 4470 454.44 4468.74 453.562 4467.22C452.684 4465.7 452.222 4463.98 452.222 4462.22L452.227 4461.9C452.283 4460.17 452.786 4458.49 453.686 4457.01C454.586 4455.54 455.853 4454.32 457.363 4453.48C458.873 4452.64 460.575 4452.21 462.303 4452.22C464.031 4452.24 465.726 4452.7 467.222 4453.56ZM462.222 4465.22C461.957 4465.22 461.703 4465.33 461.515 4465.51C461.328 4465.7 461.222 4465.96 461.222 4466.22V4466.23C461.222 4466.5 461.328 4466.75 461.515 4466.94C461.703 4467.13 461.957 4467.23 462.222 4467.23C462.487 4467.23 462.742 4467.13 462.929 4466.94C463.117 4466.75 463.222 4466.5 463.222 4466.23V4466.22C463.222 4465.96 463.117 4465.7 462.929 4465.51C462.742 4465.33 462.487 4465.22 462.222 4465.22ZM462.222 4458.22C461.957 4458.22 461.703 4458.33 461.515 4458.51C461.328 4458.7 461.222 4458.96 461.222 4459.22V4463.22C461.222 4463.49 461.328 4463.74 461.515 4463.93C461.703 4464.12 461.957 4464.22 462.222 4464.22C462.487 4464.22 462.742 4464.12 462.929 4463.93C463.117 4463.74 463.222 4463.49 463.222 4463.22V4459.22C463.222 4458.96 463.117 4458.7 462.929 4458.51C462.742 4458.33 462.487 4458.22 462.222 4458.22Z" fill="#EE3C3B" />
</g>
</svg>