<svg xmlns="http://www.w3.org/2000/svg" width="16" height="16" viewBox="282.83 4451.72 21.00 21.00" fill="none"><g xmlns="http://www.w3.org/2000/svg" id="status-warning-filled">
<path id="union_110" d="M298.333 4453.56C299.853 4454.44 301.116 4455.7 301.993 4457.22C302.871 4458.74 303.333 4460.47 303.333 4462.22C303.333 4463.98 302.871 4465.7 301.993 4467.22C301.116 4468.74 299.853 4470 298.333 4470.88C296.813 4471.76 295.088 4472.22 293.333 4472.22C291.578 4472.22 289.853 4471.76 288.333 4470.88C286.813 4470 285.55 4468.74 284.673 4467.22C283.795 4465.7 283.333 4463.98 283.333 4462.22L283.338 4461.9C283.394 4460.17 283.897 4458.49 284.797 4457.01C285.697 4455.54 286.964 4454.32 288.474 4453.48C289.984 4452.64 291.686 4452.21 293.414 4452.22C295.142 4452.24 296.837 4452.7 298.333 4453.56ZM293.333 4465.22C293.068 4465.22 292.814 4465.33 292.626 4465.51C292.438 4465.7 292.333 4465.96 292.333 4466.22V4466.23C292.333 4466.5 292.438 4466.75 292.626 4466.94C292.814 4467.13 293.068 4467.23 293.333 4467.23C293.598 4467.23 293.853 4467.13 294.04 4466.94C294.228 4466.75 294.333 4466.5 294.333 4466.23V4466.22C294.333 4465.96 294.228 4465.7 294.04 4465.51C293.853 4465.33 293.598 4465.22 293.333 4465.22ZM293.333 4458.22C293.068 4458.22 292.814 4458.33 292.626 4458.51C292.438 4458.7 292.333 4458.96 292.333 4459.22V4463.22C292.333 4463.49 292.438 4463.74 292.626 4463.93C292.814 4464.12 293.068 4464.22 293.333 4464.22C293.598 4464.22 293.853 4464.12 294.04 4463.93C294.228 4463.74 294.333 4463.49 294.333 4463.22V4459.22C294.333 4458.96 294.228 4458.7 294.04 4458.51C293.853 4458.33 293.598 4458.22 293.333 4458.22Z" fill="#FFAF2E" />
</g>
</svg>