<svg xmlns="http://www.w3.org/2000/svg" width="16" height="16" viewBox="1127.78 2555.33 20.00 20.00" fill="none"><g xmlns="http://www.w3.org/2000/svg" id="system-trash-delete">
<path id="union_74" d="M1140.03 2557.33C1140.03 2557.27 1140 2557.2 1139.95 2557.16C1139.91 2557.11 1139.84 2557.08 1139.78 2557.08H1135.78C1135.71 2557.08 1135.65 2557.11 1135.6 2557.16C1135.55 2557.2 1135.53 2557.27 1135.53 2557.33V2559.58H1140.03V2557.33ZM1132.52 2572.27C1132.53 2572.29 1132.53 2572.31 1132.53 2572.33C1132.53 2572.66 1132.66 2572.98 1132.89 2573.22C1133.13 2573.45 1133.45 2573.58 1133.78 2573.58H1141.78C1142.11 2573.58 1142.43 2573.45 1142.66 2573.22C1142.9 2572.98 1143.03 2572.66 1143.03 2572.33C1143.03 2572.31 1143.03 2572.29 1143.03 2572.27L1143.96 2561.08H1131.59L1132.52 2572.27ZM1135.03 2570.33V2564.33C1135.03 2563.92 1135.36 2563.58 1135.78 2563.58C1136.19 2563.58 1136.53 2563.92 1136.53 2564.33V2570.33C1136.53 2570.75 1136.19 2571.08 1135.78 2571.08C1135.36 2571.08 1135.03 2570.75 1135.03 2570.33ZM1139.03 2570.33V2564.33C1139.03 2563.92 1139.36 2563.58 1139.78 2563.58C1140.19 2563.58 1140.53 2563.92 1140.53 2564.33V2570.33C1140.53 2570.75 1140.19 2571.08 1139.78 2571.08C1139.36 2571.08 1139.03 2570.75 1139.03 2570.33ZM1141.53 2559.58H1145.78C1146.19 2559.58 1146.53 2559.92 1146.53 2560.33C1146.53 2560.75 1146.19 2561.08 1145.78 2561.08H1145.47L1144.52 2572.4C1144.51 2573.1 1144.22 2573.78 1143.72 2574.28C1143.21 2574.79 1142.51 2575.08 1141.78 2575.08H1133.78C1133.05 2575.08 1132.35 2574.79 1131.83 2574.28C1131.33 2573.78 1131.05 2573.1 1131.03 2572.4L1130.09 2561.08H1129.78C1129.36 2561.08 1129.03 2560.75 1129.03 2560.33C1129.03 2559.92 1129.36 2559.58 1129.78 2559.58H1134.03V2557.33C1134.03 2556.87 1134.21 2556.42 1134.54 2556.1C1134.87 2555.77 1135.31 2555.58 1135.78 2555.58H1139.78C1140.24 2555.58 1140.69 2555.77 1141.02 2556.1C1141.34 2556.42 1141.53 2556.87 1141.53 2557.33V2559.58Z" fill="currentColor" />
</g>
</svg>