<svg xmlns="http://www.w3.org/2000/svg" width="16" height="16" viewBox="452.22 3230.89 20.00 20.00" fill="none"><g xmlns="http://www.w3.org/2000/svg" id="system-world-web">
<path id="Union_13" d="M458.394 3240.89C458.394 3240.13 458.446 3239.38 458.541 3238.64H454.288C454.082 3239.36 453.972 3240.12 453.972 3240.89C453.972 3241.65 454.08 3242.41 454.287 3243.14H458.541C458.446 3242.4 458.394 3241.64 458.394 3240.89ZM460.336 3244.64C460.709 3246.21 461.317 3247.73 462.145 3249.14C462.171 3249.14 462.197 3249.14 462.222 3249.14C462.248 3249.14 462.273 3249.14 462.298 3249.14C463.127 3247.73 463.735 3246.21 464.109 3244.64H460.336ZM454.877 3244.64C455.269 3245.41 455.777 3246.11 456.388 3246.72C457.154 3247.49 458.064 3248.1 459.065 3248.51C459.471 3248.68 459.889 3248.81 460.314 3248.91C459.626 3247.56 459.116 3246.12 458.796 3244.64H454.877ZM465.649 3244.64C465.329 3246.12 464.817 3247.56 464.13 3248.91C464.555 3248.81 464.973 3248.68 465.38 3248.51C466.38 3248.1 467.29 3247.49 468.056 3246.72C468.668 3246.11 469.176 3245.41 469.568 3244.64H465.649ZM464.13 3232.86C464.817 3234.22 465.329 3235.66 465.649 3237.14H469.568C469.179 3236.38 468.673 3235.67 468.056 3235.05C466.967 3233.97 465.604 3233.21 464.13 3232.86ZM462.145 3232.64C461.317 3234.05 460.709 3235.56 460.336 3237.14H464.109C463.735 3235.56 463.127 3234.05 462.298 3232.64C462.273 3232.64 462.248 3232.64 462.222 3232.64C462.197 3232.64 462.171 3232.64 462.145 3232.64ZM460.314 3232.86C458.84 3233.22 457.477 3233.97 456.388 3235.05C455.772 3235.67 455.266 3236.38 454.877 3237.14H458.796C459.116 3235.66 459.626 3234.22 460.314 3232.86ZM459.894 3240.89C459.894 3241.64 459.948 3242.4 460.051 3243.14H464.393C464.497 3242.4 464.55 3241.64 464.55 3240.89C464.55 3240.13 464.497 3239.38 464.393 3238.64H460.051C459.948 3239.38 459.894 3240.13 459.894 3240.89ZM466.05 3240.89C466.05 3241.64 465.999 3242.4 465.904 3243.14H470.158C470.365 3242.41 470.472 3241.65 470.472 3240.89C470.472 3240.12 470.363 3239.36 470.157 3238.64H465.904C465.999 3239.38 466.05 3240.13 466.05 3240.89ZM471.972 3240.89C471.972 3242.17 471.72 3243.44 471.23 3244.62C470.74 3245.8 470.022 3246.88 469.117 3247.78C468.212 3248.69 467.137 3249.41 465.954 3249.9C464.984 3250.3 463.957 3250.54 462.914 3250.61C462.813 3250.64 462.707 3250.65 462.602 3250.63C462.476 3250.63 462.349 3250.64 462.222 3250.64C462.095 3250.64 461.968 3250.63 461.841 3250.63C461.737 3250.65 461.631 3250.64 461.53 3250.61C460.487 3250.54 459.46 3250.3 458.491 3249.9C457.308 3249.41 456.233 3248.69 455.328 3247.78C454.422 3246.88 453.704 3245.8 453.214 3244.62C452.724 3243.44 452.472 3242.17 452.472 3240.89C452.472 3238.3 453.499 3235.82 455.328 3233.99C456.992 3232.33 459.197 3231.33 461.529 3231.17C461.63 3231.14 461.736 3231.13 461.841 3231.15C461.968 3231.14 462.095 3231.14 462.222 3231.14C462.349 3231.14 462.476 3231.14 462.602 3231.15C462.707 3231.13 462.813 3231.14 462.915 3231.17C465.247 3231.33 467.452 3232.33 469.117 3233.99C470.945 3235.82 471.972 3238.3 471.972 3240.89Z" fill="currentColor" />
</g>
</svg>