<svg xmlns="http://www.w3.org/2000/svg" width="16" height="16" viewBox="453.22 2556.33 18.00 18.00" fill="none"><g xmlns="http://www.w3.org/2000/svg" id="system-dots-vertical">
<path id="union_71" d="M462.222 2570.73C462.647 2570.73 463.054 2570.9 463.354 2571.2C463.654 2571.5 463.822 2571.91 463.822 2572.33C463.822 2572.76 463.654 2573.17 463.354 2573.47C463.054 2573.77 462.647 2573.93 462.222 2573.93C461.798 2573.93 461.39 2573.77 461.09 2573.47C460.79 2573.17 460.623 2572.76 460.623 2572.33C460.623 2571.91 460.79 2571.5 461.09 2571.2C461.39 2570.9 461.798 2570.73 462.222 2570.73ZM462.222 2563.73C462.647 2563.73 463.054 2563.9 463.354 2564.2C463.654 2564.5 463.822 2564.91 463.822 2565.33C463.822 2565.76 463.654 2566.17 463.354 2566.47C463.054 2566.77 462.647 2566.93 462.222 2566.93C461.798 2566.93 461.39 2566.77 461.09 2566.47C460.79 2566.17 460.623 2565.76 460.623 2565.33C460.623 2564.91 460.79 2564.5 461.09 2564.2C461.39 2563.9 461.798 2563.73 462.222 2563.73ZM462.222 2556.73C462.647 2556.73 463.054 2556.9 463.354 2557.2C463.654 2557.5 463.822 2557.91 463.822 2558.33C463.822 2558.76 463.654 2559.17 463.354 2559.47C463.054 2559.77 462.647 2559.93 462.222 2559.93C461.798 2559.93 461.39 2559.77 461.09 2559.47C460.79 2559.17 460.623 2558.76 460.623 2558.33C460.623 2557.91 460.79 2557.5 461.09 2557.2C461.39 2556.9 461.798 2556.73 462.222 2556.73Z" fill="currentColor" />
</g>
</svg>