<svg xmlns="http://www.w3.org/2000/svg" width="16" height="16" viewBox="1297.67 2386.44 19.00 19.00" fill="none"><g xmlns="http://www.w3.org/2000/svg" id="system-edit-rename">
<path id="union_67" d="M1297.92 2402.44V2393.44C1297.92 2392.72 1298.21 2392.02 1298.72 2391.5C1299.24 2390.98 1299.94 2390.69 1300.67 2390.69H1301.67C1302.08 2390.69 1302.42 2391.03 1302.42 2391.44C1302.42 2391.86 1302.08 2392.19 1301.67 2392.19H1300.67C1300.34 2392.19 1300.02 2392.33 1299.78 2392.56C1299.55 2392.79 1299.42 2393.11 1299.42 2393.44V2402.44C1299.42 2402.78 1299.55 2403.09 1299.78 2403.33C1300.02 2403.56 1300.34 2403.69 1300.67 2403.69H1309.67C1310 2403.69 1310.32 2403.56 1310.55 2403.33C1310.78 2403.09 1310.92 2402.78 1310.92 2402.44V2401.44C1310.92 2401.03 1311.25 2400.69 1311.67 2400.69C1312.08 2400.69 1312.42 2401.03 1312.42 2401.44V2402.44C1312.42 2403.17 1312.13 2403.87 1311.61 2404.39C1311.1 2404.9 1310.4 2405.19 1309.67 2405.19H1300.67C1299.94 2405.19 1299.24 2404.9 1298.72 2404.39C1298.21 2403.87 1297.92 2403.17 1297.92 2402.44ZM1314.92 2389.54C1314.92 2389.19 1314.77 2388.84 1314.52 2388.59C1314.27 2388.34 1313.93 2388.19 1313.57 2388.19C1313.21 2388.19 1312.87 2388.34 1312.61 2388.59L1312.61 2388.59L1311.74 2389.46L1313.65 2391.37L1314.52 2390.5L1314.52 2390.5C1314.77 2390.25 1314.92 2389.9 1314.92 2389.54ZM1304.42 2396.75V2398.69H1306.36L1312.59 2392.43L1310.68 2390.52L1304.42 2396.75ZM1316.42 2389.54C1316.42 2390.3 1316.12 2391.02 1315.58 2391.56L1315.58 2391.56L1314.3 2392.85C1314.27 2392.89 1314.24 2392.94 1314.2 2392.97C1314.16 2393.01 1314.11 2393.05 1314.07 2393.08L1307.2 2399.97C1307.06 2400.11 1306.87 2400.19 1306.67 2400.19H1303.67C1303.25 2400.19 1302.92 2399.86 1302.92 2399.44V2396.44C1302.92 2396.24 1303 2396.05 1303.14 2395.91L1310.04 2389.04C1310.07 2388.99 1310.1 2388.95 1310.14 2388.91C1310.18 2388.88 1310.22 2388.84 1310.26 2388.81L1311.55 2387.53C1312.09 2386.99 1312.81 2386.69 1313.57 2386.69C1314.32 2386.69 1315.05 2386.99 1315.58 2387.53C1316.12 2388.06 1316.42 2388.79 1316.42 2389.54Z" fill="currentColor" />
</g>
</svg>