<svg xmlns="http://www.w3.org/2000/svg" width="16" height="16" viewBox="790.00 2893.11 20.00 20.00" fill="none"><g xmlns="http://www.w3.org/2000/svg" id="system-user">
<path id="union_89" d="M805.25 2912.11V2910.11C805.25 2909.25 804.907 2908.42 804.298 2907.81C803.688 2907.2 802.862 2906.86 802 2906.86H798C797.138 2906.86 796.312 2907.2 795.702 2907.81C795.093 2908.42 794.75 2909.25 794.75 2910.11V2912.11C794.75 2912.53 794.414 2912.86 794 2912.86C793.586 2912.86 793.25 2912.53 793.25 2912.11V2910.11C793.25 2908.85 793.751 2907.64 794.642 2906.75C795.532 2905.86 796.74 2905.36 798 2905.36H802C803.26 2905.36 804.468 2905.86 805.358 2906.75C806.249 2907.64 806.75 2908.85 806.75 2910.11V2912.11C806.75 2912.53 806.414 2912.86 806 2912.86C805.586 2912.86 805.25 2912.53 805.25 2912.11ZM803.25 2898.11C803.25 2897.25 802.907 2896.42 802.298 2895.81C801.688 2895.2 800.862 2894.86 800 2894.86C799.138 2894.86 798.312 2895.2 797.702 2895.81C797.093 2896.42 796.75 2897.25 796.75 2898.11C796.75 2898.97 797.093 2899.8 797.702 2900.41C798.312 2901.02 799.138 2901.36 800 2901.36C800.862 2901.36 801.688 2901.02 802.298 2900.41C802.907 2899.8 803.25 2898.97 803.25 2898.11ZM804.75 2898.11C804.75 2899.37 804.249 2900.58 803.358 2901.47C802.468 2902.36 801.26 2902.86 800 2902.86C798.74 2902.86 797.532 2902.36 796.642 2901.47C795.751 2900.58 795.25 2899.37 795.25 2898.11C795.25 2896.85 795.751 2895.64 796.642 2894.75C797.532 2893.86 798.74 2893.36 800 2893.36C801.26 2893.36 802.468 2893.86 803.358 2894.75C804.249 2895.64 804.75 2896.85 804.75 2898.11Z" fill="currentColor" />
</g>
</svg>