<svg xmlns="http://www.w3.org/2000/svg" width="16" height="16" viewBox="113.44 3060.50 22.00 22.00" fill="none"><g xmlns="http://www.w3.org/2000/svg" id="system-star-favourite">
<path id="union_94" d="M124.438 3061.25C124.723 3061.25 124.983 3061.41 125.11 3061.67L128.021 3067.57L134.531 3068.51C134.813 3068.55 135.049 3068.75 135.137 3069.02C135.225 3069.29 135.151 3069.59 134.947 3069.79L130.229 3074.38L131.342 3080.87C131.39 3081.15 131.274 3081.43 131.043 3081.6C130.812 3081.77 130.506 3081.79 130.253 3081.66L124.445 3078.6L118.621 3081.66C118.369 3081.79 118.062 3081.77 117.831 3081.6C117.601 3081.43 117.485 3081.15 117.533 3080.87L118.645 3074.38L113.928 3069.79C113.724 3069.59 113.65 3069.29 113.739 3069.02C113.827 3068.75 114.061 3068.55 114.344 3068.51L120.853 3067.57L123.765 3061.67L123.819 3061.58C123.957 3061.38 124.188 3061.25 124.438 3061.25ZM122.024 3068.59C121.914 3068.81 121.703 3068.96 121.459 3069L116.065 3069.78L119.975 3073.58C120.152 3073.76 120.232 3074.01 120.191 3074.25L119.269 3079.62L124.095 3077.09C124.314 3076.97 124.576 3076.97 124.794 3077.09L129.606 3079.62L128.684 3074.25C128.642 3074.01 128.724 3073.76 128.901 3073.58L132.81 3069.78L127.416 3069C127.172 3068.96 126.96 3068.81 126.851 3068.59L124.437 3063.7L122.024 3068.59Z" fill="currentColor" />
</g>
</svg>