<svg xmlns="http://www.w3.org/2000/svg" width="16" height="16" viewBox="1298.67 3063.00 18.00 18.00" fill="none"><g xmlns="http://www.w3.org/2000/svg" id="system-library">
<path id="Union_12" d="M1302.67 3063.4C1303.03 3063.4 1303.38 3063.53 1303.67 3063.75C1303.95 3063.53 1304.3 3063.4 1304.67 3063.4H1306.67C1307.09 3063.4 1307.5 3063.57 1307.8 3063.87C1307.87 3063.94 1307.93 3064.02 1307.99 3064.1C1308.03 3064.08 1308.08 3064.05 1308.13 3064.04C1308.14 3064.03 1308.15 3064.03 1308.16 3064.03L1308.29 3063.99C1308.3 3063.98 1308.32 3063.98 1308.33 3063.98L1310.51 3063.45H1310.51C1311.37 3063.24 1312.28 3063.73 1312.51 3064.6L1316.21 3078.02L1316.21 3078.03C1316.31 3078.42 1316.27 3078.83 1316.08 3079.19C1315.9 3079.55 1315.58 3079.82 1315.2 3079.96C1315.19 3079.97 1315.18 3079.97 1315.17 3079.97L1315.04 3080.01C1315.03 3080.02 1315.02 3080.02 1315.01 3080.02L1312.82 3080.55H1312.82C1311.96 3080.76 1311.06 3080.27 1310.82 3079.4L1308.27 3070.12V3079C1308.27 3079.42 1308.1 3079.83 1307.8 3080.13C1307.5 3080.43 1307.09 3080.6 1306.67 3080.6H1304.67C1304.3 3080.6 1303.95 3080.47 1303.67 3080.25C1303.38 3080.47 1303.03 3080.6 1302.67 3080.6H1300.67C1300.24 3080.6 1299.83 3080.43 1299.53 3080.13C1299.23 3079.83 1299.07 3079.42 1299.07 3079V3065C1299.07 3064.58 1299.23 3064.17 1299.53 3063.87C1299.83 3063.57 1300.24 3063.4 1300.67 3063.4H1302.67ZM1300.27 3079C1300.27 3079.11 1300.31 3079.21 1300.38 3079.28C1300.46 3079.36 1300.56 3079.4 1300.67 3079.4H1302.67C1302.77 3079.4 1302.87 3079.36 1302.95 3079.28C1303.02 3079.21 1303.07 3079.11 1303.07 3079V3068.6H1300.27V3079ZM1304.27 3079C1304.27 3079.11 1304.31 3079.21 1304.38 3079.28C1304.46 3079.36 1304.56 3079.4 1304.67 3079.4H1306.67C1306.77 3079.4 1306.87 3079.36 1306.95 3079.28C1307.02 3079.21 1307.07 3079.11 1307.07 3079V3076.6H1304.27V3079ZM1311.26 3076.47L1311.98 3079.08L1312.01 3079.16C1312.08 3079.3 1312.25 3079.41 1312.44 3079.4L1312.54 3079.39L1314.71 3078.86L1314.79 3078.83C1314.89 3078.8 1314.97 3078.73 1315.02 3078.63C1315.07 3078.54 1315.08 3078.43 1315.05 3078.33V3078.33L1314.33 3075.7L1311.26 3076.47ZM1304.67 3064.6C1304.56 3064.6 1304.46 3064.64 1304.38 3064.72C1304.31 3064.79 1304.27 3064.89 1304.27 3065V3075.4H1307.07V3065C1307.07 3064.89 1307.02 3064.79 1306.95 3064.72C1306.87 3064.64 1306.77 3064.6 1306.67 3064.6H1304.67ZM1309.33 3069.45L1310.94 3075.31L1314.01 3074.55L1312.39 3068.69L1309.33 3069.45ZM1310.79 3064.61L1310.79 3064.61L1308.63 3065.14L1308.54 3065.17C1308.44 3065.2 1308.36 3065.27 1308.32 3065.36C1308.27 3065.46 1308.26 3065.56 1308.28 3065.67L1309.01 3068.3L1312.07 3067.53L1311.36 3064.92C1311.3 3064.71 1311.06 3064.55 1310.79 3064.61ZM1300.67 3064.6C1300.56 3064.6 1300.46 3064.64 1300.38 3064.72C1300.31 3064.79 1300.27 3064.89 1300.27 3065V3067.4H1303.07V3065C1303.07 3064.89 1303.02 3064.79 1302.95 3064.72C1302.87 3064.64 1302.77 3064.6 1302.67 3064.6H1300.67Z" fill="currentColor" />
</g>
</svg>