<svg xmlns="http://www.w3.org/2000/svg" width="16" height="16" viewBox="958.89 2724.22 20.00 20.00" fill="none"><g xmlns="http://www.w3.org/2000/svg" id="system-question-hint">
<g id="union_81">
<path d="M968.889 2737.47C969.303 2737.47 969.639 2737.81 969.639 2738.22V2738.23C969.639 2738.65 969.303 2738.98 968.889 2738.98C968.475 2738.98 968.139 2738.65 968.139 2738.23V2738.22C968.139 2737.81 968.475 2737.47 968.889 2737.47Z" fill="currentColor" />
<path d="M968.365 2730.52C968.969 2730.4 969.596 2730.49 970.145 2730.77L970.144 2730.77C970.694 2731.05 971.134 2731.51 971.393 2732.07C971.651 2732.63 971.713 2733.27 971.568 2733.87C971.422 2734.47 971.079 2735 970.593 2735.39C970.107 2735.77 969.505 2735.97 968.887 2735.97C968.473 2735.97 968.138 2735.63 968.139 2735.22C968.141 2734.81 968.477 2734.47 968.891 2734.47C969.172 2734.47 969.445 2734.38 969.666 2734.21C969.887 2734.03 970.044 2733.79 970.11 2733.52C970.175 2733.24 970.148 2732.95 970.031 2732.7C969.913 2732.44 969.713 2732.24 969.462 2732.11C969.215 2731.98 968.931 2731.94 968.658 2732C968.386 2732.05 968.14 2732.2 967.961 2732.41C967.694 2732.72 967.221 2732.76 966.905 2732.5C966.588 2732.23 966.549 2731.75 966.817 2731.44C967.215 2730.97 967.76 2730.65 968.365 2730.52Z" fill="currentColor" />
<path fill-rule="evenodd" clip-rule="evenodd" d="M968.889 2724.47C970.169 2724.47 971.437 2724.72 972.62 2725.21C973.803 2725.7 974.878 2726.42 975.783 2727.33C976.689 2728.23 977.407 2729.31 977.897 2730.49C978.387 2731.67 978.639 2732.94 978.639 2734.22C978.639 2735.5 978.387 2736.77 977.897 2737.95C977.407 2739.14 976.689 2740.21 975.783 2741.12C974.878 2742.02 973.803 2742.74 972.62 2743.23C971.437 2743.72 970.169 2743.97 968.889 2743.97C967.609 2743.97 966.34 2743.72 965.157 2743.23C963.975 2742.74 962.9 2742.02 961.994 2741.12C961.089 2740.21 960.371 2739.14 959.881 2737.95C959.391 2736.77 959.139 2735.5 959.139 2734.22C959.139 2732.94 959.391 2731.67 959.881 2730.49C960.371 2729.31 961.089 2728.23 961.994 2727.33C962.9 2726.42 963.975 2725.7 965.157 2725.21C966.34 2724.72 967.609 2724.47 968.889 2724.47ZM968.889 2725.97C967.806 2725.97 966.733 2726.19 965.732 2726.6C964.731 2727.01 963.821 2727.62 963.055 2728.39C962.289 2729.15 961.681 2730.06 961.267 2731.06C960.852 2732.07 960.639 2733.14 960.639 2734.22C960.639 2735.31 960.852 2736.38 961.267 2737.38C961.681 2738.38 962.289 2739.29 963.055 2740.06C963.821 2740.82 964.731 2741.43 965.732 2741.84C966.733 2742.26 967.806 2742.47 968.889 2742.47C969.972 2742.47 971.045 2742.26 972.046 2741.84C973.047 2741.43 973.957 2740.82 974.723 2740.06C975.489 2739.29 976.096 2738.38 976.511 2737.38C976.926 2736.38 977.139 2735.31 977.139 2734.22C977.139 2733.14 976.926 2732.07 976.511 2731.06C976.096 2730.06 975.489 2729.15 974.723 2728.39C973.957 2727.62 973.047 2727.01 972.046 2726.6C971.045 2726.19 969.972 2725.97 968.889 2725.97Z" fill="currentColor" />
</g>
</g>
</svg>