<svg xmlns="http://www.w3.org/2000/svg" width="16" height="16" viewBox="1126.78 3060.50 22.00 22.00" fill="none"><g xmlns="http://www.w3.org/2000/svg" id="system-cloud">
<path id="Vector (Stroke)_4" d="M1134.79 3064.94C1136.14 3064.3 1137.66 3064.1 1139.13 3064.36C1140.61 3064.63 1141.96 3065.34 1143.01 3066.41C1143.92 3067.35 1144.56 3068.51 1144.86 3069.78C1145.84 3069.97 1146.73 3070.47 1147.39 3071.22C1148.19 3072.12 1148.59 3073.29 1148.52 3074.49C1148.48 3075.08 1148.33 3075.66 1148.07 3076.2C1147.81 3076.73 1147.45 3077.21 1147.01 3077.6C1146.56 3078 1146.05 3078.3 1145.48 3078.49C1144.94 3078.68 1144.36 3078.76 1143.78 3078.73V3078.73H1133.04C1132.32 3078.79 1131.6 3078.7 1130.92 3078.48C1130.22 3078.26 1129.57 3077.89 1129.01 3077.42C1128.44 3076.94 1127.98 3076.36 1127.65 3075.71C1127.31 3075.05 1127.11 3074.34 1127.05 3073.6L1127.05 3073.6C1126.99 3072.87 1127.07 3072.13 1127.29 3071.43C1127.52 3070.73 1127.88 3070.08 1128.36 3069.52C1128.83 3068.95 1129.41 3068.49 1130.07 3068.15C1130.61 3067.88 1131.18 3067.69 1131.78 3067.6C1132.51 3066.45 1133.55 3065.52 1134.79 3064.94ZM1138.87 3065.84C1137.7 3065.63 1136.5 3065.79 1135.43 3066.3C1134.35 3066.8 1133.47 3067.63 1132.89 3068.66C1132.77 3068.88 1132.54 3069.03 1132.3 3069.05C1131.76 3069.09 1131.23 3069.24 1130.75 3069.49C1130.28 3069.73 1129.85 3070.07 1129.5 3070.48C1129.15 3070.9 1128.89 3071.37 1128.72 3071.89C1128.58 3072.34 1128.51 3072.81 1128.53 3073.28L1128.54 3073.48C1128.58 3074.02 1128.74 3074.54 1128.98 3075.02C1129.23 3075.5 1129.57 3075.93 1129.98 3076.27C1130.39 3076.62 1130.86 3076.89 1131.38 3077.05C1131.89 3077.22 1132.43 3077.28 1132.97 3077.24L1133.03 3077.23H1143.78L1143.83 3077.24C1144.22 3077.26 1144.62 3077.2 1144.99 3077.08C1145.37 3076.95 1145.71 3076.74 1146.01 3076.48C1146.31 3076.22 1146.55 3075.9 1146.72 3075.54C1146.9 3075.18 1147 3074.8 1147.02 3074.4L1147.03 3074.1C1147 3073.41 1146.73 3072.74 1146.27 3072.21C1145.74 3071.61 1144.99 3071.25 1144.19 3071.2C1143.94 3071.19 1143.71 3071.05 1143.58 3070.83C1143.53 3070.74 1143.5 3070.64 1143.49 3070.55C1143.3 3069.38 1142.76 3068.31 1141.94 3067.46C1141.11 3066.62 1140.03 3066.05 1138.87 3065.84Z" fill="currentColor" />
</g>
</svg>