<svg xmlns="http://www.w3.org/2000/svg" width="16" height="16" viewBox="1127.78 2724.22 20.00 20.00" fill="none"><g xmlns="http://www.w3.org/2000/svg" id="system-bolt">
<path id="union_82" d="M1138.17 2724.78C1138.36 2724.52 1138.7 2724.41 1139.01 2724.51C1139.32 2724.61 1139.53 2724.9 1139.53 2725.22V2731.47H1144.78C1145.06 2731.47 1145.32 2731.63 1145.45 2731.88C1145.57 2732.13 1145.55 2732.44 1145.38 2732.66L1137.38 2743.66C1137.19 2743.93 1136.86 2744.04 1136.55 2743.94C1136.24 2743.83 1136.03 2743.55 1136.03 2743.22V2736.97H1130.78C1130.5 2736.97 1130.24 2736.81 1130.11 2736.56C1129.98 2736.31 1130.01 2736.01 1130.17 2735.78L1138.17 2724.78ZM1132.25 2735.47H1136.78C1137.19 2735.47 1137.53 2735.81 1137.53 2736.22V2740.92L1143.31 2732.97H1138.78C1138.36 2732.97 1138.03 2732.64 1138.03 2732.22V2727.53L1132.25 2735.47Z" fill="currentColor" />
</g>
</svg>