<svg xmlns="http://www.w3.org/2000/svg" width="16" height="16" viewBox="958.89 3062.00 20.00 20.00" fill="none"><g xmlns="http://www.w3.org/2000/svg" id="system-image">
<path id="Union_11" d="M974.889 3062.25C975.883 3062.25 976.837 3062.65 977.54 3063.35C978.244 3064.05 978.639 3065.01 978.639 3066V3078C978.639 3078.99 978.244 3079.95 977.54 3080.65C976.837 3081.35 975.883 3081.75 974.889 3081.75H962.889C961.894 3081.75 960.941 3081.35 960.238 3080.65C959.534 3079.95 959.139 3078.99 959.139 3078V3066C959.139 3065.01 959.534 3064.05 960.238 3063.35C960.941 3062.65 961.894 3062.25 962.889 3062.25H974.889ZM966.389 3071.08C966.1 3071.08 965.761 3071.2 965.409 3071.54L960.639 3076.31V3078C960.639 3078.6 960.876 3079.17 961.298 3079.59C961.72 3080.01 962.292 3080.25 962.889 3080.25H974.889C975.486 3080.25 976.058 3080.01 976.48 3079.59C976.902 3079.17 977.139 3078.6 977.139 3078V3076.31L974.368 3073.54C974.017 3073.2 973.678 3073.08 973.389 3073.08C973.1 3073.08 972.761 3073.2 972.409 3073.54L971.949 3074L973.419 3075.47C973.712 3075.76 973.712 3076.24 973.419 3076.53C973.126 3076.82 972.652 3076.82 972.359 3076.53L967.368 3071.54C967.017 3071.2 966.678 3071.08 966.389 3071.08ZM962.889 3063.75C962.292 3063.75 961.72 3063.99 961.298 3064.41C960.876 3064.83 960.639 3065.4 960.639 3066V3074.19L964.359 3070.47L964.368 3070.46C964.945 3069.9 965.642 3069.58 966.389 3069.58C967.042 3069.58 967.657 3069.83 968.187 3070.26L968.409 3070.46L968.419 3070.47L970.889 3072.94L971.359 3072.47L971.368 3072.46C971.945 3071.9 972.642 3071.58 973.389 3071.58C974.042 3071.58 974.657 3071.83 975.187 3072.26L975.409 3072.46L975.419 3072.47L977.139 3074.19V3066C977.139 3065.4 976.902 3064.83 976.48 3064.41C976.058 3063.99 975.486 3063.75 974.889 3063.75H962.889ZM971.899 3067.25C972.313 3067.25 972.649 3067.59 972.649 3068C972.649 3068.41 972.313 3068.75 971.899 3068.75H971.889C971.475 3068.75 971.139 3068.41 971.139 3068C971.139 3067.59 971.475 3067.25 971.889 3067.25H971.899Z" fill="currentColor" />
</g>
</svg>