<svg xmlns="http://www.w3.org/2000/svg" width="16" height="16" viewBox="115.44 2725.22 18.00 18.00" fill="none"><g xmlns="http://www.w3.org/2000/svg" id="system-access-point">
<path id="union_77" d="M115.688 2734.22C115.688 2733.07 115.914 2731.94 116.354 2730.87C116.794 2729.81 117.438 2728.85 118.251 2728.03C118.544 2727.74 119.019 2727.74 119.312 2728.03C119.605 2728.33 119.605 2728.8 119.312 2729.1C118.639 2729.77 118.104 2730.57 117.74 2731.45C117.376 2732.33 117.188 2733.27 117.188 2734.22C117.188 2735.17 117.376 2736.12 117.74 2737C118.104 2737.88 118.639 2738.68 119.312 2739.35C119.605 2739.64 119.605 2740.12 119.312 2740.41C119.019 2740.7 118.544 2740.7 118.251 2740.41C117.438 2739.6 116.794 2738.63 116.354 2737.57C115.914 2736.51 115.688 2735.37 115.688 2734.22ZM131.695 2734.22C131.695 2733.27 131.507 2732.33 131.143 2731.45C130.779 2730.57 130.244 2729.77 129.571 2729.1C129.278 2728.8 129.278 2728.33 129.571 2728.03C129.864 2727.74 130.339 2727.74 130.632 2728.03C131.444 2728.85 132.089 2729.81 132.529 2730.87C132.969 2731.94 133.195 2733.07 133.195 2734.22C133.195 2735.37 132.969 2736.51 132.529 2737.57C132.089 2738.63 131.444 2739.6 130.632 2740.41C130.339 2740.7 129.864 2740.7 129.571 2740.41C129.278 2740.12 129.278 2739.64 129.571 2739.35C130.244 2738.68 130.779 2737.88 131.143 2737C131.508 2736.12 131.695 2735.17 131.695 2734.22ZM119.691 2734.22C119.691 2732.96 120.191 2731.75 121.082 2730.86C121.375 2730.57 121.849 2730.57 122.142 2730.86C122.435 2731.16 122.436 2731.63 122.143 2731.92C121.534 2732.53 121.191 2733.36 121.191 2734.22C121.191 2735.08 121.534 2735.91 122.143 2736.52C122.436 2736.81 122.435 2737.29 122.142 2737.58C121.849 2737.87 121.374 2737.87 121.082 2737.58C120.191 2736.69 119.691 2735.48 119.691 2734.22ZM127.694 2734.22C127.694 2733.36 127.351 2732.53 126.742 2731.92C126.449 2731.63 126.449 2731.16 126.742 2730.86C127.035 2730.57 127.51 2730.57 127.802 2730.86C128.693 2731.75 129.194 2732.96 129.194 2734.22C129.194 2735.48 128.693 2736.69 127.802 2737.58C127.51 2737.87 127.035 2737.87 126.742 2737.58C126.449 2737.29 126.449 2736.81 126.742 2736.52C127.351 2735.91 127.694 2735.08 127.694 2734.22ZM123.694 2734.23V2734.22C123.694 2733.81 124.03 2733.47 124.444 2733.47C124.858 2733.47 125.194 2733.81 125.194 2734.22V2734.23C125.194 2734.65 124.858 2734.98 124.444 2734.98C124.03 2734.98 123.694 2734.65 123.694 2734.23Z" fill="currentColor" />
</g>
</svg>