<svg xmlns="http://www.w3.org/2000/svg" width="16" height="16" viewBox="284.33 2556.33 18.00 18.00" fill="none"><g xmlns="http://www.w3.org/2000/svg" id="system-link">
<path id="union_70" d="M284.583 2568.33C284.583 2567.58 284.733 2566.83 285.025 2566.13C285.316 2565.43 285.744 2564.79 286.282 2564.26L286.313 2564.23L286.837 2563.77C287.147 2563.5 287.621 2563.53 287.896 2563.84C288.17 2564.15 288.14 2564.62 287.83 2564.9L287.332 2565.33C286.937 2565.73 286.624 2566.19 286.409 2566.71C286.194 2567.22 286.083 2567.77 286.083 2568.33C286.083 2568.89 286.194 2569.44 286.409 2569.96C286.624 2570.47 286.94 2570.94 287.337 2571.33C288.145 2572.13 289.236 2572.58 290.373 2572.58C291.493 2572.58 292.567 2572.15 293.371 2571.37L293.732 2570.89C293.979 2570.55 294.448 2570.48 294.78 2570.73C295.113 2570.98 295.182 2571.45 294.935 2571.78L294.538 2572.31C294.516 2572.34 294.491 2572.37 294.464 2572.4C293.375 2573.48 291.905 2574.08 290.373 2574.08C288.842 2574.08 287.372 2573.48 286.282 2572.4C285.744 2571.87 285.316 2571.23 285.025 2570.54C284.733 2569.84 284.583 2569.09 284.583 2568.33ZM295.803 2561.8C296.096 2561.51 296.571 2561.51 296.863 2561.8C297.156 2562.1 297.156 2562.57 296.863 2562.86L290.863 2568.86C290.571 2569.16 290.096 2569.16 289.803 2568.86C289.51 2568.57 289.51 2568.1 289.803 2567.8L295.803 2561.8ZM300.582 2562.33C300.582 2561.21 300.134 2560.13 299.337 2559.33C298.54 2558.53 297.459 2558.08 296.332 2558.08C295.209 2558.08 294.131 2558.53 293.335 2559.32L292.901 2559.82C292.63 2560.14 292.156 2560.17 291.843 2559.9C291.529 2559.63 291.495 2559.16 291.766 2558.84L292.229 2558.31C292.241 2558.29 292.253 2558.28 292.266 2558.27C293.344 2557.19 294.807 2556.58 296.332 2556.58C297.857 2556.58 299.32 2557.19 300.399 2558.27C301.477 2559.35 302.082 2560.81 302.082 2562.33C302.082 2563.86 301.476 2565.32 300.398 2566.4C300.385 2566.41 300.373 2566.42 300.36 2566.44L299.825 2566.9C299.513 2567.17 299.038 2567.14 298.767 2566.83C298.495 2566.51 298.529 2566.04 298.841 2565.77L299.354 2565.32C300.14 2564.53 300.582 2563.45 300.582 2562.33Z" fill="currentColor" />
</g>
</svg>