<svg xmlns="http://www.w3.org/2000/svg" width="16" height="16" viewBox="114.44 2386.44 20.00 20.00" fill="none"><g xmlns="http://www.w3.org/2000/svg" id="system-search">
<path id="union_60" d="M128.694 2394.44C128.694 2393.62 128.533 2392.81 128.219 2392.05C127.905 2391.29 127.444 2390.61 126.863 2390.03C126.283 2389.45 125.594 2388.98 124.836 2388.67C124.078 2388.36 123.265 2388.19 122.444 2388.19C121.624 2388.19 120.811 2388.36 120.053 2388.67C119.295 2388.98 118.606 2389.45 118.025 2390.03C117.445 2390.61 116.984 2391.29 116.67 2392.05C116.356 2392.81 116.194 2393.62 116.194 2394.44C116.194 2395.27 116.356 2396.08 116.67 2396.84C116.984 2397.59 117.445 2398.28 118.025 2398.86C118.606 2399.44 119.295 2399.9 120.053 2400.22C120.811 2400.53 121.624 2400.69 122.444 2400.69C123.265 2400.69 124.078 2400.53 124.836 2400.22C125.594 2399.9 126.283 2399.44 126.863 2398.86C127.444 2398.28 127.905 2397.59 128.219 2396.84C128.533 2396.08 128.694 2395.27 128.694 2394.44ZM130.194 2394.44C130.194 2395.46 129.994 2396.47 129.605 2397.41C129.311 2398.12 128.914 2398.78 128.429 2399.37L133.975 2404.91C134.268 2405.21 134.268 2405.68 133.975 2405.97C133.682 2406.27 133.207 2406.27 132.914 2405.97L127.368 2400.43C126.778 2400.91 126.119 2401.31 125.41 2401.6C124.47 2401.99 123.462 2402.19 122.444 2402.19C121.427 2402.19 120.419 2401.99 119.479 2401.6C118.538 2401.22 117.684 2400.64 116.964 2399.92C116.244 2399.21 115.674 2398.35 115.284 2397.41C114.895 2396.47 114.694 2395.46 114.694 2394.44C114.694 2393.43 114.895 2392.42 115.284 2391.48C115.674 2390.54 116.244 2389.68 116.964 2388.96C117.684 2388.24 118.538 2387.67 119.479 2387.28C120.419 2386.89 121.427 2386.69 122.444 2386.69C123.462 2386.69 124.47 2386.89 125.41 2387.28C126.351 2387.67 127.205 2388.24 127.925 2388.96C128.645 2389.68 129.215 2390.54 129.605 2391.48C129.994 2392.42 130.194 2393.43 130.194 2394.44Z" fill="currentColor" />
</g>
</svg>