<svg xmlns="http://www.w3.org/2000/svg" width="16" height="16" viewBox="621.13 2386.44 20.00 20.00" fill="none"><g xmlns="http://www.w3.org/2000/svg" id="system-volume-off">
<path id="union_63" d="M621.581 2386.91C621.874 2386.62 622.348 2386.62 622.641 2386.91L638.017 2402.29C638.021 2402.29 638.025 2402.3 638.029 2402.3C638.032 2402.3 638.035 2402.31 638.039 2402.31L640.641 2404.91C640.934 2405.21 640.934 2405.68 640.641 2405.97C640.348 2406.27 639.874 2406.27 639.581 2405.97L637.471 2403.87C637.408 2403.92 637.347 2403.98 637.283 2404.03C636.961 2404.29 636.488 2404.24 636.227 2403.92C635.967 2403.59 636.018 2403.12 636.34 2402.86C636.363 2402.84 636.385 2402.82 636.408 2402.8L634.61 2401C634.593 2401.02 634.578 2401.03 634.561 2401.04C634.23 2401.29 633.76 2401.23 633.511 2400.89C633.293 2400.6 633.317 2400.21 633.551 2399.94L630.861 2397.25V2403.4C630.9 2403.74 630.827 2404.08 630.651 2404.38C630.461 2404.69 630.163 2404.93 629.812 2405.05C629.461 2405.17 629.08 2405.15 628.738 2405.01C628.423 2404.89 628.16 2404.66 627.988 2404.37L624.744 2400.19H623.111C622.647 2400.19 622.202 2400.01 621.874 2399.68C621.546 2399.35 621.361 2398.91 621.361 2398.44V2394.44C621.361 2393.98 621.546 2393.54 621.874 2393.21C622.202 2392.88 622.647 2392.69 623.111 2392.69H624.745L625.425 2391.82L621.581 2387.97C621.288 2387.68 621.288 2387.21 621.581 2386.91ZM636.227 2388.97C636.488 2388.65 636.961 2388.6 637.283 2388.86C639.021 2390.27 640.224 2392.23 640.69 2394.41C641.156 2396.6 640.856 2398.88 639.842 2400.87C639.653 2401.24 639.202 2401.39 638.833 2401.2C638.464 2401.01 638.317 2400.56 638.505 2400.19C639.363 2398.5 639.618 2396.57 639.223 2394.72C638.829 2392.87 637.811 2391.22 636.34 2390.03C636.018 2389.77 635.967 2389.29 636.227 2388.97ZM633.511 2391.99C633.76 2391.66 634.23 2391.6 634.561 2391.84C635.422 2392.49 636.084 2393.36 636.472 2394.37C636.861 2395.37 636.96 2396.46 636.76 2397.52C636.682 2397.93 636.289 2398.19 635.883 2398.12C635.476 2398.04 635.209 2397.64 635.286 2397.24C635.434 2396.46 635.361 2395.65 635.074 2394.91C634.787 2394.17 634.297 2393.52 633.661 2393.04C633.33 2392.8 633.263 2392.33 633.511 2391.99ZM629.361 2391.44V2389.44C629.361 2389.4 629.365 2389.36 629.372 2389.32C629.374 2389.31 629.371 2389.3 629.365 2389.29C629.359 2389.27 629.35 2389.27 629.339 2389.26C629.327 2389.26 629.315 2389.26 629.303 2389.26C629.292 2389.27 629.284 2389.28 629.278 2389.29C629.257 2389.33 629.231 2389.37 629.203 2389.41L628.772 2389.96C628.518 2390.29 628.046 2390.34 627.719 2390.09C627.393 2389.84 627.334 2389.36 627.588 2389.04L627.988 2388.52C628.16 2388.23 628.424 2388 628.738 2387.87C629.08 2387.74 629.461 2387.72 629.812 2387.84C630.163 2387.96 630.461 2388.2 630.651 2388.51C630.827 2388.81 630.899 2389.15 630.861 2389.49V2391.44C630.861 2391.86 630.525 2392.19 630.111 2392.19C629.697 2392.19 629.361 2391.86 629.361 2391.44ZM622.861 2398.44C622.861 2398.51 622.887 2398.57 622.934 2398.62C622.981 2398.67 623.045 2398.69 623.111 2398.69H625.111C625.342 2398.69 625.561 2398.8 625.703 2398.98L629.203 2403.48C629.231 2403.52 629.257 2403.56 629.278 2403.6C629.284 2403.61 629.292 2403.62 629.303 2403.62C629.315 2403.63 629.327 2403.63 629.339 2403.63C629.35 2403.62 629.359 2403.61 629.365 2403.6C629.371 2403.59 629.374 2403.58 629.372 2403.57C629.365 2403.53 629.361 2403.49 629.361 2403.44V2395.75L626.493 2392.89L625.703 2393.9C625.561 2394.09 625.343 2394.19 625.111 2394.19H623.111C623.045 2394.19 622.981 2394.22 622.934 2394.27C622.887 2394.31 622.861 2394.38 622.861 2394.44V2398.44Z" fill="currentColor" />
</g>
</svg>