<svg xmlns="http://www.w3.org/2000/svg" width="16" height="16" viewBox="1467.56 2557.33 16.00 16.00" fill="none"><g xmlns="http://www.w3.org/2000/svg" id="system-plus">
<path id="union_76" d="M1474.81 2572.33V2566.08H1468.56C1468.14 2566.08 1467.81 2565.75 1467.81 2565.33C1467.81 2564.92 1468.14 2564.58 1468.56 2564.58H1474.81V2558.33C1474.81 2557.92 1475.14 2557.58 1475.56 2557.58C1475.97 2557.58 1476.31 2557.92 1476.31 2558.33V2564.58H1482.56C1482.97 2564.58 1483.31 2564.92 1483.31 2565.33C1483.31 2565.75 1482.97 2566.08 1482.56 2566.08H1476.31V2572.33C1476.31 2572.75 1475.97 2573.08 1475.56 2573.08C1475.14 2573.08 1474.81 2572.75 1474.81 2572.33Z" fill="currentColor" />
</g>
</svg>