<svg xmlns="http://www.w3.org/2000/svg" width="16" height="16" viewBox="1128.78 2387.44 18.00 18.00" fill="none"><g xmlns="http://www.w3.org/2000/svg" id="system-drag-and-drop">
<g id="union_66">
<path d="M1134.78 2401.85C1135.2 2401.85 1135.61 2402.01 1135.91 2402.31C1136.21 2402.61 1136.38 2403.02 1136.38 2403.44C1136.38 2403.87 1136.21 2404.28 1135.91 2404.58C1135.61 2404.88 1135.2 2405.04 1134.78 2405.04C1134.35 2405.04 1133.95 2404.88 1133.65 2404.58C1133.35 2404.28 1133.18 2403.87 1133.18 2403.44C1133.18 2403.02 1133.35 2402.61 1133.65 2402.31C1133.95 2402.01 1134.35 2401.85 1134.78 2401.85Z" fill="currentColor" />
<path d="M1140.78 2401.85C1141.2 2401.85 1141.61 2402.01 1141.91 2402.31C1142.21 2402.61 1142.38 2403.02 1142.38 2403.44C1142.38 2403.87 1142.21 2404.28 1141.91 2404.58C1141.61 2404.88 1141.2 2405.04 1140.78 2405.04C1140.35 2405.04 1139.95 2404.88 1139.65 2404.58C1139.35 2404.28 1139.18 2403.87 1139.18 2403.44C1139.18 2403.02 1139.35 2402.61 1139.65 2402.31C1139.95 2402.01 1140.35 2401.85 1140.78 2401.85Z" fill="currentColor" />
<path d="M1134.78 2394.84C1135.2 2394.84 1135.61 2395.01 1135.91 2395.31C1136.21 2395.61 1136.38 2396.02 1136.38 2396.44C1136.38 2396.87 1136.21 2397.28 1135.91 2397.58C1135.61 2397.88 1135.2 2398.04 1134.78 2398.04C1134.35 2398.04 1133.95 2397.88 1133.65 2397.58C1133.35 2397.28 1133.18 2396.87 1133.18 2396.44C1133.18 2396.02 1133.35 2395.61 1133.65 2395.31C1133.95 2395.01 1134.35 2394.84 1134.78 2394.84Z" fill="currentColor" />
<path d="M1140.78 2394.84C1141.2 2394.84 1141.61 2395.01 1141.91 2395.31C1142.21 2395.61 1142.38 2396.02 1142.38 2396.44C1142.38 2396.87 1142.21 2397.28 1141.91 2397.58C1141.61 2397.88 1141.2 2398.04 1140.78 2398.04C1140.35 2398.04 1139.95 2397.88 1139.65 2397.58C1139.35 2397.28 1139.18 2396.87 1139.18 2396.44C1139.18 2396.02 1139.35 2395.61 1139.65 2395.31C1139.95 2395.01 1140.35 2394.84 1140.78 2394.84Z" fill="currentColor" />
<path d="M1134.78 2387.85C1135.2 2387.85 1135.61 2388.01 1135.91 2388.31C1136.21 2388.61 1136.38 2389.02 1136.38 2389.44C1136.38 2389.87 1136.21 2390.28 1135.91 2390.58C1135.61 2390.88 1135.2 2391.04 1134.78 2391.04C1134.35 2391.04 1133.95 2390.88 1133.65 2390.58C1133.35 2390.28 1133.18 2389.87 1133.18 2389.44C1133.18 2389.02 1133.35 2388.61 1133.65 2388.31C1133.95 2388.01 1134.35 2387.85 1134.78 2387.85Z" fill="currentColor" />
<path d="M1140.78 2387.85C1141.2 2387.85 1141.61 2388.01 1141.91 2388.31C1142.21 2388.61 1142.38 2389.02 1142.38 2389.44C1142.38 2389.87 1142.21 2390.28 1141.91 2390.58C1141.61 2390.88 1141.2 2391.04 1140.78 2391.04C1140.35 2391.04 1139.95 2390.88 1139.65 2390.58C1139.35 2390.28 1139.18 2389.87 1139.18 2389.44C1139.18 2389.02 1139.35 2388.61 1139.65 2388.31C1139.95 2388.01 1140.35 2387.85 1140.78 2387.85Z" fill="currentColor" />
</g>
</g>
</svg>