<svg xmlns="http://www.w3.org/2000/svg" width="16" height="16" viewBox="1465.56 2893.11 20.00 20.00" fill="none"><g xmlns="http://www.w3.org/2000/svg" id="system-clipboard-file">
<path id="union_93" d="M1481.81 2898.11C1481.81 2897.78 1481.67 2897.46 1481.44 2897.23C1481.21 2896.99 1480.89 2896.86 1480.56 2896.86H1479.2C1479.07 2897.31 1478.83 2897.72 1478.5 2898.06C1477.98 2898.57 1477.29 2898.86 1476.56 2898.86H1474.56C1473.83 2898.86 1473.13 2898.57 1472.61 2898.06C1472.28 2897.72 1472.04 2897.31 1471.91 2896.86H1470.56C1470.22 2896.86 1469.91 2896.99 1469.67 2897.23C1469.44 2897.46 1469.31 2897.78 1469.31 2898.11V2910.11C1469.31 2910.44 1469.44 2910.76 1469.67 2910.99C1469.91 2911.23 1470.22 2911.36 1470.56 2911.36H1480.56C1480.89 2911.36 1481.21 2911.23 1481.44 2910.99C1481.67 2910.76 1481.81 2910.44 1481.81 2910.11V2898.11ZM1478.56 2906.36C1478.97 2906.36 1479.31 2906.7 1479.31 2907.11C1479.31 2907.53 1478.97 2907.86 1478.56 2907.86H1472.56C1472.14 2907.86 1471.81 2907.53 1471.81 2907.11C1471.81 2906.7 1472.14 2906.36 1472.56 2906.36H1478.56ZM1478.56 2902.36C1478.97 2902.36 1479.31 2902.7 1479.31 2903.11C1479.31 2903.53 1478.97 2903.86 1478.56 2903.86H1472.56C1472.14 2903.86 1471.81 2903.53 1471.81 2903.11C1471.81 2902.7 1472.14 2902.36 1472.56 2902.36H1478.56ZM1474.56 2894.86C1474.22 2894.86 1473.91 2894.99 1473.67 2895.23C1473.44 2895.46 1473.31 2895.78 1473.31 2896.11C1473.31 2896.44 1473.44 2896.76 1473.67 2896.99C1473.91 2897.23 1474.22 2897.36 1474.56 2897.36H1476.56C1476.89 2897.36 1477.21 2897.23 1477.44 2896.99C1477.67 2896.76 1477.81 2896.44 1477.81 2896.11C1477.81 2895.78 1477.67 2895.46 1477.44 2895.23C1477.21 2894.99 1476.89 2894.86 1476.56 2894.86H1474.56ZM1483.31 2910.11C1483.31 2910.84 1483.02 2911.54 1482.5 2912.06C1481.98 2912.57 1481.29 2912.86 1480.56 2912.86H1470.56C1469.83 2912.86 1469.13 2912.57 1468.61 2912.06C1468.1 2911.54 1467.81 2910.84 1467.81 2910.11V2898.11C1467.81 2897.38 1468.1 2896.68 1468.61 2896.17C1469.13 2895.65 1469.83 2895.36 1470.56 2895.36H1471.91C1472.04 2894.91 1472.28 2894.5 1472.61 2894.17C1473.13 2893.65 1473.83 2893.36 1474.56 2893.36H1476.56C1477.29 2893.36 1477.98 2893.65 1478.5 2894.17C1478.83 2894.5 1479.07 2894.91 1479.2 2895.36H1480.56C1481.29 2895.36 1481.98 2895.65 1482.5 2896.17C1483.02 2896.68 1483.31 2897.38 1483.31 2898.11V2910.11Z" fill="currentColor" />
</g>
</svg>