<svg xmlns="http://www.w3.org/2000/svg" width="16" height="16" viewBox="283.33 3230.89 20.00 20.00" fill="none"><g xmlns="http://www.w3.org/2000/svg" id="system-mail-user">
<path id="union_98" d="M290.504 3231.56C292.453 3230.97 294.539 3231 296.467 3231.66C298.396 3232.31 300.073 3233.55 301.259 3235.21C302.446 3236.87 303.084 3238.85 303.084 3240.89V3242.39C303.084 3243.25 302.741 3244.08 302.132 3244.69C301.522 3245.3 300.696 3245.64 299.834 3245.64C298.972 3245.64 298.145 3245.3 297.536 3244.69C297.312 3244.46 297.123 3244.21 296.975 3243.94C296.104 3244.98 294.797 3245.64 293.334 3245.64C290.71 3245.64 288.584 3243.51 288.584 3240.89C288.584 3238.27 290.711 3236.14 293.334 3236.14C294.64 3236.14 295.824 3236.67 296.682 3237.52C296.811 3237.29 297.054 3237.14 297.334 3237.14C297.748 3237.14 298.083 3237.47 298.084 3237.89V3242.39C298.084 3242.85 298.268 3243.3 298.596 3243.63C298.925 3243.95 299.37 3244.14 299.834 3244.14C300.298 3244.14 300.743 3243.95 301.071 3243.63C301.399 3243.3 301.584 3242.85 301.584 3242.39V3240.89C301.584 3239.16 301.044 3237.48 300.04 3236.08C299.036 3234.68 297.617 3233.63 295.985 3233.08C294.353 3232.52 292.588 3232.49 290.939 3232.99C289.29 3233.49 287.838 3234.5 286.789 3235.87C285.74 3237.23 285.145 3238.9 285.089 3240.62C285.032 3242.34 285.517 3244.04 286.474 3245.47C287.432 3246.91 288.815 3248 290.428 3248.61C292.042 3249.22 293.805 3249.3 295.469 3248.86C295.869 3248.75 296.281 3248.99 296.388 3249.39C296.495 3249.79 296.258 3250.2 295.858 3250.31C293.89 3250.83 291.807 3250.73 289.9 3250.01C287.993 3249.3 286.359 3248 285.227 3246.31C284.095 3244.61 283.522 3242.61 283.589 3240.57C283.655 3238.53 284.358 3236.57 285.598 3234.95C286.838 3233.34 288.554 3232.15 290.504 3231.56ZM293.334 3237.64C291.539 3237.64 290.084 3239.09 290.084 3240.89C290.084 3242.68 291.539 3244.14 293.334 3244.14C295.128 3244.14 296.584 3242.68 296.584 3240.89C296.583 3239.09 295.128 3237.64 293.334 3237.64Z" fill="currentColor" />
</g>
</svg>