<svg xmlns="http://www.w3.org/2000/svg" width="16" height="16" viewBox="452.22 3062.00 20.00 20.00" fill="none"><g xmlns="http://www.w3.org/2000/svg" id="system-loader">
<path id="icon" d="M462.222 3077.25C462.636 3077.25 462.972 3077.59 462.972 3078V3081C462.972 3081.41 462.636 3081.75 462.222 3081.75C461.808 3081.75 461.472 3081.41 461.472 3081V3078C461.472 3077.59 461.808 3077.25 462.222 3077.25ZM457.442 3075.72C457.735 3075.43 458.21 3075.43 458.503 3075.72C458.795 3076.01 458.795 3076.49 458.503 3076.78L456.352 3078.93C456.059 3079.22 455.584 3079.22 455.292 3078.93C454.999 3078.64 454.999 3078.16 455.292 3077.87L457.442 3075.72ZM465.942 3075.72C466.235 3075.43 466.71 3075.43 467.003 3075.72L469.153 3077.87C469.445 3078.16 469.446 3078.64 469.153 3078.93C468.86 3079.22 468.385 3079.22 468.092 3078.93L465.942 3076.78C465.649 3076.49 465.649 3076.01 465.942 3075.72ZM456.222 3071.25C456.636 3071.25 456.972 3071.59 456.972 3072C456.972 3072.41 456.636 3072.75 456.222 3072.75H453.222C452.808 3072.75 452.472 3072.41 452.472 3072C452.472 3071.59 452.808 3071.25 453.222 3071.25H456.222ZM471.222 3071.25C471.636 3071.25 471.972 3071.59 471.972 3072C471.972 3072.41 471.636 3072.75 471.222 3072.75H468.222C467.808 3072.75 467.472 3072.41 467.472 3072C467.472 3071.59 467.808 3071.25 468.222 3071.25H471.222ZM455.292 3065.07C455.584 3064.78 456.059 3064.78 456.352 3065.07L458.503 3067.22C458.795 3067.51 458.795 3067.99 458.503 3068.28C458.21 3068.57 457.735 3068.57 457.442 3068.28L455.292 3066.13C454.999 3065.84 454.999 3065.36 455.292 3065.07ZM468.092 3065.07C468.385 3064.78 468.86 3064.78 469.153 3065.07C469.446 3065.36 469.445 3065.84 469.153 3066.13L467.003 3068.28C466.71 3068.57 466.235 3068.57 465.942 3068.28C465.649 3067.99 465.649 3067.51 465.942 3067.22L468.092 3065.07ZM462.222 3062.25C462.636 3062.25 462.972 3062.59 462.972 3063V3066C462.972 3066.41 462.636 3066.75 462.222 3066.75C461.808 3066.75 461.472 3066.41 461.472 3066V3063C461.472 3062.59 461.808 3062.25 462.222 3062.25Z" fill="currentColor" />
</g>
</svg>