<svg xmlns="http://www.w3.org/2000/svg" width="16" height="16" viewBox="958.50 2555.64 19.00 19.00" fill="none"><g xmlns="http://www.w3.org/2000/svg" id="system-download">
<path id="Union_7" d="M959.25 2571.64V2569.64C959.25 2569.22 959.586 2568.89 960 2568.89C960.414 2568.89 960.75 2569.22 960.75 2569.64V2571.64C960.75 2571.97 960.882 2572.29 961.116 2572.52C961.351 2572.76 961.668 2572.89 962 2572.89H974C974.332 2572.89 974.649 2572.76 974.884 2572.52C975.118 2572.29 975.25 2571.97 975.25 2571.64V2569.64C975.25 2569.22 975.586 2568.89 976 2568.89C976.414 2568.89 976.75 2569.22 976.75 2569.64V2571.64C976.75 2572.37 976.46 2573.07 975.944 2573.58C975.429 2574.1 974.729 2574.39 974 2574.39H962C961.271 2574.39 960.571 2574.1 960.056 2573.58C959.54 2573.07 959.25 2572.37 959.25 2571.64ZM967.25 2556.64C967.25 2556.22 967.586 2555.89 968 2555.89C968.414 2555.89 968.75 2556.22 968.75 2556.64V2566.83L972.47 2563.11C972.763 2562.82 973.237 2562.82 973.53 2563.11C973.823 2563.4 973.823 2563.88 973.53 2564.17L968.53 2569.17C968.237 2569.46 967.763 2569.46 967.47 2569.17L962.47 2564.17C962.177 2563.88 962.177 2563.4 962.47 2563.11C962.763 2562.82 963.237 2562.82 963.53 2563.11L967.25 2566.83V2556.64Z" fill="currentColor" />
</g>
</svg>