<svg xmlns="http://www.w3.org/2000/svg" width="16" height="16" viewBox="451.97 2724.22 20.00 20.00" fill="none"><g xmlns="http://www.w3.org/2000/svg" id="system-sound-waves-ai-paused">
<path id="Union_8" d="M452 2734.72V2733.72C452 2733.31 452.336 2732.97 452.75 2732.97C453.164 2732.97 453.5 2733.31 453.5 2733.72V2734.72C453.5 2735.14 453.164 2735.47 452.75 2735.47C452.336 2735.47 452 2735.14 452 2734.72ZM455.688 2734.72V2733.72C455.688 2733.31 456.023 2732.97 456.438 2732.97C456.852 2732.97 457.188 2733.31 457.188 2733.72V2734.72C457.188 2735.14 456.852 2735.47 456.438 2735.47C456.023 2735.47 455.688 2735.14 455.688 2734.72ZM459.375 2734.72V2733.72C459.375 2733.31 459.711 2732.97 460.125 2732.97C460.539 2732.97 460.875 2733.31 460.875 2733.72V2734.72C460.875 2735.14 460.539 2735.47 460.125 2735.47C459.711 2735.47 459.375 2735.14 459.375 2734.72ZM463.062 2734.72V2733.72C463.062 2733.31 463.398 2732.97 463.812 2732.97C464.226 2732.97 464.562 2733.31 464.562 2733.72V2734.72C464.562 2735.14 464.226 2735.47 463.812 2735.47C463.398 2735.47 463.062 2735.14 463.062 2734.72ZM466.749 2734.72V2733.72C466.749 2733.31 467.085 2732.97 467.499 2732.97C467.913 2732.97 468.249 2733.31 468.249 2733.72V2734.72C468.249 2735.14 467.913 2735.47 467.499 2735.47C467.085 2735.47 466.749 2735.14 466.749 2734.72ZM470.437 2734.72V2733.72C470.437 2733.31 470.772 2732.97 471.187 2732.97C471.601 2732.97 471.937 2733.31 471.937 2733.72V2734.72C471.937 2735.14 471.601 2735.47 471.187 2735.47C470.772 2735.47 470.437 2735.14 470.437 2734.72Z" fill="currentColor" />
</g>
</svg>