<svg xmlns="http://www.w3.org/2000/svg" width="16" height="16" viewBox="1465.56 2724.12 20.00 20.00" fill="none"><g xmlns="http://www.w3.org/2000/svg" id="system-book">
<path id="union_84" d="M1480.06 2726.27C1481.77 2726.27 1483.45 2726.72 1484.93 2727.57C1485.16 2727.71 1485.31 2727.95 1485.31 2728.22V2741.22C1485.31 2741.49 1485.16 2741.74 1484.93 2741.87C1484.7 2742.01 1484.41 2742.01 1484.18 2741.87C1482.93 2741.15 1481.5 2740.77 1480.06 2740.77C1478.61 2740.77 1477.18 2741.15 1475.93 2741.87C1475.7 2742.01 1475.41 2742.01 1475.18 2741.87C1473.93 2741.15 1472.5 2740.77 1471.06 2740.77C1469.61 2740.77 1468.18 2741.15 1466.93 2741.87C1466.7 2742.01 1466.41 2742.01 1466.18 2741.87C1465.95 2741.74 1465.81 2741.49 1465.81 2741.22V2728.22C1465.81 2727.95 1465.95 2727.71 1466.18 2727.57C1467.66 2726.72 1469.34 2726.27 1471.06 2726.27C1472.62 2726.27 1474.17 2726.65 1475.56 2727.37C1476.94 2726.65 1478.49 2726.27 1480.06 2726.27ZM1471.06 2727.77C1469.75 2727.77 1468.47 2728.08 1467.31 2728.67V2740.02C1468.49 2739.52 1469.76 2739.27 1471.06 2739.27C1472.35 2739.27 1473.62 2739.52 1474.81 2740.02V2728.67C1473.65 2728.08 1472.36 2727.77 1471.06 2727.77ZM1480.06 2727.77C1478.75 2727.77 1477.47 2728.08 1476.31 2728.67V2740.02C1477.49 2739.52 1478.76 2739.27 1480.06 2739.27C1481.35 2739.27 1482.62 2739.52 1483.81 2740.02V2728.67C1482.65 2728.08 1481.36 2727.77 1480.06 2727.77Z" fill="currentColor" />
</g>
</svg>