<svg xmlns="http://www.w3.org/2000/svg" width="16" height="16" viewBox="114.44 2893.11 20.00 20.00" fill="none"><g xmlns="http://www.w3.org/2000/svg" id="system-brain">
<path id="union_85" d="M123.694 2897.61C123.694 2896.88 123.405 2896.18 122.889 2895.67C122.373 2895.15 121.674 2894.86 120.944 2894.86C120.215 2894.86 119.516 2895.15 119 2895.67C118.484 2896.18 118.194 2896.88 118.194 2897.61V2899.43C118.44 2899.38 118.691 2899.36 118.944 2899.36H119.444C119.859 2899.36 120.194 2899.7 120.194 2900.11C120.194 2900.53 119.859 2900.86 119.444 2900.86H118.944C118.215 2900.86 117.516 2901.15 117 2901.67C116.484 2902.18 116.194 2902.88 116.194 2903.61C116.194 2904.34 116.484 2905.04 117 2905.56C117.516 2906.07 118.215 2906.36 118.944 2906.36C119.359 2906.36 119.694 2906.7 119.694 2907.11C119.694 2907.53 119.359 2907.86 118.944 2907.86C118.691 2907.86 118.44 2907.84 118.194 2907.79V2908.61C118.194 2909.34 118.484 2910.04 119 2910.56C119.516 2911.07 120.215 2911.36 120.944 2911.36C121.674 2911.36 122.373 2911.07 122.889 2910.56C123.405 2910.04 123.694 2909.34 123.694 2908.61V2907.61C123.694 2906.88 123.405 2906.18 122.889 2905.67C122.373 2905.15 121.674 2904.86 120.944 2904.86C120.53 2904.86 120.194 2904.53 120.194 2904.11C120.194 2903.7 120.53 2903.36 120.944 2903.36C121.956 2903.36 122.929 2903.72 123.694 2904.37V2897.61ZM125.194 2904.37C125.96 2903.72 126.933 2903.36 127.944 2903.36C128.359 2903.36 128.694 2903.7 128.694 2904.11C128.694 2904.53 128.359 2904.86 127.944 2904.86C127.215 2904.86 126.516 2905.15 126 2905.67C125.484 2906.18 125.194 2906.88 125.194 2907.61V2908.61C125.194 2909.34 125.484 2910.04 126 2910.56C126.516 2911.07 127.215 2911.36 127.944 2911.36C128.674 2911.36 129.373 2911.07 129.889 2910.56C130.405 2910.04 130.694 2909.34 130.694 2908.61V2907.79C130.448 2907.84 130.198 2907.86 129.944 2907.86C129.53 2907.86 129.194 2907.53 129.194 2907.11C129.194 2906.7 129.53 2906.36 129.944 2906.36C130.674 2906.36 131.373 2906.07 131.889 2905.56C132.405 2905.04 132.694 2904.34 132.694 2903.61C132.694 2902.88 132.405 2902.18 131.889 2901.67C131.373 2901.15 130.674 2900.86 129.944 2900.86H129.444C129.03 2900.86 128.694 2900.53 128.694 2900.11C128.694 2899.7 129.03 2899.36 129.444 2899.36H129.944C130.198 2899.36 130.449 2899.38 130.694 2899.43V2897.61C130.694 2896.88 130.405 2896.18 129.889 2895.67C129.373 2895.15 128.674 2894.86 127.944 2894.86C127.215 2894.86 126.516 2895.15 126 2895.67C125.484 2896.18 125.194 2896.88 125.194 2897.61V2904.37ZM132.194 2900.01C132.466 2900.18 132.719 2900.38 132.949 2900.61C133.746 2901.4 134.194 2902.48 134.194 2903.61C134.194 2904.74 133.746 2905.82 132.949 2906.62C132.72 2906.85 132.466 2907.05 132.194 2907.21V2908.61C132.194 2909.74 131.746 2910.82 130.949 2911.62C130.152 2912.41 129.072 2912.86 127.944 2912.86C126.817 2912.86 125.737 2912.41 124.94 2911.62C124.755 2911.43 124.59 2911.23 124.444 2911.02C124.299 2911.23 124.134 2911.43 123.949 2911.62C123.152 2912.41 122.072 2912.86 120.944 2912.86C119.817 2912.86 118.737 2912.41 117.94 2911.62C117.143 2910.82 116.694 2909.74 116.694 2908.61V2907.21C116.423 2907.05 116.169 2906.85 115.94 2906.62C115.143 2905.82 114.694 2904.74 114.694 2903.61C114.694 2902.48 115.143 2901.4 115.94 2900.61C116.169 2900.38 116.423 2900.18 116.694 2900.01V2897.61C116.694 2896.48 117.143 2895.4 117.94 2894.61C118.737 2893.81 119.817 2893.36 120.944 2893.36C122.072 2893.36 123.152 2893.81 123.949 2894.61C124.134 2894.79 124.299 2894.99 124.444 2895.2C124.59 2894.99 124.755 2894.79 124.94 2894.61C125.737 2893.81 126.817 2893.36 127.944 2893.36C129.072 2893.36 130.152 2893.81 130.949 2894.61C131.746 2895.4 132.194 2896.48 132.194 2897.61V2900.01Z" fill="currentColor" />
</g>
</svg>