<svg xmlns="http://www.w3.org/2000/svg" width="16" height="16" viewBox="791.00 2556.33 18.00 18.00" fill="none"><g xmlns="http://www.w3.org/2000/svg" id="system-filter">
<path id="union_73" d="M803 2570.58C803.414 2570.58 803.75 2570.92 803.75 2571.33C803.75 2571.75 803.414 2572.08 803 2572.08H797C796.586 2572.08 796.25 2571.75 796.25 2571.33C796.25 2570.92 796.586 2570.58 797 2570.58H803ZM806 2564.58C806.414 2564.58 806.75 2564.92 806.75 2565.33C806.75 2565.75 806.414 2566.08 806 2566.08H794C793.586 2566.08 793.25 2565.75 793.25 2565.33C793.25 2564.92 793.586 2564.58 794 2564.58H806ZM808 2558.58C808.414 2558.58 808.75 2558.92 808.75 2559.33C808.75 2559.75 808.414 2560.08 808 2560.08H792C791.586 2560.08 791.25 2559.75 791.25 2559.33C791.25 2558.92 791.586 2558.58 792 2558.58H808Z" fill="currentColor" />
</g>
</svg>