<svg xmlns="http://www.w3.org/2000/svg" width="16" height="16" viewBox="452.24 2386.44 20.00 20.00" fill="none"><g xmlns="http://www.w3.org/2000/svg" id="system-volume-on">
<path id="union_62" d="M459.849 2387.87C460.192 2387.74 460.573 2387.72 460.923 2387.84C461.274 2387.96 461.572 2388.2 461.762 2388.51C461.938 2388.81 462.011 2389.15 461.972 2389.49V2403.4C462.011 2403.74 461.938 2404.08 461.762 2404.38C461.572 2404.69 461.274 2404.93 460.923 2405.05C460.573 2405.17 460.192 2405.15 459.849 2405.01C459.534 2404.88 459.27 2404.66 459.098 2404.36L455.855 2400.19H454.222C453.758 2400.19 453.313 2400.01 452.985 2399.68C452.657 2399.35 452.472 2398.91 452.472 2398.44V2394.44C452.472 2393.98 452.657 2393.53 452.985 2393.21C453.313 2392.88 453.758 2392.69 454.222 2392.69H455.856L459.098 2388.52C459.27 2388.23 459.534 2388 459.849 2387.87ZM470.515 2396.44C470.515 2395.21 470.24 2394 469.71 2392.89C469.179 2391.78 468.407 2390.8 467.451 2390.03C467.129 2389.77 467.079 2389.3 467.338 2388.97C467.599 2388.65 468.072 2388.6 468.394 2388.86C469.525 2389.77 470.436 2390.93 471.063 2392.24C471.69 2393.55 472.015 2394.99 472.015 2396.44C472.015 2397.9 471.69 2399.33 471.063 2400.65C470.436 2401.96 469.525 2403.11 468.394 2404.03C468.072 2404.29 467.599 2404.24 467.338 2403.92C467.078 2403.59 467.129 2403.12 467.451 2402.86C468.408 2402.09 469.179 2401.11 469.71 2400C470.24 2398.89 470.515 2397.67 470.515 2396.44ZM466.472 2396.44C466.472 2395.78 466.319 2395.13 466.024 2394.54C465.729 2393.95 465.3 2393.44 464.772 2393.04C464.441 2392.8 464.374 2392.33 464.623 2391.99C464.871 2391.66 465.341 2391.6 465.672 2391.84C466.386 2392.38 466.966 2393.07 467.365 2393.87C467.764 2394.67 467.972 2395.55 467.972 2396.44C467.972 2397.34 467.764 2398.22 467.365 2399.02C466.966 2399.81 466.387 2400.51 465.672 2401.04C465.341 2401.29 464.871 2401.23 464.623 2400.89C464.374 2400.56 464.441 2400.09 464.772 2399.84C465.3 2399.45 465.729 2398.93 466.024 2398.34C466.319 2397.75 466.472 2397.1 466.472 2396.44ZM453.972 2398.44C453.972 2398.51 453.999 2398.57 454.045 2398.62C454.092 2398.67 454.156 2398.69 454.222 2398.69H456.222C456.454 2398.69 456.672 2398.8 456.814 2398.98L460.314 2403.48L460.389 2403.6C460.395 2403.61 460.404 2403.62 460.415 2403.62C460.426 2403.63 460.438 2403.63 460.45 2403.63C460.461 2403.62 460.47 2403.61 460.476 2403.6C460.482 2403.59 460.485 2403.58 460.483 2403.57C460.476 2403.53 460.472 2403.49 460.472 2403.44V2389.44C460.472 2389.4 460.476 2389.36 460.483 2389.32C460.485 2389.31 460.482 2389.3 460.476 2389.28C460.47 2389.27 460.461 2389.27 460.45 2389.26C460.438 2389.26 460.426 2389.26 460.415 2389.26C460.404 2389.27 460.395 2389.28 460.389 2389.29C460.368 2389.33 460.343 2389.37 460.314 2389.41L456.814 2393.91C456.672 2394.09 456.454 2394.19 456.222 2394.19H454.222C454.156 2394.19 454.092 2394.22 454.045 2394.27C453.999 2394.31 453.972 2394.38 453.972 2394.44V2398.44Z" fill="currentColor" />
</g>
</svg>