<svg xmlns="http://www.w3.org/2000/svg" width="16" height="16" viewBox="1466.56 3570.01 20.00 20.00" fill="none"><g xmlns="http://www.w3.org/2000/svg" id="system-pencil-plus">
<path id="Union_27" d="M1481.81 3588.67V3586.42H1479.56C1479.14 3586.42 1478.81 3586.08 1478.81 3585.67C1478.81 3585.25 1479.14 3584.92 1479.56 3584.92H1481.81V3582.67C1481.81 3582.25 1482.14 3581.92 1482.56 3581.92C1482.97 3581.92 1483.31 3582.25 1483.31 3582.67V3584.92H1485.56C1485.97 3584.92 1486.31 3585.25 1486.31 3585.67C1486.31 3586.08 1485.97 3586.42 1485.56 3586.42H1483.31V3588.67C1483.31 3589.08 1482.97 3589.42 1482.56 3589.42C1482.14 3589.42 1481.81 3589.08 1481.81 3588.67ZM1482.13 3574.17C1482.13 3573.89 1482.08 3573.62 1481.98 3573.37C1481.87 3573.12 1481.72 3572.89 1481.53 3572.7C1481.33 3572.5 1481.1 3572.35 1480.85 3572.25C1480.6 3572.14 1480.33 3572.09 1480.06 3572.09C1479.78 3572.09 1479.51 3572.14 1479.26 3572.25C1479.01 3572.35 1478.78 3572.5 1478.59 3572.7L1478.12 3573.17L1481.06 3576.11L1481.53 3575.64C1481.72 3575.44 1481.87 3575.21 1481.98 3574.96C1482.08 3574.71 1482.13 3574.44 1482.13 3574.17ZM1468.31 3582.98V3585.92H1471.25L1480 3577.17L1477.06 3574.23L1468.31 3582.98ZM1483.63 3574.17C1483.63 3574.64 1483.54 3575.1 1483.36 3575.54C1483.18 3575.97 1482.92 3576.36 1482.59 3576.7L1472.09 3587.2C1471.95 3587.34 1471.75 3587.42 1471.56 3587.42H1467.56C1467.14 3587.42 1466.81 3587.08 1466.81 3586.67V3582.67C1466.81 3582.47 1466.88 3582.28 1467.03 3582.14L1477.53 3571.64C1477.86 3571.3 1478.25 3571.04 1478.69 3570.86C1479.12 3570.68 1479.59 3570.59 1480.06 3570.59C1480.53 3570.59 1480.99 3570.68 1481.42 3570.86C1481.86 3571.04 1482.25 3571.3 1482.59 3571.64C1482.92 3571.97 1483.18 3572.36 1483.36 3572.8C1483.54 3573.23 1483.63 3573.7 1483.63 3574.17Z" fill="currentColor" />
</g>
</svg>