<svg xmlns="http://www.w3.org/2000/svg" width="16" height="16" viewBox="1296.67 2893.11 20.00 20.00" fill="none"><g xmlns="http://www.w3.org/2000/svg" id="system-calendar-date">
<path id="union_92" d="M1313.92 2902.86H1299.42V2910.11C1299.42 2910.44 1299.55 2910.76 1299.78 2910.99C1300.02 2911.23 1300.34 2911.36 1300.67 2911.36H1312.67C1313 2911.36 1313.32 2911.23 1313.55 2910.99C1313.78 2910.76 1313.92 2910.44 1313.92 2910.11V2902.86ZM1301.68 2907.36C1302.1 2907.36 1302.43 2907.7 1302.43 2908.11C1302.43 2908.53 1302.1 2908.86 1301.68 2908.86H1301.68C1301.26 2908.86 1300.93 2908.52 1300.93 2908.11C1300.93 2907.7 1301.26 2907.36 1301.68 2907.36H1301.68ZM1304.68 2907.36C1305.1 2907.36 1305.43 2907.7 1305.43 2908.11C1305.43 2908.53 1305.1 2908.86 1304.68 2908.86H1304.68C1304.26 2908.86 1303.93 2908.52 1303.93 2908.11C1303.93 2907.7 1304.26 2907.36 1304.68 2907.36H1304.68ZM1307.69 2907.36C1308.1 2907.36 1308.44 2907.7 1308.44 2908.11C1308.44 2908.53 1308.1 2908.86 1307.69 2908.86H1307.68C1307.27 2908.86 1306.93 2908.52 1306.93 2908.11C1306.93 2907.7 1307.27 2907.36 1307.68 2907.36H1307.69ZM1301.68 2904.36C1302.09 2904.36 1302.43 2904.7 1302.43 2905.11C1302.43 2905.53 1302.09 2905.86 1301.68 2905.86H1301.67C1301.25 2905.86 1300.92 2905.53 1300.92 2905.11C1300.92 2904.7 1301.25 2904.36 1301.67 2904.36H1301.68ZM1304.68 2904.36C1305.1 2904.36 1305.43 2904.7 1305.43 2905.11C1305.43 2905.53 1305.1 2905.86 1304.68 2905.86H1304.68C1304.26 2905.86 1303.93 2905.52 1303.93 2905.11C1303.93 2904.7 1304.26 2904.36 1304.68 2904.36H1304.68ZM1307.68 2904.36C1308.1 2904.36 1308.43 2904.7 1308.43 2905.11C1308.43 2905.53 1308.1 2905.86 1307.68 2905.86H1307.68C1307.26 2905.86 1306.93 2905.52 1306.93 2905.11C1306.93 2904.7 1307.26 2904.36 1307.68 2904.36H1307.68ZM1310.69 2904.36C1311.1 2904.36 1311.44 2904.7 1311.44 2905.11C1311.44 2905.53 1311.1 2905.86 1310.69 2905.86H1310.68C1310.27 2905.86 1309.93 2905.52 1309.93 2905.11C1309.93 2904.7 1310.27 2904.36 1310.68 2904.36H1310.69ZM1309.92 2898.11V2896.86H1303.42V2898.11C1303.42 2898.53 1303.08 2898.86 1302.67 2898.86C1302.25 2898.86 1301.92 2898.53 1301.92 2898.11V2896.86H1300.67C1300.34 2896.86 1300.02 2896.99 1299.78 2897.23C1299.55 2897.46 1299.42 2897.78 1299.42 2898.11V2901.36H1313.92V2898.11C1313.92 2897.78 1313.78 2897.46 1313.55 2897.23C1313.32 2896.99 1313 2896.86 1312.67 2896.86H1311.42V2898.11C1311.42 2898.53 1311.08 2898.86 1310.67 2898.86C1310.25 2898.86 1309.92 2898.53 1309.92 2898.11ZM1315.42 2910.11C1315.42 2910.84 1315.13 2911.54 1314.61 2912.06C1314.1 2912.57 1313.4 2912.86 1312.67 2912.86H1300.67C1299.94 2912.86 1299.24 2912.57 1298.72 2912.06C1298.21 2911.54 1297.92 2910.84 1297.92 2910.11V2898.11C1297.92 2897.38 1298.21 2896.68 1298.72 2896.17C1299.24 2895.65 1299.94 2895.36 1300.67 2895.36H1301.92V2894.11C1301.92 2893.7 1302.25 2893.36 1302.67 2893.36C1303.08 2893.36 1303.42 2893.7 1303.42 2894.11V2895.36H1309.92V2894.11C1309.92 2893.7 1310.25 2893.36 1310.67 2893.36C1311.08 2893.36 1311.42 2893.7 1311.42 2894.11V2895.36H1312.67C1313.4 2895.36 1314.1 2895.65 1314.61 2896.17C1315.13 2896.68 1315.42 2897.38 1315.42 2898.11V2910.11Z" fill="currentColor" />
</g>
</svg>