<svg xmlns="http://www.w3.org/2000/svg" width="16" height="16" viewBox="452.50 3568.89 19.00 19.00" fill="none"><g xmlns="http://www.w3.org/2000/svg" id="system-upload">
<path id="Union_25" d="M453.25 3584.89V3582.89C453.25 3582.48 453.586 3582.14 454 3582.14C454.414 3582.14 454.75 3582.48 454.75 3582.89V3584.89C454.75 3585.22 454.882 3585.54 455.116 3585.77C455.351 3586.01 455.668 3586.14 456 3586.14H468C468.332 3586.14 468.649 3586.01 468.884 3585.77C469.118 3585.54 469.25 3585.22 469.25 3584.89V3582.89C469.25 3582.48 469.586 3582.14 470 3582.14C470.414 3582.14 470.75 3582.48 470.75 3582.89V3584.89C470.75 3585.62 470.46 3586.32 469.944 3586.83C469.429 3587.35 468.729 3587.64 468 3587.64H456C455.271 3587.64 454.571 3587.35 454.056 3586.83C453.54 3586.32 453.25 3585.62 453.25 3584.89ZM461.25 3581.89V3571.7L457.53 3575.42C457.237 3575.71 456.763 3575.71 456.47 3575.42C456.177 3575.13 456.177 3574.65 456.47 3574.36L461.47 3569.36L461.526 3569.31C461.821 3569.07 462.256 3569.08 462.53 3569.36L467.53 3574.36C467.823 3574.65 467.823 3575.13 467.53 3575.42C467.237 3575.71 466.763 3575.71 466.47 3575.42L462.75 3571.7V3581.89C462.75 3582.3 462.414 3582.64 462 3582.64C461.586 3582.64 461.25 3582.3 461.25 3581.89Z" fill="currentColor" />
</g>
</svg>