<svg xmlns="http://www.w3.org/2000/svg" width="16" height="16" viewBox="283.33 2386.44 20.00 20.00" fill="none"><g xmlns="http://www.w3.org/2000/svg" id="system-info-hint">
<path id="union_61" d="M301.583 2396.44C301.583 2394.26 300.714 2392.16 299.167 2390.61C297.62 2389.06 295.521 2388.19 293.333 2388.19C291.145 2388.19 289.047 2389.06 287.499 2390.61C285.952 2392.16 285.083 2394.26 285.083 2396.44C285.083 2397.53 285.297 2398.6 285.711 2399.6C286.126 2400.6 286.733 2401.51 287.499 2402.28C288.265 2403.04 289.175 2403.65 290.176 2404.07C291.177 2404.48 292.25 2404.69 293.333 2404.69C294.417 2404.69 295.49 2404.48 296.491 2404.07C297.491 2403.65 298.401 2403.04 299.167 2402.28C299.933 2401.51 300.541 2400.6 300.955 2399.6C301.37 2398.6 301.583 2397.53 301.583 2396.44ZM293.333 2395.69C293.748 2395.69 294.083 2396.03 294.083 2396.44V2399.69H294.333C294.748 2399.69 295.083 2400.03 295.083 2400.44C295.083 2400.86 294.748 2401.19 294.333 2401.19H293.333C292.919 2401.19 292.583 2400.86 292.583 2400.44V2397.19H292.333C291.919 2397.19 291.583 2396.86 291.583 2396.44C291.583 2396.03 291.919 2395.69 292.333 2395.69H293.333ZM293.343 2392.69C293.757 2392.69 294.093 2393.03 294.093 2393.44C294.093 2393.86 293.757 2394.19 293.343 2394.19H293.333C292.919 2394.19 292.583 2393.86 292.583 2393.44C292.583 2393.03 292.919 2392.69 293.333 2392.69H293.343ZM303.083 2396.44C303.083 2397.72 302.831 2398.99 302.341 2400.18C301.851 2401.36 301.133 2402.43 300.228 2403.34C299.323 2404.24 298.248 2404.96 297.065 2405.45C295.882 2405.94 294.614 2406.19 293.333 2406.19C292.053 2406.19 290.785 2405.94 289.602 2405.45C288.419 2404.96 287.344 2404.24 286.439 2403.34C285.533 2402.43 284.815 2401.36 284.326 2400.18C283.836 2398.99 283.583 2397.72 283.583 2396.44C283.583 2393.86 284.61 2391.38 286.439 2389.55C288.267 2387.72 290.747 2386.69 293.333 2386.69C295.919 2386.69 298.399 2387.72 300.228 2389.55C302.056 2391.38 303.083 2393.86 303.083 2396.44Z" fill="currentColor" />
</g>
</svg>