<svg xmlns="http://www.w3.org/2000/svg" width="16" height="16" viewBox="115.94 3570.17 17.00 17.00" fill="none"><g xmlns="http://www.w3.org/2000/svg" id="system-text">
<path id="Union_23" d="M129.944 3573.67V3572.67H125.944V3584.67H126.944C127.497 3584.67 127.944 3585.11 127.944 3585.67C127.944 3586.22 127.497 3586.67 126.944 3586.67H122.944C122.392 3586.67 121.944 3586.22 121.944 3585.67C121.944 3585.11 122.392 3584.67 122.944 3584.67H123.944V3572.67H118.944V3573.67C118.944 3574.22 118.497 3574.67 117.944 3574.67C117.392 3574.67 116.944 3574.22 116.944 3573.67V3571.67C116.944 3571.11 117.392 3570.67 117.944 3570.67H130.944C131.497 3570.67 131.944 3571.11 131.944 3571.67V3573.67C131.944 3574.22 131.497 3574.67 130.944 3574.67C130.392 3574.67 129.944 3574.22 129.944 3573.67Z" fill="currentColor" />
</g>
</svg>