<svg xmlns="http://www.w3.org/2000/svg" width="16" height="16" viewBox="621.11 2892.61 20.00 20.00" fill="none"><g xmlns="http://www.w3.org/2000/svg" id="system-briefcase">
<path id="union_88" d="M639.361 2900.11C639.361 2899.78 639.229 2899.46 638.995 2899.23C638.76 2898.99 638.443 2898.86 638.111 2898.86H624.111C623.78 2898.86 623.462 2898.99 623.227 2899.23C622.993 2899.46 622.861 2899.78 622.861 2900.11V2909.11C622.861 2909.44 622.993 2909.76 623.227 2909.99C623.462 2910.23 623.78 2910.36 624.111 2910.36H638.111C638.443 2910.36 638.76 2910.23 638.995 2909.99C639.229 2909.76 639.361 2909.44 639.361 2909.11V2900.11ZM634.361 2896.11C634.361 2895.78 634.229 2895.46 633.995 2895.23C633.76 2894.99 633.443 2894.86 633.111 2894.86H629.111C628.78 2894.86 628.462 2894.99 628.227 2895.23C627.993 2895.46 627.861 2895.78 627.861 2896.11V2897.36H634.361V2896.11ZM635.861 2897.36H638.111C638.84 2897.36 639.54 2897.65 640.055 2898.17C640.571 2898.68 640.861 2899.38 640.861 2900.11V2909.11C640.861 2909.84 640.571 2910.54 640.055 2911.06C639.54 2911.57 638.84 2911.86 638.111 2911.86H624.111C623.382 2911.86 622.682 2911.57 622.167 2911.06C621.651 2910.54 621.361 2909.84 621.361 2909.11V2900.11C621.361 2899.38 621.651 2898.68 622.167 2898.17C622.682 2897.65 623.382 2897.36 624.111 2897.36H626.361V2896.11C626.361 2895.38 626.651 2894.68 627.167 2894.17C627.682 2893.65 628.382 2893.36 629.111 2893.36H633.111C633.84 2893.36 634.54 2893.65 635.055 2894.17C635.571 2894.68 635.861 2895.38 635.861 2896.11V2897.36Z" fill="currentColor" />
</g>
</svg>