<svg xmlns="http://www.w3.org/2000/svg" width="16" height="16" viewBox="621.11 3230.89 20.00 20.00" fill="none"><g xmlns="http://www.w3.org/2000/svg" id="system-database">
<path id="Union_14" d="M638.361 3243.07C637.974 3243.31 637.526 3243.53 637.031 3243.71C635.424 3244.31 633.295 3244.64 631.111 3244.64C628.927 3244.64 626.798 3244.31 625.191 3243.71C624.696 3243.53 624.248 3243.31 623.861 3243.07V3246.89C623.861 3247 623.919 3247.21 624.223 3247.48C624.528 3247.76 625.02 3248.05 625.718 3248.31C627.111 3248.83 629.052 3249.14 631.111 3249.14C633.17 3249.14 635.111 3248.83 636.505 3248.31C637.203 3248.05 637.695 3247.76 637.999 3247.48C638.303 3247.21 638.361 3247 638.361 3246.89V3243.07ZM638.361 3237.07C637.974 3237.31 637.526 3237.53 637.031 3237.71C635.424 3238.31 633.295 3238.64 631.111 3238.64C628.927 3238.64 626.798 3238.31 625.191 3237.71C624.696 3237.53 624.248 3237.31 623.861 3237.07V3240.89C623.861 3241 623.919 3241.21 624.223 3241.48C624.528 3241.76 625.02 3242.05 625.718 3242.31C627.111 3242.83 629.052 3243.14 631.111 3243.14C633.17 3243.14 635.111 3242.83 636.505 3242.31C637.203 3242.05 637.695 3241.76 637.999 3241.48C638.303 3241.21 638.361 3241 638.361 3240.89V3237.07ZM638.361 3234.89C638.361 3234.78 638.303 3234.57 637.999 3234.3C637.695 3234.02 637.203 3233.73 636.505 3233.47C635.111 3232.95 633.17 3232.64 631.111 3232.64C629.052 3232.64 627.111 3232.95 625.718 3233.47C625.02 3233.73 624.528 3234.02 624.223 3234.3C623.919 3234.57 623.861 3234.78 623.861 3234.89C623.861 3235 623.919 3235.21 624.223 3235.48C624.528 3235.76 625.02 3236.05 625.718 3236.31C627.111 3236.83 629.052 3237.14 631.111 3237.14C633.17 3237.14 635.111 3236.83 636.505 3236.31C637.203 3236.05 637.695 3235.76 637.999 3235.48C638.303 3235.21 638.361 3235 638.361 3234.89ZM639.861 3246.89C639.861 3247.57 639.498 3248.15 639.006 3248.59C638.513 3249.04 637.833 3249.41 637.031 3249.71C635.424 3250.31 633.295 3250.64 631.111 3250.64C628.927 3250.64 626.798 3250.31 625.191 3249.71C624.389 3249.41 623.709 3249.04 623.217 3248.59C622.725 3248.15 622.361 3247.57 622.361 3246.89V3234.89C622.361 3234.21 622.725 3233.63 623.217 3233.19C623.709 3232.74 624.389 3232.37 625.191 3232.07C626.798 3231.46 628.927 3231.14 631.111 3231.14C633.295 3231.14 635.424 3231.46 637.031 3232.07C637.833 3232.37 638.513 3232.74 639.006 3233.19C639.498 3233.63 639.861 3234.21 639.861 3234.89V3246.89Z" fill="currentColor" />
</g>
</svg>