<svg xmlns="http://www.w3.org/2000/svg" width="16" height="16" viewBox="114.44 3230.89 20.00 20.00" fill="none"><g xmlns="http://www.w3.org/2000/svg" id="system-circle-check">
<path id="union_97" d="M132.694 3240.89C132.694 3239.81 132.481 3238.73 132.067 3237.73C131.652 3236.73 131.044 3235.82 130.278 3235.05C129.512 3234.29 128.603 3233.68 127.602 3233.27C126.601 3232.85 125.528 3232.64 124.444 3232.64C123.361 3232.64 122.288 3232.85 121.287 3233.27C120.286 3233.68 119.377 3234.29 118.61 3235.05C117.844 3235.82 117.237 3236.73 116.822 3237.73C116.408 3238.73 116.194 3239.81 116.194 3240.89C116.194 3241.97 116.408 3243.04 116.822 3244.05C117.237 3245.05 117.844 3245.96 118.61 3246.72C119.377 3247.49 120.286 3248.1 121.287 3248.51C122.288 3248.93 123.361 3249.14 124.444 3249.14C125.528 3249.14 126.601 3248.93 127.602 3248.51C128.603 3248.1 129.512 3247.49 130.278 3246.72C131.044 3245.96 131.652 3245.05 132.067 3244.05C132.481 3243.04 132.694 3241.97 132.694 3240.89ZM126.914 3238.36C127.207 3238.07 127.682 3238.07 127.975 3238.36C128.268 3238.65 128.268 3239.13 127.975 3239.42L123.975 3243.42C123.834 3243.56 123.643 3243.64 123.444 3243.64C123.246 3243.64 123.055 3243.56 122.914 3243.42L120.914 3241.42C120.621 3241.13 120.621 3240.65 120.914 3240.36C121.207 3240.07 121.682 3240.07 121.975 3240.36L123.444 3241.83L126.914 3238.36ZM134.194 3240.89C134.194 3242.17 133.942 3243.44 133.452 3244.62C132.962 3245.8 132.244 3246.88 131.339 3247.78C130.434 3248.69 129.359 3249.41 128.176 3249.9C126.993 3250.39 125.725 3250.64 124.444 3250.64C123.164 3250.64 121.896 3250.39 120.713 3249.9C119.53 3249.41 118.455 3248.69 117.55 3247.78C116.645 3246.88 115.927 3245.8 115.437 3244.62C114.947 3243.44 114.694 3242.17 114.694 3240.89C114.694 3239.61 114.947 3238.34 115.437 3237.16C115.927 3235.97 116.645 3234.9 117.55 3233.99C118.455 3233.09 119.53 3232.37 120.713 3231.88C121.896 3231.39 123.164 3231.14 124.444 3231.14C125.725 3231.14 126.993 3231.39 128.176 3231.88C129.359 3232.37 130.434 3233.09 131.339 3233.99C132.244 3234.9 132.962 3235.97 133.452 3237.16C133.942 3238.34 134.194 3239.61 134.194 3240.89Z" fill="currentColor" />
</g>
</svg>