<svg xmlns="http://www.w3.org/2000/svg" width="16" height="16" viewBox="283.33 3062.00 20.00 20.00" fill="none"><g xmlns="http://www.w3.org/2000/svg" id="system-mail-message">
<path id="union_95" d="M301.583 3068.4L293.749 3073.62C293.497 3073.79 293.169 3073.79 292.917 3073.62L285.083 3068.4V3077C285.083 3077.33 285.215 3077.65 285.45 3077.88C285.684 3078.12 286.002 3078.25 286.333 3078.25H300.333C300.665 3078.25 300.983 3078.12 301.217 3077.88C301.452 3077.65 301.583 3077.33 301.583 3077V3068.4ZM286.333 3065.75C286.002 3065.75 285.684 3065.88 285.45 3066.12C285.303 3066.26 285.196 3066.44 285.137 3066.63L293.333 3072.1L301.529 3066.63C301.469 3066.44 301.363 3066.26 301.217 3066.12C300.983 3065.88 300.665 3065.75 300.333 3065.75H286.333ZM303.083 3077C303.083 3077.73 302.793 3078.43 302.278 3078.94C301.762 3079.46 301.063 3079.75 300.333 3079.75H286.333C285.604 3079.75 284.905 3079.46 284.389 3078.94C283.873 3078.43 283.583 3077.73 283.583 3077V3067C283.583 3066.27 283.873 3065.57 284.389 3065.06C284.905 3064.54 285.604 3064.25 286.333 3064.25H300.333C301.063 3064.25 301.762 3064.54 302.278 3065.06C302.793 3065.57 303.083 3066.27 303.083 3067V3077Z" fill="currentColor" />
</g>
</svg>