<svg xmlns="http://www.w3.org/2000/svg" width="16" height="16" viewBox="790.00 3230.89 20.00 20.00" fill="none"><g xmlns="http://www.w3.org/2000/svg" id="system-settings">
<path id="union_99" d="M797.662 3232.8C798.404 3230.58 801.596 3230.58 802.338 3232.8L802.404 3233.03L802.437 3233.14C802.477 3233.25 802.536 3233.35 802.61 3233.43C802.71 3233.55 802.836 3233.64 802.978 3233.7C803.119 3233.76 803.273 3233.78 803.426 3233.77C803.579 3233.76 803.726 3233.71 803.857 3233.63C806.072 3232.28 808.607 3234.82 807.259 3237.03V3237.03C807.179 3237.16 807.131 3237.31 807.119 3237.46C807.107 3237.62 807.132 3237.77 807.19 3237.91C807.249 3238.05 807.341 3238.18 807.457 3238.28C807.573 3238.38 807.71 3238.45 807.858 3238.48H807.859C810.38 3239.1 810.38 3242.68 807.859 3243.29C807.711 3243.33 807.572 3243.4 807.456 3243.5C807.34 3243.6 807.248 3243.72 807.189 3243.87C807.131 3244.01 807.106 3244.16 807.118 3244.31C807.13 3244.47 807.178 3244.62 807.258 3244.75C808.607 3246.96 806.073 3249.5 803.857 3248.15H803.856C803.726 3248.07 803.578 3248.02 803.426 3248.01C803.273 3248 803.119 3248.02 802.978 3248.08C802.836 3248.14 802.71 3248.23 802.61 3248.35C802.511 3248.46 802.441 3248.6 802.404 3248.75C801.793 3251.27 798.207 3251.27 797.596 3248.75C797.56 3248.6 797.489 3248.46 797.39 3248.34C797.29 3248.23 797.164 3248.14 797.022 3248.08C796.881 3248.02 796.727 3247.99 796.574 3248.01C796.421 3248.02 796.273 3248.07 796.143 3248.15C793.928 3249.5 791.393 3246.96 792.741 3244.75V3244.75C792.821 3244.61 792.869 3244.47 792.881 3244.31C792.893 3244.16 792.868 3244.01 792.81 3243.87C792.751 3243.72 792.659 3243.6 792.543 3243.5C792.427 3243.4 792.289 3243.33 792.141 3243.29V3243.29C789.62 3242.68 789.62 3239.1 792.141 3238.48L792.25 3238.45C792.357 3238.41 792.457 3238.35 792.544 3238.28C792.66 3238.18 792.752 3238.05 792.811 3237.91C792.869 3237.77 792.894 3237.62 792.882 3237.46C792.87 3237.31 792.822 3237.16 792.742 3237.03C791.393 3234.82 793.927 3232.28 796.143 3233.63L796.251 3233.69C796.798 3233.93 797.449 3233.63 797.596 3233.03L797.662 3232.8ZM800.92 3233.29C800.628 3232.42 799.372 3232.42 799.08 3233.29L799.054 3233.38C798.67 3234.96 796.912 3235.73 795.499 3234.99L795.363 3234.91C794.491 3234.38 793.493 3235.38 794.023 3236.25L794.096 3236.38C794.255 3236.68 794.352 3237.01 794.378 3237.35C794.408 3237.74 794.345 3238.13 794.196 3238.49C794.047 3238.85 793.815 3239.16 793.52 3239.42C793.224 3239.67 792.872 3239.85 792.494 3239.94C791.534 3240.18 791.503 3241.51 792.403 3241.81L792.494 3241.83L792.635 3241.87C792.959 3241.97 793.261 3242.14 793.52 3242.36C793.815 3242.61 794.046 3242.93 794.195 3243.29C794.344 3243.65 794.406 3244.04 794.376 3244.43C794.346 3244.82 794.225 3245.19 794.022 3245.53C793.491 3246.4 794.49 3247.4 795.361 3246.87L795.488 3246.79C795.788 3246.63 796.118 3246.54 796.458 3246.51C796.846 3246.48 797.237 3246.54 797.597 3246.69C797.956 3246.84 798.276 3247.07 798.529 3247.37C798.782 3247.66 798.962 3248.02 799.054 3248.39C799.294 3249.39 800.706 3249.39 800.946 3248.39L800.984 3248.25C801.084 3247.93 801.25 3247.63 801.472 3247.37C801.725 3247.07 802.044 3246.84 802.403 3246.69C802.763 3246.54 803.153 3246.48 803.541 3246.51C803.929 3246.54 804.304 3246.66 804.637 3246.87C805.482 3247.38 806.445 3246.46 806.021 3245.61L805.977 3245.53C805.774 3245.19 805.652 3244.82 805.622 3244.43C805.592 3244.04 805.655 3243.65 805.804 3243.29C805.953 3242.93 806.185 3242.61 806.48 3242.36C806.776 3242.11 807.128 3241.93 807.506 3241.83L807.597 3241.81C808.468 3241.52 808.468 3240.26 807.597 3239.97L807.506 3239.94C807.128 3239.85 806.776 3239.67 806.48 3239.42C806.185 3239.16 805.954 3238.84 805.805 3238.49C805.656 3238.13 805.594 3237.74 805.624 3237.35C805.654 3236.96 805.775 3236.58 805.978 3236.25C806.492 3235.41 805.571 3234.44 804.721 3234.87L804.639 3234.91C804.306 3235.11 803.93 3235.24 803.542 3235.27C803.154 3235.3 802.763 3235.23 802.403 3235.08C802.044 3234.94 801.724 3234.7 801.471 3234.41C801.218 3234.11 801.038 3233.76 800.946 3233.38L800.92 3233.29ZM802.25 3240.89C802.25 3240.29 802.013 3239.72 801.591 3239.3C801.169 3238.88 800.597 3238.64 800 3238.64C799.403 3238.64 798.831 3238.88 798.409 3239.3C797.987 3239.72 797.75 3240.29 797.75 3240.89C797.75 3241.49 797.987 3242.06 798.409 3242.48C798.831 3242.9 799.403 3243.14 800 3243.14C800.597 3243.14 801.169 3242.9 801.591 3242.48C802.013 3242.06 802.25 3241.49 802.25 3240.89ZM803.75 3240.89C803.75 3241.88 803.355 3242.84 802.651 3243.54C801.948 3244.24 800.995 3244.64 800 3244.64C799.005 3244.64 798.052 3244.24 797.349 3243.54C796.645 3242.84 796.25 3241.88 796.25 3240.89C796.25 3239.89 796.645 3238.94 797.349 3238.24C798.052 3237.53 799.005 3237.14 800 3237.14C800.995 3237.14 801.948 3237.53 802.651 3238.24C803.355 3238.94 803.75 3239.89 803.75 3240.89Z" fill="currentColor" />
</g>
</svg>