<svg xmlns="http://www.w3.org/2000/svg" width="16" height="16" viewBox="790.00 2724.22 20.00 20.00" fill="none"><g xmlns="http://www.w3.org/2000/svg" id="system-notification">
<path id="union_80" d="M802.25 2739.97H797.75V2740.22C797.75 2740.82 797.987 2741.39 798.409 2741.81C798.831 2742.23 799.403 2742.47 800 2742.47C800.597 2742.47 801.169 2742.23 801.591 2741.81C802.013 2741.39 802.25 2740.82 802.25 2740.22V2739.97ZM800 2725.97C799.669 2725.97 799.351 2726.1 799.116 2726.34C798.882 2726.57 798.75 2726.89 798.75 2727.22C798.75 2727.51 798.583 2727.78 798.32 2727.9C797.295 2728.38 796.421 2729.14 795.792 2730.08C795.165 2731.02 794.805 2732.12 794.75 2733.24V2736.22C794.75 2736.25 794.748 2736.28 794.744 2736.31C794.655 2737.05 794.394 2737.76 793.981 2738.38C793.96 2738.41 793.936 2738.44 793.913 2738.47H806.087C806.064 2738.44 806.04 2738.41 806.019 2738.38C805.606 2737.76 805.345 2737.05 805.256 2736.31C805.252 2736.28 805.25 2736.25 805.25 2736.22V2733.24C805.195 2732.12 804.835 2731.02 804.208 2730.08C803.579 2729.14 802.705 2728.38 801.68 2727.9C801.418 2727.78 801.25 2727.51 801.25 2727.22C801.25 2726.89 801.118 2726.57 800.884 2726.34C800.649 2726.1 800.332 2725.97 800 2725.97ZM803.75 2740.22C803.75 2741.22 803.355 2742.17 802.651 2742.87C801.948 2743.58 800.995 2743.97 800 2743.97C799.005 2743.97 798.052 2743.58 797.349 2742.87C796.645 2742.17 796.25 2741.22 796.25 2740.22V2739.97H792C791.659 2739.97 791.361 2739.74 791.274 2739.41C791.188 2739.08 791.334 2738.74 791.631 2738.57C792.074 2738.32 792.451 2737.97 792.733 2737.54C793.009 2737.13 793.185 2736.66 793.25 2736.17V2733.22C793.25 2733.21 793.25 2733.2 793.251 2733.19C793.317 2731.78 793.764 2730.42 794.544 2729.25C795.244 2728.2 796.189 2727.34 797.295 2726.74C797.393 2726.19 797.655 2725.68 798.056 2725.28C798.571 2724.76 799.271 2724.47 800 2724.47C800.729 2724.47 801.429 2724.76 801.944 2725.28C802.345 2725.68 802.606 2726.19 802.704 2726.74C803.81 2727.34 804.756 2728.2 805.456 2729.25C806.236 2730.42 806.683 2731.78 806.749 2733.19C806.75 2733.2 806.75 2733.21 806.75 2733.22V2736.17C806.815 2736.66 806.991 2737.13 807.267 2737.54C807.549 2737.97 807.926 2738.32 808.369 2738.57C808.666 2738.74 808.812 2739.08 808.726 2739.41C808.639 2739.74 808.341 2739.97 808 2739.97H803.75V2740.22Z" fill="currentColor" />
</g>
</svg>