<svg xmlns="http://www.w3.org/2000/svg" width="16" height="16" viewBox="116.44 2557.33 16.00 16.00" fill="none"><g xmlns="http://www.w3.org/2000/svg" id="system-close">
<path id="union_69" d="M129.914 2558.8C130.207 2558.51 130.682 2558.51 130.975 2558.8C131.268 2559.1 131.268 2559.57 130.975 2559.86L125.505 2565.33L130.975 2570.8C131.268 2571.1 131.268 2571.57 130.975 2571.86C130.682 2572.16 130.207 2572.16 129.914 2571.86L124.444 2566.39L118.975 2571.86C118.682 2572.16 118.207 2572.16 117.914 2571.86C117.621 2571.57 117.621 2571.1 117.914 2570.8L123.384 2565.33L117.914 2559.86C117.621 2559.57 117.621 2559.1 117.914 2558.8C118.207 2558.51 118.682 2558.51 118.975 2558.8L124.444 2564.27L129.914 2558.8Z" fill="currentColor" />
</g>
</svg>