<svg xmlns="http://www.w3.org/2000/svg" width="16" height="16" viewBox="621.11 3062.00 20.00 20.00" fill="none"><g xmlns="http://www.w3.org/2000/svg" id="system-file">
<path id="Union_9" d="M633.111 3062.25C633.159 3062.25 633.206 3062.26 633.252 3062.26C633.255 3062.26 633.258 3062.26 633.26 3062.26C633.275 3062.27 633.288 3062.27 633.302 3062.28C633.336 3062.29 633.369 3062.29 633.4 3062.31C633.43 3062.32 633.457 3062.34 633.484 3062.35C633.499 3062.36 633.514 3062.37 633.528 3062.38C633.564 3062.4 633.597 3062.43 633.629 3062.46C633.633 3062.46 633.637 3062.47 633.641 3062.47L638.641 3067.47C638.777 3067.61 638.861 3067.79 638.861 3068V3079C638.861 3079.73 638.571 3080.43 638.055 3080.94C637.54 3081.46 636.84 3081.75 636.111 3081.75H626.111C625.382 3081.75 624.682 3081.46 624.167 3080.94C623.651 3080.43 623.361 3079.73 623.361 3079V3065C623.361 3064.27 623.651 3063.57 624.167 3063.06C624.682 3062.54 625.382 3062.25 626.111 3062.25H633.111ZM626.111 3063.75C625.78 3063.75 625.462 3063.88 625.227 3064.12C624.993 3064.35 624.861 3064.67 624.861 3065V3079C624.861 3079.33 624.993 3079.65 625.227 3079.88C625.462 3080.12 625.78 3080.25 626.111 3080.25H636.111C636.443 3080.25 636.76 3080.12 636.995 3079.88C637.229 3079.65 637.361 3079.33 637.361 3079V3068.75H634.111C633.647 3068.75 633.202 3068.57 632.874 3068.24C632.546 3067.91 632.361 3067.46 632.361 3067V3063.75H626.111ZM633.861 3067C633.861 3067.07 633.887 3067.13 633.934 3067.18C633.981 3067.22 634.045 3067.25 634.111 3067.25H636.301L633.861 3064.81V3067Z" fill="currentColor" />
</g>
</svg>