<svg xmlns="http://www.w3.org/2000/svg" width="16" height="16" viewBox="1296.67 2724.22 20.00 20.00" fill="none"><g xmlns="http://www.w3.org/2000/svg" id="system-bulb">
<path id="union_83" d="M1306.67 2728.47C1307.87 2728.47 1309.05 2728.85 1310.03 2729.56C1311.01 2730.26 1311.74 2731.26 1312.12 2732.4C1312.5 2733.55 1312.51 2734.79 1312.16 2735.94C1311.8 2737.07 1311.11 2738.06 1310.17 2738.78C1309.96 2738.99 1309.79 2739.23 1309.66 2739.49C1309.65 2739.52 1309.64 2739.54 1309.63 2739.57C1309.59 2739.66 1309.55 2739.75 1309.52 2739.84C1309.38 2740.25 1309.35 2740.69 1309.41 2741.11C1309.41 2741.15 1309.42 2741.19 1309.42 2741.22C1309.42 2741.95 1309.13 2742.65 1308.61 2743.17C1308.1 2743.68 1307.4 2743.97 1306.67 2743.97C1305.94 2743.97 1305.24 2743.68 1304.72 2743.17C1304.21 2742.65 1303.92 2741.95 1303.92 2741.22C1303.92 2741.19 1303.92 2741.15 1303.92 2741.11C1303.99 2740.69 1303.95 2740.25 1303.81 2739.84C1303.78 2739.75 1303.75 2739.66 1303.71 2739.57C1303.69 2739.54 1303.68 2739.52 1303.67 2739.49C1303.54 2739.23 1303.37 2738.99 1303.16 2738.78C1302.22 2738.06 1301.53 2737.07 1301.18 2735.94C1300.82 2734.79 1300.83 2733.55 1301.21 2732.4C1301.59 2731.26 1302.33 2730.26 1303.3 2729.56C1304.28 2728.85 1305.46 2728.47 1306.67 2728.47ZM1305.39 2739.97C1305.46 2740.39 1305.47 2740.83 1305.42 2741.25C1305.43 2741.57 1305.56 2741.88 1305.78 2742.11C1306.02 2742.34 1306.34 2742.47 1306.67 2742.47C1307 2742.47 1307.32 2742.34 1307.55 2742.11C1307.78 2741.88 1307.91 2741.57 1307.91 2741.25C1307.86 2740.83 1307.87 2740.39 1307.95 2739.97H1305.39ZM1306.67 2729.97C1305.77 2729.97 1304.91 2730.25 1304.18 2730.77C1303.46 2731.3 1302.92 2732.03 1302.63 2732.88C1302.35 2733.72 1302.34 2734.64 1302.61 2735.49C1302.84 2736.23 1303.28 2736.9 1303.86 2737.41L1304.12 2737.62L1304.19 2737.69C1304.43 2737.93 1304.64 2738.19 1304.82 2738.47H1308.52C1308.69 2738.19 1308.9 2737.93 1309.14 2737.69L1309.22 2737.62C1309.93 2737.09 1310.46 2736.34 1310.72 2735.49C1310.99 2734.64 1310.98 2733.72 1310.7 2732.88C1310.42 2732.03 1309.88 2731.3 1309.15 2730.77C1308.43 2730.25 1307.56 2729.97 1306.67 2729.97ZM1298.67 2733.47C1299.08 2733.47 1299.42 2733.81 1299.42 2734.22C1299.42 2734.64 1299.08 2734.97 1298.67 2734.97H1297.67C1297.25 2734.97 1296.92 2734.64 1296.92 2734.22C1296.92 2733.81 1297.25 2733.47 1297.67 2733.47H1298.67ZM1315.67 2733.47C1316.08 2733.47 1316.42 2733.81 1316.42 2734.22C1316.42 2734.64 1316.08 2734.97 1315.67 2734.97H1314.67C1314.25 2734.97 1313.92 2734.64 1313.92 2734.22C1313.92 2733.81 1314.25 2733.47 1314.67 2733.47H1315.67ZM1299.74 2727.29C1300.03 2727 1300.5 2727 1300.8 2727.29L1301.5 2727.99C1301.79 2728.28 1301.79 2728.76 1301.5 2729.05C1301.2 2729.35 1300.73 2729.35 1300.44 2729.05L1299.74 2728.35C1299.44 2728.06 1299.44 2727.58 1299.74 2727.29ZM1312.54 2727.29C1312.83 2727 1313.3 2727 1313.6 2727.29C1313.89 2727.58 1313.89 2728.06 1313.6 2728.35L1312.9 2729.05C1312.6 2729.35 1312.13 2729.35 1311.84 2729.05C1311.54 2728.76 1311.54 2728.28 1311.84 2727.99L1312.54 2727.29ZM1305.92 2726.22V2725.22C1305.92 2724.81 1306.25 2724.47 1306.67 2724.47C1307.08 2724.47 1307.42 2724.81 1307.42 2725.22V2726.22C1307.42 2726.64 1307.08 2726.97 1306.67 2726.97C1306.25 2726.97 1305.92 2726.64 1305.92 2726.22Z" fill="currentColor" />
</g>
</svg>