<svg xmlns="http://www.w3.org/2000/svg" width="16" height="16" viewBox="1465.56 3062.00 20.00 20.00" fill="none"><g xmlns="http://www.w3.org/2000/svg" id="system-square-check">
<path id="union_96" d="M1483.81 3065C1483.81 3064.67 1483.67 3064.35 1483.44 3064.12C1483.21 3063.88 1482.89 3063.75 1482.56 3063.75H1468.56C1468.22 3063.75 1467.91 3063.88 1467.67 3064.12C1467.44 3064.35 1467.31 3064.67 1467.31 3065V3079C1467.31 3079.33 1467.44 3079.65 1467.67 3079.88C1467.91 3080.12 1468.22 3080.25 1468.56 3080.25H1482.56C1482.89 3080.25 1483.21 3080.12 1483.44 3079.88C1483.67 3079.65 1483.81 3079.33 1483.81 3079V3065ZM1478.03 3069.47C1478.32 3069.18 1478.79 3069.18 1479.09 3069.47C1479.38 3069.76 1479.38 3070.24 1479.09 3070.53L1475.09 3074.53C1474.79 3074.82 1474.32 3074.82 1474.03 3074.53L1472.03 3072.53C1471.73 3072.24 1471.73 3071.76 1472.03 3071.47C1472.32 3071.18 1472.79 3071.18 1473.09 3071.47L1474.56 3072.94L1478.03 3069.47ZM1485.31 3079C1485.31 3079.73 1485.02 3080.43 1484.5 3080.94C1483.98 3081.46 1483.29 3081.75 1482.56 3081.75H1468.56C1467.83 3081.75 1467.13 3081.46 1466.61 3080.94C1466.1 3080.43 1465.81 3079.73 1465.81 3079V3065C1465.81 3064.27 1466.1 3063.57 1466.61 3063.06C1467.13 3062.54 1467.83 3062.25 1468.56 3062.25H1482.56C1483.29 3062.25 1483.98 3062.54 1484.5 3063.06C1485.02 3063.57 1485.31 3064.27 1485.31 3065V3079Z" fill="currentColor" />
</g>
</svg>