<svg xmlns="http://www.w3.org/2000/svg" width="16" height="16" viewBox="790.00 3062.00 20.00 20.00" fill="none"><g xmlns="http://www.w3.org/2000/svg" id="system-video">
<path id="Union_10" d="M801 3065.25C801.729 3065.25 802.429 3065.54 802.944 3066.06C803.46 3066.57 803.75 3067.27 803.75 3068V3068.79L807.218 3067.05L807.423 3066.97C807.633 3066.89 807.856 3066.86 808.079 3066.87C808.377 3066.88 808.666 3066.97 808.92 3067.13C809.174 3067.29 809.383 3067.51 809.528 3067.77C809.673 3068.03 809.75 3068.32 809.75 3068.62V3075.38L809.735 3075.6C809.707 3075.82 809.637 3076.04 809.528 3076.23C809.383 3076.49 809.174 3076.71 808.92 3076.87C808.666 3077.03 808.377 3077.12 808.079 3077.13C807.781 3077.14 807.485 3077.08 807.218 3076.95L803.75 3075.21V3076C803.75 3076.73 803.46 3077.43 802.944 3077.94C802.429 3078.46 801.729 3078.75 801 3078.75H793C792.271 3078.75 791.571 3078.46 791.056 3077.94C790.54 3077.43 790.25 3076.73 790.25 3076V3068C790.25 3067.27 790.54 3066.57 791.056 3066.06C791.571 3065.54 792.271 3065.25 793 3065.25H801ZM793 3066.75C792.668 3066.75 792.351 3066.88 792.116 3067.12C791.882 3067.35 791.75 3067.67 791.75 3068V3076C791.75 3076.33 791.882 3076.65 792.116 3076.88C792.351 3077.12 792.668 3077.25 793 3077.25H801C801.332 3077.25 801.649 3077.12 801.884 3076.88C802.118 3076.65 802.25 3076.33 802.25 3076V3068C802.25 3067.67 802.118 3067.35 801.884 3067.12C801.649 3066.88 801.332 3066.75 801 3066.75H793ZM808.012 3068.37C807.969 3068.37 807.927 3068.38 807.889 3068.39L803.75 3070.46V3073.54L807.889 3075.6C807.927 3075.62 807.969 3075.63 808.012 3075.63C808.054 3075.63 808.096 3075.62 808.132 3075.59C808.168 3075.57 808.198 3075.54 808.219 3075.5C808.239 3075.47 808.25 3075.42 808.25 3075.38V3068.62L808.242 3068.55C808.237 3068.53 808.229 3068.51 808.219 3068.5C808.198 3068.46 808.168 3068.43 808.132 3068.41C808.096 3068.38 808.054 3068.37 808.012 3068.37Z" fill="currentColor" />
</g>
</svg>