<svg xmlns="http://www.w3.org/2000/svg" width="16" height="16" viewBox="791.00 2387.44 18.00 18.00" fill="none"><g xmlns="http://www.w3.org/2000/svg" id="system-filter-settings">
<path id="union_64" d="M805 2399.69C805.729 2399.69 806.429 2399.98 806.944 2400.5C807.279 2400.83 807.517 2401.25 807.644 2401.69H808C808.414 2401.69 808.75 2402.03 808.75 2402.44C808.75 2402.86 808.414 2403.19 808 2403.19H807.644C807.517 2403.64 807.279 2404.05 806.944 2404.39C806.429 2404.9 805.729 2405.19 805 2405.19C804.271 2405.19 803.571 2404.9 803.056 2404.39C802.721 2404.05 802.483 2403.64 802.356 2403.19H792C791.586 2403.19 791.25 2402.86 791.25 2402.44C791.25 2402.03 791.586 2401.69 792 2401.69H802.356C802.483 2401.25 802.721 2400.83 803.056 2400.5C803.571 2399.98 804.271 2399.69 805 2399.69ZM805 2401.19C804.668 2401.19 804.351 2401.33 804.116 2401.56C803.882 2401.79 803.75 2402.11 803.75 2402.44C803.75 2402.78 803.882 2403.09 804.116 2403.33C804.351 2403.56 804.668 2403.69 805 2403.69C805.332 2403.69 805.649 2403.56 805.884 2403.33C806.118 2403.09 806.25 2402.78 806.25 2402.44C806.25 2402.11 806.118 2401.79 805.884 2401.56C805.649 2401.33 805.332 2401.19 805 2401.19ZM796 2393.69C796.729 2393.69 797.429 2393.98 797.944 2394.5C798.279 2394.83 798.517 2395.25 798.644 2395.69H808C808.414 2395.69 808.75 2396.03 808.75 2396.44C808.75 2396.86 808.414 2397.19 808 2397.19H798.644C798.517 2397.64 798.279 2398.05 797.944 2398.39C797.429 2398.9 796.729 2399.19 796 2399.19C795.271 2399.19 794.571 2398.9 794.056 2398.39C793.721 2398.05 793.483 2397.64 793.356 2397.19H792C791.586 2397.19 791.25 2396.86 791.25 2396.44C791.25 2396.03 791.586 2395.69 792 2395.69H793.356C793.483 2395.25 793.721 2394.83 794.056 2394.5C794.571 2393.98 795.271 2393.69 796 2393.69ZM796 2395.19C795.668 2395.19 795.351 2395.33 795.116 2395.56C794.882 2395.79 794.75 2396.11 794.75 2396.44C794.75 2396.78 794.882 2397.09 795.116 2397.33C795.351 2397.56 795.668 2397.69 796 2397.69C796.332 2397.69 796.649 2397.56 796.884 2397.33C797.118 2397.09 797.25 2396.78 797.25 2396.44C797.25 2396.11 797.118 2395.79 796.884 2395.56C796.649 2395.33 796.332 2395.19 796 2395.19ZM802 2387.69C802.729 2387.69 803.429 2387.98 803.944 2388.5C804.279 2388.83 804.517 2389.25 804.644 2389.69H808C808.414 2389.69 808.75 2390.03 808.75 2390.44C808.75 2390.86 808.414 2391.19 808 2391.19H804.644C804.517 2391.64 804.279 2392.05 803.944 2392.39C803.429 2392.9 802.729 2393.19 802 2393.19C801.271 2393.19 800.571 2392.9 800.056 2392.39C799.721 2392.05 799.483 2391.64 799.356 2391.19H792C791.586 2391.19 791.25 2390.86 791.25 2390.44C791.25 2390.03 791.586 2389.69 792 2389.69H799.356C799.483 2389.25 799.721 2388.83 800.056 2388.5C800.571 2387.98 801.271 2387.69 802 2387.69ZM802 2389.19C801.668 2389.19 801.351 2389.33 801.116 2389.56C800.882 2389.79 800.75 2390.11 800.75 2390.44C800.75 2390.78 800.882 2391.09 801.116 2391.33C801.351 2391.56 801.668 2391.69 802 2391.69C802.332 2391.69 802.649 2391.56 802.884 2391.33C803.118 2391.09 803.25 2390.78 803.25 2390.44C803.25 2390.11 803.118 2389.79 802.884 2389.56C802.649 2389.33 802.332 2389.19 802 2389.19Z" fill="currentColor" />
</g>
</svg>