<svg xmlns="http://www.w3.org/2000/svg" width="16" height="16" viewBox="620.11 2723.76 21.00 21.00" fill="none"><g xmlns="http://www.w3.org/2000/svg" id="system-comment">
<path id="union_79" d="M639.361 2734.22C639.361 2729.67 635.668 2725.97 631.111 2725.97C626.554 2725.97 622.861 2729.67 622.861 2734.22C622.861 2735.92 623.388 2737.49 624.274 2738.81C624.402 2739 624.436 2739.23 624.368 2739.45C624.012 2740.59 623.458 2741.63 622.744 2742.55C624.109 2742.49 625.392 2742.11 626.538 2741.5C626.758 2741.39 627.023 2741.39 627.243 2741.5C628.4 2742.12 629.714 2742.47 631.111 2742.47C635.668 2742.47 639.361 2738.78 639.361 2734.22ZM640.861 2734.22C640.861 2739.61 636.496 2743.97 631.111 2743.97C629.598 2743.97 628.169 2743.62 626.892 2743C625.533 2743.67 624.009 2744.06 622.388 2744.06C621.909 2744.06 621.451 2744.01 621.014 2743.96C620.724 2743.92 620.483 2743.72 620.395 2743.44C620.308 2743.16 620.39 2742.85 620.606 2742.66C621.598 2741.76 622.362 2740.62 622.825 2739.33C621.907 2737.84 621.361 2736.1 621.361 2734.22C621.361 2728.84 625.726 2724.47 631.111 2724.47C636.496 2724.47 640.861 2728.84 640.861 2734.22Z" fill="currentColor" />
</g>
</svg>