<svg xmlns="http://www.w3.org/2000/svg" width="16" height="16" viewBox="1298.67 1336.00 16.00 16.00" fill="none"><g xmlns="http://www.w3.org/2000/svg" id="system-player-pause-ai">
<path id="Union_4" d="M1303.92 1338C1303.92 1337.93 1303.89 1337.87 1303.84 1337.82C1303.8 1337.78 1303.73 1337.75 1303.67 1337.75H1301.67C1301.6 1337.75 1301.54 1337.78 1301.49 1337.82C1301.44 1337.87 1301.42 1337.93 1301.42 1338V1350C1301.42 1350.07 1301.44 1350.13 1301.49 1350.18C1301.54 1350.22 1301.6 1350.25 1301.67 1350.25H1303.67C1303.73 1350.25 1303.8 1350.22 1303.84 1350.18C1303.89 1350.13 1303.92 1350.07 1303.92 1350V1338ZM1311.92 1338C1311.92 1337.93 1311.89 1337.87 1311.84 1337.82C1311.8 1337.78 1311.73 1337.75 1311.67 1337.75H1309.67C1309.6 1337.75 1309.54 1337.78 1309.49 1337.82C1309.44 1337.87 1309.42 1337.93 1309.42 1338V1350C1309.42 1350.07 1309.44 1350.13 1309.49 1350.18C1309.54 1350.22 1309.6 1350.25 1309.67 1350.25H1311.67C1311.73 1350.25 1311.8 1350.22 1311.84 1350.18C1311.89 1350.13 1311.92 1350.07 1311.92 1350V1338ZM1305.42 1350C1305.42 1350.46 1305.23 1350.91 1304.9 1351.24C1304.58 1351.57 1304.13 1351.75 1303.67 1351.75H1301.67C1301.2 1351.75 1300.76 1351.57 1300.43 1351.24C1300.1 1350.91 1299.92 1350.46 1299.92 1350V1338C1299.92 1337.54 1300.1 1337.09 1300.43 1336.76C1300.76 1336.43 1301.2 1336.25 1301.67 1336.25H1303.67C1304.13 1336.25 1304.58 1336.43 1304.9 1336.76C1305.23 1337.09 1305.42 1337.54 1305.42 1338V1350ZM1313.42 1350C1313.42 1350.46 1313.23 1350.91 1312.9 1351.24C1312.58 1351.57 1312.13 1351.75 1311.67 1351.75H1309.67C1309.2 1351.75 1308.76 1351.57 1308.43 1351.24C1308.1 1350.91 1307.92 1350.46 1307.92 1350V1338C1307.92 1337.54 1308.1 1337.09 1308.43 1336.76C1308.76 1336.43 1309.2 1336.25 1309.67 1336.25H1311.67C1312.13 1336.25 1312.58 1336.43 1312.9 1336.76C1313.23 1337.09 1313.42 1337.54 1313.42 1338V1350Z" fill="currentColor" />
</g>
</svg>