<svg xmlns="http://www.w3.org/2000/svg" width="16" height="16" viewBox="283.33 2724.22 20.00 20.00" fill="none"><g xmlns="http://www.w3.org/2000/svg" id="system-sound-waves-ai-speaking">
<path id="union_78" d="M290.734 2742.99V2725.46C290.734 2725.05 291.069 2724.71 291.484 2724.71C291.898 2724.71 292.234 2725.05 292.234 2725.46V2742.99C292.234 2743.4 291.898 2743.74 291.484 2743.74C291.07 2743.74 290.734 2743.4 290.734 2742.99ZM287.034 2739.38V2729.07C287.034 2728.65 287.369 2728.32 287.784 2728.32C288.198 2728.32 288.534 2728.65 288.534 2729.07V2739.38C288.534 2739.79 288.198 2740.13 287.784 2740.13C287.369 2740.13 287.034 2739.79 287.034 2739.38ZM294.433 2739.09V2729.35C294.433 2728.94 294.769 2728.6 295.183 2728.6C295.597 2728.6 295.933 2728.94 295.933 2729.35V2739.09C295.933 2739.5 295.597 2739.84 295.183 2739.84C294.769 2739.84 294.433 2739.5 294.433 2739.09ZM298.133 2736.66V2731.79C298.133 2731.37 298.469 2731.04 298.883 2731.04C299.297 2731.04 299.633 2731.37 299.633 2731.79V2736.66C299.633 2737.07 299.297 2737.41 298.883 2737.41C298.469 2737.41 298.133 2737.07 298.133 2736.66ZM283.333 2736.28V2732.16C283.333 2731.75 283.669 2731.41 284.083 2731.41C284.498 2731.41 284.833 2731.75 284.833 2732.16V2736.28C284.833 2736.7 284.497 2737.03 284.083 2737.03C283.669 2737.03 283.333 2736.7 283.333 2736.28ZM301.833 2735.25V2733.19C301.833 2732.78 302.169 2732.44 302.583 2732.44C302.998 2732.44 303.333 2732.78 303.333 2733.19V2735.25C303.333 2735.67 302.998 2736 302.583 2736C302.169 2736 301.833 2735.67 301.833 2735.25Z" fill="currentColor" />
</g>
</svg>