<svg xmlns="http://www.w3.org/2000/svg" width="16" height="16" viewBox="452.22 2893.11 20.00 20.00" fill="none"><g xmlns="http://www.w3.org/2000/svg" id="system-home">
<path id="union_87" d="M464.472 2906.11C464.472 2905.78 464.34 2905.46 464.106 2905.23C463.872 2904.99 463.554 2904.86 463.222 2904.86H461.222C460.891 2904.86 460.573 2904.99 460.338 2905.23C460.104 2905.46 459.972 2905.78 459.972 2906.11V2911.36H464.472V2906.11ZM469.972 2910.11C469.972 2910.84 469.682 2911.54 469.167 2912.06C468.651 2912.57 467.952 2912.86 467.222 2912.86H457.222C456.493 2912.86 455.794 2912.57 455.278 2912.06C454.762 2911.54 454.472 2910.84 454.472 2910.11V2903.86H453.222C452.919 2903.86 452.645 2903.68 452.529 2903.4C452.413 2903.12 452.477 2902.8 452.692 2902.58L461.692 2893.58L461.749 2893.53C462.043 2893.29 462.478 2893.31 462.753 2893.58L471.753 2902.58C471.967 2902.8 472.032 2903.12 471.916 2903.4C471.8 2903.68 471.526 2903.86 471.222 2903.86H469.972V2910.11ZM465.972 2911.36H467.222C467.554 2911.36 467.872 2911.23 468.106 2910.99C468.34 2910.76 468.472 2910.44 468.472 2910.11V2903.11C468.472 2902.7 468.808 2902.36 469.222 2902.36H469.412L462.222 2895.17L455.033 2902.36H455.222C455.636 2902.36 455.972 2902.7 455.972 2903.11V2910.11C455.972 2910.44 456.104 2910.76 456.338 2910.99C456.573 2911.23 456.891 2911.36 457.222 2911.36H458.472V2906.11C458.472 2905.38 458.762 2904.68 459.278 2904.17C459.794 2903.65 460.493 2903.36 461.222 2903.36H463.222C463.952 2903.36 464.651 2903.65 465.167 2904.17C465.682 2904.68 465.972 2905.38 465.972 2906.11V2911.36Z" fill="currentColor" />
</g>
</svg>