<svg xmlns="http://www.w3.org/2000/svg" width="16" height="16" viewBox="622.11 2556.33 18.00 18.00" fill="none"><g xmlns="http://www.w3.org/2000/svg" id="system-dots-horizont">
<path id="union_72" d="M636.511 2565.33C636.511 2564.91 636.679 2564.5 636.979 2564.2C637.279 2563.9 637.687 2563.73 638.111 2563.73C638.535 2563.73 638.943 2563.9 639.243 2564.2C639.543 2564.5 639.711 2564.91 639.711 2565.33C639.711 2565.76 639.543 2566.17 639.243 2566.47C638.943 2566.77 638.535 2566.93 638.111 2566.93C637.687 2566.93 637.279 2566.77 636.979 2566.47C636.679 2566.17 636.511 2565.76 636.511 2565.33ZM629.511 2565.33C629.511 2564.91 629.679 2564.5 629.979 2564.2C630.279 2563.9 630.687 2563.73 631.111 2563.73C631.535 2563.73 631.943 2563.9 632.243 2564.2C632.543 2564.5 632.711 2564.91 632.711 2565.33C632.711 2565.76 632.543 2566.17 632.243 2566.47C631.943 2566.77 631.535 2566.93 631.111 2566.93C630.687 2566.93 630.279 2566.77 629.979 2566.47C629.679 2566.17 629.511 2565.76 629.511 2565.33ZM622.511 2565.33C622.511 2564.91 622.679 2564.5 622.979 2564.2C623.279 2563.9 623.687 2563.73 624.111 2563.73C624.535 2563.73 624.943 2563.9 625.243 2564.2C625.543 2564.5 625.711 2564.91 625.711 2565.33C625.711 2565.76 625.543 2566.17 625.243 2566.47C624.943 2566.77 624.535 2566.93 624.111 2566.93C623.687 2566.93 623.279 2566.77 622.979 2566.47C622.679 2566.17 622.511 2565.76 622.511 2565.33Z" fill="currentColor" />
</g>
</svg>