<svg xmlns="http://www.w3.org/2000/svg" width="16" height="16" viewBox="958.39 2892.11 21.00 21.00" fill="none"><g xmlns="http://www.w3.org/2000/svg" id="system-flame">
<path id="union_90" d="M975.139 2905.4C975.139 2904.7 974.875 2903.7 974.447 2902.71C974.192 2902.12 973.895 2901.57 973.598 2901.11C972.786 2902.27 972.033 2903.01 971.238 2903.31C970.124 2903.74 969.188 2903.25 968.423 2902.64C968.111 2902.39 968.047 2901.94 968.276 2901.62C969.275 2900.2 969.338 2898.49 968.971 2896.93C968.819 2896.29 968.597 2895.7 968.361 2895.19C967.671 2897.7 965.85 2899.27 964.747 2900.35C963.452 2901.63 962.639 2903.32 962.639 2905.4C962.639 2908.66 965.406 2911.36 968.889 2911.36C972.371 2911.36 975.139 2908.66 975.139 2905.4ZM976.639 2905.4C976.639 2909.55 973.138 2912.86 968.889 2912.86C964.639 2912.86 961.139 2909.55 961.139 2905.4C961.139 2902.9 962.133 2900.82 963.697 2899.28C965.18 2897.82 967.139 2896.14 967.139 2893.11C967.139 2892.81 967.319 2892.54 967.595 2892.42C967.871 2892.3 968.191 2892.36 968.407 2892.57C969.122 2893.25 970.012 2894.81 970.432 2896.59C970.808 2898.19 970.831 2900.1 969.904 2901.83C970.232 2902 970.468 2902 970.701 2901.91C971.176 2901.73 971.879 2901.1 972.919 2899.42L972.969 2899.35C973.095 2899.19 973.28 2899.09 973.484 2899.07C973.716 2899.05 973.947 2899.13 974.106 2899.31C974.735 2899.98 975.359 2901.04 975.824 2902.12C976.287 2903.19 976.639 2904.4 976.639 2905.4Z" fill="currentColor" />
</g>
</svg>