<svg xmlns="http://www.w3.org/2000/svg" width="16" height="16" viewBox="1465.56 2386.44 20.00 20.00" fill="none"><g xmlns="http://www.w3.org/2000/svg" id="system-clock-time">
<path id="union_68" d="M1483.81 2396.44C1483.81 2395.36 1483.59 2394.29 1483.18 2393.29C1482.76 2392.29 1482.16 2391.38 1481.39 2390.61C1480.62 2389.84 1479.71 2389.24 1478.71 2388.82C1477.71 2388.41 1476.64 2388.19 1475.56 2388.19C1474.47 2388.19 1473.4 2388.41 1472.4 2388.82C1471.4 2389.24 1470.49 2389.84 1469.72 2390.61C1468.96 2391.38 1468.35 2392.29 1467.93 2393.29C1467.52 2394.29 1467.31 2395.36 1467.31 2396.44C1467.31 2397.53 1467.52 2398.6 1467.93 2399.6C1468.35 2400.6 1468.96 2401.51 1469.72 2402.28C1470.49 2403.04 1471.4 2403.65 1472.4 2404.07C1473.4 2404.48 1474.47 2404.69 1475.56 2404.69C1476.64 2404.69 1477.71 2404.48 1478.71 2404.07C1479.71 2403.65 1480.62 2403.04 1481.39 2402.28C1482.16 2401.51 1482.76 2400.6 1483.18 2399.6C1483.59 2398.6 1483.81 2397.53 1483.81 2396.44ZM1474.81 2391.44C1474.81 2391.03 1475.14 2390.69 1475.56 2390.69C1475.97 2390.69 1476.31 2391.03 1476.31 2391.44V2396.04L1478.97 2397.82C1479.32 2398.05 1479.41 2398.52 1479.18 2398.86C1478.95 2399.2 1478.48 2399.3 1478.14 2399.07L1475.14 2397.07C1474.93 2396.93 1474.81 2396.7 1474.81 2396.44V2391.44ZM1485.31 2396.44C1485.31 2397.72 1485.05 2398.99 1484.56 2400.18C1484.07 2401.36 1483.36 2402.43 1482.45 2403.34C1481.54 2404.24 1480.47 2404.96 1479.29 2405.45C1478.1 2405.94 1476.84 2406.19 1475.56 2406.19C1474.28 2406.19 1473.01 2405.94 1471.82 2405.45C1470.64 2404.96 1469.57 2404.24 1468.66 2403.34C1467.76 2402.43 1467.04 2401.36 1466.55 2400.18C1466.06 2398.99 1465.81 2397.72 1465.81 2396.44C1465.81 2395.16 1466.06 2393.9 1466.55 2392.71C1467.04 2391.53 1467.76 2390.46 1468.66 2389.55C1469.57 2388.64 1470.64 2387.93 1471.82 2387.44C1473.01 2386.95 1474.28 2386.69 1475.56 2386.69C1476.84 2386.69 1478.1 2386.95 1479.29 2387.44C1480.47 2387.93 1481.54 2388.64 1482.45 2389.55C1483.36 2390.46 1484.07 2391.53 1484.56 2392.71C1485.05 2393.9 1485.31 2395.16 1485.31 2396.44Z" fill="currentColor" />
</g>
</svg>