<svg xmlns="http://www.w3.org/2000/svg" width="16" height="16" viewBox="1127.78 2893.11 20.00 20.00" fill="none"><g xmlns="http://www.w3.org/2000/svg" id="system-building">
<path id="union_91" d="M1144.03 2896.11C1144.03 2895.78 1143.9 2895.46 1143.66 2895.23C1143.43 2894.99 1143.11 2894.86 1142.78 2894.86H1132.78C1132.45 2894.86 1132.13 2894.99 1131.89 2895.23C1131.66 2895.46 1131.53 2895.78 1131.53 2896.11V2911.36H1144.03V2896.11ZM1135.78 2906.36C1136.19 2906.36 1136.53 2906.7 1136.53 2907.11C1136.53 2907.53 1136.19 2907.86 1135.78 2907.86H1134.78C1134.36 2907.86 1134.03 2907.53 1134.03 2907.11C1134.03 2906.7 1134.36 2906.36 1134.78 2906.36H1135.78ZM1140.78 2906.36C1141.19 2906.36 1141.53 2906.7 1141.53 2907.11C1141.53 2907.53 1141.19 2907.86 1140.78 2907.86H1139.78C1139.36 2907.86 1139.03 2907.53 1139.03 2907.11C1139.03 2906.7 1139.36 2906.36 1139.78 2906.36H1140.78ZM1135.78 2902.36C1136.19 2902.36 1136.53 2902.7 1136.53 2903.11C1136.53 2903.53 1136.19 2903.86 1135.78 2903.86H1134.78C1134.36 2903.86 1134.03 2903.53 1134.03 2903.11C1134.03 2902.7 1134.36 2902.36 1134.78 2902.36H1135.78ZM1140.78 2902.36C1141.19 2902.36 1141.53 2902.7 1141.53 2903.11C1141.53 2903.53 1141.19 2903.86 1140.78 2903.86H1139.78C1139.36 2903.86 1139.03 2903.53 1139.03 2903.11C1139.03 2902.7 1139.36 2902.36 1139.78 2902.36H1140.78ZM1135.78 2898.36C1136.19 2898.36 1136.53 2898.7 1136.53 2899.11C1136.53 2899.53 1136.19 2899.86 1135.78 2899.86H1134.78C1134.36 2899.86 1134.03 2899.53 1134.03 2899.11C1134.03 2898.7 1134.36 2898.36 1134.78 2898.36H1135.78ZM1140.78 2898.36C1141.19 2898.36 1141.53 2898.7 1141.53 2899.11C1141.53 2899.53 1141.19 2899.86 1140.78 2899.86H1139.78C1139.36 2899.86 1139.03 2899.53 1139.03 2899.11C1139.03 2898.7 1139.36 2898.36 1139.78 2898.36H1140.78ZM1145.53 2911.36H1146.78C1147.19 2911.36 1147.53 2911.7 1147.53 2912.11C1147.53 2912.53 1147.19 2912.86 1146.78 2912.86H1128.78C1128.36 2912.86 1128.03 2912.53 1128.03 2912.11C1128.03 2911.7 1128.36 2911.36 1128.78 2911.36H1130.03V2896.11C1130.03 2895.38 1130.32 2894.68 1130.83 2894.17C1131.35 2893.65 1132.05 2893.36 1132.78 2893.36H1142.78C1143.51 2893.36 1144.21 2893.65 1144.72 2894.17C1145.24 2894.68 1145.53 2895.38 1145.53 2896.11V2911.36Z" fill="currentColor" />
</g>
</svg>