<svg xmlns="http://www.w3.org/2000/svg" width="16" height="16" viewBox="115.94 3737.56 21.00 21.00" fill="none"><g xmlns="http://www.w3.org/2000/svg" id="user-replace">
<path id="Union_28" d="M132.694 3753.56C132.694 3752.96 132.457 3752.39 132.035 3751.96C131.613 3751.54 131.041 3751.31 130.444 3751.31C129.848 3751.31 129.276 3751.54 128.854 3751.96C128.432 3752.39 128.194 3752.96 128.194 3753.56C128.194 3754.15 128.432 3754.72 128.854 3755.15C129.276 3755.57 129.848 3755.81 130.444 3755.81C131.041 3755.81 131.613 3755.57 132.035 3755.15C132.457 3754.72 132.694 3754.15 132.694 3753.56ZM117.694 3756.56V3754.56C117.694 3753.3 118.195 3752.09 119.086 3751.2C119.977 3750.31 121.185 3749.81 122.444 3749.81H123.944C124.359 3749.81 124.694 3750.14 124.694 3750.56C124.694 3750.97 124.359 3751.31 123.944 3751.31H122.444C121.582 3751.31 120.756 3751.65 120.147 3752.26C119.537 3752.87 119.194 3753.69 119.194 3754.56V3756.56C119.194 3756.97 118.859 3757.31 118.444 3757.31C118.03 3757.31 117.694 3756.97 117.694 3756.56ZM127.694 3742.56C127.694 3741.69 127.352 3740.87 126.742 3740.26C126.133 3739.65 125.306 3739.31 124.444 3739.31C123.582 3739.31 122.756 3739.65 122.147 3740.26C121.537 3740.87 121.194 3741.69 121.194 3742.56C121.194 3743.42 121.537 3744.24 122.147 3744.85C122.756 3745.46 123.582 3745.81 124.444 3745.81C125.306 3745.81 126.133 3745.46 126.742 3744.85C127.352 3744.24 127.694 3743.42 127.694 3742.56ZM134.194 3753.56C134.194 3754.3 133.974 3755.01 133.571 3755.62L134.974 3757.03C135.267 3757.32 135.267 3757.79 134.974 3758.09C134.681 3758.38 134.206 3758.38 133.913 3758.09L132.511 3756.68C131.902 3757.09 131.185 3757.31 130.444 3757.31C129.45 3757.31 128.496 3756.91 127.793 3756.21C127.09 3755.5 126.694 3754.55 126.694 3753.56C126.694 3752.56 127.09 3751.61 127.793 3750.9C128.496 3750.2 129.45 3749.81 130.444 3749.81C131.439 3749.81 132.393 3750.2 133.096 3750.9C133.799 3751.61 134.194 3752.56 134.194 3753.56ZM129.194 3742.56C129.194 3743.82 128.694 3745.02 127.803 3745.91C126.912 3746.8 125.704 3747.31 124.444 3747.31C123.185 3747.31 121.977 3746.8 121.086 3745.91C120.195 3745.02 119.694 3743.82 119.694 3742.56C119.694 3741.3 120.195 3740.09 121.086 3739.2C121.977 3738.31 123.185 3737.81 124.444 3737.81C125.704 3737.81 126.912 3738.31 127.803 3739.2C128.694 3740.09 129.194 3741.3 129.194 3742.56Z" fill="currentColor" />
</g>
</svg>