<svg xmlns="http://www.w3.org/2000/svg" width="16" height="16" viewBox="114.44 3399.78 20.00 20.00" fill="none"><g xmlns="http://www.w3.org/2000/svg" id="users-group">
<g id="union_101">
<path d="M123.444 3412.03C124.704 3412.03 125.912 3412.53 126.803 3413.42C127.694 3414.31 128.194 3415.52 128.194 3416.78V3418.78C128.194 3419.19 127.859 3419.53 127.444 3419.53C127.03 3419.53 126.694 3419.19 126.694 3418.78V3416.78C126.694 3415.92 126.352 3415.09 125.742 3414.48C125.133 3413.87 124.306 3413.53 123.444 3413.53H119.444C118.582 3413.53 117.756 3413.87 117.147 3414.48C116.537 3415.09 116.194 3415.92 116.194 3416.78V3418.78C116.194 3419.19 115.859 3419.53 115.444 3419.53C115.03 3419.53 114.694 3419.19 114.694 3418.78V3416.78C114.694 3415.52 115.195 3414.31 116.086 3413.42C116.977 3412.53 118.185 3412.03 119.444 3412.03H123.444Z" fill="currentColor" />
<path d="M129.718 3412.74C129.821 3412.34 130.231 3412.1 130.632 3412.2C131.647 3412.46 132.547 3413.05 133.192 3413.88C133.836 3414.71 134.188 3415.73 134.194 3416.77V3418.78C134.194 3419.19 133.859 3419.53 133.444 3419.53C133.03 3419.53 132.694 3419.19 132.694 3418.78V3416.78C132.69 3416.06 132.449 3415.37 132.008 3414.8C131.567 3414.24 130.951 3413.83 130.257 3413.65C129.856 3413.55 129.615 3413.14 129.718 3412.74Z" fill="currentColor" />
<path fill-rule="evenodd" clip-rule="evenodd" d="M121.444 3400.03C122.704 3400.03 123.912 3400.53 124.803 3401.42C125.694 3402.31 126.194 3403.52 126.194 3404.78C126.194 3406.04 125.694 3407.25 124.803 3408.14C123.912 3409.03 122.704 3409.53 121.444 3409.53C120.185 3409.53 118.977 3409.03 118.086 3408.14C117.195 3407.25 116.694 3406.04 116.694 3404.78C116.694 3403.52 117.195 3402.31 118.086 3401.42C118.977 3400.53 120.185 3400.03 121.444 3400.03ZM121.444 3401.53C120.582 3401.53 119.756 3401.87 119.147 3402.48C118.537 3403.09 118.194 3403.92 118.194 3404.78C118.194 3405.64 118.537 3406.47 119.147 3407.08C119.756 3407.69 120.582 3408.03 121.444 3408.03C122.306 3408.03 123.133 3407.69 123.742 3407.08C124.352 3406.47 124.694 3405.64 124.694 3404.78C124.694 3403.92 124.352 3403.09 123.742 3402.48C123.133 3401.87 122.306 3401.53 121.444 3401.53Z" fill="currentColor" />
<path d="M127.718 3400.72C127.821 3400.32 128.229 3400.08 128.63 3400.18C129.652 3400.44 130.557 3401.04 131.204 3401.87C131.851 3402.7 132.202 3403.73 132.202 3404.78C132.202 3405.84 131.851 3406.86 131.204 3407.7C130.558 3408.53 129.652 3409.12 128.63 3409.38C128.229 3409.49 127.821 3409.25 127.718 3408.84C127.615 3408.44 127.858 3408.03 128.259 3407.93C128.958 3407.75 129.577 3407.35 130.02 3406.78C130.462 3406.21 130.702 3405.5 130.702 3404.78C130.702 3404.06 130.462 3403.36 130.02 3402.79C129.577 3402.22 128.958 3401.81 128.259 3401.63C127.858 3401.53 127.615 3401.12 127.718 3400.72Z" fill="currentColor" />
</g>
</g>
</svg>