<svg xmlns="http://www.w3.org/2000/svg" viewBox="104.28 456.28 13.44 13.44"><defs><mask xmlns="http://www.w3.org/2000/svg" id="path-29-outside-4_1399_9453" maskUnits="userSpaceOnUse" x="105" y="457" width="12" height="12" fill="black">
<rect fill="white" x="105" y="457" width="12" height="12" />
<path d="M107 463C107 460.791 108.791 459 111 459C113.209 459 115 460.791 115 463C115 465.209 113.209 467 111 467C108.791 467 107 465.209 107 463Z" />
</mask>
</defs><g xmlns="http://www.w3.org/2000/svg" id="indicator">
<mask id="path-29-outside-4_1399_9453" maskUnits="userSpaceOnUse" x="105" y="457" width="12" height="12" fill="black">
<rect fill="white" x="105" y="457" width="12" height="12" />
<path d="M107 463C107 460.791 108.791 459 111 459C113.209 459 115 460.791 115 463C115 465.209 113.209 467 111 467C108.791 467 107 465.209 107 463Z" />
</mask>
<path d="M107 463M115 463M115 463M107 463M111 459M115 463M111 467M107 463M111 467V465.5C109.619 465.5 108.5 464.381 108.5 463H107H105.5C105.5 466.038 107.962 468.5 111 468.5V467ZM115 463H113.5C113.5 464.381 112.381 465.5 111 465.5V467V468.5C114.038 468.5 116.5 466.038 116.5 463H115ZM111 459V460.5C112.381 460.5 113.5 461.619 113.5 463H115H116.5C116.5 459.962 114.038 457.5 111 457.5V459ZM111 459V457.5C107.962 457.5 105.5 459.962 105.5 463H107H108.5C108.5 461.619 109.619 460.5 111 460.5V459Z" fill="black" mask="url(#path-29-outside-4_1399_9453)" />
<path id="indicator_2" d="M111 467C113.209 467 115 465.209 115 463C115 460.791 113.209 459 111 459C108.791 459 107 460.791 107 463C107 465.209 108.791 467 111 467Z" fill="#C87941" />
</g></svg>