<svg xmlns="http://www.w3.org/2000/svg" viewBox="543.96 544.96 38.08 38.08"><defs><filter xmlns="http://www.w3.org/2000/svg" id="filter16_f_1399_9453" x="553.933" y="553.015" width="23.3175" height="22.6646" filterUnits="userSpaceOnUse" color-interpolation-filters="sRGB">
<feFlood flood-opacity="0" result="BackgroundImageFix" />
<feBlend mode="normal" in="SourceGraphic" in2="BackgroundImageFix" result="shape" />
<feGaussianBlur stdDeviation="1.58451" result="effect1_foregroundBlur_1399_9453" />
</filter>
<radialGradient xmlns="http://www.w3.org/2000/svg" id="paint43_radial_1399_9453" cx="0" cy="0" r="1" gradientUnits="userSpaceOnUse" gradientTransform="translate(565.598 558.751) rotate(115.504) scale(22.8674 25.2615)">
<stop stop-color="white" stop-opacity="0" />
<stop offset="0.614697" stop-color="white" stop-opacity="0" />
<stop offset="1" stop-color="white" />
</radialGradient>
<filter xmlns="http://www.w3.org/2000/svg" id="filter15_f_1399_9453" x="547.535" y="558.76" width="12.704" height="12.7042" filterUnits="userSpaceOnUse" color-interpolation-filters="sRGB">
<feFlood flood-opacity="0" result="BackgroundImageFix" />
<feBlend mode="normal" in="SourceGraphic" in2="BackgroundImageFix" result="shape" />
<feGaussianBlur stdDeviation="0.140845" result="effect1_foregroundBlur_1399_9453" />
</filter>
<radialGradient xmlns="http://www.w3.org/2000/svg" id="paint44_radial_1399_9453" cx="0" cy="0" r="1" gradientUnits="userSpaceOnUse" gradientTransform="translate(557.172 551.083) rotate(-18.7527) scale(16.1971 17.8929)">
<stop stop-color="white" />
<stop offset="0.614596" stop-color="white" stop-opacity="0" />
<stop offset="0.614697" stop-color="white" stop-opacity="0" />
</radialGradient>
<linearGradient xmlns="http://www.w3.org/2000/svg" id="paint37_linear_1399_9453" x1="575.296" y1="560.661" x2="563.915" y2="557.338" gradientUnits="userSpaceOnUse">
<stop stop-color="#233288" />
<stop offset="1" stop-color="#CD9579" />
</linearGradient>
<radialGradient xmlns="http://www.w3.org/2000/svg" id="paint34_radial_1399_9453" cx="0" cy="0" r="1" gradientUnits="userSpaceOnUse" gradientTransform="translate(562 565) rotate(90) scale(16)">
<stop stop-color="white" />
<stop offset="1" stop-color="#F3C79B" />
</radialGradient>
<linearGradient xmlns="http://www.w3.org/2000/svg" id="paint36_linear_1399_9453" x1="565.109" y1="564.738" x2="565.756" y2="572.497" gradientUnits="userSpaceOnUse">
<stop stop-color="#5A12BF" />
<stop offset="1" stop-color="white" />
</linearGradient>
<linearGradient xmlns="http://www.w3.org/2000/svg" id="paint38_linear_1399_9453" x1="556.648" y1="563.985" x2="560.76" y2="568.831" gradientUnits="userSpaceOnUse">
<stop stop-color="#FFB0B0" />
<stop offset="1" stop-color="#EC603E" stop-opacity="0.4" />
</linearGradient>
<filter xmlns="http://www.w3.org/2000/svg" id="filter17_f_1399_9453" x="546.789" y="553.148" width="30.412" height="19.211" filterUnits="userSpaceOnUse" color-interpolation-filters="sRGB">
<feFlood flood-opacity="0" result="BackgroundImageFix" />
<feBlend mode="normal" in="SourceGraphic" in2="BackgroundImageFix" result="shape" />
<feGaussianBlur stdDeviation="0.957746" result="effect1_foregroundBlur_1399_9453" />
</filter>
<linearGradient xmlns="http://www.w3.org/2000/svg" id="paint40_linear_1399_9453" x1="562" y1="565" x2="562" y2="581" gradientUnits="userSpaceOnUse">
<stop stop-color="#D9D9D9" stop-opacity="0" />
<stop offset="1" stop-color="#9F7260" />
</linearGradient>
<linearGradient xmlns="http://www.w3.org/2000/svg" id="paint42_linear_1399_9453" x1="569" y1="557" x2="551.183" y2="556.38" gradientUnits="userSpaceOnUse">
<stop stop-color="#D9D9D9" stop-opacity="0" />
<stop offset="1" stop-color="#3D16B2" stop-opacity="0.3" />
</linearGradient>
<linearGradient xmlns="http://www.w3.org/2000/svg" id="paint39_linear_1399_9453" x1="558.876" y1="560.36" x2="559.917" y2="561.402" gradientUnits="userSpaceOnUse">
<stop stop-color="white" stop-opacity="0.4" />
<stop offset="1" stop-color="white" stop-opacity="0" />
</linearGradient>
<linearGradient xmlns="http://www.w3.org/2000/svg" id="paint35_linear_1399_9453" x1="552.479" y1="560.38" x2="553.888" y2="570.408" gradientUnits="userSpaceOnUse">
<stop stop-color="#FBC4E6" />
<stop offset="0.892678" stop-color="#FFD49B" />
</linearGradient>
<linearGradient xmlns="http://www.w3.org/2000/svg" id="paint41_linear_1399_9453" x1="563" y1="556" x2="566" y2="574" gradientUnits="userSpaceOnUse">
<stop stop-color="#EBC7C5" stop-opacity="0" />
<stop offset="1" stop-color="#6F3632" />
</linearGradient>
<filter xmlns="http://www.w3.org/2000/svg" id="filter14_df_1399_9453" x="542.45" y="545.45" width="39.1006" height="39.1006" filterUnits="userSpaceOnUse" color-interpolation-filters="sRGB">
<feFlood flood-opacity="0" result="BackgroundImageFix" />
<feColorMatrix in="SourceAlpha" type="matrix" values="0 0 0 0 0 0 0 0 0 0 0 0 0 0 0 0 0 0 127 0" result="hardAlpha" />
<feOffset />
<feGaussianBlur stdDeviation="1.77515" />
<feComposite in2="hardAlpha" operator="out" />
<feColorMatrix type="matrix" values="0 0 0 0 0.75311 0 0 0 0 0.672682 0 0 0 0 0.926664 0 0 0 1 0" />
<feBlend mode="normal" in2="BackgroundImageFix" result="effect1_dropShadow_1399_9453" />
<feBlend mode="normal" in="SourceGraphic" in2="effect1_dropShadow_1399_9453" result="shape" />
<feGaussianBlur stdDeviation="0.0295858" result="effect2_foregroundBlur_1399_9453" />
</filter>
<mask xmlns="http://www.w3.org/2000/svg" id="path-63-outside-8_1399_9453" maskUnits="userSpaceOnUse" x="568" y="547" width="12" height="12" fill="black">
<rect fill="white" x="568" y="547" width="12" height="12" />
<path d="M570 553C570 550.791 571.791 549 574 549C576.209 549 578 550.791 578 553C578 555.209 576.209 557 574 557C571.791 557 570 555.209 570 553Z" />
</mask>
</defs><g xmlns="http://www.w3.org/2000/svg" id="Property 1=disabled, style=no">
<path d="M546 565C546 556.163 553.163 549 562 549C570.837 549 578 556.163 578 565C578 573.837 570.837 581 562 581C553.163 581 546 573.837 546 565Z" fill="black" fill-opacity="0.1" />
<g id="Only icon button_4">
<g id="Sphere_4" style="mix-blend-mode:luminosity" filter="url(#filter14_df_1399_9453)">
<ellipse id="Ellipse 8902_4" cx="562" cy="565" rx="16" ry="16" fill="url(#paint34_radial_1399_9453)" />
<g id="Ellipse 8903_4" filter="url(#filter15_f_1399_9453)">
<circle cx="553.888" cy="565.112" r="5.29577" fill="url(#paint35_linear_1399_9453)" />
</g>
<g id="Ellipse 8904_4" filter="url(#filter16_f_1399_9453)">
<ellipse cx="565.591" cy="564.347" rx="8.48979" ry="8.16327" fill="#ED8C53" />
<ellipse cx="565.591" cy="564.347" rx="8.48979" ry="8.16327" fill="url(#paint36_linear_1399_9453)" fill-opacity="0.2" />
</g>
<g id="Vector 62_4" filter="url(#filter17_f_1399_9453)">
<path d="M557.155 561.394C554.661 564.702 550.544 566.877 548.704 566.182C550.451 573.168 554.954 569.586 557.606 569.056C560.986 568.38 562.338 561.112 568.422 561.112C574.507 561.112 572.929 572.211 574.563 569.056C575.87 566.532 575.108 562.708 574.563 561.112C573.962 559.497 573.301 555.309 568.704 555.084C562.958 554.802 560.084 557.507 557.155 561.394Z" fill="url(#paint37_linear_1399_9453)" />
<path d="M557.155 561.394C554.661 564.702 550.544 566.877 548.704 566.182C550.451 573.168 554.954 569.586 557.606 569.056C560.986 568.38 562.338 561.112 568.422 561.112C574.507 561.112 572.929 572.211 574.563 569.056C575.87 566.532 575.108 562.708 574.563 561.112C573.962 559.497 573.301 555.309 568.704 555.084C562.958 554.802 560.084 557.507 557.155 561.394Z" fill="url(#paint38_linear_1399_9453)" />
<path d="M557.155 561.394C554.661 564.702 550.544 566.877 548.704 566.182C550.451 573.168 554.954 569.586 557.606 569.056C560.986 568.38 562.338 561.112 568.422 561.112C574.507 561.112 572.929 572.211 574.563 569.056C575.87 566.532 575.108 562.708 574.563 561.112C573.962 559.497 573.301 555.309 568.704 555.084C562.958 554.802 560.084 557.507 557.155 561.394Z" fill="url(#paint39_linear_1399_9453)" />
</g>
<g id="Ellipse 8905_4">
<ellipse cx="562" cy="565" rx="16" ry="16" fill="url(#paint40_linear_1399_9453)" />
<ellipse cx="562" cy="565" rx="16" ry="16" fill="url(#paint41_linear_1399_9453)" />
<ellipse cx="562" cy="565" rx="16" ry="16" fill="url(#paint42_linear_1399_9453)" />
<ellipse cx="562" cy="565" rx="16" ry="16" fill="url(#paint43_radial_1399_9453)" />
<ellipse cx="562" cy="565" rx="16" ry="16" fill="url(#paint44_radial_1399_9453)" />
</g>
</g>
<g id="cooper-dots_4">
<g id="union_4">
<path d="M556.667 558.333C556.667 559.07 556.07 559.667 555.333 559.667C554.597 559.667 554 559.07 554 558.333C554 557.597 554.597 557 555.333 557C556.07 557 556.667 557.597 556.667 558.333Z" fill="white" />
<path d="M560.667 562.334C560.667 563.07 560.07 563.667 559.333 563.667C558.597 563.667 558 563.07 558 562.334C558 561.598 558.597 561.001 559.333 561.001C560.07 561.001 560.667 561.598 560.667 562.334Z" fill="white" />
<path d="M560.667 567.667C560.667 568.403 560.07 569 559.333 569C558.597 569 558 568.403 558 567.667C558 566.93 558.597 566.334 559.333 566.334C560.07 566.334 560.667 566.93 560.667 567.667Z" fill="white" />
<path d="M556 563C556 563.368 555.702 563.666 555.333 563.666C554.965 563.666 554.667 563.368 554.667 563C554.667 562.631 554.965 562.333 555.333 562.333C555.702 562.333 556 562.631 556 563Z" fill="white" fill-opacity="0.1" />
<path d="M564 559C563.632 559 563.334 558.702 563.334 558.334C563.334 557.966 563.632 557.667 564 557.667C564.369 557.667 564.667 557.966 564.667 558.334C564.667 558.702 564.369 559 564 559Z" fill="white" fill-opacity="0.1" />
<path d="M569.333 563C569.333 563.368 569.035 563.666 568.667 563.666C568.298 563.666 568 563.368 568 563C568 562.631 568.298 562.333 568.667 562.333C569.035 562.333 569.333 562.631 569.333 563Z" fill="white" fill-opacity="0.5" />
<path d="M564 572.334C563.632 572.334 563.334 572.035 563.334 571.667C563.334 571.299 563.632 571 564 571C564.369 571 564.667 571.299 564.667 571.667C564.667 572.035 564.369 572.334 564 572.334Z" fill="white" fill-opacity="0.1" />
<path d="M556.667 571.667C556.667 572.403 556.07 573 555.333 573C554.597 573 554 572.403 554 571.667C554 570.93 554.597 570.333 555.333 570.333C556.07 570.333 556.667 570.93 556.667 571.667Z" fill="white" />
<path d="M556 567C556 567.368 555.702 567.667 555.334 567.667C554.965 567.667 554.667 567.368 554.667 567C554.667 566.632 554.965 566.333 555.334 566.333C555.702 566.333 556 566.632 556 567Z" fill="white" fill-opacity="0.5" />
<path d="M569.333 567C569.333 567.368 569.035 567.667 568.667 567.667C568.298 567.667 568 567.368 568 567C568 566.632 568.298 566.334 568.667 566.334C569.035 566.334 569.333 566.632 569.333 567Z" fill="white" fill-opacity="0.1" />
<path d="M560 572.334C559.632 572.334 559.333 572.035 559.333 571.667C559.333 571.299 559.632 571 560 571C560.368 571 560.667 571.299 560.667 571.667C560.667 572.035 560.368 572.334 560 572.334Z" fill="white" fill-opacity="0.1" />
<path d="M560 559C559.632 559 559.333 558.702 559.333 558.334C559.333 557.966 559.632 557.667 560 557.667C560.368 557.667 560.667 557.966 560.667 558.334C560.667 558.702 560.368 559 560 559Z" fill="white" fill-opacity="0.1" />
<path d="M570 558.333C570 559.07 569.403 559.667 568.666 559.667C567.93 559.667 567.333 559.07 567.333 558.333C567.333 557.597 567.93 557 568.666 557C569.403 557 570 557.597 570 558.333Z" fill="white" />
<path d="M566 562.334C566 563.07 565.403 563.667 564.666 563.667C563.93 563.667 563.333 563.07 563.333 562.334C563.333 561.598 563.93 561.001 564.666 561.001C565.403 561.001 566 561.598 566 562.334Z" fill="white" />
<path d="M566 567.667C566 568.403 565.403 569 564.666 569C563.93 569 563.333 568.403 563.333 567.667C563.333 566.93 563.93 566.333 564.666 566.333C565.403 566.333 566 566.93 566 567.667Z" fill="white" />
<path d="M570 571.667C570 572.403 569.403 573 568.666 573C567.93 573 567.333 572.403 567.333 571.667C567.333 570.93 567.93 570.333 568.666 570.333C569.403 570.333 570 570.93 570 571.667Z" fill="white" />
</g>
</g>
<g id="indicator_7">
<mask id="path-63-outside-8_1399_9453" maskUnits="userSpaceOnUse" x="568" y="547" width="12" height="12" fill="black">
<rect fill="white" x="568" y="547" width="12" height="12" />
<path d="M570 553C570 550.791 571.791 549 574 549C576.209 549 578 550.791 578 553C578 555.209 576.209 557 574 557C571.791 557 570 555.209 570 553Z" />
</mask>
<path d="M570 553M578 553M578 553M570 553M574 549M578 553M574 557M570 553M574 557V555.5C572.619 555.5 571.5 554.381 571.5 553H570H568.5C568.5 556.038 570.962 558.5 574 558.5V557ZM578 553H576.5C576.5 554.381 575.381 555.5 574 555.5V557V558.5C577.038 558.5 579.5 556.038 579.5 553H578ZM574 549V550.5C575.381 550.5 576.5 551.619 576.5 553H578H579.5C579.5 549.962 577.038 547.5 574 547.5V549ZM574 549V547.5C570.962 547.5 568.5 549.962 568.5 553H570H571.5C571.5 551.619 572.619 550.5 574 550.5V549Z" fill="black" mask="url(#path-63-outside-8_1399_9453)" />
<path id="indicator_8" d="M574 557C576.209 557 578 555.209 578 553C578 550.791 576.209 549 574 549C571.791 549 570 550.791 570 553C570 555.209 571.791 557 574 557Z" fill="#C87941" />
</g>
</g>
</g></svg>