<svg xmlns="http://www.w3.org/2000/svg" viewBox="383.08 457.08 35.84 35.84"><defs><radialGradient xmlns="http://www.w3.org/2000/svg" id="paint55_radial_1399_9453" cx="0" cy="0" r="1" gradientUnits="userSpaceOnUse" gradientTransform="translate(404.598 468.751) rotate(115.504) scale(22.8674 25.2615)">
<stop stop-color="white" stop-opacity="0" />
<stop offset="0.614697" stop-color="white" stop-opacity="0" />
<stop offset="1" stop-color="white" />
</radialGradient>
<linearGradient xmlns="http://www.w3.org/2000/svg" id="paint52_linear_1399_9453" x1="401" y1="475" x2="401" y2="491" gradientUnits="userSpaceOnUse">
<stop stop-color="#D9D9D9" stop-opacity="0" />
<stop offset="1" stop-color="#9F7260" />
</linearGradient>
<radialGradient xmlns="http://www.w3.org/2000/svg" id="paint46_radial_1399_9453" cx="0" cy="0" r="1" gradientUnits="userSpaceOnUse" gradientTransform="translate(401 475) rotate(90) scale(16)">
<stop stop-color="white" />
<stop offset="1" stop-color="#F3C79B" />
</radialGradient>
<linearGradient xmlns="http://www.w3.org/2000/svg" id="paint51_linear_1399_9453" x1="397.876" y1="470.36" x2="398.917" y2="471.402" gradientUnits="userSpaceOnUse">
<stop stop-color="white" stop-opacity="0.4" />
<stop offset="1" stop-color="white" stop-opacity="0" />
</linearGradient>
<linearGradient xmlns="http://www.w3.org/2000/svg" id="paint54_linear_1399_9453" x1="408" y1="467" x2="390.183" y2="466.38" gradientUnits="userSpaceOnUse">
<stop stop-color="#D9D9D9" stop-opacity="0" />
<stop offset="1" stop-color="#3D16B2" stop-opacity="0.3" />
</linearGradient>
<filter xmlns="http://www.w3.org/2000/svg" id="filter19_df_1399_9453" x="381.45" y="455.45" width="39.1006" height="39.1006" filterUnits="userSpaceOnUse" color-interpolation-filters="sRGB">
<feFlood flood-opacity="0" result="BackgroundImageFix" />
<feColorMatrix in="SourceAlpha" type="matrix" values="0 0 0 0 0 0 0 0 0 0 0 0 0 0 0 0 0 0 127 0" result="hardAlpha" />
<feOffset />
<feGaussianBlur stdDeviation="1.77515" />
<feComposite in2="hardAlpha" operator="out" />
<feColorMatrix type="matrix" values="0 0 0 0 0.75311 0 0 0 0 0.672682 0 0 0 0 0.926664 0 0 0 1 0" />
<feBlend mode="normal" in2="BackgroundImageFix" result="effect1_dropShadow_1399_9453" />
<feBlend mode="normal" in="SourceGraphic" in2="effect1_dropShadow_1399_9453" result="shape" />
<feGaussianBlur stdDeviation="0.0295858" result="effect2_foregroundBlur_1399_9453" />
</filter>
<linearGradient xmlns="http://www.w3.org/2000/svg" id="paint47_linear_1399_9453" x1="391.479" y1="470.38" x2="392.888" y2="480.408" gradientUnits="userSpaceOnUse">
<stop stop-color="#FBC4E6" />
<stop offset="0.892678" stop-color="#FFD49B" />
</linearGradient>
<radialGradient xmlns="http://www.w3.org/2000/svg" id="paint56_radial_1399_9453" cx="0" cy="0" r="1" gradientUnits="userSpaceOnUse" gradientTransform="translate(396.172 461.083) rotate(-18.7527) scale(16.1971 17.8929)">
<stop stop-color="white" />
<stop offset="0.614596" stop-color="white" stop-opacity="0" />
<stop offset="0.614697" stop-color="white" stop-opacity="0" />
</radialGradient>
<linearGradient xmlns="http://www.w3.org/2000/svg" id="paint50_linear_1399_9453" x1="395.648" y1="473.985" x2="399.76" y2="478.831" gradientUnits="userSpaceOnUse">
<stop stop-color="#FFB0B0" />
<stop offset="1" stop-color="#EC603E" stop-opacity="0.4" />
</linearGradient>
<linearGradient xmlns="http://www.w3.org/2000/svg" id="paint49_linear_1399_9453" x1="414.296" y1="470.661" x2="402.915" y2="467.338" gradientUnits="userSpaceOnUse">
<stop stop-color="#233288" />
<stop offset="1" stop-color="#CD9579" />
</linearGradient>
<linearGradient xmlns="http://www.w3.org/2000/svg" id="paint48_linear_1399_9453" x1="404.109" y1="474.738" x2="404.756" y2="482.497" gradientUnits="userSpaceOnUse">
<stop stop-color="#5A12BF" />
<stop offset="1" stop-color="white" />
</linearGradient>
<filter xmlns="http://www.w3.org/2000/svg" id="filter22_f_1399_9453" x="385.789" y="463.148" width="30.412" height="19.211" filterUnits="userSpaceOnUse" color-interpolation-filters="sRGB">
<feFlood flood-opacity="0" result="BackgroundImageFix" />
<feBlend mode="normal" in="SourceGraphic" in2="BackgroundImageFix" result="shape" />
<feGaussianBlur stdDeviation="0.957746" result="effect1_foregroundBlur_1399_9453" />
</filter>
<linearGradient xmlns="http://www.w3.org/2000/svg" id="paint53_linear_1399_9453" x1="402" y1="466" x2="405" y2="484" gradientUnits="userSpaceOnUse">
<stop stop-color="#EBC7C5" stop-opacity="0" />
<stop offset="1" stop-color="#6F3632" />
</linearGradient>
<filter xmlns="http://www.w3.org/2000/svg" id="filter20_f_1399_9453" x="386.535" y="468.76" width="12.704" height="12.7042" filterUnits="userSpaceOnUse" color-interpolation-filters="sRGB">
<feFlood flood-opacity="0" result="BackgroundImageFix" />
<feBlend mode="normal" in="SourceGraphic" in2="BackgroundImageFix" result="shape" />
<feGaussianBlur stdDeviation="0.140845" result="effect1_foregroundBlur_1399_9453" />
</filter>
<filter xmlns="http://www.w3.org/2000/svg" id="filter21_f_1399_9453" x="392.933" y="463.015" width="23.3175" height="22.6646" filterUnits="userSpaceOnUse" color-interpolation-filters="sRGB">
<feFlood flood-opacity="0" result="BackgroundImageFix" />
<feBlend mode="normal" in="SourceGraphic" in2="BackgroundImageFix" result="shape" />
<feGaussianBlur stdDeviation="1.58451" result="effect1_foregroundBlur_1399_9453" />
</filter>
</defs><g xmlns="http://www.w3.org/2000/svg" id="Sphere_5" filter="url(#filter19_df_1399_9453)">
<ellipse id="Ellipse 8902_5" cx="401" cy="475" rx="16" ry="16" fill="url(#paint46_radial_1399_9453)" />
<g id="Ellipse 8903_5" filter="url(#filter20_f_1399_9453)">
<circle cx="392.888" cy="475.112" r="5.29577" fill="url(#paint47_linear_1399_9453)" />
</g>
<g id="Ellipse 8904_5" filter="url(#filter21_f_1399_9453)">
<ellipse cx="404.591" cy="474.347" rx="8.48979" ry="8.16327" fill="#ED8C53" />
<ellipse cx="404.591" cy="474.347" rx="8.48979" ry="8.16327" fill="url(#paint48_linear_1399_9453)" fill-opacity="0.2" />
</g>
<g id="Vector 62_5" filter="url(#filter22_f_1399_9453)">
<path d="M396.155 471.394C393.661 474.702 389.544 476.877 387.704 476.182C389.451 483.168 393.954 479.586 396.606 479.056C399.986 478.38 401.338 471.112 407.422 471.112C413.507 471.112 411.929 482.211 413.563 479.056C414.87 476.532 414.108 472.708 413.563 471.112C412.962 469.497 412.301 465.309 407.704 465.084C401.958 464.802 399.084 467.507 396.155 471.394Z" fill="url(#paint49_linear_1399_9453)" />
<path d="M396.155 471.394C393.661 474.702 389.544 476.877 387.704 476.182C389.451 483.168 393.954 479.586 396.606 479.056C399.986 478.38 401.338 471.112 407.422 471.112C413.507 471.112 411.929 482.211 413.563 479.056C414.87 476.532 414.108 472.708 413.563 471.112C412.962 469.497 412.301 465.309 407.704 465.084C401.958 464.802 399.084 467.507 396.155 471.394Z" fill="url(#paint50_linear_1399_9453)" />
<path d="M396.155 471.394C393.661 474.702 389.544 476.877 387.704 476.182C389.451 483.168 393.954 479.586 396.606 479.056C399.986 478.38 401.338 471.112 407.422 471.112C413.507 471.112 411.929 482.211 413.563 479.056C414.87 476.532 414.108 472.708 413.563 471.112C412.962 469.497 412.301 465.309 407.704 465.084C401.958 464.802 399.084 467.507 396.155 471.394Z" fill="url(#paint51_linear_1399_9453)" />
</g>
<g id="Ellipse 8905_5">
<ellipse cx="401" cy="475" rx="16" ry="16" fill="url(#paint52_linear_1399_9453)" />
<ellipse cx="401" cy="475" rx="16" ry="16" fill="url(#paint53_linear_1399_9453)" />
<ellipse cx="401" cy="475" rx="16" ry="16" fill="url(#paint54_linear_1399_9453)" />
<ellipse cx="401" cy="475" rx="16" ry="16" fill="url(#paint55_radial_1399_9453)" />
<ellipse cx="401" cy="475" rx="16" ry="16" fill="url(#paint56_radial_1399_9453)" />
</g>
</g></svg>